<?xml version="1.0" encoding="utf-8" standalone="no"?>
<!DOCTYPE svg PUBLIC "-//W3C//DTD SVG 1.1//EN"
  "http://www.w3.org/Graphics/SVG/1.1/DTD/svg11.dtd">
<svg xmlns:xlink="http://www.w3.org/1999/xlink" width="504pt" height="504pt" viewBox="0 0 504 504" xmlns="http://www.w3.org/2000/svg" version="1.1">
 <metadata>
  <rdf:RDF xmlns:dc="http://purl.org/dc/elements/1.1/" xmlns:cc="http://creativecommons.org/ns#" xmlns:rdf="http://www.w3.org/1999/02/22-rdf-syntax-ns#">
   <cc:Work>
    <dc:type rdf:resource="http://purl.org/dc/dcmitype/StillImage"/>
    <dc:date>2025-05-13T16:41:11.622245</dc:date>
    <dc:format>image/svg+xml</dc:format>
    <dc:creator>
     <cc:Agent>
      <dc:title>Matplotlib v3.8.4, https://matplotlib.org/</dc:title>
     </cc:Agent>
    </dc:creator>
   </cc:Work>
  </rdf:RDF>
 </metadata>
 <defs>
  <style type="text/css">*{stroke-linejoin: round; stroke-linecap: butt}</style>
 </defs>
 <g id="figure_1">
  <g id="patch_1">
   <path d="M 0 504 
L 504 504 
L 504 0 
L 0 0 
z
" style="fill: #ffffff"/>
  </g>
  <g id="axes_1">
   <g id="patch_2">
    <path d="M 339.114348 110.427889 
C 318.584685 98.575082 295.961856 90.788979 272.486017 87.496404 
C 249.010178 84.203829 225.118285 85.466067 202.120063 91.213923 
C 179.121841 96.96178 157.445356 107.088269 138.278887 121.038271 
C 119.112418 134.988272 102.812711 152.502133 90.273296 172.619766 
C 77.73388 192.737398 69.188153 215.084352 65.104581 238.435594 
C 61.021009 261.786836 61.475599 285.707729 66.443432 308.886959 
C 71.411265 332.06619 80.799873 354.072321 94.094585 373.699004 
C 107.389298 393.325688 124.342659 410.207611 144.025306 423.419327 
C 163.707954 436.631044 185.753534 445.926644 208.953535 450.796554 
C 232.153537 455.666464 256.076136 456.02004 279.409926 451.837899 
C 302.743717 447.655758 325.054385 439.015744 345.118889 426.39149 
C 365.183392 413.767236 382.628268 397.393719 396.497211 378.168514 
C 410.366155 358.94331 420.401021 337.224257 426.051712 314.201969 
C 431.702403 291.17968 432.863742 267.282671 429.472065 243.820944 
C 426.080388 220.359218 418.198826 197.769469 406.259435 177.29004 
C 394.320044 156.810611 378.545053 138.822686 359.799228 124.312341 
L 286.387656 219.152298 
C 292.948695 224.230919 298.469942 230.526693 302.648728 237.694493 
C 306.827515 244.862293 309.586062 252.768705 310.773149 260.98031 
C 311.960236 269.191914 311.553767 277.555867 309.576025 285.613668 
C 307.598284 293.671469 304.08608 301.273138 299.23195 308.001959 
C 294.37782 314.730781 288.272113 320.461512 281.249537 324.880001 
C 274.226961 329.29849 266.418227 332.322495 258.2514 333.786244 
C 250.084574 335.249993 241.711664 335.126241 233.591664 333.421773 
C 225.471663 331.717305 217.75571 328.463845 210.866783 323.839744 
C 203.977857 319.215643 198.04418 313.30697 193.391031 306.437631 
C 188.737882 299.568292 185.451869 291.866146 183.713127 283.753415 
C 181.974386 275.640684 181.815279 267.268372 183.24453 259.095437 
C 184.67378 250.922502 187.664784 243.101068 192.05358 236.059897 
C 196.442375 229.018726 202.147272 222.888874 208.855537 218.006374 
C 215.563801 213.123873 223.15057 209.579602 231.199948 207.567852 
C 239.249326 205.556103 247.611488 205.114319 255.828032 206.266721 
C 264.044576 207.419122 271.962566 210.144258 279.147948 214.29274 
z
" style="fill: #2ca02c; stroke: #ffffff; stroke-width: 2; stroke-linejoin: miter"/>
   </g>
   <g id="patch_3">
    <path d="M 370.082532 108.992404 
C 366.796325 106.448691 363.425119 104.016725 359.974683 101.700666 
C 356.524248 99.384607 352.996551 97.185778 349.397631 95.107941 
L 289.431244 198.9728 
C 290.690867 199.700043 291.92556 200.469633 293.133213 201.280254 
C 294.340865 202.090874 295.520787 202.942063 296.67096 203.832362 
z
" style="fill: #9467bd; stroke: #ffffff; stroke-width: 2; stroke-linejoin: miter"/>
   </g>
   <g id="matplotlib.axis_1"/>
   <g id="matplotlib.axis_2"/>
   <g id="text_1">
    <!-- No -->
    <g transform="translate(113.931221 442.326451) scale(0.13 -0.13)">
     <defs>
      <path id="DejaVuSans-Bold-4e" d="M 588 4666 
L 1931 4666 
L 3628 1466 
L 3628 4666 
L 4769 4666 
L 4769 0 
L 3425 0 
L 1728 3200 
L 1728 0 
L 588 0 
L 588 4666 
z
" transform="scale(0.015625)"/>
      <path id="DejaVuSans-Bold-6f" d="M 2203 2784 
Q 1831 2784 1636 2517 
Q 1441 2250 1441 1747 
Q 1441 1244 1636 976 
Q 1831 709 2203 709 
Q 2569 709 2762 976 
Q 2956 1244 2956 1747 
Q 2956 2250 2762 2517 
Q 2569 2784 2203 2784 
z
M 2203 3584 
Q 3106 3584 3614 3096 
Q 4122 2609 4122 1747 
Q 4122 884 3614 396 
Q 3106 -91 2203 -91 
Q 1297 -91 786 396 
Q 275 884 275 1747 
Q 275 2609 786 3096 
Q 1297 3584 2203 3584 
z
" transform="scale(0.015625)"/>
     </defs>
     <use xlink:href="#DejaVuSans-Bold-4e"/>
     <use xlink:href="#DejaVuSans-Bold-6f" x="83.691406"/>
    </g>
   </g>
   <g id="text_2">
    <path d="M 163.910632 365.517552 
L 163.910632 363.764584 
Q 164.493601 364.038802 165.025789 364.174896 
Q 165.560007 364.31099 166.080007 364.31099 
Q 167.17282 364.31099 167.782195 363.705677 
Q 168.39157 363.098334 168.499226 361.90599 
Q 168.068601 362.222865 167.57907 362.381302 
Q 167.089539 362.53974 166.518757 362.53974 
Q 165.064382 362.53974 164.172664 361.692709 
Q 163.280945 360.845677 163.280945 359.462396 
Q 163.280945 357.930834 164.274226 357.010677 
Q 165.267507 356.090521 166.937195 356.090521 
Q 168.791726 356.090521 169.807351 357.341771 
Q 170.822976 358.59099 170.822976 360.876146 
Q 170.822976 363.226302 169.634695 364.568959 
Q 168.448445 365.911615 166.378601 365.911615 
Q 165.712351 365.911615 165.102976 365.812084 
Q 164.493601 365.714584 163.910632 365.517552 
z
M 166.925007 360.953334 
Q 167.566882 360.953334 167.889851 360.538959 
Q 168.21282 360.122552 168.21282 359.28974 
Q 168.21282 358.465052 167.889851 358.046615 
Q 167.566882 357.626146 166.925007 357.626146 
Q 166.283132 357.626146 165.960164 358.046615 
Q 165.637195 358.465052 165.637195 359.28974 
Q 165.637195 360.122552 165.960164 360.538959 
Q 166.283132 360.953334 166.925007 360.953334 
z
M 172.523386 356.248959 
L 179.665261 356.248959 
L 179.665261 357.626146 
L 175.970418 365.726771 
L 173.589793 365.726771 
L 177.087605 358.046615 
L 172.523386 358.046615 
L 172.523386 356.248959 
z
M 182.025828 363.27099 
L 184.310984 363.27099 
L 184.310984 365.726771 
L 182.025828 365.726771 
L 182.025828 363.27099 
z
M 190.163523 361.485521 
Q 189.478992 361.485521 189.109304 361.861302 
Q 188.741648 362.235052 188.741648 362.933802 
Q 188.741648 363.632552 189.109304 364.004271 
Q 189.478992 364.373959 190.163523 364.373959 
Q 190.843992 364.373959 191.205554 364.004271 
Q 191.567117 363.632552 191.567117 362.933802 
Q 191.567117 362.228959 191.205554 361.85724 
Q 190.843992 361.485521 190.163523 361.485521 
z
M 188.380086 360.681146 
Q 187.516804 360.419115 187.078054 359.880834 
Q 186.641336 359.340521 186.641336 358.534115 
Q 186.641336 357.335677 187.535086 356.708021 
Q 188.430867 356.078334 190.163523 356.078334 
Q 191.883992 356.078334 192.777742 356.703959 
Q 193.673523 357.329584 193.673523 358.534115 
Q 193.673523 359.340521 193.232742 359.880834 
Q 192.791961 360.419115 191.928679 360.681146 
Q 192.893523 360.94724 193.385086 361.546459 
Q 193.876648 362.145677 193.876648 363.05974 
Q 193.876648 364.469427 192.940242 365.190521 
Q 192.003836 365.911615 190.163523 365.911615 
Q 188.317117 365.911615 187.374617 365.190521 
Q 186.432117 364.469427 186.432117 363.05974 
Q 186.432117 362.145677 186.923679 361.546459 
Q 187.415242 360.94724 188.380086 360.681146 
z
M 188.950867 358.781927 
Q 188.950867 359.346615 189.265711 359.651302 
Q 189.580554 359.95599 190.163523 359.95599 
Q 190.734304 359.95599 191.045086 359.651302 
Q 191.357898 359.346615 191.357898 358.781927 
Q 191.357898 358.21724 191.045086 357.916615 
Q 190.734304 357.613959 190.163523 357.613959 
Q 189.580554 357.613959 189.265711 357.918646 
Q 188.950867 358.223334 188.950867 358.781927 
z
M 204.756277 361.816615 
Q 204.307371 361.816615 204.059558 362.206615 
Q 203.811746 362.596615 203.811746 363.321771 
Q 203.811746 364.05099 204.055496 364.44099 
Q 204.299246 364.83099 204.756277 364.83099 
Q 205.213308 364.83099 205.455027 364.44099 
Q 205.696746 364.05099 205.696746 363.321771 
Q 205.696746 362.596615 205.450964 362.206615 
Q 205.207214 361.816615 204.756277 361.816615 
z
M 204.756277 360.750209 
Q 205.938464 360.750209 206.616902 361.436771 
Q 207.295339 362.121302 207.295339 363.321771 
Q 207.295339 364.520209 206.616902 365.216927 
Q 205.938464 365.911615 204.756277 365.911615 
Q 203.576121 365.911615 202.893621 365.216927 
Q 202.211121 364.520209 202.211121 363.321771 
Q 202.211121 362.127396 202.893621 361.438802 
Q 203.576121 360.750209 204.756277 360.750209 
z
M 198.936746 365.911615 
L 197.533152 365.911615 
L 203.456277 356.078334 
L 204.865964 356.078334 
L 198.936746 365.911615 
z
M 197.634714 356.078334 
Q 198.814871 356.078334 199.491277 356.766927 
Q 200.167683 357.455521 200.167683 358.65599 
Q 200.167683 359.854427 199.491277 360.547084 
Q 198.814871 361.23974 197.634714 361.23974 
Q 196.454558 361.23974 195.778152 360.547084 
Q 195.101746 359.854427 195.101746 358.65599 
Q 195.101746 357.455521 195.778152 356.766927 
Q 196.454558 356.078334 197.634714 356.078334 
z
M 197.634714 357.14474 
Q 197.177683 357.14474 196.929871 357.538802 
Q 196.682058 357.930834 196.682058 358.65599 
Q 196.682058 359.385209 196.929871 359.783334 
Q 197.177683 360.179427 197.634714 360.179427 
Q 198.091746 360.179427 198.335496 359.783334 
Q 198.581277 359.385209 198.581277 358.65599 
Q 198.581277 357.930834 198.333464 357.538802 
Q 198.085652 357.14474 197.634714 357.14474 
z
" style="fill: #ffffff; stroke: #000000; stroke-width: 3"/>
    <path d="M 163.910632 365.517552 
L 163.910632 363.764584 
Q 164.493601 364.038802 165.025789 364.174896 
Q 165.560007 364.31099 166.080007 364.31099 
Q 167.17282 364.31099 167.782195 363.705677 
Q 168.39157 363.098334 168.499226 361.90599 
Q 168.068601 362.222865 167.57907 362.381302 
Q 167.089539 362.53974 166.518757 362.53974 
Q 165.064382 362.53974 164.172664 361.692709 
Q 163.280945 360.845677 163.280945 359.462396 
Q 163.280945 357.930834 164.274226 357.010677 
Q 165.267507 356.090521 166.937195 356.090521 
Q 168.791726 356.090521 169.807351 357.341771 
Q 170.822976 358.59099 170.822976 360.876146 
Q 170.822976 363.226302 169.634695 364.568959 
Q 168.448445 365.911615 166.378601 365.911615 
Q 165.712351 365.911615 165.102976 365.812084 
Q 164.493601 365.714584 163.910632 365.517552 
z
M 166.925007 360.953334 
Q 167.566882 360.953334 167.889851 360.538959 
Q 168.21282 360.122552 168.21282 359.28974 
Q 168.21282 358.465052 167.889851 358.046615 
Q 167.566882 357.626146 166.925007 357.626146 
Q 166.283132 357.626146 165.960164 358.046615 
Q 165.637195 358.465052 165.637195 359.28974 
Q 165.637195 360.122552 165.960164 360.538959 
Q 166.283132 360.953334 166.925007 360.953334 
z
M 172.523386 356.248959 
L 179.665261 356.248959 
L 179.665261 357.626146 
L 175.970418 365.726771 
L 173.589793 365.726771 
L 177.087605 358.046615 
L 172.523386 358.046615 
L 172.523386 356.248959 
z
M 182.025828 363.27099 
L 184.310984 363.27099 
L 184.310984 365.726771 
L 182.025828 365.726771 
L 182.025828 363.27099 
z
M 190.163523 361.485521 
Q 189.478992 361.485521 189.109304 361.861302 
Q 188.741648 362.235052 188.741648 362.933802 
Q 188.741648 363.632552 189.109304 364.004271 
Q 189.478992 364.373959 190.163523 364.373959 
Q 190.843992 364.373959 191.205554 364.004271 
Q 191.567117 363.632552 191.567117 362.933802 
Q 191.567117 362.228959 191.205554 361.85724 
Q 190.843992 361.485521 190.163523 361.485521 
z
M 188.380086 360.681146 
Q 187.516804 360.419115 187.078054 359.880834 
Q 186.641336 359.340521 186.641336 358.534115 
Q 186.641336 357.335677 187.535086 356.708021 
Q 188.430867 356.078334 190.163523 356.078334 
Q 191.883992 356.078334 192.777742 356.703959 
Q 193.673523 357.329584 193.673523 358.534115 
Q 193.673523 359.340521 193.232742 359.880834 
Q 192.791961 360.419115 191.928679 360.681146 
Q 192.893523 360.94724 193.385086 361.546459 
Q 193.876648 362.145677 193.876648 363.05974 
Q 193.876648 364.469427 192.940242 365.190521 
Q 192.003836 365.911615 190.163523 365.911615 
Q 188.317117 365.911615 187.374617 365.190521 
Q 186.432117 364.469427 186.432117 363.05974 
Q 186.432117 362.145677 186.923679 361.546459 
Q 187.415242 360.94724 188.380086 360.681146 
z
M 188.950867 358.781927 
Q 188.950867 359.346615 189.265711 359.651302 
Q 189.580554 359.95599 190.163523 359.95599 
Q 190.734304 359.95599 191.045086 359.651302 
Q 191.357898 359.346615 191.357898 358.781927 
Q 191.357898 358.21724 191.045086 357.916615 
Q 190.734304 357.613959 190.163523 357.613959 
Q 189.580554 357.613959 189.265711 357.918646 
Q 188.950867 358.223334 188.950867 358.781927 
z
M 204.756277 361.816615 
Q 204.307371 361.816615 204.059558 362.206615 
Q 203.811746 362.596615 203.811746 363.321771 
Q 203.811746 364.05099 204.055496 364.44099 
Q 204.299246 364.83099 204.756277 364.83099 
Q 205.213308 364.83099 205.455027 364.44099 
Q 205.696746 364.05099 205.696746 363.321771 
Q 205.696746 362.596615 205.450964 362.206615 
Q 205.207214 361.816615 204.756277 361.816615 
z
M 204.756277 360.750209 
Q 205.938464 360.750209 206.616902 361.436771 
Q 207.295339 362.121302 207.295339 363.321771 
Q 207.295339 364.520209 206.616902 365.216927 
Q 205.938464 365.911615 204.756277 365.911615 
Q 203.576121 365.911615 202.893621 365.216927 
Q 202.211121 364.520209 202.211121 363.321771 
Q 202.211121 362.127396 202.893621 361.438802 
Q 203.576121 360.750209 204.756277 360.750209 
z
M 198.936746 365.911615 
L 197.533152 365.911615 
L 203.456277 356.078334 
L 204.865964 356.078334 
L 198.936746 365.911615 
z
M 197.634714 356.078334 
Q 198.814871 356.078334 199.491277 356.766927 
Q 200.167683 357.455521 200.167683 358.65599 
Q 200.167683 359.854427 199.491277 360.547084 
Q 198.814871 361.23974 197.634714 361.23974 
Q 196.454558 361.23974 195.778152 360.547084 
Q 195.101746 359.854427 195.101746 358.65599 
Q 195.101746 357.455521 195.778152 356.766927 
Q 196.454558 356.078334 197.634714 356.078334 
z
M 197.634714 357.14474 
Q 197.177683 357.14474 196.929871 357.538802 
Q 196.682058 357.930834 196.682058 358.65599 
Q 196.682058 359.385209 196.929871 359.783334 
Q 197.177683 360.179427 197.634714 360.179427 
Q 198.091746 360.179427 198.335496 359.783334 
Q 198.581277 359.385209 198.581277 358.65599 
Q 198.581277 357.930834 198.333464 357.538802 
Q 198.085652 357.14474 197.634714 357.14474 
z
" style="fill: #ffffff"/>
   </g>
   <g id="text_3">
    <!-- Sí -->
    <g transform="translate(370.257986 89.967917) scale(0.13 -0.13)">
     <defs>
      <path id="DejaVuSans-Bold-53" d="M 3834 4519 
L 3834 3531 
Q 3450 3703 3084 3790 
Q 2719 3878 2394 3878 
Q 1963 3878 1756 3759 
Q 1550 3641 1550 3391 
Q 1550 3203 1689 3098 
Q 1828 2994 2194 2919 
L 2706 2816 
Q 3484 2659 3812 2340 
Q 4141 2022 4141 1434 
Q 4141 663 3683 286 
Q 3225 -91 2284 -91 
Q 1841 -91 1394 -6 
Q 947 78 500 244 
L 500 1259 
Q 947 1022 1364 901 
Q 1781 781 2169 781 
Q 2563 781 2772 912 
Q 2981 1044 2981 1288 
Q 2981 1506 2839 1625 
Q 2697 1744 2272 1838 
L 1806 1941 
Q 1106 2091 782 2419 
Q 459 2747 459 3303 
Q 459 4000 909 4375 
Q 1359 4750 2203 4750 
Q 2588 4750 2994 4692 
Q 3400 4634 3834 4519 
z
" transform="scale(0.015625)"/>
      <path id="DejaVuSans-Bold-ed" d="M 538 3500 
L 1656 3500 
L 1656 0 
L 538 0 
L 538 3500 
z
M 1590 5119 
L 2474 5119 
L 1321 3944 
L 709 3944 
L 1590 5119 
z
" transform="scale(0.015625)"/>
     </defs>
     <use xlink:href="#DejaVuSans-Bold-53"/>
     <use xlink:href="#DejaVuSans-Bold-ed" x="72.021484"/>
    </g>
   </g>
   <g id="text_4">
    <path d="M 304.559752 164.771975 
L 308.729908 164.771975 
L 308.729908 166.5676 
L 301.841939 166.5676 
L 301.841939 164.771975 
L 305.301158 161.716975 
Q 305.766314 161.298537 305.987721 160.898381 
Q 306.209127 160.498225 306.209127 160.0676 
Q 306.209127 159.40135 305.762252 158.9951 
Q 305.315377 158.58885 304.571939 158.58885 
Q 304.001158 158.58885 303.320689 158.8326 
Q 302.642252 159.07635 301.868346 159.559787 
L 301.868346 157.477756 
Q 302.693033 157.205568 303.499439 157.063381 
Q 304.305846 156.919162 305.079752 156.919162 
Q 306.781939 156.919162 307.724439 157.668693 
Q 308.666939 158.416193 308.666939 159.756818 
Q 308.666939 160.530725 308.266783 161.201037 
Q 307.866627 161.869318 306.584908 162.994631 
L 304.559752 164.771975 
z
M 311.185943 164.111818 
L 313.471099 164.111818 
L 313.471099 166.5676 
L 311.185943 166.5676 
L 311.185943 164.111818 
z
M 318.543639 164.771975 
L 322.713795 164.771975 
L 322.713795 166.5676 
L 315.825826 166.5676 
L 315.825826 164.771975 
L 319.285045 161.716975 
Q 319.750201 161.298537 319.971607 160.898381 
Q 320.193014 160.498225 320.193014 160.0676 
Q 320.193014 159.40135 319.746139 158.9951 
Q 319.299264 158.58885 318.555826 158.58885 
Q 317.985045 158.58885 317.304576 158.8326 
Q 316.626139 159.07635 315.852232 159.559787 
L 315.852232 157.477756 
Q 316.67692 157.205568 317.483326 157.063381 
Q 318.289732 156.919162 319.063639 156.919162 
Q 320.765826 156.919162 321.708326 157.668693 
Q 322.650826 158.416193 322.650826 159.756818 
Q 322.650826 160.530725 322.25067 161.201037 
Q 321.850514 161.869318 320.568795 162.994631 
L 318.543639 164.771975 
z
M 333.916392 162.657443 
Q 333.467486 162.657443 333.219674 163.047443 
Q 332.971861 163.437443 332.971861 164.1626 
Q 332.971861 164.891818 333.215611 165.281818 
Q 333.459361 165.671818 333.916392 165.671818 
Q 334.373424 165.671818 334.615142 165.281818 
Q 334.856861 164.891818 334.856861 164.1626 
Q 334.856861 163.437443 334.61108 163.047443 
Q 334.36733 162.657443 333.916392 162.657443 
z
M 333.916392 161.591037 
Q 335.09858 161.591037 335.777017 162.2776 
Q 336.455455 162.962131 336.455455 164.1626 
Q 336.455455 165.361037 335.777017 166.057756 
Q 335.09858 166.752443 333.916392 166.752443 
Q 332.736236 166.752443 332.053736 166.057756 
Q 331.371236 165.361037 331.371236 164.1626 
Q 331.371236 162.968225 332.053736 162.279631 
Q 332.736236 161.591037 333.916392 161.591037 
z
M 328.096861 166.752443 
L 326.693267 166.752443 
L 332.616392 156.919162 
L 334.02608 156.919162 
L 328.096861 166.752443 
z
M 326.79483 156.919162 
Q 327.974986 156.919162 328.651392 157.607756 
Q 329.327799 158.29635 329.327799 159.496818 
Q 329.327799 160.695256 328.651392 161.387912 
Q 327.974986 162.080568 326.79483 162.080568 
Q 325.614674 162.080568 324.938267 161.387912 
Q 324.261861 160.695256 324.261861 159.496818 
Q 324.261861 158.29635 324.938267 157.607756 
Q 325.614674 156.919162 326.79483 156.919162 
z
M 326.79483 157.985568 
Q 326.337799 157.985568 326.089986 158.379631 
Q 325.842174 158.771662 325.842174 159.496818 
Q 325.842174 160.226037 326.089986 160.624162 
Q 326.337799 161.020256 326.79483 161.020256 
Q 327.251861 161.020256 327.495611 160.624162 
Q 327.741392 160.226037 327.741392 159.496818 
Q 327.741392 158.771662 327.49358 158.379631 
Q 327.245767 157.985568 326.79483 157.985568 
z
" style="fill: #ffffff; stroke: #000000; stroke-width: 3"/>
    <path d="M 304.559752 164.771975 
L 308.729908 164.771975 
L 308.729908 166.5676 
L 301.841939 166.5676 
L 301.841939 164.771975 
L 305.301158 161.716975 
Q 305.766314 161.298537 305.987721 160.898381 
Q 306.209127 160.498225 306.209127 160.0676 
Q 306.209127 159.40135 305.762252 158.9951 
Q 305.315377 158.58885 304.571939 158.58885 
Q 304.001158 158.58885 303.320689 158.8326 
Q 302.642252 159.07635 301.868346 159.559787 
L 301.868346 157.477756 
Q 302.693033 157.205568 303.499439 157.063381 
Q 304.305846 156.919162 305.079752 156.919162 
Q 306.781939 156.919162 307.724439 157.668693 
Q 308.666939 158.416193 308.666939 159.756818 
Q 308.666939 160.530725 308.266783 161.201037 
Q 307.866627 161.869318 306.584908 162.994631 
L 304.559752 164.771975 
z
M 311.185943 164.111818 
L 313.471099 164.111818 
L 313.471099 166.5676 
L 311.185943 166.5676 
L 311.185943 164.111818 
z
M 318.543639 164.771975 
L 322.713795 164.771975 
L 322.713795 166.5676 
L 315.825826 166.5676 
L 315.825826 164.771975 
L 319.285045 161.716975 
Q 319.750201 161.298537 319.971607 160.898381 
Q 320.193014 160.498225 320.193014 160.0676 
Q 320.193014 159.40135 319.746139 158.9951 
Q 319.299264 158.58885 318.555826 158.58885 
Q 317.985045 158.58885 317.304576 158.8326 
Q 316.626139 159.07635 315.852232 159.559787 
L 315.852232 157.477756 
Q 316.67692 157.205568 317.483326 157.063381 
Q 318.289732 156.919162 319.063639 156.919162 
Q 320.765826 156.919162 321.708326 157.668693 
Q 322.650826 158.416193 322.650826 159.756818 
Q 322.650826 160.530725 322.25067 161.201037 
Q 321.850514 161.869318 320.568795 162.994631 
L 318.543639 164.771975 
z
M 333.916392 162.657443 
Q 333.467486 162.657443 333.219674 163.047443 
Q 332.971861 163.437443 332.971861 164.1626 
Q 332.971861 164.891818 333.215611 165.281818 
Q 333.459361 165.671818 333.916392 165.671818 
Q 334.373424 165.671818 334.615142 165.281818 
Q 334.856861 164.891818 334.856861 164.1626 
Q 334.856861 163.437443 334.61108 163.047443 
Q 334.36733 162.657443 333.916392 162.657443 
z
M 333.916392 161.591037 
Q 335.09858 161.591037 335.777017 162.2776 
Q 336.455455 162.962131 336.455455 164.1626 
Q 336.455455 165.361037 335.777017 166.057756 
Q 335.09858 166.752443 333.916392 166.752443 
Q 332.736236 166.752443 332.053736 166.057756 
Q 331.371236 165.361037 331.371236 164.1626 
Q 331.371236 162.968225 332.053736 162.279631 
Q 332.736236 161.591037 333.916392 161.591037 
z
M 328.096861 166.752443 
L 326.693267 166.752443 
L 332.616392 156.919162 
L 334.02608 156.919162 
L 328.096861 166.752443 
z
M 326.79483 156.919162 
Q 327.974986 156.919162 328.651392 157.607756 
Q 329.327799 158.29635 329.327799 159.496818 
Q 329.327799 160.695256 328.651392 161.387912 
Q 327.974986 162.080568 326.79483 162.080568 
Q 325.614674 162.080568 324.938267 161.387912 
Q 324.261861 160.695256 324.261861 159.496818 
Q 324.261861 158.29635 324.938267 157.607756 
Q 325.614674 156.919162 326.79483 156.919162 
z
M 326.79483 157.985568 
Q 326.337799 157.985568 326.089986 158.379631 
Q 325.842174 158.771662 325.842174 159.496818 
Q 325.842174 160.226037 326.089986 160.624162 
Q 326.337799 161.020256 326.79483 161.020256 
Q 327.251861 161.020256 327.495611 160.624162 
Q 327.741392 160.226037 327.741392 159.496818 
Q 327.741392 158.771662 327.49358 158.379631 
Q 327.245767 157.985568 326.79483 157.985568 
z
" style="fill: #ffffff"/>
   </g>
   <g id="text_5">
    <!-- Distribución de Diabetes -->
    <g transform="translate(112.721875 25.92) scale(0.2 -0.2)">
     <defs>
      <path id="DejaVuSans-Bold-44" d="M 1791 3756 
L 1791 909 
L 2222 909 
Q 2959 909 3348 1275 
Q 3738 1641 3738 2338 
Q 3738 3031 3350 3393 
Q 2963 3756 2222 3756 
L 1791 3756 
z
M 588 4666 
L 1856 4666 
Q 2919 4666 3439 4514 
Q 3959 4363 4331 4000 
Q 4659 3684 4818 3271 
Q 4978 2859 4978 2338 
Q 4978 1809 4818 1395 
Q 4659 981 4331 666 
Q 3956 303 3431 151 
Q 2906 0 1856 0 
L 588 0 
L 588 4666 
z
" transform="scale(0.015625)"/>
      <path id="DejaVuSans-Bold-69" d="M 538 3500 
L 1656 3500 
L 1656 0 
L 538 0 
L 538 3500 
z
M 538 4863 
L 1656 4863 
L 1656 3950 
L 538 3950 
L 538 4863 
z
" transform="scale(0.015625)"/>
      <path id="DejaVuSans-Bold-73" d="M 3272 3391 
L 3272 2541 
Q 2913 2691 2578 2766 
Q 2244 2841 1947 2841 
Q 1628 2841 1473 2761 
Q 1319 2681 1319 2516 
Q 1319 2381 1436 2309 
Q 1553 2238 1856 2203 
L 2053 2175 
Q 2913 2066 3209 1816 
Q 3506 1566 3506 1031 
Q 3506 472 3093 190 
Q 2681 -91 1863 -91 
Q 1516 -91 1145 -36 
Q 775 19 384 128 
L 384 978 
Q 719 816 1070 734 
Q 1422 653 1784 653 
Q 2113 653 2278 743 
Q 2444 834 2444 1013 
Q 2444 1163 2330 1236 
Q 2216 1309 1875 1350 
L 1678 1375 
Q 931 1469 631 1722 
Q 331 1975 331 2491 
Q 331 3047 712 3315 
Q 1094 3584 1881 3584 
Q 2191 3584 2531 3537 
Q 2872 3491 3272 3391 
z
" transform="scale(0.015625)"/>
      <path id="DejaVuSans-Bold-74" d="M 1759 4494 
L 1759 3500 
L 2913 3500 
L 2913 2700 
L 1759 2700 
L 1759 1216 
Q 1759 972 1856 886 
Q 1953 800 2241 800 
L 2816 800 
L 2816 0 
L 1856 0 
Q 1194 0 917 276 
Q 641 553 641 1216 
L 641 2700 
L 84 2700 
L 84 3500 
L 641 3500 
L 641 4494 
L 1759 4494 
z
" transform="scale(0.015625)"/>
      <path id="DejaVuSans-Bold-72" d="M 3138 2547 
Q 2991 2616 2845 2648 
Q 2700 2681 2553 2681 
Q 2122 2681 1889 2404 
Q 1656 2128 1656 1613 
L 1656 0 
L 538 0 
L 538 3500 
L 1656 3500 
L 1656 2925 
Q 1872 3269 2151 3426 
Q 2431 3584 2822 3584 
Q 2878 3584 2943 3579 
Q 3009 3575 3134 3559 
L 3138 2547 
z
" transform="scale(0.015625)"/>
      <path id="DejaVuSans-Bold-62" d="M 2400 722 
Q 2759 722 2948 984 
Q 3138 1247 3138 1747 
Q 3138 2247 2948 2509 
Q 2759 2772 2400 2772 
Q 2041 2772 1848 2508 
Q 1656 2244 1656 1747 
Q 1656 1250 1848 986 
Q 2041 722 2400 722 
z
M 1656 2988 
Q 1888 3294 2169 3439 
Q 2450 3584 2816 3584 
Q 3463 3584 3878 3070 
Q 4294 2556 4294 1747 
Q 4294 938 3878 423 
Q 3463 -91 2816 -91 
Q 2450 -91 2169 54 
Q 1888 200 1656 506 
L 1656 0 
L 538 0 
L 538 4863 
L 1656 4863 
L 1656 2988 
z
" transform="scale(0.015625)"/>
      <path id="DejaVuSans-Bold-75" d="M 500 1363 
L 500 3500 
L 1625 3500 
L 1625 3150 
Q 1625 2866 1622 2436 
Q 1619 2006 1619 1863 
Q 1619 1441 1641 1255 
Q 1663 1069 1716 984 
Q 1784 875 1895 815 
Q 2006 756 2150 756 
Q 2500 756 2700 1025 
Q 2900 1294 2900 1772 
L 2900 3500 
L 4019 3500 
L 4019 0 
L 2900 0 
L 2900 506 
Q 2647 200 2364 54 
Q 2081 -91 1741 -91 
Q 1134 -91 817 281 
Q 500 653 500 1363 
z
" transform="scale(0.015625)"/>
      <path id="DejaVuSans-Bold-63" d="M 3366 3391 
L 3366 2478 
Q 3138 2634 2908 2709 
Q 2678 2784 2431 2784 
Q 1963 2784 1702 2511 
Q 1441 2238 1441 1747 
Q 1441 1256 1702 982 
Q 1963 709 2431 709 
Q 2694 709 2930 787 
Q 3166 866 3366 1019 
L 3366 103 
Q 3103 6 2833 -42 
Q 2563 -91 2291 -91 
Q 1344 -91 809 395 
Q 275 881 275 1747 
Q 275 2613 809 3098 
Q 1344 3584 2291 3584 
Q 2566 3584 2833 3536 
Q 3100 3488 3366 3391 
z
" transform="scale(0.015625)"/>
      <path id="DejaVuSans-Bold-f3" d="M 2203 2784 
Q 1831 2784 1636 2517 
Q 1441 2250 1441 1747 
Q 1441 1244 1636 976 
Q 1831 709 2203 709 
Q 2569 709 2762 976 
Q 2956 1244 2956 1747 
Q 2956 2250 2762 2517 
Q 2569 2784 2203 2784 
z
M 2203 3584 
Q 3106 3584 3614 3096 
Q 4122 2609 4122 1747 
Q 4122 884 3614 396 
Q 3106 -91 2203 -91 
Q 1297 -91 786 396 
Q 275 884 275 1747 
Q 275 2609 786 3096 
Q 1297 3584 2203 3584 
z
M 2694 5119 
L 3578 5119 
L 2425 3944 
L 1813 3944 
L 2694 5119 
z
" transform="scale(0.015625)"/>
      <path id="DejaVuSans-Bold-6e" d="M 4056 2131 
L 4056 0 
L 2931 0 
L 2931 347 
L 2931 1631 
Q 2931 2084 2911 2256 
Q 2891 2428 2841 2509 
Q 2775 2619 2662 2680 
Q 2550 2741 2406 2741 
Q 2056 2741 1856 2470 
Q 1656 2200 1656 1722 
L 1656 0 
L 538 0 
L 538 3500 
L 1656 3500 
L 1656 2988 
Q 1909 3294 2193 3439 
Q 2478 3584 2822 3584 
Q 3428 3584 3742 3212 
Q 4056 2841 4056 2131 
z
" transform="scale(0.015625)"/>
      <path id="DejaVuSans-Bold-20" transform="scale(0.015625)"/>
      <path id="DejaVuSans-Bold-64" d="M 2919 2988 
L 2919 4863 
L 4044 4863 
L 4044 0 
L 2919 0 
L 2919 506 
Q 2688 197 2409 53 
Q 2131 -91 1766 -91 
Q 1119 -91 703 423 
Q 288 938 288 1747 
Q 288 2556 703 3070 
Q 1119 3584 1766 3584 
Q 2128 3584 2408 3439 
Q 2688 3294 2919 2988 
z
M 2181 722 
Q 2541 722 2730 984 
Q 2919 1247 2919 1747 
Q 2919 2247 2730 2509 
Q 2541 2772 2181 2772 
Q 1825 2772 1636 2509 
Q 1447 2247 1447 1747 
Q 1447 1247 1636 984 
Q 1825 722 2181 722 
z
" transform="scale(0.015625)"/>
      <path id="DejaVuSans-Bold-65" d="M 4031 1759 
L 4031 1441 
L 1416 1441 
Q 1456 1047 1700 850 
Q 1944 653 2381 653 
Q 2734 653 3104 758 
Q 3475 863 3866 1075 
L 3866 213 
Q 3469 63 3072 -14 
Q 2675 -91 2278 -91 
Q 1328 -91 801 392 
Q 275 875 275 1747 
Q 275 2603 792 3093 
Q 1309 3584 2216 3584 
Q 3041 3584 3536 3087 
Q 4031 2591 4031 1759 
z
M 2881 2131 
Q 2881 2450 2695 2645 
Q 2509 2841 2209 2841 
Q 1884 2841 1681 2658 
Q 1478 2475 1428 2131 
L 2881 2131 
z
" transform="scale(0.015625)"/>
      <path id="DejaVuSans-Bold-61" d="M 2106 1575 
Q 1756 1575 1579 1456 
Q 1403 1338 1403 1106 
Q 1403 894 1545 773 
Q 1688 653 1941 653 
Q 2256 653 2472 879 
Q 2688 1106 2688 1447 
L 2688 1575 
L 2106 1575 
z
M 3816 1997 
L 3816 0 
L 2688 0 
L 2688 519 
Q 2463 200 2181 54 
Q 1900 -91 1497 -91 
Q 953 -91 614 226 
Q 275 544 275 1050 
Q 275 1666 698 1953 
Q 1122 2241 2028 2241 
L 2688 2241 
L 2688 2328 
Q 2688 2594 2478 2717 
Q 2269 2841 1825 2841 
Q 1466 2841 1156 2769 
Q 847 2697 581 2553 
L 581 3406 
Q 941 3494 1303 3539 
Q 1666 3584 2028 3584 
Q 2975 3584 3395 3211 
Q 3816 2838 3816 1997 
z
" transform="scale(0.015625)"/>
     </defs>
     <use xlink:href="#DejaVuSans-Bold-44"/>
     <use xlink:href="#DejaVuSans-Bold-69" x="83.007812"/>
     <use xlink:href="#DejaVuSans-Bold-73" x="117.285156"/>
     <use xlink:href="#DejaVuSans-Bold-74" x="176.806641"/>
     <use xlink:href="#DejaVuSans-Bold-72" x="224.609375"/>
     <use xlink:href="#DejaVuSans-Bold-69" x="273.925781"/>
     <use xlink:href="#DejaVuSans-Bold-62" x="308.203125"/>
     <use xlink:href="#DejaVuSans-Bold-75" x="379.785156"/>
     <use xlink:href="#DejaVuSans-Bold-63" x="450.976562"/>
     <use xlink:href="#DejaVuSans-Bold-69" x="510.253906"/>
     <use xlink:href="#DejaVuSans-Bold-f3" x="544.53125"/>
     <use xlink:href="#DejaVuSans-Bold-6e" x="613.232422"/>
     <use xlink:href="#DejaVuSans-Bold-20" x="684.423828"/>
     <use xlink:href="#DejaVuSans-Bold-64" x="719.238281"/>
     <use xlink:href="#DejaVuSans-Bold-65" x="790.820312"/>
     <use xlink:href="#DejaVuSans-Bold-20" x="858.642578"/>
     <use xlink:href="#DejaVuSans-Bold-44" x="893.457031"/>
     <use xlink:href="#DejaVuSans-Bold-69" x="976.464844"/>
     <use xlink:href="#DejaVuSans-Bold-61" x="1010.742188"/>
     <use xlink:href="#DejaVuSans-Bold-62" x="1078.222656"/>
     <use xlink:href="#DejaVuSans-Bold-65" x="1149.804688"/>
     <use xlink:href="#DejaVuSans-Bold-74" x="1217.626953"/>
     <use xlink:href="#DejaVuSans-Bold-65" x="1265.429688"/>
     <use xlink:href="#DejaVuSans-Bold-73" x="1333.251953"/>
    </g>
   </g>
  </g>
 </g>
</svg>
