<?xml version="1.0" encoding="utf-8" standalone="no"?>
<!DOCTYPE svg PUBLIC "-//W3C//DTD SVG 1.1//EN"
  "http://www.w3.org/Graphics/SVG/1.1/DTD/svg11.dtd">
<svg xmlns:xlink="http://www.w3.org/1999/xlink" width="504pt" height="504pt" viewBox="0 0 504 504" xmlns="http://www.w3.org/2000/svg" version="1.1">
 <metadata>
  <rdf:RDF xmlns:dc="http://purl.org/dc/elements/1.1/" xmlns:cc="http://creativecommons.org/ns#" xmlns:rdf="http://www.w3.org/1999/02/22-rdf-syntax-ns#">
   <cc:Work>
    <dc:type rdf:resource="http://purl.org/dc/dcmitype/StillImage"/>
    <dc:date>2025-05-13T16:41:11.737158</dc:date>
    <dc:format>image/svg+xml</dc:format>
    <dc:creator>
     <cc:Agent>
      <dc:title>Matplotlib v3.8.4, https://matplotlib.org/</dc:title>
     </cc:Agent>
    </dc:creator>
   </cc:Work>
  </rdf:RDF>
 </metadata>
 <defs>
  <style type="text/css">*{stroke-linejoin: round; stroke-linecap: butt}</style>
 </defs>
 <g id="figure_1">
  <g id="patch_1">
   <path d="M 0 504 
L 504 504 
L 504 0 
L 0 0 
z
" style="fill: #ffffff"/>
  </g>
  <g id="axes_1">
   <g id="patch_2">
    <path d="M 337.150997 109.250688 
C 318.458785 98.458734 298.015112 91.034135 276.753858 87.316051 
C 255.492604 83.597966 233.742517 83.643887 212.497152 87.451714 
C 191.251787 91.259542 170.839648 98.770399 152.193171 109.641185 
C 133.546695 120.511972 116.954199 134.5746 103.173639 151.186681 
C 89.393079 167.798762 78.637533 186.703434 71.398322 207.037123 
C 64.15911 227.370811 60.548168 248.81911 60.730444 270.402248 
C 60.91272 291.985386 64.885396 313.369639 72.466999 333.578161 
C 80.048602 353.786683 91.121902 372.507005 105.181065 388.883971 
C 119.240228 405.260937 136.067866 419.041322 154.895284 429.595629 
C 173.722701 440.149937 194.258783 447.314974 215.56543 450.763437 
C 236.872076 454.2119 258.619837 453.890468 279.815262 449.813824 
C 301.010687 445.737181 321.326046 437.968359 339.833323 426.862244 
C 358.3406 415.756129 374.753628 401.484447 388.322652 384.699137 
C 401.891676 367.913826 412.406888 348.874426 419.387945 328.450667 
C 426.369003 308.026909 429.707963 286.53459 429.252301 264.955493 
C 428.796639 243.376396 424.553401 222.044182 416.716418 201.93332 
L 305.106351 245.426538 
C 307.849295 252.46534 309.334428 259.931614 309.49391 267.484298 
C 309.653392 275.036983 308.484755 282.559294 306.041385 289.707609 
C 303.598015 296.855925 299.917691 303.519715 295.168533 309.394574 
C 290.419374 315.269432 284.674814 320.264521 278.197267 324.151661 
C 271.719721 328.038802 264.609345 330.757889 257.190946 332.184714 
C 249.772547 333.61154 242.160831 333.724041 234.703505 332.517079 
C 227.246179 331.310117 220.05855 328.802354 213.468954 325.108346 
C 206.879357 321.414338 200.989684 316.591204 196.068977 310.859266 
C 191.14827 305.127328 187.272615 298.575215 184.619054 291.502232 
C 181.965493 284.429249 180.575056 276.944761 180.51126 269.390663 
C 180.447463 261.836564 181.711293 254.32966 184.245017 247.212869 
C 186.778741 240.096078 190.543182 233.479442 195.366378 227.665214 
C 200.189574 221.850986 205.996948 216.929066 212.523214 213.124291 
C 219.049481 209.319516 226.19373 206.690716 233.629608 205.357976 
C 241.065485 204.025236 248.678016 204.009164 256.119455 205.310494 
C 263.560894 206.611823 270.716179 209.210433 277.258453 212.987617 
z
" style="fill: #8c564b; stroke: #ffffff; stroke-width: 2; stroke-linejoin: miter"/>
   </g>
   <g id="patch_3">
    <path d="M 430.699174 189.929519 
C 423.146818 170.549048 412.367499 152.586345 398.818941 136.804161 
C 385.270383 121.021977 369.147111 107.646907 351.133768 97.246896 
L 291.241215 200.983819 
C 297.545885 204.623823 303.18903 209.305098 307.931025 214.828862 
C 312.67302 220.352626 316.445782 226.639572 319.089107 233.422737 
z
" style="fill: #7f7f7f; stroke: #ffffff; stroke-width: 2; stroke-linejoin: miter"/>
   </g>
   <g id="matplotlib.axis_1"/>
   <g id="matplotlib.axis_2"/>
   <g id="text_1">
    <!-- No -->
    <g transform="translate(71.387528 404.474959) scale(0.13 -0.13)">
     <defs>
      <path id="DejaVuSans-Bold-4e" d="M 588 4666 
L 1931 4666 
L 3628 1466 
L 3628 4666 
L 4769 4666 
L 4769 0 
L 3425 0 
L 1728 3200 
L 1728 0 
L 588 0 
L 588 4666 
z
" transform="scale(0.015625)"/>
      <path id="DejaVuSans-Bold-6f" d="M 2203 2784 
Q 1831 2784 1636 2517 
Q 1441 2250 1441 1747 
Q 1441 1244 1636 976 
Q 1831 709 2203 709 
Q 2569 709 2762 976 
Q 2956 1244 2956 1747 
Q 2956 2250 2762 2517 
Q 2569 2784 2203 2784 
z
M 2203 3584 
Q 3106 3584 3614 3096 
Q 4122 2609 4122 1747 
Q 4122 884 3614 396 
Q 3106 -91 2203 -91 
Q 1297 -91 786 396 
Q 275 884 275 1747 
Q 275 2609 786 3096 
Q 1297 3584 2203 3584 
z
" transform="scale(0.015625)"/>
     </defs>
     <use xlink:href="#DejaVuSans-Bold-4e"/>
     <use xlink:href="#DejaVuSans-Bold-6f" x="83.691406"/>
    </g>
   </g>
   <g id="text_2">
    <path d="M 143.087791 340.214705 
Q 142.40326 340.214705 142.033572 340.590486 
Q 141.665916 340.964236 141.665916 341.662986 
Q 141.665916 342.361736 142.033572 342.733455 
Q 142.40326 343.103143 143.087791 343.103143 
Q 143.76826 343.103143 144.129822 342.733455 
Q 144.491385 342.361736 144.491385 341.662986 
Q 144.491385 340.958143 144.129822 340.586424 
Q 143.76826 340.214705 143.087791 340.214705 
z
M 141.304353 339.41033 
Q 140.441072 339.148299 140.002322 338.610018 
Q 139.565603 338.069705 139.565603 337.263299 
Q 139.565603 336.064861 140.459353 335.437205 
Q 141.355135 334.807518 143.087791 334.807518 
Q 144.80826 334.807518 145.70201 335.433143 
Q 146.597791 336.058768 146.597791 337.263299 
Q 146.597791 338.069705 146.15701 338.610018 
Q 145.716228 339.148299 144.852947 339.41033 
Q 145.817791 339.676424 146.309353 340.275643 
Q 146.800916 340.874861 146.800916 341.788924 
Q 146.800916 343.198611 145.86451 343.919705 
Q 144.928103 344.640799 143.087791 344.640799 
Q 141.241385 344.640799 140.298885 343.919705 
Q 139.356385 343.198611 139.356385 341.788924 
Q 139.356385 340.874861 139.847947 340.275643 
Q 140.33951 339.676424 141.304353 339.41033 
z
M 141.875135 337.511111 
Q 141.875135 338.075799 142.189978 338.380486 
Q 142.504822 338.685174 143.087791 338.685174 
Q 143.658572 338.685174 143.969353 338.380486 
Q 144.282166 338.075799 144.282166 337.511111 
Q 144.282166 336.946424 143.969353 336.645799 
Q 143.658572 336.343143 143.087791 336.343143 
Q 142.504822 336.343143 142.189978 336.64783 
Q 141.875135 336.952518 141.875135 337.511111 
z
M 148.909607 344.246736 
L 148.909607 342.493768 
Q 149.492576 342.767986 150.024764 342.90408 
Q 150.558982 343.040174 151.078982 343.040174 
Q 152.171795 343.040174 152.78117 342.434861 
Q 153.390545 341.827518 153.498201 340.635174 
Q 153.067576 340.952049 152.578045 341.110486 
Q 152.088514 341.268924 151.517732 341.268924 
Q 150.063357 341.268924 149.171639 340.421893 
Q 148.27992 339.574861 148.27992 338.19158 
Q 148.27992 336.660018 149.273201 335.739861 
Q 150.266482 334.819705 151.93617 334.819705 
Q 153.790701 334.819705 154.806326 336.070955 
Q 155.821951 337.320174 155.821951 339.60533 
Q 155.821951 341.955486 154.63367 343.298143 
Q 153.44742 344.640799 151.377576 344.640799 
Q 150.711326 344.640799 150.101951 344.541268 
Q 149.492576 344.443768 148.909607 344.246736 
z
M 151.923982 339.682518 
Q 152.565857 339.682518 152.888826 339.268143 
Q 153.211795 338.851736 153.211795 338.018924 
Q 153.211795 337.194236 152.888826 336.775799 
Q 152.565857 336.35533 151.923982 336.35533 
Q 151.282107 336.35533 150.959139 336.775799 
Q 150.63617 337.194236 150.63617 338.018924 
Q 150.63617 338.851736 150.959139 339.268143 
Q 151.282107 339.682518 151.923982 339.682518 
z
M 157.979392 342.000174 
L 160.264549 342.000174 
L 160.264549 344.455955 
L 157.979392 344.455955 
L 157.979392 342.000174 
z
M 165.337088 342.66033 
L 169.507244 342.66033 
L 169.507244 344.455955 
L 162.619275 344.455955 
L 162.619275 342.66033 
L 166.078494 339.60533 
Q 166.54365 339.186893 166.765057 338.786736 
Q 166.986463 338.38658 166.986463 337.955955 
Q 166.986463 337.289705 166.539588 336.883455 
Q 166.092713 336.477205 165.349275 336.477205 
Q 164.778494 336.477205 164.098025 336.720955 
Q 163.419588 336.964705 162.645682 337.448143 
L 162.645682 335.366111 
Q 163.470369 335.093924 164.276775 334.951736 
Q 165.083182 334.807518 165.857088 334.807518 
Q 167.559275 334.807518 168.501775 335.557049 
Q 169.444275 336.304549 169.444275 337.645174 
Q 169.444275 338.41908 169.044119 339.089393 
Q 168.643963 339.757674 167.362244 340.882986 
L 165.337088 342.66033 
z
M 180.709842 340.545799 
Q 180.260935 340.545799 180.013123 340.935799 
Q 179.76531 341.325799 179.76531 342.050955 
Q 179.76531 342.780174 180.00906 343.170174 
Q 180.25281 343.560174 180.709842 343.560174 
Q 181.166873 343.560174 181.408592 343.170174 
Q 181.65031 342.780174 181.65031 342.050955 
Q 181.65031 341.325799 181.404529 340.935799 
Q 181.160779 340.545799 180.709842 340.545799 
z
M 180.709842 339.479393 
Q 181.892029 339.479393 182.570467 340.165955 
Q 183.248904 340.850486 183.248904 342.050955 
Q 183.248904 343.249393 182.570467 343.946111 
Q 181.892029 344.640799 180.709842 344.640799 
Q 179.529685 344.640799 178.847185 343.946111 
Q 178.164685 343.249393 178.164685 342.050955 
Q 178.164685 340.85658 178.847185 340.167986 
Q 179.529685 339.479393 180.709842 339.479393 
z
M 174.89031 344.640799 
L 173.486717 344.640799 
L 179.409842 334.807518 
L 180.819529 334.807518 
L 174.89031 344.640799 
z
M 173.588279 334.807518 
Q 174.768435 334.807518 175.444842 335.496111 
Q 176.121248 336.184705 176.121248 337.385174 
Q 176.121248 338.583611 175.444842 339.276268 
Q 174.768435 339.968924 173.588279 339.968924 
Q 172.408123 339.968924 171.731717 339.276268 
Q 171.05531 338.583611 171.05531 337.385174 
Q 171.05531 336.184705 171.731717 335.496111 
Q 172.408123 334.807518 173.588279 334.807518 
z
M 173.588279 335.873924 
Q 173.131248 335.873924 172.883435 336.267986 
Q 172.635623 336.660018 172.635623 337.385174 
Q 172.635623 338.114393 172.883435 338.512518 
Q 173.131248 338.908611 173.588279 338.908611 
Q 174.04531 338.908611 174.28906 338.512518 
Q 174.534842 338.114393 174.534842 337.385174 
Q 174.534842 336.660018 174.287029 336.267986 
Q 174.039217 335.873924 173.588279 335.873924 
z
" style="fill: #ffffff; stroke: #000000; stroke-width: 3"/>
    <path d="M 143.087791 340.214705 
Q 142.40326 340.214705 142.033572 340.590486 
Q 141.665916 340.964236 141.665916 341.662986 
Q 141.665916 342.361736 142.033572 342.733455 
Q 142.40326 343.103143 143.087791 343.103143 
Q 143.76826 343.103143 144.129822 342.733455 
Q 144.491385 342.361736 144.491385 341.662986 
Q 144.491385 340.958143 144.129822 340.586424 
Q 143.76826 340.214705 143.087791 340.214705 
z
M 141.304353 339.41033 
Q 140.441072 339.148299 140.002322 338.610018 
Q 139.565603 338.069705 139.565603 337.263299 
Q 139.565603 336.064861 140.459353 335.437205 
Q 141.355135 334.807518 143.087791 334.807518 
Q 144.80826 334.807518 145.70201 335.433143 
Q 146.597791 336.058768 146.597791 337.263299 
Q 146.597791 338.069705 146.15701 338.610018 
Q 145.716228 339.148299 144.852947 339.41033 
Q 145.817791 339.676424 146.309353 340.275643 
Q 146.800916 340.874861 146.800916 341.788924 
Q 146.800916 343.198611 145.86451 343.919705 
Q 144.928103 344.640799 143.087791 344.640799 
Q 141.241385 344.640799 140.298885 343.919705 
Q 139.356385 343.198611 139.356385 341.788924 
Q 139.356385 340.874861 139.847947 340.275643 
Q 140.33951 339.676424 141.304353 339.41033 
z
M 141.875135 337.511111 
Q 141.875135 338.075799 142.189978 338.380486 
Q 142.504822 338.685174 143.087791 338.685174 
Q 143.658572 338.685174 143.969353 338.380486 
Q 144.282166 338.075799 144.282166 337.511111 
Q 144.282166 336.946424 143.969353 336.645799 
Q 143.658572 336.343143 143.087791 336.343143 
Q 142.504822 336.343143 142.189978 336.64783 
Q 141.875135 336.952518 141.875135 337.511111 
z
M 148.909607 344.246736 
L 148.909607 342.493768 
Q 149.492576 342.767986 150.024764 342.90408 
Q 150.558982 343.040174 151.078982 343.040174 
Q 152.171795 343.040174 152.78117 342.434861 
Q 153.390545 341.827518 153.498201 340.635174 
Q 153.067576 340.952049 152.578045 341.110486 
Q 152.088514 341.268924 151.517732 341.268924 
Q 150.063357 341.268924 149.171639 340.421893 
Q 148.27992 339.574861 148.27992 338.19158 
Q 148.27992 336.660018 149.273201 335.739861 
Q 150.266482 334.819705 151.93617 334.819705 
Q 153.790701 334.819705 154.806326 336.070955 
Q 155.821951 337.320174 155.821951 339.60533 
Q 155.821951 341.955486 154.63367 343.298143 
Q 153.44742 344.640799 151.377576 344.640799 
Q 150.711326 344.640799 150.101951 344.541268 
Q 149.492576 344.443768 148.909607 344.246736 
z
M 151.923982 339.682518 
Q 152.565857 339.682518 152.888826 339.268143 
Q 153.211795 338.851736 153.211795 338.018924 
Q 153.211795 337.194236 152.888826 336.775799 
Q 152.565857 336.35533 151.923982 336.35533 
Q 151.282107 336.35533 150.959139 336.775799 
Q 150.63617 337.194236 150.63617 338.018924 
Q 150.63617 338.851736 150.959139 339.268143 
Q 151.282107 339.682518 151.923982 339.682518 
z
M 157.979392 342.000174 
L 160.264549 342.000174 
L 160.264549 344.455955 
L 157.979392 344.455955 
L 157.979392 342.000174 
z
M 165.337088 342.66033 
L 169.507244 342.66033 
L 169.507244 344.455955 
L 162.619275 344.455955 
L 162.619275 342.66033 
L 166.078494 339.60533 
Q 166.54365 339.186893 166.765057 338.786736 
Q 166.986463 338.38658 166.986463 337.955955 
Q 166.986463 337.289705 166.539588 336.883455 
Q 166.092713 336.477205 165.349275 336.477205 
Q 164.778494 336.477205 164.098025 336.720955 
Q 163.419588 336.964705 162.645682 337.448143 
L 162.645682 335.366111 
Q 163.470369 335.093924 164.276775 334.951736 
Q 165.083182 334.807518 165.857088 334.807518 
Q 167.559275 334.807518 168.501775 335.557049 
Q 169.444275 336.304549 169.444275 337.645174 
Q 169.444275 338.41908 169.044119 339.089393 
Q 168.643963 339.757674 167.362244 340.882986 
L 165.337088 342.66033 
z
M 180.709842 340.545799 
Q 180.260935 340.545799 180.013123 340.935799 
Q 179.76531 341.325799 179.76531 342.050955 
Q 179.76531 342.780174 180.00906 343.170174 
Q 180.25281 343.560174 180.709842 343.560174 
Q 181.166873 343.560174 181.408592 343.170174 
Q 181.65031 342.780174 181.65031 342.050955 
Q 181.65031 341.325799 181.404529 340.935799 
Q 181.160779 340.545799 180.709842 340.545799 
z
M 180.709842 339.479393 
Q 181.892029 339.479393 182.570467 340.165955 
Q 183.248904 340.850486 183.248904 342.050955 
Q 183.248904 343.249393 182.570467 343.946111 
Q 181.892029 344.640799 180.709842 344.640799 
Q 179.529685 344.640799 178.847185 343.946111 
Q 178.164685 343.249393 178.164685 342.050955 
Q 178.164685 340.85658 178.847185 340.167986 
Q 179.529685 339.479393 180.709842 339.479393 
z
M 174.89031 344.640799 
L 173.486717 344.640799 
L 179.409842 334.807518 
L 180.819529 334.807518 
L 174.89031 344.640799 
z
M 173.588279 334.807518 
Q 174.768435 334.807518 175.444842 335.496111 
Q 176.121248 336.184705 176.121248 337.385174 
Q 176.121248 338.583611 175.444842 339.276268 
Q 174.768435 339.968924 173.588279 339.968924 
Q 172.408123 339.968924 171.731717 339.276268 
Q 171.05531 338.583611 171.05531 337.385174 
Q 171.05531 336.184705 171.731717 335.496111 
Q 172.408123 334.807518 173.588279 334.807518 
z
M 173.588279 335.873924 
Q 173.131248 335.873924 172.883435 336.267986 
Q 172.635623 336.660018 172.635623 337.385174 
Q 172.635623 338.114393 172.883435 338.512518 
Q 173.131248 338.908611 173.588279 338.908611 
Q 174.04531 338.908611 174.28906 338.512518 
Q 174.534842 338.114393 174.534842 337.385174 
Q 174.534842 336.660018 174.287029 336.267986 
Q 174.039217 335.873924 173.588279 335.873924 
z
" style="fill: #ffffff"/>
   </g>
   <g id="text_3">
    <!-- Sí -->
    <g transform="translate(412.801697 128.387549) scale(0.13 -0.13)">
     <defs>
      <path id="DejaVuSans-Bold-53" d="M 3834 4519 
L 3834 3531 
Q 3450 3703 3084 3790 
Q 2719 3878 2394 3878 
Q 1963 3878 1756 3759 
Q 1550 3641 1550 3391 
Q 1550 3203 1689 3098 
Q 1828 2994 2194 2919 
L 2706 2816 
Q 3484 2659 3812 2340 
Q 4141 2022 4141 1434 
Q 4141 663 3683 286 
Q 3225 -91 2284 -91 
Q 1841 -91 1394 -6 
Q 947 78 500 244 
L 500 1259 
Q 947 1022 1364 901 
Q 1781 781 2169 781 
Q 2563 781 2772 912 
Q 2981 1044 2981 1288 
Q 2981 1506 2839 1625 
Q 2697 1744 2272 1838 
L 1806 1941 
Q 1106 2091 782 2419 
Q 459 2747 459 3303 
Q 459 4000 909 4375 
Q 1359 4750 2203 4750 
Q 2588 4750 2994 4692 
Q 3400 4634 3834 4519 
z
" transform="scale(0.015625)"/>
      <path id="DejaVuSans-Bold-ed" d="M 538 3500 
L 1656 3500 
L 1656 0 
L 538 0 
L 538 3500 
z
M 1590 5119 
L 2474 5119 
L 1321 3944 
L 709 3944 
L 1590 5119 
z
" transform="scale(0.015625)"/>
     </defs>
     <use xlink:href="#DejaVuSans-Bold-53"/>
     <use xlink:href="#DejaVuSans-Bold-ed" x="72.021484"/>
    </g>
   </g>
   <g id="text_4">
    <path d="M 321.861431 186.71858 
L 324.02065 186.71858 
L 324.02065 180.59233 
L 321.804556 181.049362 
L 321.804556 179.385768 
L 324.006431 178.928737 
L 326.330181 178.928737 
L 326.330181 186.71858 
L 328.4894 186.71858 
L 328.4894 188.406549 
L 321.861431 188.406549 
L 321.861431 186.71858 
z
M 335.363404 183.657487 
Q 335.363404 181.880143 335.030279 181.154987 
Q 334.697154 180.427799 333.909029 180.427799 
Q 333.122935 180.427799 332.785748 181.154987 
Q 332.44856 181.880143 332.44856 183.657487 
Q 332.44856 185.455143 332.785748 186.192487 
Q 333.122935 186.927799 333.909029 186.927799 
Q 334.69106 186.927799 335.026217 186.192487 
Q 335.363404 185.455143 335.363404 183.657487 
z
M 337.806998 183.677799 
Q 337.806998 186.032018 336.791373 187.311705 
Q 335.775748 188.591393 333.909029 188.591393 
Q 332.036217 188.591393 331.020592 187.311705 
Q 330.004967 186.032018 330.004967 183.677799 
Q 330.004967 181.315455 331.020592 180.037799 
Q 332.036217 178.758112 333.909029 178.758112 
Q 335.775748 178.758112 336.791373 180.037799 
Q 337.806998 181.315455 337.806998 183.677799 
z
M 339.755221 185.950768 
L 342.040377 185.950768 
L 342.040377 188.406549 
L 339.755221 188.406549 
L 339.755221 185.950768 
z
M 347.892916 184.165299 
Q 347.208385 184.165299 346.838697 184.54108 
Q 346.471041 184.91483 346.471041 185.61358 
Q 346.471041 186.31233 346.838697 186.684049 
Q 347.208385 187.053737 347.892916 187.053737 
Q 348.573385 187.053737 348.934947 186.684049 
Q 349.29651 186.31233 349.29651 185.61358 
Q 349.29651 184.908737 348.934947 184.537018 
Q 348.573385 184.165299 347.892916 184.165299 
z
M 346.109478 183.360924 
Q 345.246197 183.098893 344.807447 182.560612 
Q 344.370728 182.020299 344.370728 181.213893 
Q 344.370728 180.015455 345.264478 179.387799 
Q 346.16026 178.758112 347.892916 178.758112 
Q 349.613385 178.758112 350.507135 179.383737 
Q 351.402916 180.009362 351.402916 181.213893 
Q 351.402916 182.020299 350.962135 182.560612 
Q 350.521353 183.098893 349.658072 183.360924 
Q 350.622916 183.627018 351.114478 184.226237 
Q 351.606041 184.825455 351.606041 185.739518 
Q 351.606041 187.149205 350.669635 187.870299 
Q 349.733228 188.591393 347.892916 188.591393 
Q 346.04651 188.591393 345.10401 187.870299 
Q 344.16151 187.149205 344.16151 185.739518 
Q 344.16151 184.825455 344.653072 184.226237 
Q 345.144635 183.627018 346.109478 183.360924 
z
M 346.68026 181.461705 
Q 346.68026 182.026393 346.995103 182.33108 
Q 347.309947 182.635768 347.892916 182.635768 
Q 348.463697 182.635768 348.774478 182.33108 
Q 349.087291 182.026393 349.087291 181.461705 
Q 349.087291 180.897018 348.774478 180.596393 
Q 348.463697 180.293737 347.892916 180.293737 
Q 347.309947 180.293737 346.995103 180.598424 
Q 346.68026 180.903112 346.68026 181.461705 
z
M 362.48567 184.496393 
Q 362.036764 184.496393 361.788951 184.886393 
Q 361.541139 185.276393 361.541139 186.001549 
Q 361.541139 186.730768 361.784889 187.120768 
Q 362.028639 187.510768 362.48567 187.510768 
Q 362.942701 187.510768 363.18442 187.120768 
Q 363.426139 186.730768 363.426139 186.001549 
Q 363.426139 185.276393 363.180357 184.886393 
Q 362.936607 184.496393 362.48567 184.496393 
z
M 362.48567 183.429987 
Q 363.667857 183.429987 364.346295 184.116549 
Q 365.024732 184.80108 365.024732 186.001549 
Q 365.024732 187.199987 364.346295 187.896705 
Q 363.667857 188.591393 362.48567 188.591393 
Q 361.305514 188.591393 360.623014 187.896705 
Q 359.940514 187.199987 359.940514 186.001549 
Q 359.940514 184.807174 360.623014 184.11858 
Q 361.305514 183.429987 362.48567 183.429987 
z
M 356.666139 188.591393 
L 355.262545 188.591393 
L 361.18567 178.758112 
L 362.595357 178.758112 
L 356.666139 188.591393 
z
M 355.364107 178.758112 
Q 356.544264 178.758112 357.22067 179.446705 
Q 357.897076 180.135299 357.897076 181.335768 
Q 357.897076 182.534205 357.22067 183.226862 
Q 356.544264 183.919518 355.364107 183.919518 
Q 354.183951 183.919518 353.507545 183.226862 
Q 352.831139 182.534205 352.831139 181.335768 
Q 352.831139 180.135299 353.507545 179.446705 
Q 354.183951 178.758112 355.364107 178.758112 
z
M 355.364107 179.824518 
Q 354.907076 179.824518 354.659264 180.21858 
Q 354.411451 180.610612 354.411451 181.335768 
Q 354.411451 182.064987 354.659264 182.463112 
Q 354.907076 182.859205 355.364107 182.859205 
Q 355.821139 182.859205 356.064889 182.463112 
Q 356.31067 182.064987 356.31067 181.335768 
Q 356.31067 180.610612 356.062857 180.21858 
Q 355.815045 179.824518 355.364107 179.824518 
z
" style="fill: #ffffff; stroke: #000000; stroke-width: 3"/>
    <path d="M 321.861431 186.71858 
L 324.02065 186.71858 
L 324.02065 180.59233 
L 321.804556 181.049362 
L 321.804556 179.385768 
L 324.006431 178.928737 
L 326.330181 178.928737 
L 326.330181 186.71858 
L 328.4894 186.71858 
L 328.4894 188.406549 
L 321.861431 188.406549 
L 321.861431 186.71858 
z
M 335.363404 183.657487 
Q 335.363404 181.880143 335.030279 181.154987 
Q 334.697154 180.427799 333.909029 180.427799 
Q 333.122935 180.427799 332.785748 181.154987 
Q 332.44856 181.880143 332.44856 183.657487 
Q 332.44856 185.455143 332.785748 186.192487 
Q 333.122935 186.927799 333.909029 186.927799 
Q 334.69106 186.927799 335.026217 186.192487 
Q 335.363404 185.455143 335.363404 183.657487 
z
M 337.806998 183.677799 
Q 337.806998 186.032018 336.791373 187.311705 
Q 335.775748 188.591393 333.909029 188.591393 
Q 332.036217 188.591393 331.020592 187.311705 
Q 330.004967 186.032018 330.004967 183.677799 
Q 330.004967 181.315455 331.020592 180.037799 
Q 332.036217 178.758112 333.909029 178.758112 
Q 335.775748 178.758112 336.791373 180.037799 
Q 337.806998 181.315455 337.806998 183.677799 
z
M 339.755221 185.950768 
L 342.040377 185.950768 
L 342.040377 188.406549 
L 339.755221 188.406549 
L 339.755221 185.950768 
z
M 347.892916 184.165299 
Q 347.208385 184.165299 346.838697 184.54108 
Q 346.471041 184.91483 346.471041 185.61358 
Q 346.471041 186.31233 346.838697 186.684049 
Q 347.208385 187.053737 347.892916 187.053737 
Q 348.573385 187.053737 348.934947 186.684049 
Q 349.29651 186.31233 349.29651 185.61358 
Q 349.29651 184.908737 348.934947 184.537018 
Q 348.573385 184.165299 347.892916 184.165299 
z
M 346.109478 183.360924 
Q 345.246197 183.098893 344.807447 182.560612 
Q 344.370728 182.020299 344.370728 181.213893 
Q 344.370728 180.015455 345.264478 179.387799 
Q 346.16026 178.758112 347.892916 178.758112 
Q 349.613385 178.758112 350.507135 179.383737 
Q 351.402916 180.009362 351.402916 181.213893 
Q 351.402916 182.020299 350.962135 182.560612 
Q 350.521353 183.098893 349.658072 183.360924 
Q 350.622916 183.627018 351.114478 184.226237 
Q 351.606041 184.825455 351.606041 185.739518 
Q 351.606041 187.149205 350.669635 187.870299 
Q 349.733228 188.591393 347.892916 188.591393 
Q 346.04651 188.591393 345.10401 187.870299 
Q 344.16151 187.149205 344.16151 185.739518 
Q 344.16151 184.825455 344.653072 184.226237 
Q 345.144635 183.627018 346.109478 183.360924 
z
M 346.68026 181.461705 
Q 346.68026 182.026393 346.995103 182.33108 
Q 347.309947 182.635768 347.892916 182.635768 
Q 348.463697 182.635768 348.774478 182.33108 
Q 349.087291 182.026393 349.087291 181.461705 
Q 349.087291 180.897018 348.774478 180.596393 
Q 348.463697 180.293737 347.892916 180.293737 
Q 347.309947 180.293737 346.995103 180.598424 
Q 346.68026 180.903112 346.68026 181.461705 
z
M 362.48567 184.496393 
Q 362.036764 184.496393 361.788951 184.886393 
Q 361.541139 185.276393 361.541139 186.001549 
Q 361.541139 186.730768 361.784889 187.120768 
Q 362.028639 187.510768 362.48567 187.510768 
Q 362.942701 187.510768 363.18442 187.120768 
Q 363.426139 186.730768 363.426139 186.001549 
Q 363.426139 185.276393 363.180357 184.886393 
Q 362.936607 184.496393 362.48567 184.496393 
z
M 362.48567 183.429987 
Q 363.667857 183.429987 364.346295 184.116549 
Q 365.024732 184.80108 365.024732 186.001549 
Q 365.024732 187.199987 364.346295 187.896705 
Q 363.667857 188.591393 362.48567 188.591393 
Q 361.305514 188.591393 360.623014 187.896705 
Q 359.940514 187.199987 359.940514 186.001549 
Q 359.940514 184.807174 360.623014 184.11858 
Q 361.305514 183.429987 362.48567 183.429987 
z
M 356.666139 188.591393 
L 355.262545 188.591393 
L 361.18567 178.758112 
L 362.595357 178.758112 
L 356.666139 188.591393 
z
M 355.364107 178.758112 
Q 356.544264 178.758112 357.22067 179.446705 
Q 357.897076 180.135299 357.897076 181.335768 
Q 357.897076 182.534205 357.22067 183.226862 
Q 356.544264 183.919518 355.364107 183.919518 
Q 354.183951 183.919518 353.507545 183.226862 
Q 352.831139 182.534205 352.831139 181.335768 
Q 352.831139 180.135299 353.507545 179.446705 
Q 354.183951 178.758112 355.364107 178.758112 
z
M 355.364107 179.824518 
Q 354.907076 179.824518 354.659264 180.21858 
Q 354.411451 180.610612 354.411451 181.335768 
Q 354.411451 182.064987 354.659264 182.463112 
Q 354.907076 182.859205 355.364107 182.859205 
Q 355.821139 182.859205 356.064889 182.463112 
Q 356.31067 182.064987 356.31067 181.335768 
Q 356.31067 180.610612 356.062857 180.21858 
Q 355.815045 179.824518 355.364107 179.824518 
z
" style="fill: #ffffff"/>
   </g>
   <g id="text_5">
    <!-- Distribución de Hipertensión -->
    <g transform="translate(89.935937 26.488125) scale(0.2 -0.2)">
     <defs>
      <path id="DejaVuSans-Bold-44" d="M 1791 3756 
L 1791 909 
L 2222 909 
Q 2959 909 3348 1275 
Q 3738 1641 3738 2338 
Q 3738 3031 3350 3393 
Q 2963 3756 2222 3756 
L 1791 3756 
z
M 588 4666 
L 1856 4666 
Q 2919 4666 3439 4514 
Q 3959 4363 4331 4000 
Q 4659 3684 4818 3271 
Q 4978 2859 4978 2338 
Q 4978 1809 4818 1395 
Q 4659 981 4331 666 
Q 3956 303 3431 151 
Q 2906 0 1856 0 
L 588 0 
L 588 4666 
z
" transform="scale(0.015625)"/>
      <path id="DejaVuSans-Bold-69" d="M 538 3500 
L 1656 3500 
L 1656 0 
L 538 0 
L 538 3500 
z
M 538 4863 
L 1656 4863 
L 1656 3950 
L 538 3950 
L 538 4863 
z
" transform="scale(0.015625)"/>
      <path id="DejaVuSans-Bold-73" d="M 3272 3391 
L 3272 2541 
Q 2913 2691 2578 2766 
Q 2244 2841 1947 2841 
Q 1628 2841 1473 2761 
Q 1319 2681 1319 2516 
Q 1319 2381 1436 2309 
Q 1553 2238 1856 2203 
L 2053 2175 
Q 2913 2066 3209 1816 
Q 3506 1566 3506 1031 
Q 3506 472 3093 190 
Q 2681 -91 1863 -91 
Q 1516 -91 1145 -36 
Q 775 19 384 128 
L 384 978 
Q 719 816 1070 734 
Q 1422 653 1784 653 
Q 2113 653 2278 743 
Q 2444 834 2444 1013 
Q 2444 1163 2330 1236 
Q 2216 1309 1875 1350 
L 1678 1375 
Q 931 1469 631 1722 
Q 331 1975 331 2491 
Q 331 3047 712 3315 
Q 1094 3584 1881 3584 
Q 2191 3584 2531 3537 
Q 2872 3491 3272 3391 
z
" transform="scale(0.015625)"/>
      <path id="DejaVuSans-Bold-74" d="M 1759 4494 
L 1759 3500 
L 2913 3500 
L 2913 2700 
L 1759 2700 
L 1759 1216 
Q 1759 972 1856 886 
Q 1953 800 2241 800 
L 2816 800 
L 2816 0 
L 1856 0 
Q 1194 0 917 276 
Q 641 553 641 1216 
L 641 2700 
L 84 2700 
L 84 3500 
L 641 3500 
L 641 4494 
L 1759 4494 
z
" transform="scale(0.015625)"/>
      <path id="DejaVuSans-Bold-72" d="M 3138 2547 
Q 2991 2616 2845 2648 
Q 2700 2681 2553 2681 
Q 2122 2681 1889 2404 
Q 1656 2128 1656 1613 
L 1656 0 
L 538 0 
L 538 3500 
L 1656 3500 
L 1656 2925 
Q 1872 3269 2151 3426 
Q 2431 3584 2822 3584 
Q 2878 3584 2943 3579 
Q 3009 3575 3134 3559 
L 3138 2547 
z
" transform="scale(0.015625)"/>
      <path id="DejaVuSans-Bold-62" d="M 2400 722 
Q 2759 722 2948 984 
Q 3138 1247 3138 1747 
Q 3138 2247 2948 2509 
Q 2759 2772 2400 2772 
Q 2041 2772 1848 2508 
Q 1656 2244 1656 1747 
Q 1656 1250 1848 986 
Q 2041 722 2400 722 
z
M 1656 2988 
Q 1888 3294 2169 3439 
Q 2450 3584 2816 3584 
Q 3463 3584 3878 3070 
Q 4294 2556 4294 1747 
Q 4294 938 3878 423 
Q 3463 -91 2816 -91 
Q 2450 -91 2169 54 
Q 1888 200 1656 506 
L 1656 0 
L 538 0 
L 538 4863 
L 1656 4863 
L 1656 2988 
z
" transform="scale(0.015625)"/>
      <path id="DejaVuSans-Bold-75" d="M 500 1363 
L 500 3500 
L 1625 3500 
L 1625 3150 
Q 1625 2866 1622 2436 
Q 1619 2006 1619 1863 
Q 1619 1441 1641 1255 
Q 1663 1069 1716 984 
Q 1784 875 1895 815 
Q 2006 756 2150 756 
Q 2500 756 2700 1025 
Q 2900 1294 2900 1772 
L 2900 3500 
L 4019 3500 
L 4019 0 
L 2900 0 
L 2900 506 
Q 2647 200 2364 54 
Q 2081 -91 1741 -91 
Q 1134 -91 817 281 
Q 500 653 500 1363 
z
" transform="scale(0.015625)"/>
      <path id="DejaVuSans-Bold-63" d="M 3366 3391 
L 3366 2478 
Q 3138 2634 2908 2709 
Q 2678 2784 2431 2784 
Q 1963 2784 1702 2511 
Q 1441 2238 1441 1747 
Q 1441 1256 1702 982 
Q 1963 709 2431 709 
Q 2694 709 2930 787 
Q 3166 866 3366 1019 
L 3366 103 
Q 3103 6 2833 -42 
Q 2563 -91 2291 -91 
Q 1344 -91 809 395 
Q 275 881 275 1747 
Q 275 2613 809 3098 
Q 1344 3584 2291 3584 
Q 2566 3584 2833 3536 
Q 3100 3488 3366 3391 
z
" transform="scale(0.015625)"/>
      <path id="DejaVuSans-Bold-f3" d="M 2203 2784 
Q 1831 2784 1636 2517 
Q 1441 2250 1441 1747 
Q 1441 1244 1636 976 
Q 1831 709 2203 709 
Q 2569 709 2762 976 
Q 2956 1244 2956 1747 
Q 2956 2250 2762 2517 
Q 2569 2784 2203 2784 
z
M 2203 3584 
Q 3106 3584 3614 3096 
Q 4122 2609 4122 1747 
Q 4122 884 3614 396 
Q 3106 -91 2203 -91 
Q 1297 -91 786 396 
Q 275 884 275 1747 
Q 275 2609 786 3096 
Q 1297 3584 2203 3584 
z
M 2694 5119 
L 3578 5119 
L 2425 3944 
L 1813 3944 
L 2694 5119 
z
" transform="scale(0.015625)"/>
      <path id="DejaVuSans-Bold-6e" d="M 4056 2131 
L 4056 0 
L 2931 0 
L 2931 347 
L 2931 1631 
Q 2931 2084 2911 2256 
Q 2891 2428 2841 2509 
Q 2775 2619 2662 2680 
Q 2550 2741 2406 2741 
Q 2056 2741 1856 2470 
Q 1656 2200 1656 1722 
L 1656 0 
L 538 0 
L 538 3500 
L 1656 3500 
L 1656 2988 
Q 1909 3294 2193 3439 
Q 2478 3584 2822 3584 
Q 3428 3584 3742 3212 
Q 4056 2841 4056 2131 
z
" transform="scale(0.015625)"/>
      <path id="DejaVuSans-Bold-20" transform="scale(0.015625)"/>
      <path id="DejaVuSans-Bold-64" d="M 2919 2988 
L 2919 4863 
L 4044 4863 
L 4044 0 
L 2919 0 
L 2919 506 
Q 2688 197 2409 53 
Q 2131 -91 1766 -91 
Q 1119 -91 703 423 
Q 288 938 288 1747 
Q 288 2556 703 3070 
Q 1119 3584 1766 3584 
Q 2128 3584 2408 3439 
Q 2688 3294 2919 2988 
z
M 2181 722 
Q 2541 722 2730 984 
Q 2919 1247 2919 1747 
Q 2919 2247 2730 2509 
Q 2541 2772 2181 2772 
Q 1825 2772 1636 2509 
Q 1447 2247 1447 1747 
Q 1447 1247 1636 984 
Q 1825 722 2181 722 
z
" transform="scale(0.015625)"/>
      <path id="DejaVuSans-Bold-65" d="M 4031 1759 
L 4031 1441 
L 1416 1441 
Q 1456 1047 1700 850 
Q 1944 653 2381 653 
Q 2734 653 3104 758 
Q 3475 863 3866 1075 
L 3866 213 
Q 3469 63 3072 -14 
Q 2675 -91 2278 -91 
Q 1328 -91 801 392 
Q 275 875 275 1747 
Q 275 2603 792 3093 
Q 1309 3584 2216 3584 
Q 3041 3584 3536 3087 
Q 4031 2591 4031 1759 
z
M 2881 2131 
Q 2881 2450 2695 2645 
Q 2509 2841 2209 2841 
Q 1884 2841 1681 2658 
Q 1478 2475 1428 2131 
L 2881 2131 
z
" transform="scale(0.015625)"/>
      <path id="DejaVuSans-Bold-48" d="M 588 4666 
L 1791 4666 
L 1791 2888 
L 3566 2888 
L 3566 4666 
L 4769 4666 
L 4769 0 
L 3566 0 
L 3566 1978 
L 1791 1978 
L 1791 0 
L 588 0 
L 588 4666 
z
" transform="scale(0.015625)"/>
      <path id="DejaVuSans-Bold-70" d="M 1656 506 
L 1656 -1331 
L 538 -1331 
L 538 3500 
L 1656 3500 
L 1656 2988 
Q 1888 3294 2169 3439 
Q 2450 3584 2816 3584 
Q 3463 3584 3878 3070 
Q 4294 2556 4294 1747 
Q 4294 938 3878 423 
Q 3463 -91 2816 -91 
Q 2450 -91 2169 54 
Q 1888 200 1656 506 
z
M 2400 2772 
Q 2041 2772 1848 2508 
Q 1656 2244 1656 1747 
Q 1656 1250 1848 986 
Q 2041 722 2400 722 
Q 2759 722 2948 984 
Q 3138 1247 3138 1747 
Q 3138 2247 2948 2509 
Q 2759 2772 2400 2772 
z
" transform="scale(0.015625)"/>
     </defs>
     <use xlink:href="#DejaVuSans-Bold-44"/>
     <use xlink:href="#DejaVuSans-Bold-69" x="83.007812"/>
     <use xlink:href="#DejaVuSans-Bold-73" x="117.285156"/>
     <use xlink:href="#DejaVuSans-Bold-74" x="176.806641"/>
     <use xlink:href="#DejaVuSans-Bold-72" x="224.609375"/>
     <use xlink:href="#DejaVuSans-Bold-69" x="273.925781"/>
     <use xlink:href="#DejaVuSans-Bold-62" x="308.203125"/>
     <use xlink:href="#DejaVuSans-Bold-75" x="379.785156"/>
     <use xlink:href="#DejaVuSans-Bold-63" x="450.976562"/>
     <use xlink:href="#DejaVuSans-Bold-69" x="510.253906"/>
     <use xlink:href="#DejaVuSans-Bold-f3" x="544.53125"/>
     <use xlink:href="#DejaVuSans-Bold-6e" x="613.232422"/>
     <use xlink:href="#DejaVuSans-Bold-20" x="684.423828"/>
     <use xlink:href="#DejaVuSans-Bold-64" x="719.238281"/>
     <use xlink:href="#DejaVuSans-Bold-65" x="790.820312"/>
     <use xlink:href="#DejaVuSans-Bold-20" x="858.642578"/>
     <use xlink:href="#DejaVuSans-Bold-48" x="893.457031"/>
     <use xlink:href="#DejaVuSans-Bold-69" x="977.148438"/>
     <use xlink:href="#DejaVuSans-Bold-70" x="1011.425781"/>
     <use xlink:href="#DejaVuSans-Bold-65" x="1083.007812"/>
     <use xlink:href="#DejaVuSans-Bold-72" x="1150.830078"/>
     <use xlink:href="#DejaVuSans-Bold-74" x="1200.146484"/>
     <use xlink:href="#DejaVuSans-Bold-65" x="1247.949219"/>
     <use xlink:href="#DejaVuSans-Bold-6e" x="1315.771484"/>
     <use xlink:href="#DejaVuSans-Bold-73" x="1386.962891"/>
     <use xlink:href="#DejaVuSans-Bold-69" x="1446.484375"/>
     <use xlink:href="#DejaVuSans-Bold-f3" x="1480.761719"/>
     <use xlink:href="#DejaVuSans-Bold-6e" x="1549.462891"/>
    </g>
   </g>
  </g>
 </g>
</svg>
