<?xml version="1.0" encoding="utf-8" standalone="no"?>
<!DOCTYPE svg PUBLIC "-//W3C//DTD SVG 1.1//EN"
  "http://www.w3.org/Graphics/SVG/1.1/DTD/svg11.dtd">
<svg xmlns:xlink="http://www.w3.org/1999/xlink" width="504pt" height="504pt" viewBox="0 0 504 504" xmlns="http://www.w3.org/2000/svg" version="1.1">
 <metadata>
  <rdf:RDF xmlns:dc="http://purl.org/dc/elements/1.1/" xmlns:cc="http://creativecommons.org/ns#" xmlns:rdf="http://www.w3.org/1999/02/22-rdf-syntax-ns#">
   <cc:Work>
    <dc:type rdf:resource="http://purl.org/dc/dcmitype/StillImage"/>
    <dc:date>2025-05-09T16:41:11.274953</dc:date>
    <dc:format>image/svg+xml</dc:format>
    <dc:creator>
     <cc:Agent>
      <dc:title>Matplotlib v3.10.1, https://matplotlib.org/</dc:title>
     </cc:Agent>
    </dc:creator>
   </cc:Work>
  </rdf:RDF>
 </metadata>
 <defs>
  <style type="text/css">*{stroke-linejoin: round; stroke-linecap: butt}</style>
 </defs>
 <g id="figure_1">
  <g id="patch_1">
   <path d="M 0 504 
L 504 504 
L 504 0 
L 0 0 
z
" style="fill: #ffffff"/>
  </g>
  <g id="axes_1">
   <g id="patch_2">
    <path d="M 336.923315 110.27731 
C 318.281083 99.514212 297.892074 92.109466 276.68767 88.401323 
C 255.483265 84.69318 233.791335 84.738978 212.602777 88.536624 
C 191.414219 92.33427 171.056659 99.825044 152.460041 110.666763 
C 133.863422 121.508482 117.315292 135.533508 103.571579 152.10117 
C 89.827866 168.668833 79.101079 187.522957 71.881224 207.802276 
C 64.661369 228.081595 61.060081 249.472544 61.241869 270.997971 
C 61.423657 292.523399 65.385711 313.850473 72.947041 334.004961 
C 80.508372 354.159449 91.552063 372.829715 105.573633 389.162892 
C 119.595203 405.496068 136.377846 419.239607 155.154922 429.765694 
C 173.931997 440.291782 194.413168 447.437661 215.662844 450.876904 
C 236.912519 454.316147 258.602129 453.995576 279.740881 449.929833 
C 300.879632 445.86409 321.140672 438.116042 339.598463 427.039624 
C 358.056254 415.963206 374.425397 401.729685 387.95814 384.989256 
C 401.490883 368.248828 411.977979 349.260337 418.940371 328.891189 
C 425.902763 308.522041 429.232797 287.08719 428.778354 265.565792 
C 428.323912 244.044394 424.09202 222.76922 416.275993 202.712131 
L 304.964353 246.089049 
C 307.699962 253.10903 309.181124 260.555341 309.340179 268.087831 
C 309.499234 275.62032 308.333722 283.122518 305.896885 290.251719 
C 303.460047 297.380921 299.789564 304.026893 295.053104 309.886043 
C 290.316644 315.745193 284.587444 320.726925 278.127217 324.603672 
C 271.66699 328.480418 264.575626 331.192235 257.177063 332.615245 
C 249.7785 334.038255 242.187136 334.150455 234.74975 332.94672 
C 227.312364 331.742985 220.143954 329.241927 213.571977 325.557796 
C 207.000001 321.873666 201.126076 317.063427 196.218526 311.346815 
C 191.310977 305.630203 187.445685 299.09561 184.799219 292.04154 
C 182.152754 284.987469 180.766035 277.522993 180.702409 269.989093 
C 180.638783 262.455194 181.899234 254.968361 184.426183 247.8706 
C 186.953133 240.772838 190.707508 234.173895 195.517808 228.375213 
C 200.328107 222.576531 206.119953 217.667772 212.628769 213.87317 
C 219.137585 210.078568 226.262732 207.456798 233.678727 206.127621 
C 241.094722 204.798445 248.686898 204.782416 256.108439 206.080266 
C 263.529981 207.378116 270.666134 209.969778 277.190915 213.736862 
z
" style="fill: #8c564b; stroke: #ffffff; stroke-width: 2; stroke-linejoin: miter"/>
   </g>
   <g id="patch_3">
    <path d="M 430.221365 190.740439 
C 422.6892 171.411783 411.938706 153.497114 398.426372 137.75712 
C 384.914038 122.017127 368.833864 108.677814 350.868687 98.305613 
L 291.136287 201.765163 
C 297.424099 205.395434 303.05216 210.064193 307.781477 215.573191 
C 312.510794 221.082188 316.273467 227.352322 318.909724 234.117352 
z
" style="fill: #7f7f7f; stroke: #ffffff; stroke-width: 2; stroke-linejoin: miter"/>
   </g>
   <g id="matplotlib.axis_1"/>
   <g id="matplotlib.axis_2"/>
   <g id="text_1">
    <!-- No -->
    <g transform="translate(71.817466 404.721763) scale(0.13 -0.13)">
     <defs>
      <path id="DejaVuSans-Bold-4e" d="M 588 4666 
L 1931 4666 
L 3628 1466 
L 3628 4666 
L 4769 4666 
L 4769 0 
L 3425 0 
L 1728 3200 
L 1728 0 
L 588 0 
L 588 4666 
z
" transform="scale(0.015625)"/>
      <path id="DejaVuSans-Bold-6f" d="M 2203 2784 
Q 1831 2784 1636 2517 
Q 1441 2250 1441 1747 
Q 1441 1244 1636 976 
Q 1831 709 2203 709 
Q 2569 709 2762 976 
Q 2956 1244 2956 1747 
Q 2956 2250 2762 2517 
Q 2569 2784 2203 2784 
z
M 2203 3584 
Q 3106 3584 3614 3096 
Q 4122 2609 4122 1747 
Q 4122 884 3614 396 
Q 3106 -91 2203 -91 
Q 1297 -91 786 396 
Q 275 884 275 1747 
Q 275 2609 786 3096 
Q 1297 3584 2203 3584 
z
" transform="scale(0.015625)"/>
     </defs>
     <use xlink:href="#DejaVuSans-Bold-4e"/>
     <use xlink:href="#DejaVuSans-Bold-6f" transform="translate(83.691406 0)"/>
    </g>
   </g>
   <g id="text_2">
    <path d="M 143.3308 340.622002 
Q 142.646268 340.622002 142.276581 340.997783 
Q 141.908925 341.371533 141.908925 342.070283 
Q 141.908925 342.769033 142.276581 343.140752 
Q 142.646268 343.51044 143.3308 343.51044 
Q 144.011268 343.51044 144.372831 343.140752 
Q 144.734393 342.769033 144.734393 342.070283 
Q 144.734393 341.36544 144.372831 340.993721 
Q 144.011268 340.622002 143.3308 340.622002 
z
M 141.547362 339.817627 
Q 140.684081 339.555596 140.245331 339.017315 
Q 139.808612 338.477002 139.808612 337.670596 
Q 139.808612 336.472158 140.702362 335.844502 
Q 141.598143 335.214815 143.3308 335.214815 
Q 145.051268 335.214815 145.945018 335.84044 
Q 146.8408 336.466065 146.8408 337.670596 
Q 146.8408 338.477002 146.400018 339.017315 
Q 145.959237 339.555596 145.095956 339.817627 
Q 146.0608 340.083721 146.552362 340.68294 
Q 147.043925 341.282158 147.043925 342.196221 
Q 147.043925 343.605908 146.107518 344.327002 
Q 145.171112 345.048096 143.3308 345.048096 
Q 141.484393 345.048096 140.541893 344.327002 
Q 139.599393 343.605908 139.599393 342.196221 
Q 139.599393 341.282158 140.090956 340.68294 
Q 140.582518 340.083721 141.547362 339.817627 
z
M 142.118143 337.918408 
Q 142.118143 338.483096 142.432987 338.787783 
Q 142.747831 339.092471 143.3308 339.092471 
Q 143.901581 339.092471 144.212362 338.787783 
Q 144.525175 338.483096 144.525175 337.918408 
Q 144.525175 337.353721 144.212362 337.053096 
Q 143.901581 336.75044 143.3308 336.75044 
Q 142.747831 336.75044 142.432987 337.055127 
Q 142.118143 337.359815 142.118143 337.918408 
z
M 149.152616 344.654033 
L 149.152616 342.901065 
Q 149.735585 343.175283 150.267772 343.311377 
Q 150.801991 343.447471 151.321991 343.447471 
Q 152.414803 343.447471 153.024178 342.842158 
Q 153.633553 342.234815 153.74121 341.042471 
Q 153.310585 341.359346 152.821053 341.517783 
Q 152.331522 341.676221 151.760741 341.676221 
Q 150.306366 341.676221 149.414647 340.82919 
Q 148.522928 339.982158 148.522928 338.598877 
Q 148.522928 337.067315 149.51621 336.147158 
Q 150.509491 335.227002 152.179178 335.227002 
Q 154.03371 335.227002 155.049335 336.478252 
Q 156.06496 337.727471 156.06496 340.012627 
Q 156.06496 342.362783 154.876678 343.70544 
Q 153.690428 345.048096 151.620585 345.048096 
Q 150.954335 345.048096 150.34496 344.948565 
Q 149.735585 344.851065 149.152616 344.654033 
z
M 152.166991 340.089815 
Q 152.808866 340.089815 153.131835 339.67544 
Q 153.454803 339.259033 153.454803 338.426221 
Q 153.454803 337.601533 153.131835 337.183096 
Q 152.808866 336.762627 152.166991 336.762627 
Q 151.525116 336.762627 151.202147 337.183096 
Q 150.879178 337.601533 150.879178 338.426221 
Q 150.879178 339.259033 151.202147 339.67544 
Q 151.525116 340.089815 152.166991 340.089815 
z
M 158.222401 342.407471 
L 160.507557 342.407471 
L 160.507557 344.863252 
L 158.222401 344.863252 
L 158.222401 342.407471 
z
M 165.580096 343.067627 
L 169.750253 343.067627 
L 169.750253 344.863252 
L 162.862284 344.863252 
L 162.862284 343.067627 
L 166.321503 340.012627 
Q 166.786659 339.59419 167.008065 339.194033 
Q 167.229471 338.793877 167.229471 338.363252 
Q 167.229471 337.697002 166.782596 337.290752 
Q 166.335721 336.884502 165.592284 336.884502 
Q 165.021503 336.884502 164.341034 337.128252 
Q 163.662596 337.372002 162.88869 337.85544 
L 162.88869 335.773408 
Q 163.713378 335.501221 164.519784 335.359033 
Q 165.32619 335.214815 166.100096 335.214815 
Q 167.802284 335.214815 168.744784 335.964346 
Q 169.687284 336.711846 169.687284 338.052471 
Q 169.687284 338.826377 169.287128 339.49669 
Q 168.886971 340.164971 167.605253 341.290283 
L 165.580096 343.067627 
z
M 180.95285 340.953096 
Q 180.503944 340.953096 180.256132 341.343096 
Q 180.008319 341.733096 180.008319 342.458252 
Q 180.008319 343.187471 180.252069 343.577471 
Q 180.495819 343.967471 180.95285 343.967471 
Q 181.409882 343.967471 181.6516 343.577471 
Q 181.893319 343.187471 181.893319 342.458252 
Q 181.893319 341.733096 181.647538 341.343096 
Q 181.403788 340.953096 180.95285 340.953096 
z
M 180.95285 339.88669 
Q 182.135038 339.88669 182.813475 340.573252 
Q 183.491913 341.257783 183.491913 342.458252 
Q 183.491913 343.65669 182.813475 344.353408 
Q 182.135038 345.048096 180.95285 345.048096 
Q 179.772694 345.048096 179.090194 344.353408 
Q 178.407694 343.65669 178.407694 342.458252 
Q 178.407694 341.263877 179.090194 340.575283 
Q 179.772694 339.88669 180.95285 339.88669 
z
M 175.133319 345.048096 
L 173.729725 345.048096 
L 179.65285 335.214815 
L 181.062538 335.214815 
L 175.133319 345.048096 
z
M 173.831288 335.214815 
Q 175.011444 335.214815 175.68785 335.903408 
Q 176.364257 336.592002 176.364257 337.792471 
Q 176.364257 338.990908 175.68785 339.683565 
Q 175.011444 340.376221 173.831288 340.376221 
Q 172.651132 340.376221 171.974725 339.683565 
Q 171.298319 338.990908 171.298319 337.792471 
Q 171.298319 336.592002 171.974725 335.903408 
Q 172.651132 335.214815 173.831288 335.214815 
z
M 173.831288 336.281221 
Q 173.374257 336.281221 173.126444 336.675283 
Q 172.878632 337.067315 172.878632 337.792471 
Q 172.878632 338.52169 173.126444 338.919815 
Q 173.374257 339.315908 173.831288 339.315908 
Q 174.288319 339.315908 174.532069 338.919815 
Q 174.77785 338.52169 174.77785 337.792471 
Q 174.77785 337.067315 174.530038 336.675283 
Q 174.282225 336.281221 173.831288 336.281221 
z
" style="fill: #ffffff; stroke: #000000; stroke-width: 3"/>
    <path d="M 143.3308 340.622002 
Q 142.646268 340.622002 142.276581 340.997783 
Q 141.908925 341.371533 141.908925 342.070283 
Q 141.908925 342.769033 142.276581 343.140752 
Q 142.646268 343.51044 143.3308 343.51044 
Q 144.011268 343.51044 144.372831 343.140752 
Q 144.734393 342.769033 144.734393 342.070283 
Q 144.734393 341.36544 144.372831 340.993721 
Q 144.011268 340.622002 143.3308 340.622002 
z
M 141.547362 339.817627 
Q 140.684081 339.555596 140.245331 339.017315 
Q 139.808612 338.477002 139.808612 337.670596 
Q 139.808612 336.472158 140.702362 335.844502 
Q 141.598143 335.214815 143.3308 335.214815 
Q 145.051268 335.214815 145.945018 335.84044 
Q 146.8408 336.466065 146.8408 337.670596 
Q 146.8408 338.477002 146.400018 339.017315 
Q 145.959237 339.555596 145.095956 339.817627 
Q 146.0608 340.083721 146.552362 340.68294 
Q 147.043925 341.282158 147.043925 342.196221 
Q 147.043925 343.605908 146.107518 344.327002 
Q 145.171112 345.048096 143.3308 345.048096 
Q 141.484393 345.048096 140.541893 344.327002 
Q 139.599393 343.605908 139.599393 342.196221 
Q 139.599393 341.282158 140.090956 340.68294 
Q 140.582518 340.083721 141.547362 339.817627 
z
M 142.118143 337.918408 
Q 142.118143 338.483096 142.432987 338.787783 
Q 142.747831 339.092471 143.3308 339.092471 
Q 143.901581 339.092471 144.212362 338.787783 
Q 144.525175 338.483096 144.525175 337.918408 
Q 144.525175 337.353721 144.212362 337.053096 
Q 143.901581 336.75044 143.3308 336.75044 
Q 142.747831 336.75044 142.432987 337.055127 
Q 142.118143 337.359815 142.118143 337.918408 
z
M 149.152616 344.654033 
L 149.152616 342.901065 
Q 149.735585 343.175283 150.267772 343.311377 
Q 150.801991 343.447471 151.321991 343.447471 
Q 152.414803 343.447471 153.024178 342.842158 
Q 153.633553 342.234815 153.74121 341.042471 
Q 153.310585 341.359346 152.821053 341.517783 
Q 152.331522 341.676221 151.760741 341.676221 
Q 150.306366 341.676221 149.414647 340.82919 
Q 148.522928 339.982158 148.522928 338.598877 
Q 148.522928 337.067315 149.51621 336.147158 
Q 150.509491 335.227002 152.179178 335.227002 
Q 154.03371 335.227002 155.049335 336.478252 
Q 156.06496 337.727471 156.06496 340.012627 
Q 156.06496 342.362783 154.876678 343.70544 
Q 153.690428 345.048096 151.620585 345.048096 
Q 150.954335 345.048096 150.34496 344.948565 
Q 149.735585 344.851065 149.152616 344.654033 
z
M 152.166991 340.089815 
Q 152.808866 340.089815 153.131835 339.67544 
Q 153.454803 339.259033 153.454803 338.426221 
Q 153.454803 337.601533 153.131835 337.183096 
Q 152.808866 336.762627 152.166991 336.762627 
Q 151.525116 336.762627 151.202147 337.183096 
Q 150.879178 337.601533 150.879178 338.426221 
Q 150.879178 339.259033 151.202147 339.67544 
Q 151.525116 340.089815 152.166991 340.089815 
z
M 158.222401 342.407471 
L 160.507557 342.407471 
L 160.507557 344.863252 
L 158.222401 344.863252 
L 158.222401 342.407471 
z
M 165.580096 343.067627 
L 169.750253 343.067627 
L 169.750253 344.863252 
L 162.862284 344.863252 
L 162.862284 343.067627 
L 166.321503 340.012627 
Q 166.786659 339.59419 167.008065 339.194033 
Q 167.229471 338.793877 167.229471 338.363252 
Q 167.229471 337.697002 166.782596 337.290752 
Q 166.335721 336.884502 165.592284 336.884502 
Q 165.021503 336.884502 164.341034 337.128252 
Q 163.662596 337.372002 162.88869 337.85544 
L 162.88869 335.773408 
Q 163.713378 335.501221 164.519784 335.359033 
Q 165.32619 335.214815 166.100096 335.214815 
Q 167.802284 335.214815 168.744784 335.964346 
Q 169.687284 336.711846 169.687284 338.052471 
Q 169.687284 338.826377 169.287128 339.49669 
Q 168.886971 340.164971 167.605253 341.290283 
L 165.580096 343.067627 
z
M 180.95285 340.953096 
Q 180.503944 340.953096 180.256132 341.343096 
Q 180.008319 341.733096 180.008319 342.458252 
Q 180.008319 343.187471 180.252069 343.577471 
Q 180.495819 343.967471 180.95285 343.967471 
Q 181.409882 343.967471 181.6516 343.577471 
Q 181.893319 343.187471 181.893319 342.458252 
Q 181.893319 341.733096 181.647538 341.343096 
Q 181.403788 340.953096 180.95285 340.953096 
z
M 180.95285 339.88669 
Q 182.135038 339.88669 182.813475 340.573252 
Q 183.491913 341.257783 183.491913 342.458252 
Q 183.491913 343.65669 182.813475 344.353408 
Q 182.135038 345.048096 180.95285 345.048096 
Q 179.772694 345.048096 179.090194 344.353408 
Q 178.407694 343.65669 178.407694 342.458252 
Q 178.407694 341.263877 179.090194 340.575283 
Q 179.772694 339.88669 180.95285 339.88669 
z
M 175.133319 345.048096 
L 173.729725 345.048096 
L 179.65285 335.214815 
L 181.062538 335.214815 
L 175.133319 345.048096 
z
M 173.831288 335.214815 
Q 175.011444 335.214815 175.68785 335.903408 
Q 176.364257 336.592002 176.364257 337.792471 
Q 176.364257 338.990908 175.68785 339.683565 
Q 175.011444 340.376221 173.831288 340.376221 
Q 172.651132 340.376221 171.974725 339.683565 
Q 171.298319 338.990908 171.298319 337.792471 
Q 171.298319 336.592002 171.974725 335.903408 
Q 172.651132 335.214815 173.831288 335.214815 
z
M 173.831288 336.281221 
Q 173.374257 336.281221 173.126444 336.675283 
Q 172.878632 337.067315 172.878632 337.792471 
Q 172.878632 338.52169 173.126444 338.919815 
Q 173.374257 339.315908 173.831288 339.315908 
Q 174.288319 339.315908 174.532069 338.919815 
Q 174.77785 338.52169 174.77785 337.792471 
Q 174.77785 337.067315 174.530038 336.675283 
Q 174.282225 336.281221 173.831288 336.281221 
z
" style="fill: #ffffff"/>
   </g>
   <g id="text_3">
    <!-- Sí -->
    <g transform="translate(412.371806 129.372674) scale(0.13 -0.13)">
     <defs>
      <path id="DejaVuSans-Bold-53" d="M 3834 4519 
L 3834 3531 
Q 3450 3703 3084 3790 
Q 2719 3878 2394 3878 
Q 1963 3878 1756 3759 
Q 1550 3641 1550 3391 
Q 1550 3203 1689 3098 
Q 1828 2994 2194 2919 
L 2706 2816 
Q 3484 2659 3812 2340 
Q 4141 2022 4141 1434 
Q 4141 663 3683 286 
Q 3225 -91 2284 -91 
Q 1841 -91 1394 -6 
Q 947 78 500 244 
L 500 1259 
Q 947 1022 1364 901 
Q 1781 781 2169 781 
Q 2563 781 2772 912 
Q 2981 1044 2981 1288 
Q 2981 1506 2839 1625 
Q 2697 1744 2272 1838 
L 1806 1941 
Q 1106 2091 782 2419 
Q 459 2747 459 3303 
Q 459 4000 909 4375 
Q 1359 4750 2203 4750 
Q 2588 4750 2994 4692 
Q 3400 4634 3834 4519 
z
" transform="scale(0.015625)"/>
      <path id="DejaVuSans-Bold-ed" d="M 538 3500 
L 1656 3500 
L 1656 0 
L 538 0 
L 538 3500 
z
M 1590 5119 
L 2474 5119 
L 1321 3944 
L 709 3944 
L 1590 5119 
z
" transform="scale(0.015625)"/>
     </defs>
     <use xlink:href="#DejaVuSans-Bold-53"/>
     <use xlink:href="#DejaVuSans-Bold-ed" transform="translate(72.021484 0)"/>
    </g>
   </g>
   <g id="text_4">
    <path d="M 321.61845 187.54319 
L 323.777668 187.54319 
L 323.777668 181.41694 
L 321.561575 181.873971 
L 321.561575 180.210377 
L 323.76345 179.753346 
L 326.0872 179.753346 
L 326.0872 187.54319 
L 328.246418 187.54319 
L 328.246418 189.231158 
L 321.61845 189.231158 
L 321.61845 187.54319 
z
M 335.120422 184.482096 
Q 335.120422 182.704752 334.787297 181.979596 
Q 334.454172 181.252408 333.666047 181.252408 
Q 332.879953 181.252408 332.542766 181.979596 
Q 332.205578 182.704752 332.205578 184.482096 
Q 332.205578 186.279752 332.542766 187.017096 
Q 332.879953 187.752408 333.666047 187.752408 
Q 334.448078 187.752408 334.783235 187.017096 
Q 335.120422 186.279752 335.120422 184.482096 
z
M 337.564016 184.502408 
Q 337.564016 186.856627 336.548391 188.136315 
Q 335.532766 189.416002 333.666047 189.416002 
Q 331.793235 189.416002 330.77761 188.136315 
Q 329.761985 186.856627 329.761985 184.502408 
Q 329.761985 182.140065 330.77761 180.862408 
Q 331.793235 179.582721 333.666047 179.582721 
Q 335.532766 179.582721 336.548391 180.862408 
Q 337.564016 182.140065 337.564016 184.502408 
z
M 339.512239 186.775377 
L 341.797395 186.775377 
L 341.797395 189.231158 
L 339.512239 189.231158 
L 339.512239 186.775377 
z
M 347.649934 184.989908 
Q 346.965403 184.989908 346.595715 185.36569 
Q 346.228059 185.73944 346.228059 186.43819 
Q 346.228059 187.13694 346.595715 187.508658 
Q 346.965403 187.878346 347.649934 187.878346 
Q 348.330403 187.878346 348.691965 187.508658 
Q 349.053528 187.13694 349.053528 186.43819 
Q 349.053528 185.733346 348.691965 185.361627 
Q 348.330403 184.989908 347.649934 184.989908 
z
M 345.866496 184.185533 
Q 345.003215 183.923502 344.564465 183.385221 
Q 344.127746 182.844908 344.127746 182.038502 
Q 344.127746 180.840065 345.021496 180.212408 
Q 345.917278 179.582721 347.649934 179.582721 
Q 349.370403 179.582721 350.264153 180.208346 
Q 351.159934 180.833971 351.159934 182.038502 
Q 351.159934 182.844908 350.719153 183.385221 
Q 350.278371 183.923502 349.41509 184.185533 
Q 350.379934 184.451627 350.871496 185.050846 
Q 351.363059 185.650065 351.363059 186.564127 
Q 351.363059 187.973815 350.426653 188.694908 
Q 349.490246 189.416002 347.649934 189.416002 
Q 345.803528 189.416002 344.861028 188.694908 
Q 343.918528 187.973815 343.918528 186.564127 
Q 343.918528 185.650065 344.41009 185.050846 
Q 344.901653 184.451627 345.866496 184.185533 
z
M 346.437278 182.286315 
Q 346.437278 182.851002 346.752121 183.15569 
Q 347.066965 183.460377 347.649934 183.460377 
Q 348.220715 183.460377 348.531496 183.15569 
Q 348.844309 182.851002 348.844309 182.286315 
Q 348.844309 181.721627 348.531496 181.421002 
Q 348.220715 181.118346 347.649934 181.118346 
Q 347.066965 181.118346 346.752121 181.423033 
Q 346.437278 181.727721 346.437278 182.286315 
z
M 362.242688 185.321002 
Q 361.793782 185.321002 361.545969 185.711002 
Q 361.298157 186.101002 361.298157 186.826158 
Q 361.298157 187.555377 361.541907 187.945377 
Q 361.785657 188.335377 362.242688 188.335377 
Q 362.699719 188.335377 362.941438 187.945377 
Q 363.183157 187.555377 363.183157 186.826158 
Q 363.183157 186.101002 362.937375 185.711002 
Q 362.693625 185.321002 362.242688 185.321002 
z
M 362.242688 184.254596 
Q 363.424875 184.254596 364.103313 184.941158 
Q 364.78175 185.62569 364.78175 186.826158 
Q 364.78175 188.024596 364.103313 188.721315 
Q 363.424875 189.416002 362.242688 189.416002 
Q 361.062532 189.416002 360.380032 188.721315 
Q 359.697532 188.024596 359.697532 186.826158 
Q 359.697532 185.631783 360.380032 184.94319 
Q 361.062532 184.254596 362.242688 184.254596 
z
M 356.423157 189.416002 
L 355.019563 189.416002 
L 360.942688 179.582721 
L 362.352375 179.582721 
L 356.423157 189.416002 
z
M 355.121125 179.582721 
Q 356.301282 179.582721 356.977688 180.271315 
Q 357.654094 180.959908 357.654094 182.160377 
Q 357.654094 183.358815 356.977688 184.051471 
Q 356.301282 184.744127 355.121125 184.744127 
Q 353.940969 184.744127 353.264563 184.051471 
Q 352.588157 183.358815 352.588157 182.160377 
Q 352.588157 180.959908 353.264563 180.271315 
Q 353.940969 179.582721 355.121125 179.582721 
z
M 355.121125 180.649127 
Q 354.664094 180.649127 354.416282 181.04319 
Q 354.168469 181.435221 354.168469 182.160377 
Q 354.168469 182.889596 354.416282 183.287721 
Q 354.664094 183.683815 355.121125 183.683815 
Q 355.578157 183.683815 355.821907 183.287721 
Q 356.067688 182.889596 356.067688 182.160377 
Q 356.067688 181.435221 355.819875 181.04319 
Q 355.572063 180.649127 355.121125 180.649127 
z
" style="fill: #ffffff; stroke: #000000; stroke-width: 3"/>
    <path d="M 321.61845 187.54319 
L 323.777668 187.54319 
L 323.777668 181.41694 
L 321.561575 181.873971 
L 321.561575 180.210377 
L 323.76345 179.753346 
L 326.0872 179.753346 
L 326.0872 187.54319 
L 328.246418 187.54319 
L 328.246418 189.231158 
L 321.61845 189.231158 
L 321.61845 187.54319 
z
M 335.120422 184.482096 
Q 335.120422 182.704752 334.787297 181.979596 
Q 334.454172 181.252408 333.666047 181.252408 
Q 332.879953 181.252408 332.542766 181.979596 
Q 332.205578 182.704752 332.205578 184.482096 
Q 332.205578 186.279752 332.542766 187.017096 
Q 332.879953 187.752408 333.666047 187.752408 
Q 334.448078 187.752408 334.783235 187.017096 
Q 335.120422 186.279752 335.120422 184.482096 
z
M 337.564016 184.502408 
Q 337.564016 186.856627 336.548391 188.136315 
Q 335.532766 189.416002 333.666047 189.416002 
Q 331.793235 189.416002 330.77761 188.136315 
Q 329.761985 186.856627 329.761985 184.502408 
Q 329.761985 182.140065 330.77761 180.862408 
Q 331.793235 179.582721 333.666047 179.582721 
Q 335.532766 179.582721 336.548391 180.862408 
Q 337.564016 182.140065 337.564016 184.502408 
z
M 339.512239 186.775377 
L 341.797395 186.775377 
L 341.797395 189.231158 
L 339.512239 189.231158 
L 339.512239 186.775377 
z
M 347.649934 184.989908 
Q 346.965403 184.989908 346.595715 185.36569 
Q 346.228059 185.73944 346.228059 186.43819 
Q 346.228059 187.13694 346.595715 187.508658 
Q 346.965403 187.878346 347.649934 187.878346 
Q 348.330403 187.878346 348.691965 187.508658 
Q 349.053528 187.13694 349.053528 186.43819 
Q 349.053528 185.733346 348.691965 185.361627 
Q 348.330403 184.989908 347.649934 184.989908 
z
M 345.866496 184.185533 
Q 345.003215 183.923502 344.564465 183.385221 
Q 344.127746 182.844908 344.127746 182.038502 
Q 344.127746 180.840065 345.021496 180.212408 
Q 345.917278 179.582721 347.649934 179.582721 
Q 349.370403 179.582721 350.264153 180.208346 
Q 351.159934 180.833971 351.159934 182.038502 
Q 351.159934 182.844908 350.719153 183.385221 
Q 350.278371 183.923502 349.41509 184.185533 
Q 350.379934 184.451627 350.871496 185.050846 
Q 351.363059 185.650065 351.363059 186.564127 
Q 351.363059 187.973815 350.426653 188.694908 
Q 349.490246 189.416002 347.649934 189.416002 
Q 345.803528 189.416002 344.861028 188.694908 
Q 343.918528 187.973815 343.918528 186.564127 
Q 343.918528 185.650065 344.41009 185.050846 
Q 344.901653 184.451627 345.866496 184.185533 
z
M 346.437278 182.286315 
Q 346.437278 182.851002 346.752121 183.15569 
Q 347.066965 183.460377 347.649934 183.460377 
Q 348.220715 183.460377 348.531496 183.15569 
Q 348.844309 182.851002 348.844309 182.286315 
Q 348.844309 181.721627 348.531496 181.421002 
Q 348.220715 181.118346 347.649934 181.118346 
Q 347.066965 181.118346 346.752121 181.423033 
Q 346.437278 181.727721 346.437278 182.286315 
z
M 362.242688 185.321002 
Q 361.793782 185.321002 361.545969 185.711002 
Q 361.298157 186.101002 361.298157 186.826158 
Q 361.298157 187.555377 361.541907 187.945377 
Q 361.785657 188.335377 362.242688 188.335377 
Q 362.699719 188.335377 362.941438 187.945377 
Q 363.183157 187.555377 363.183157 186.826158 
Q 363.183157 186.101002 362.937375 185.711002 
Q 362.693625 185.321002 362.242688 185.321002 
z
M 362.242688 184.254596 
Q 363.424875 184.254596 364.103313 184.941158 
Q 364.78175 185.62569 364.78175 186.826158 
Q 364.78175 188.024596 364.103313 188.721315 
Q 363.424875 189.416002 362.242688 189.416002 
Q 361.062532 189.416002 360.380032 188.721315 
Q 359.697532 188.024596 359.697532 186.826158 
Q 359.697532 185.631783 360.380032 184.94319 
Q 361.062532 184.254596 362.242688 184.254596 
z
M 356.423157 189.416002 
L 355.019563 189.416002 
L 360.942688 179.582721 
L 362.352375 179.582721 
L 356.423157 189.416002 
z
M 355.121125 179.582721 
Q 356.301282 179.582721 356.977688 180.271315 
Q 357.654094 180.959908 357.654094 182.160377 
Q 357.654094 183.358815 356.977688 184.051471 
Q 356.301282 184.744127 355.121125 184.744127 
Q 353.940969 184.744127 353.264563 184.051471 
Q 352.588157 183.358815 352.588157 182.160377 
Q 352.588157 180.959908 353.264563 180.271315 
Q 353.940969 179.582721 355.121125 179.582721 
z
M 355.121125 180.649127 
Q 354.664094 180.649127 354.416282 181.04319 
Q 354.168469 181.435221 354.168469 182.160377 
Q 354.168469 182.889596 354.416282 183.287721 
Q 354.664094 183.683815 355.121125 183.683815 
Q 355.578157 183.683815 355.821907 183.287721 
Q 356.067688 182.889596 356.067688 182.160377 
Q 356.067688 181.435221 355.819875 181.04319 
Q 355.572063 180.649127 355.121125 180.649127 
z
" style="fill: #ffffff"/>
   </g>
   <g id="text_5">
    <!-- Distribución de Hipertensión -->
    <g transform="translate(89.935937 27.72) scale(0.2 -0.2)">
     <defs>
      <path id="DejaVuSans-Bold-44" d="M 1791 3756 
L 1791 909 
L 2222 909 
Q 2959 909 3348 1275 
Q 3738 1641 3738 2338 
Q 3738 3031 3350 3393 
Q 2963 3756 2222 3756 
L 1791 3756 
z
M 588 4666 
L 1856 4666 
Q 2919 4666 3439 4514 
Q 3959 4363 4331 4000 
Q 4659 3684 4818 3271 
Q 4978 2859 4978 2338 
Q 4978 1809 4818 1395 
Q 4659 981 4331 666 
Q 3956 303 3431 151 
Q 2906 0 1856 0 
L 588 0 
L 588 4666 
z
" transform="scale(0.015625)"/>
      <path id="DejaVuSans-Bold-69" d="M 538 3500 
L 1656 3500 
L 1656 0 
L 538 0 
L 538 3500 
z
M 538 4863 
L 1656 4863 
L 1656 3950 
L 538 3950 
L 538 4863 
z
" transform="scale(0.015625)"/>
      <path id="DejaVuSans-Bold-73" d="M 3272 3391 
L 3272 2541 
Q 2913 2691 2578 2766 
Q 2244 2841 1947 2841 
Q 1628 2841 1473 2761 
Q 1319 2681 1319 2516 
Q 1319 2381 1436 2309 
Q 1553 2238 1856 2203 
L 2053 2175 
Q 2913 2066 3209 1816 
Q 3506 1566 3506 1031 
Q 3506 472 3093 190 
Q 2681 -91 1863 -91 
Q 1516 -91 1145 -36 
Q 775 19 384 128 
L 384 978 
Q 719 816 1070 734 
Q 1422 653 1784 653 
Q 2113 653 2278 743 
Q 2444 834 2444 1013 
Q 2444 1163 2330 1236 
Q 2216 1309 1875 1350 
L 1678 1375 
Q 931 1469 631 1722 
Q 331 1975 331 2491 
Q 331 3047 712 3315 
Q 1094 3584 1881 3584 
Q 2191 3584 2531 3537 
Q 2872 3491 3272 3391 
z
" transform="scale(0.015625)"/>
      <path id="DejaVuSans-Bold-74" d="M 1759 4494 
L 1759 3500 
L 2913 3500 
L 2913 2700 
L 1759 2700 
L 1759 1216 
Q 1759 972 1856 886 
Q 1953 800 2241 800 
L 2816 800 
L 2816 0 
L 1856 0 
Q 1194 0 917 276 
Q 641 553 641 1216 
L 641 2700 
L 84 2700 
L 84 3500 
L 641 3500 
L 641 4494 
L 1759 4494 
z
" transform="scale(0.015625)"/>
      <path id="DejaVuSans-Bold-72" d="M 3138 2547 
Q 2991 2616 2845 2648 
Q 2700 2681 2553 2681 
Q 2122 2681 1889 2404 
Q 1656 2128 1656 1613 
L 1656 0 
L 538 0 
L 538 3500 
L 1656 3500 
L 1656 2925 
Q 1872 3269 2151 3426 
Q 2431 3584 2822 3584 
Q 2878 3584 2943 3579 
Q 3009 3575 3134 3559 
L 3138 2547 
z
" transform="scale(0.015625)"/>
      <path id="DejaVuSans-Bold-62" d="M 2400 722 
Q 2759 722 2948 984 
Q 3138 1247 3138 1747 
Q 3138 2247 2948 2509 
Q 2759 2772 2400 2772 
Q 2041 2772 1848 2508 
Q 1656 2244 1656 1747 
Q 1656 1250 1848 986 
Q 2041 722 2400 722 
z
M 1656 2988 
Q 1888 3294 2169 3439 
Q 2450 3584 2816 3584 
Q 3463 3584 3878 3070 
Q 4294 2556 4294 1747 
Q 4294 938 3878 423 
Q 3463 -91 2816 -91 
Q 2450 -91 2169 54 
Q 1888 200 1656 506 
L 1656 0 
L 538 0 
L 538 4863 
L 1656 4863 
L 1656 2988 
z
" transform="scale(0.015625)"/>
      <path id="DejaVuSans-Bold-75" d="M 500 1363 
L 500 3500 
L 1625 3500 
L 1625 3150 
Q 1625 2866 1622 2436 
Q 1619 2006 1619 1863 
Q 1619 1441 1641 1255 
Q 1663 1069 1716 984 
Q 1784 875 1895 815 
Q 2006 756 2150 756 
Q 2500 756 2700 1025 
Q 2900 1294 2900 1772 
L 2900 3500 
L 4019 3500 
L 4019 0 
L 2900 0 
L 2900 506 
Q 2647 200 2364 54 
Q 2081 -91 1741 -91 
Q 1134 -91 817 281 
Q 500 653 500 1363 
z
" transform="scale(0.015625)"/>
      <path id="DejaVuSans-Bold-63" d="M 3366 3391 
L 3366 2478 
Q 3138 2634 2908 2709 
Q 2678 2784 2431 2784 
Q 1963 2784 1702 2511 
Q 1441 2238 1441 1747 
Q 1441 1256 1702 982 
Q 1963 709 2431 709 
Q 2694 709 2930 787 
Q 3166 866 3366 1019 
L 3366 103 
Q 3103 6 2833 -42 
Q 2563 -91 2291 -91 
Q 1344 -91 809 395 
Q 275 881 275 1747 
Q 275 2613 809 3098 
Q 1344 3584 2291 3584 
Q 2566 3584 2833 3536 
Q 3100 3488 3366 3391 
z
" transform="scale(0.015625)"/>
      <path id="DejaVuSans-Bold-f3" d="M 2203 2784 
Q 1831 2784 1636 2517 
Q 1441 2250 1441 1747 
Q 1441 1244 1636 976 
Q 1831 709 2203 709 
Q 2569 709 2762 976 
Q 2956 1244 2956 1747 
Q 2956 2250 2762 2517 
Q 2569 2784 2203 2784 
z
M 2203 3584 
Q 3106 3584 3614 3096 
Q 4122 2609 4122 1747 
Q 4122 884 3614 396 
Q 3106 -91 2203 -91 
Q 1297 -91 786 396 
Q 275 884 275 1747 
Q 275 2609 786 3096 
Q 1297 3584 2203 3584 
z
M 2694 5119 
L 3578 5119 
L 2425 3944 
L 1813 3944 
L 2694 5119 
z
" transform="scale(0.015625)"/>
      <path id="DejaVuSans-Bold-6e" d="M 4056 2131 
L 4056 0 
L 2931 0 
L 2931 347 
L 2931 1631 
Q 2931 2084 2911 2256 
Q 2891 2428 2841 2509 
Q 2775 2619 2662 2680 
Q 2550 2741 2406 2741 
Q 2056 2741 1856 2470 
Q 1656 2200 1656 1722 
L 1656 0 
L 538 0 
L 538 3500 
L 1656 3500 
L 1656 2988 
Q 1909 3294 2193 3439 
Q 2478 3584 2822 3584 
Q 3428 3584 3742 3212 
Q 4056 2841 4056 2131 
z
" transform="scale(0.015625)"/>
      <path id="DejaVuSans-Bold-20" transform="scale(0.015625)"/>
      <path id="DejaVuSans-Bold-64" d="M 2919 2988 
L 2919 4863 
L 4044 4863 
L 4044 0 
L 2919 0 
L 2919 506 
Q 2688 197 2409 53 
Q 2131 -91 1766 -91 
Q 1119 -91 703 423 
Q 288 938 288 1747 
Q 288 2556 703 3070 
Q 1119 3584 1766 3584 
Q 2128 3584 2408 3439 
Q 2688 3294 2919 2988 
z
M 2181 722 
Q 2541 722 2730 984 
Q 2919 1247 2919 1747 
Q 2919 2247 2730 2509 
Q 2541 2772 2181 2772 
Q 1825 2772 1636 2509 
Q 1447 2247 1447 1747 
Q 1447 1247 1636 984 
Q 1825 722 2181 722 
z
" transform="scale(0.015625)"/>
      <path id="DejaVuSans-Bold-65" d="M 4031 1759 
L 4031 1441 
L 1416 1441 
Q 1456 1047 1700 850 
Q 1944 653 2381 653 
Q 2734 653 3104 758 
Q 3475 863 3866 1075 
L 3866 213 
Q 3469 63 3072 -14 
Q 2675 -91 2278 -91 
Q 1328 -91 801 392 
Q 275 875 275 1747 
Q 275 2603 792 3093 
Q 1309 3584 2216 3584 
Q 3041 3584 3536 3087 
Q 4031 2591 4031 1759 
z
M 2881 2131 
Q 2881 2450 2695 2645 
Q 2509 2841 2209 2841 
Q 1884 2841 1681 2658 
Q 1478 2475 1428 2131 
L 2881 2131 
z
" transform="scale(0.015625)"/>
      <path id="DejaVuSans-Bold-48" d="M 588 4666 
L 1791 4666 
L 1791 2888 
L 3566 2888 
L 3566 4666 
L 4769 4666 
L 4769 0 
L 3566 0 
L 3566 1978 
L 1791 1978 
L 1791 0 
L 588 0 
L 588 4666 
z
" transform="scale(0.015625)"/>
      <path id="DejaVuSans-Bold-70" d="M 1656 506 
L 1656 -1331 
L 538 -1331 
L 538 3500 
L 1656 3500 
L 1656 2988 
Q 1888 3294 2169 3439 
Q 2450 3584 2816 3584 
Q 3463 3584 3878 3070 
Q 4294 2556 4294 1747 
Q 4294 938 3878 423 
Q 3463 -91 2816 -91 
Q 2450 -91 2169 54 
Q 1888 200 1656 506 
z
M 2400 2772 
Q 2041 2772 1848 2508 
Q 1656 2244 1656 1747 
Q 1656 1250 1848 986 
Q 2041 722 2400 722 
Q 2759 722 2948 984 
Q 3138 1247 3138 1747 
Q 3138 2247 2948 2509 
Q 2759 2772 2400 2772 
z
" transform="scale(0.015625)"/>
     </defs>
     <use xlink:href="#DejaVuSans-Bold-44"/>
     <use xlink:href="#DejaVuSans-Bold-69" transform="translate(83.007812 0)"/>
     <use xlink:href="#DejaVuSans-Bold-73" transform="translate(117.285156 0)"/>
     <use xlink:href="#DejaVuSans-Bold-74" transform="translate(176.806641 0)"/>
     <use xlink:href="#DejaVuSans-Bold-72" transform="translate(224.609375 0)"/>
     <use xlink:href="#DejaVuSans-Bold-69" transform="translate(273.925781 0)"/>
     <use xlink:href="#DejaVuSans-Bold-62" transform="translate(308.203125 0)"/>
     <use xlink:href="#DejaVuSans-Bold-75" transform="translate(379.785156 0)"/>
     <use xlink:href="#DejaVuSans-Bold-63" transform="translate(450.976562 0)"/>
     <use xlink:href="#DejaVuSans-Bold-69" transform="translate(510.253906 0)"/>
     <use xlink:href="#DejaVuSans-Bold-f3" transform="translate(544.53125 0)"/>
     <use xlink:href="#DejaVuSans-Bold-6e" transform="translate(613.232422 0)"/>
     <use xlink:href="#DejaVuSans-Bold-20" transform="translate(684.423828 0)"/>
     <use xlink:href="#DejaVuSans-Bold-64" transform="translate(719.238281 0)"/>
     <use xlink:href="#DejaVuSans-Bold-65" transform="translate(790.820312 0)"/>
     <use xlink:href="#DejaVuSans-Bold-20" transform="translate(858.642578 0)"/>
     <use xlink:href="#DejaVuSans-Bold-48" transform="translate(893.457031 0)"/>
     <use xlink:href="#DejaVuSans-Bold-69" transform="translate(977.148438 0)"/>
     <use xlink:href="#DejaVuSans-Bold-70" transform="translate(1011.425781 0)"/>
     <use xlink:href="#DejaVuSans-Bold-65" transform="translate(1083.007812 0)"/>
     <use xlink:href="#DejaVuSans-Bold-72" transform="translate(1150.830078 0)"/>
     <use xlink:href="#DejaVuSans-Bold-74" transform="translate(1200.146484 0)"/>
     <use xlink:href="#DejaVuSans-Bold-65" transform="translate(1247.949219 0)"/>
     <use xlink:href="#DejaVuSans-Bold-6e" transform="translate(1315.771484 0)"/>
     <use xlink:href="#DejaVuSans-Bold-73" transform="translate(1386.962891 0)"/>
     <use xlink:href="#DejaVuSans-Bold-69" transform="translate(1446.484375 0)"/>
     <use xlink:href="#DejaVuSans-Bold-f3" transform="translate(1480.761719 0)"/>
     <use xlink:href="#DejaVuSans-Bold-6e" transform="translate(1549.462891 0)"/>
    </g>
   </g>
  </g>
 </g>
</svg>
