<?xml version="1.0" encoding="utf-8" standalone="no"?>
<!DOCTYPE svg PUBLIC "-//W3C//DTD SVG 1.1//EN"
  "http://www.w3.org/Graphics/SVG/1.1/DTD/svg11.dtd">
<svg xmlns:xlink="http://www.w3.org/1999/xlink" width="504pt" height="504pt" viewBox="0 0 504 504" xmlns="http://www.w3.org/2000/svg" version="1.1">
 <metadata>
  <rdf:RDF xmlns:dc="http://purl.org/dc/elements/1.1/" xmlns:cc="http://creativecommons.org/ns#" xmlns:rdf="http://www.w3.org/1999/02/22-rdf-syntax-ns#">
   <cc:Work>
    <dc:type rdf:resource="http://purl.org/dc/dcmitype/StillImage"/>
    <dc:date>2025-05-13T16:41:13.353360</dc:date>
    <dc:format>image/svg+xml</dc:format>
    <dc:creator>
     <cc:Agent>
      <dc:title>Matplotlib v3.8.4, https://matplotlib.org/</dc:title>
     </cc:Agent>
    </dc:creator>
   </cc:Work>
  </rdf:RDF>
 </metadata>
 <defs>
  <style type="text/css">*{stroke-linejoin: round; stroke-linecap: butt}</style>
 </defs>
 <g id="figure_1">
  <g id="patch_1">
   <path d="M 0 504 
L 504 504 
L 504 0 
L 0 0 
z
" style="fill: #ffffff"/>
  </g>
  <g id="axes_1">
   <g id="patch_2">
    <path d="M 342.676821 95.19235 
C 315.12085 79.282903 283.908502 70.778159 252.090742 70.509447 
C 220.272983 70.240734 188.921445 78.217103 161.100703 93.658873 
C 133.27996 109.100644 109.927023 131.487732 93.324612 158.631828 
C 76.722201 185.775925 67.429491 216.762808 66.354833 248.563549 
L 186.071581 252.609198 
C 186.447712 241.478939 189.70016 230.63353 195.511004 221.133096 
C 201.321848 211.632662 209.495376 203.797181 219.232636 198.392562 
C 228.969896 192.987942 239.942934 190.196213 251.07915 190.290262 
C 262.215365 190.384312 273.139687 193.360972 282.784277 198.929279 
z
" style="fill: #bcbd22; stroke: #ffffff; stroke-width: 2; stroke-linejoin: miter"/>
   </g>
   <g id="patch_3">
    <path d="M 63.00691 261.493985 
C 61.771577 298.049313 71.446831 334.157868 90.794319 365.198047 
C 110.141807 396.238227 138.299301 420.826716 171.662871 435.816387 
L 220.753245 326.552476 
C 209.075995 321.306091 199.220872 312.70012 192.449251 301.836057 
C 185.677631 290.971994 182.291292 278.334 182.723658 265.539635 
z
" style="fill: #17becf; stroke: #ffffff; stroke-width: 2; stroke-linejoin: miter"/>
   </g>
   <g id="patch_4">
    <path d="M 187.685349 435.139426 
C 230.779377 454.500823 279.71058 456.568212 324.284184 440.910854 
C 368.857788 425.253496 405.747134 393.039945 427.266359 350.981867 
C 448.785585 308.923789 453.328647 260.160101 439.949003 214.850674 
C 426.569359 169.541247 396.265571 131.067657 355.351406 107.445843 
L 295.458843 211.182761 
C 309.7788 219.450396 320.385126 232.916152 325.068002 248.774451 
C 329.750877 264.632751 328.160805 281.700042 320.629076 296.420369 
C 313.097347 311.140696 300.186076 322.415439 284.585315 327.895514 
C 268.984554 333.37559 251.858633 332.652004 236.775723 325.875515 
z
" style="fill: #1f77b4; stroke: #ffffff; stroke-width: 2; stroke-linejoin: miter"/>
   </g>
   <g id="matplotlib.axis_1"/>
   <g id="matplotlib.axis_2"/>
   <g id="text_1">
    <!-- No -->
    <g transform="translate(132.346547 81.133186) scale(0.13 -0.13)">
     <defs>
      <path id="DejaVuSans-Bold-4e" d="M 588 4666 
L 1931 4666 
L 3628 1466 
L 3628 4666 
L 4769 4666 
L 4769 0 
L 3425 0 
L 1728 3200 
L 1728 0 
L 588 0 
L 588 4666 
z
" transform="scale(0.015625)"/>
      <path id="DejaVuSans-Bold-6f" d="M 2203 2784 
Q 1831 2784 1636 2517 
Q 1441 2250 1441 1747 
Q 1441 1244 1636 976 
Q 1831 709 2203 709 
Q 2569 709 2762 976 
Q 2956 1244 2956 1747 
Q 2956 2250 2762 2517 
Q 2569 2784 2203 2784 
z
M 2203 3584 
Q 3106 3584 3614 3096 
Q 4122 2609 4122 1747 
Q 4122 884 3614 396 
Q 3106 -91 2203 -91 
Q 1297 -91 786 396 
Q 275 884 275 1747 
Q 275 2609 786 3096 
Q 1297 3584 2203 3584 
z
" transform="scale(0.015625)"/>
     </defs>
     <use xlink:href="#DejaVuSans-Bold-4e"/>
     <use xlink:href="#DejaVuSans-Bold-6f" x="83.691406"/>
    </g>
   </g>
   <g id="text_2">
    <path d="M 180.379434 156.586936 
Q 181.338184 156.834749 181.83584 157.448186 
Q 182.335528 158.059593 182.335528 159.006155 
Q 182.335528 160.415843 181.254903 161.149124 
Q 180.176309 161.882405 178.108497 161.882405 
Q 177.377247 161.882405 176.643965 161.764593 
Q 175.910684 161.64678 175.193653 161.411155 
L 175.193653 159.526155 
Q 175.880215 159.869436 176.55459 160.044124 
Q 177.230997 160.218811 177.885059 160.218811 
Q 178.855997 160.218811 179.373965 159.883655 
Q 179.891934 159.546468 179.891934 158.91678 
Q 179.891934 158.268811 179.361778 157.935686 
Q 178.831622 157.602561 177.795684 157.602561 
L 176.818653 157.602561 
L 176.818653 156.028343 
L 177.846465 156.028343 
Q 178.768653 156.028343 179.217559 155.739905 
Q 179.668497 155.451468 179.668497 154.860374 
Q 179.668497 154.315999 179.229747 154.017405 
Q 178.793028 153.718811 177.992715 153.718811 
Q 177.403653 153.718811 176.800372 153.852874 
Q 176.19709 153.984905 175.599903 154.244905 
L 175.599903 152.455374 
Q 176.323028 152.252249 177.033965 152.150686 
Q 177.744903 152.049124 178.431465 152.049124 
Q 180.277872 152.049124 181.193965 152.656468 
Q 182.11209 153.26178 182.11209 154.48053 
Q 182.11209 155.311311 181.67334 155.841468 
Q 181.236622 156.371624 180.379434 156.586936 
z
M 187.115313 159.901936 
L 191.285469 159.901936 
L 191.285469 161.697561 
L 184.397501 161.697561 
L 184.397501 159.901936 
L 187.856719 156.846936 
Q 188.321876 156.428499 188.543282 156.028343 
Q 188.764688 155.628186 188.764688 155.197561 
Q 188.764688 154.531311 188.317813 154.125061 
Q 187.870938 153.718811 187.127501 153.718811 
Q 186.556719 153.718811 185.876251 153.962561 
Q 185.197813 154.206311 184.423907 154.689749 
L 184.423907 152.607718 
Q 185.248594 152.33553 186.055001 152.193343 
Q 186.861407 152.049124 187.635313 152.049124 
Q 189.337501 152.049124 190.280001 152.798655 
Q 191.222501 153.546155 191.222501 154.88678 
Q 191.222501 155.660686 190.822344 156.330999 
Q 190.422188 156.99928 189.140469 158.124593 
L 187.115313 159.901936 
z
M 193.741505 159.24178 
L 196.026661 159.24178 
L 196.026661 161.697561 
L 193.741505 161.697561 
L 193.741505 159.24178 
z
M 201.8792 157.456311 
Q 201.194669 157.456311 200.824981 157.832093 
Q 200.457325 158.205843 200.457325 158.904593 
Q 200.457325 159.603343 200.824981 159.975061 
Q 201.194669 160.344749 201.8792 160.344749 
Q 202.559669 160.344749 202.921231 159.975061 
Q 203.282794 159.603343 203.282794 158.904593 
Q 203.282794 158.199749 202.921231 157.82803 
Q 202.559669 157.456311 201.8792 157.456311 
z
M 200.095762 156.651936 
Q 199.232481 156.389905 198.793731 155.851624 
Q 198.357012 155.311311 198.357012 154.504905 
Q 198.357012 153.306468 199.250762 152.678811 
Q 200.146544 152.049124 201.8792 152.049124 
Q 203.599669 152.049124 204.493419 152.674749 
Q 205.3892 153.300374 205.3892 154.504905 
Q 205.3892 155.311311 204.948419 155.851624 
Q 204.507637 156.389905 203.644356 156.651936 
Q 204.6092 156.91803 205.100762 157.517249 
Q 205.592325 158.116468 205.592325 159.03053 
Q 205.592325 160.440218 204.655919 161.161311 
Q 203.719512 161.882405 201.8792 161.882405 
Q 200.032794 161.882405 199.090294 161.161311 
Q 198.147794 160.440218 198.147794 159.03053 
Q 198.147794 158.116468 198.639356 157.517249 
Q 199.130919 156.91803 200.095762 156.651936 
z
M 200.666544 154.752718 
Q 200.666544 155.317405 200.981387 155.622093 
Q 201.296231 155.92678 201.8792 155.92678 
Q 202.449981 155.92678 202.760762 155.622093 
Q 203.073575 155.317405 203.073575 154.752718 
Q 203.073575 154.18803 202.760762 153.887405 
Q 202.449981 153.584749 201.8792 153.584749 
Q 201.296231 153.584749 200.981387 153.889436 
Q 200.666544 154.194124 200.666544 154.752718 
z
M 216.471954 157.787405 
Q 216.023048 157.787405 215.775235 158.177405 
Q 215.527423 158.567405 215.527423 159.292561 
Q 215.527423 160.02178 215.771173 160.41178 
Q 216.014923 160.80178 216.471954 160.80178 
Q 216.928985 160.80178 217.170704 160.41178 
Q 217.412423 160.02178 217.412423 159.292561 
Q 217.412423 158.567405 217.166641 158.177405 
Q 216.922891 157.787405 216.471954 157.787405 
z
M 216.471954 156.720999 
Q 217.654141 156.720999 218.332579 157.407561 
Q 219.011016 158.092093 219.011016 159.292561 
Q 219.011016 160.490999 218.332579 161.187718 
Q 217.654141 161.882405 216.471954 161.882405 
Q 215.291798 161.882405 214.609298 161.187718 
Q 213.926798 160.490999 213.926798 159.292561 
Q 213.926798 158.098186 214.609298 157.409593 
Q 215.291798 156.720999 216.471954 156.720999 
z
M 210.652423 161.882405 
L 209.248829 161.882405 
L 215.171954 152.049124 
L 216.581641 152.049124 
L 210.652423 161.882405 
z
M 209.350391 152.049124 
Q 210.530548 152.049124 211.206954 152.737718 
Q 211.88336 153.426311 211.88336 154.62678 
Q 211.88336 155.825218 211.206954 156.517874 
Q 210.530548 157.21053 209.350391 157.21053 
Q 208.170235 157.21053 207.493829 156.517874 
Q 206.817423 155.825218 206.817423 154.62678 
Q 206.817423 153.426311 207.493829 152.737718 
Q 208.170235 152.049124 209.350391 152.049124 
z
M 209.350391 153.11553 
Q 208.89336 153.11553 208.645548 153.509593 
Q 208.397735 153.901624 208.397735 154.62678 
Q 208.397735 155.355999 208.645548 155.754124 
Q 208.89336 156.150218 209.350391 156.150218 
Q 209.807423 156.150218 210.051173 155.754124 
Q 210.296954 155.355999 210.296954 154.62678 
Q 210.296954 153.901624 210.049141 153.509593 
Q 209.801329 153.11553 209.350391 153.11553 
z
" style="fill: #ffffff; stroke: #000000; stroke-width: 3"/>
    <path d="M 180.379434 156.586936 
Q 181.338184 156.834749 181.83584 157.448186 
Q 182.335528 158.059593 182.335528 159.006155 
Q 182.335528 160.415843 181.254903 161.149124 
Q 180.176309 161.882405 178.108497 161.882405 
Q 177.377247 161.882405 176.643965 161.764593 
Q 175.910684 161.64678 175.193653 161.411155 
L 175.193653 159.526155 
Q 175.880215 159.869436 176.55459 160.044124 
Q 177.230997 160.218811 177.885059 160.218811 
Q 178.855997 160.218811 179.373965 159.883655 
Q 179.891934 159.546468 179.891934 158.91678 
Q 179.891934 158.268811 179.361778 157.935686 
Q 178.831622 157.602561 177.795684 157.602561 
L 176.818653 157.602561 
L 176.818653 156.028343 
L 177.846465 156.028343 
Q 178.768653 156.028343 179.217559 155.739905 
Q 179.668497 155.451468 179.668497 154.860374 
Q 179.668497 154.315999 179.229747 154.017405 
Q 178.793028 153.718811 177.992715 153.718811 
Q 177.403653 153.718811 176.800372 153.852874 
Q 176.19709 153.984905 175.599903 154.244905 
L 175.599903 152.455374 
Q 176.323028 152.252249 177.033965 152.150686 
Q 177.744903 152.049124 178.431465 152.049124 
Q 180.277872 152.049124 181.193965 152.656468 
Q 182.11209 153.26178 182.11209 154.48053 
Q 182.11209 155.311311 181.67334 155.841468 
Q 181.236622 156.371624 180.379434 156.586936 
z
M 187.115313 159.901936 
L 191.285469 159.901936 
L 191.285469 161.697561 
L 184.397501 161.697561 
L 184.397501 159.901936 
L 187.856719 156.846936 
Q 188.321876 156.428499 188.543282 156.028343 
Q 188.764688 155.628186 188.764688 155.197561 
Q 188.764688 154.531311 188.317813 154.125061 
Q 187.870938 153.718811 187.127501 153.718811 
Q 186.556719 153.718811 185.876251 153.962561 
Q 185.197813 154.206311 184.423907 154.689749 
L 184.423907 152.607718 
Q 185.248594 152.33553 186.055001 152.193343 
Q 186.861407 152.049124 187.635313 152.049124 
Q 189.337501 152.049124 190.280001 152.798655 
Q 191.222501 153.546155 191.222501 154.88678 
Q 191.222501 155.660686 190.822344 156.330999 
Q 190.422188 156.99928 189.140469 158.124593 
L 187.115313 159.901936 
z
M 193.741505 159.24178 
L 196.026661 159.24178 
L 196.026661 161.697561 
L 193.741505 161.697561 
L 193.741505 159.24178 
z
M 201.8792 157.456311 
Q 201.194669 157.456311 200.824981 157.832093 
Q 200.457325 158.205843 200.457325 158.904593 
Q 200.457325 159.603343 200.824981 159.975061 
Q 201.194669 160.344749 201.8792 160.344749 
Q 202.559669 160.344749 202.921231 159.975061 
Q 203.282794 159.603343 203.282794 158.904593 
Q 203.282794 158.199749 202.921231 157.82803 
Q 202.559669 157.456311 201.8792 157.456311 
z
M 200.095762 156.651936 
Q 199.232481 156.389905 198.793731 155.851624 
Q 198.357012 155.311311 198.357012 154.504905 
Q 198.357012 153.306468 199.250762 152.678811 
Q 200.146544 152.049124 201.8792 152.049124 
Q 203.599669 152.049124 204.493419 152.674749 
Q 205.3892 153.300374 205.3892 154.504905 
Q 205.3892 155.311311 204.948419 155.851624 
Q 204.507637 156.389905 203.644356 156.651936 
Q 204.6092 156.91803 205.100762 157.517249 
Q 205.592325 158.116468 205.592325 159.03053 
Q 205.592325 160.440218 204.655919 161.161311 
Q 203.719512 161.882405 201.8792 161.882405 
Q 200.032794 161.882405 199.090294 161.161311 
Q 198.147794 160.440218 198.147794 159.03053 
Q 198.147794 158.116468 198.639356 157.517249 
Q 199.130919 156.91803 200.095762 156.651936 
z
M 200.666544 154.752718 
Q 200.666544 155.317405 200.981387 155.622093 
Q 201.296231 155.92678 201.8792 155.92678 
Q 202.449981 155.92678 202.760762 155.622093 
Q 203.073575 155.317405 203.073575 154.752718 
Q 203.073575 154.18803 202.760762 153.887405 
Q 202.449981 153.584749 201.8792 153.584749 
Q 201.296231 153.584749 200.981387 153.889436 
Q 200.666544 154.194124 200.666544 154.752718 
z
M 216.471954 157.787405 
Q 216.023048 157.787405 215.775235 158.177405 
Q 215.527423 158.567405 215.527423 159.292561 
Q 215.527423 160.02178 215.771173 160.41178 
Q 216.014923 160.80178 216.471954 160.80178 
Q 216.928985 160.80178 217.170704 160.41178 
Q 217.412423 160.02178 217.412423 159.292561 
Q 217.412423 158.567405 217.166641 158.177405 
Q 216.922891 157.787405 216.471954 157.787405 
z
M 216.471954 156.720999 
Q 217.654141 156.720999 218.332579 157.407561 
Q 219.011016 158.092093 219.011016 159.292561 
Q 219.011016 160.490999 218.332579 161.187718 
Q 217.654141 161.882405 216.471954 161.882405 
Q 215.291798 161.882405 214.609298 161.187718 
Q 213.926798 160.490999 213.926798 159.292561 
Q 213.926798 158.098186 214.609298 157.409593 
Q 215.291798 156.720999 216.471954 156.720999 
z
M 210.652423 161.882405 
L 209.248829 161.882405 
L 215.171954 152.049124 
L 216.581641 152.049124 
L 210.652423 161.882405 
z
M 209.350391 152.049124 
Q 210.530548 152.049124 211.206954 152.737718 
Q 211.88336 153.426311 211.88336 154.62678 
Q 211.88336 155.825218 211.206954 156.517874 
Q 210.530548 157.21053 209.350391 157.21053 
Q 208.170235 157.21053 207.493829 156.517874 
Q 206.817423 155.825218 206.817423 154.62678 
Q 206.817423 153.426311 207.493829 152.737718 
Q 208.170235 152.049124 209.350391 152.049124 
z
M 209.350391 153.11553 
Q 208.89336 153.11553 208.645548 153.509593 
Q 208.397735 153.901624 208.397735 154.62678 
Q 208.397735 155.355999 208.645548 155.754124 
Q 208.89336 156.150218 209.350391 156.150218 
Q 209.807423 156.150218 210.051173 155.754124 
Q 210.296954 155.355999 210.296954 154.62678 
Q 210.296954 153.901624 210.049141 153.509593 
Q 209.801329 153.11553 209.350391 153.11553 
z
" style="fill: #ffffff"/>
   </g>
   <g id="text_3">
    <!-- Tal vez -->
    <g transform="translate(25.346817 378.533233) scale(0.13 -0.13)">
     <defs>
      <path id="DejaVuSans-Bold-54" d="M 31 4666 
L 4331 4666 
L 4331 3756 
L 2784 3756 
L 2784 0 
L 1581 0 
L 1581 3756 
L 31 3756 
L 31 4666 
z
" transform="scale(0.015625)"/>
      <path id="DejaVuSans-Bold-61" d="M 2106 1575 
Q 1756 1575 1579 1456 
Q 1403 1338 1403 1106 
Q 1403 894 1545 773 
Q 1688 653 1941 653 
Q 2256 653 2472 879 
Q 2688 1106 2688 1447 
L 2688 1575 
L 2106 1575 
z
M 3816 1997 
L 3816 0 
L 2688 0 
L 2688 519 
Q 2463 200 2181 54 
Q 1900 -91 1497 -91 
Q 953 -91 614 226 
Q 275 544 275 1050 
Q 275 1666 698 1953 
Q 1122 2241 2028 2241 
L 2688 2241 
L 2688 2328 
Q 2688 2594 2478 2717 
Q 2269 2841 1825 2841 
Q 1466 2841 1156 2769 
Q 847 2697 581 2553 
L 581 3406 
Q 941 3494 1303 3539 
Q 1666 3584 2028 3584 
Q 2975 3584 3395 3211 
Q 3816 2838 3816 1997 
z
" transform="scale(0.015625)"/>
      <path id="DejaVuSans-Bold-6c" d="M 538 4863 
L 1656 4863 
L 1656 0 
L 538 0 
L 538 4863 
z
" transform="scale(0.015625)"/>
      <path id="DejaVuSans-Bold-20" transform="scale(0.015625)"/>
      <path id="DejaVuSans-Bold-76" d="M 97 3500 
L 1216 3500 
L 2088 1081 
L 2956 3500 
L 4078 3500 
L 2700 0 
L 1472 0 
L 97 3500 
z
" transform="scale(0.015625)"/>
      <path id="DejaVuSans-Bold-65" d="M 4031 1759 
L 4031 1441 
L 1416 1441 
Q 1456 1047 1700 850 
Q 1944 653 2381 653 
Q 2734 653 3104 758 
Q 3475 863 3866 1075 
L 3866 213 
Q 3469 63 3072 -14 
Q 2675 -91 2278 -91 
Q 1328 -91 801 392 
Q 275 875 275 1747 
Q 275 2603 792 3093 
Q 1309 3584 2216 3584 
Q 3041 3584 3536 3087 
Q 4031 2591 4031 1759 
z
M 2881 2131 
Q 2881 2450 2695 2645 
Q 2509 2841 2209 2841 
Q 1884 2841 1681 2658 
Q 1478 2475 1428 2131 
L 2881 2131 
z
" transform="scale(0.015625)"/>
      <path id="DejaVuSans-Bold-7a" d="M 366 3500 
L 3419 3500 
L 3419 2719 
L 1575 800 
L 3419 800 
L 3419 0 
L 288 0 
L 288 781 
L 2131 2700 
L 366 2700 
L 366 3500 
z
" transform="scale(0.015625)"/>
     </defs>
     <use xlink:href="#DejaVuSans-Bold-54"/>
     <use xlink:href="#DejaVuSans-Bold-61" x="55.337891"/>
     <use xlink:href="#DejaVuSans-Bold-6c" x="122.818359"/>
     <use xlink:href="#DejaVuSans-Bold-20" x="157.095703"/>
     <use xlink:href="#DejaVuSans-Bold-76" x="191.910156"/>
     <use xlink:href="#DejaVuSans-Bold-65" x="257.095703"/>
     <use xlink:href="#DejaVuSans-Bold-7a" x="324.917969"/>
    </g>
   </g>
   <g id="text_4">
    <path d="M 132.324716 328.105272 
L 134.483935 328.105272 
L 134.483935 321.979022 
L 132.267841 322.436053 
L 132.267841 320.772459 
L 134.469716 320.315428 
L 136.793466 320.315428 
L 136.793466 328.105272 
L 138.952685 328.105272 
L 138.952685 329.793241 
L 132.324716 329.793241 
L 132.324716 328.105272 
z
M 144.372314 325.551991 
Q 143.687782 325.551991 143.318095 325.927772 
Q 142.950439 326.301522 142.950439 327.000272 
Q 142.950439 327.699022 143.318095 328.070741 
Q 143.687782 328.440428 144.372314 328.440428 
Q 145.052782 328.440428 145.414345 328.070741 
Q 145.775907 327.699022 145.775907 327.000272 
Q 145.775907 326.295428 145.414345 325.923709 
Q 145.052782 325.551991 144.372314 325.551991 
z
M 142.588876 324.747616 
Q 141.725595 324.485584 141.286845 323.947303 
Q 140.850126 323.406991 140.850126 322.600584 
Q 140.850126 321.402147 141.743876 320.774491 
Q 142.639657 320.144803 144.372314 320.144803 
Q 146.092782 320.144803 146.986532 320.770428 
Q 147.882314 321.396053 147.882314 322.600584 
Q 147.882314 323.406991 147.441532 323.947303 
Q 147.000751 324.485584 146.13747 324.747616 
Q 147.102314 325.013709 147.593876 325.612928 
Q 148.085439 326.212147 148.085439 327.126209 
Q 148.085439 328.535897 147.149032 329.256991 
Q 146.212626 329.978084 144.372314 329.978084 
Q 142.525907 329.978084 141.583407 329.256991 
Q 140.640907 328.535897 140.640907 327.126209 
Q 140.640907 326.212147 141.13247 325.612928 
Q 141.624032 325.013709 142.588876 324.747616 
z
M 143.159657 322.848397 
Q 143.159657 323.413084 143.474501 323.717772 
Q 143.789345 324.022459 144.372314 324.022459 
Q 144.943095 324.022459 145.253876 323.717772 
Q 145.566689 323.413084 145.566689 322.848397 
Q 145.566689 322.283709 145.253876 321.983084 
Q 144.943095 321.680428 144.372314 321.680428 
Q 143.789345 321.680428 143.474501 321.985116 
Q 143.159657 322.289803 143.159657 322.848397 
z
M 150.218505 327.337459 
L 152.503661 327.337459 
L 152.503661 329.793241 
L 150.218505 329.793241 
L 150.218505 327.337459 
z
M 158.3562 325.551991 
Q 157.671669 325.551991 157.301982 325.927772 
Q 156.934325 326.301522 156.934325 327.000272 
Q 156.934325 327.699022 157.301982 328.070741 
Q 157.671669 328.440428 158.3562 328.440428 
Q 159.036669 328.440428 159.398232 328.070741 
Q 159.759794 327.699022 159.759794 327.000272 
Q 159.759794 326.295428 159.398232 325.923709 
Q 159.036669 325.551991 158.3562 325.551991 
z
M 156.572763 324.747616 
Q 155.709482 324.485584 155.270732 323.947303 
Q 154.834013 323.406991 154.834013 322.600584 
Q 154.834013 321.402147 155.727763 320.774491 
Q 156.623544 320.144803 158.3562 320.144803 
Q 160.076669 320.144803 160.970419 320.770428 
Q 161.8662 321.396053 161.8662 322.600584 
Q 161.8662 323.406991 161.425419 323.947303 
Q 160.984638 324.485584 160.121357 324.747616 
Q 161.0862 325.013709 161.577763 325.612928 
Q 162.069325 326.212147 162.069325 327.126209 
Q 162.069325 328.535897 161.132919 329.256991 
Q 160.196513 329.978084 158.3562 329.978084 
Q 156.509794 329.978084 155.567294 329.256991 
Q 154.624794 328.535897 154.624794 327.126209 
Q 154.624794 326.212147 155.116357 325.612928 
Q 155.607919 325.013709 156.572763 324.747616 
z
M 157.143544 322.848397 
Q 157.143544 323.413084 157.458388 323.717772 
Q 157.773232 324.022459 158.3562 324.022459 
Q 158.926982 324.022459 159.237763 323.717772 
Q 159.550575 323.413084 159.550575 322.848397 
Q 159.550575 322.283709 159.237763 321.983084 
Q 158.926982 321.680428 158.3562 321.680428 
Q 157.773232 321.680428 157.458388 321.985116 
Q 157.143544 322.289803 157.143544 322.848397 
z
M 172.948954 325.883084 
Q 172.500048 325.883084 172.252236 326.273084 
Q 172.004423 326.663084 172.004423 327.388241 
Q 172.004423 328.117459 172.248173 328.507459 
Q 172.491923 328.897459 172.948954 328.897459 
Q 173.405986 328.897459 173.647704 328.507459 
Q 173.889423 328.117459 173.889423 327.388241 
Q 173.889423 326.663084 173.643642 326.273084 
Q 173.399892 325.883084 172.948954 325.883084 
z
M 172.948954 324.816678 
Q 174.131142 324.816678 174.809579 325.503241 
Q 175.488017 326.187772 175.488017 327.388241 
Q 175.488017 328.586678 174.809579 329.283397 
Q 174.131142 329.978084 172.948954 329.978084 
Q 171.768798 329.978084 171.086298 329.283397 
Q 170.403798 328.586678 170.403798 327.388241 
Q 170.403798 326.193866 171.086298 325.505272 
Q 171.768798 324.816678 172.948954 324.816678 
z
M 167.129423 329.978084 
L 165.725829 329.978084 
L 171.648954 320.144803 
L 173.058642 320.144803 
L 167.129423 329.978084 
z
M 165.827392 320.144803 
Q 167.007548 320.144803 167.683954 320.833397 
Q 168.360361 321.521991 168.360361 322.722459 
Q 168.360361 323.920897 167.683954 324.613553 
Q 167.007548 325.306209 165.827392 325.306209 
Q 164.647236 325.306209 163.970829 324.613553 
Q 163.294423 323.920897 163.294423 322.722459 
Q 163.294423 321.521991 163.970829 320.833397 
Q 164.647236 320.144803 165.827392 320.144803 
z
M 165.827392 321.211209 
Q 165.370361 321.211209 165.122548 321.605272 
Q 164.874736 321.997303 164.874736 322.722459 
Q 164.874736 323.451678 165.122548 323.849803 
Q 165.370361 324.245897 165.827392 324.245897 
Q 166.284423 324.245897 166.528173 323.849803 
Q 166.773954 323.451678 166.773954 322.722459 
Q 166.773954 321.997303 166.526142 321.605272 
Q 166.278329 321.211209 165.827392 321.211209 
z
" style="fill: #ffffff; stroke: #000000; stroke-width: 3"/>
    <path d="M 132.324716 328.105272 
L 134.483935 328.105272 
L 134.483935 321.979022 
L 132.267841 322.436053 
L 132.267841 320.772459 
L 134.469716 320.315428 
L 136.793466 320.315428 
L 136.793466 328.105272 
L 138.952685 328.105272 
L 138.952685 329.793241 
L 132.324716 329.793241 
L 132.324716 328.105272 
z
M 144.372314 325.551991 
Q 143.687782 325.551991 143.318095 325.927772 
Q 142.950439 326.301522 142.950439 327.000272 
Q 142.950439 327.699022 143.318095 328.070741 
Q 143.687782 328.440428 144.372314 328.440428 
Q 145.052782 328.440428 145.414345 328.070741 
Q 145.775907 327.699022 145.775907 327.000272 
Q 145.775907 326.295428 145.414345 325.923709 
Q 145.052782 325.551991 144.372314 325.551991 
z
M 142.588876 324.747616 
Q 141.725595 324.485584 141.286845 323.947303 
Q 140.850126 323.406991 140.850126 322.600584 
Q 140.850126 321.402147 141.743876 320.774491 
Q 142.639657 320.144803 144.372314 320.144803 
Q 146.092782 320.144803 146.986532 320.770428 
Q 147.882314 321.396053 147.882314 322.600584 
Q 147.882314 323.406991 147.441532 323.947303 
Q 147.000751 324.485584 146.13747 324.747616 
Q 147.102314 325.013709 147.593876 325.612928 
Q 148.085439 326.212147 148.085439 327.126209 
Q 148.085439 328.535897 147.149032 329.256991 
Q 146.212626 329.978084 144.372314 329.978084 
Q 142.525907 329.978084 141.583407 329.256991 
Q 140.640907 328.535897 140.640907 327.126209 
Q 140.640907 326.212147 141.13247 325.612928 
Q 141.624032 325.013709 142.588876 324.747616 
z
M 143.159657 322.848397 
Q 143.159657 323.413084 143.474501 323.717772 
Q 143.789345 324.022459 144.372314 324.022459 
Q 144.943095 324.022459 145.253876 323.717772 
Q 145.566689 323.413084 145.566689 322.848397 
Q 145.566689 322.283709 145.253876 321.983084 
Q 144.943095 321.680428 144.372314 321.680428 
Q 143.789345 321.680428 143.474501 321.985116 
Q 143.159657 322.289803 143.159657 322.848397 
z
M 150.218505 327.337459 
L 152.503661 327.337459 
L 152.503661 329.793241 
L 150.218505 329.793241 
L 150.218505 327.337459 
z
M 158.3562 325.551991 
Q 157.671669 325.551991 157.301982 325.927772 
Q 156.934325 326.301522 156.934325 327.000272 
Q 156.934325 327.699022 157.301982 328.070741 
Q 157.671669 328.440428 158.3562 328.440428 
Q 159.036669 328.440428 159.398232 328.070741 
Q 159.759794 327.699022 159.759794 327.000272 
Q 159.759794 326.295428 159.398232 325.923709 
Q 159.036669 325.551991 158.3562 325.551991 
z
M 156.572763 324.747616 
Q 155.709482 324.485584 155.270732 323.947303 
Q 154.834013 323.406991 154.834013 322.600584 
Q 154.834013 321.402147 155.727763 320.774491 
Q 156.623544 320.144803 158.3562 320.144803 
Q 160.076669 320.144803 160.970419 320.770428 
Q 161.8662 321.396053 161.8662 322.600584 
Q 161.8662 323.406991 161.425419 323.947303 
Q 160.984638 324.485584 160.121357 324.747616 
Q 161.0862 325.013709 161.577763 325.612928 
Q 162.069325 326.212147 162.069325 327.126209 
Q 162.069325 328.535897 161.132919 329.256991 
Q 160.196513 329.978084 158.3562 329.978084 
Q 156.509794 329.978084 155.567294 329.256991 
Q 154.624794 328.535897 154.624794 327.126209 
Q 154.624794 326.212147 155.116357 325.612928 
Q 155.607919 325.013709 156.572763 324.747616 
z
M 157.143544 322.848397 
Q 157.143544 323.413084 157.458388 323.717772 
Q 157.773232 324.022459 158.3562 324.022459 
Q 158.926982 324.022459 159.237763 323.717772 
Q 159.550575 323.413084 159.550575 322.848397 
Q 159.550575 322.283709 159.237763 321.983084 
Q 158.926982 321.680428 158.3562 321.680428 
Q 157.773232 321.680428 157.458388 321.985116 
Q 157.143544 322.289803 157.143544 322.848397 
z
M 172.948954 325.883084 
Q 172.500048 325.883084 172.252236 326.273084 
Q 172.004423 326.663084 172.004423 327.388241 
Q 172.004423 328.117459 172.248173 328.507459 
Q 172.491923 328.897459 172.948954 328.897459 
Q 173.405986 328.897459 173.647704 328.507459 
Q 173.889423 328.117459 173.889423 327.388241 
Q 173.889423 326.663084 173.643642 326.273084 
Q 173.399892 325.883084 172.948954 325.883084 
z
M 172.948954 324.816678 
Q 174.131142 324.816678 174.809579 325.503241 
Q 175.488017 326.187772 175.488017 327.388241 
Q 175.488017 328.586678 174.809579 329.283397 
Q 174.131142 329.978084 172.948954 329.978084 
Q 171.768798 329.978084 171.086298 329.283397 
Q 170.403798 328.586678 170.403798 327.388241 
Q 170.403798 326.193866 171.086298 325.505272 
Q 171.768798 324.816678 172.948954 324.816678 
z
M 167.129423 329.978084 
L 165.725829 329.978084 
L 171.648954 320.144803 
L 173.058642 320.144803 
L 167.129423 329.978084 
z
M 165.827392 320.144803 
Q 167.007548 320.144803 167.683954 320.833397 
Q 168.360361 321.521991 168.360361 322.722459 
Q 168.360361 323.920897 167.683954 324.613553 
Q 167.007548 325.306209 165.827392 325.306209 
Q 164.647236 325.306209 163.970829 324.613553 
Q 163.294423 323.920897 163.294423 322.722459 
Q 163.294423 321.521991 163.970829 320.833397 
Q 164.647236 320.144803 165.827392 320.144803 
z
M 165.827392 321.211209 
Q 165.370361 321.211209 165.122548 321.605272 
Q 164.874736 321.997303 164.874736 322.722459 
Q 164.874736 323.451678 165.122548 323.849803 
Q 165.370361 324.245897 165.827392 324.245897 
Q 166.284423 324.245897 166.528173 323.849803 
Q 166.773954 323.451678 166.773954 322.722459 
Q 166.773954 321.997303 166.526142 321.605272 
Q 166.278329 321.211209 165.827392 321.211209 
z
" style="fill: #ffffff"/>
   </g>
   <g id="text_5">
    <!-- Sí -->
    <g transform="translate(443.672095 362.963131) scale(0.13 -0.13)">
     <defs>
      <path id="DejaVuSans-Bold-53" d="M 3834 4519 
L 3834 3531 
Q 3450 3703 3084 3790 
Q 2719 3878 2394 3878 
Q 1963 3878 1756 3759 
Q 1550 3641 1550 3391 
Q 1550 3203 1689 3098 
Q 1828 2994 2194 2919 
L 2706 2816 
Q 3484 2659 3812 2340 
Q 4141 2022 4141 1434 
Q 4141 663 3683 286 
Q 3225 -91 2284 -91 
Q 1841 -91 1394 -6 
Q 947 78 500 244 
L 500 1259 
Q 947 1022 1364 901 
Q 1781 781 2169 781 
Q 2563 781 2772 912 
Q 2981 1044 2981 1288 
Q 2981 1506 2839 1625 
Q 2697 1744 2272 1838 
L 1806 1941 
Q 1106 2091 782 2419 
Q 459 2747 459 3303 
Q 459 4000 909 4375 
Q 1359 4750 2203 4750 
Q 2588 4750 2994 4692 
Q 3400 4634 3834 4519 
z
" transform="scale(0.015625)"/>
      <path id="DejaVuSans-Bold-ed" d="M 538 3500 
L 1656 3500 
L 1656 0 
L 538 0 
L 538 3500 
z
M 1590 5119 
L 2474 5119 
L 1321 3944 
L 709 3944 
L 1590 5119 
z
" transform="scale(0.015625)"/>
     </defs>
     <use xlink:href="#DejaVuSans-Bold-53"/>
     <use xlink:href="#DejaVuSans-Bold-ed" x="72.021484"/>
    </g>
   </g>
   <g id="text_6">
    <path d="M 343.879119 313.527904 
L 341.201932 317.494936 
L 343.879119 317.494936 
L 343.879119 313.527904 
z
M 343.472869 311.514936 
L 346.190682 311.514936 
L 346.190682 317.494936 
L 347.541463 317.494936 
L 347.541463 319.266186 
L 346.190682 319.266186 
L 346.190682 320.992748 
L 343.879119 320.992748 
L 343.879119 319.266186 
L 339.678494 319.266186 
L 339.678494 317.171967 
L 343.472869 311.514936 
z
M 352.664529 316.751498 
Q 351.979998 316.751498 351.610311 317.127279 
Q 351.242654 317.501029 351.242654 318.199779 
Q 351.242654 318.898529 351.610311 319.270248 
Q 351.979998 319.639936 352.664529 319.639936 
Q 353.344998 319.639936 353.706561 319.270248 
Q 354.068123 318.898529 354.068123 318.199779 
Q 354.068123 317.494936 353.706561 317.123217 
Q 353.344998 316.751498 352.664529 316.751498 
z
M 350.881092 315.947123 
Q 350.017811 315.685092 349.579061 315.146811 
Q 349.142342 314.606498 349.142342 313.800092 
Q 349.142342 312.601654 350.036092 311.973998 
Q 350.931873 311.344311 352.664529 311.344311 
Q 354.384998 311.344311 355.278748 311.969936 
Q 356.174529 312.595561 356.174529 313.800092 
Q 356.174529 314.606498 355.733748 315.146811 
Q 355.292967 315.685092 354.429686 315.947123 
Q 355.394529 316.213217 355.886092 316.812436 
Q 356.377654 317.411654 356.377654 318.325717 
Q 356.377654 319.735404 355.441248 320.456498 
Q 354.504842 321.177592 352.664529 321.177592 
Q 350.818123 321.177592 349.875623 320.456498 
Q 348.933123 319.735404 348.933123 318.325717 
Q 348.933123 317.411654 349.424686 316.812436 
Q 349.916248 316.213217 350.881092 315.947123 
z
M 351.451873 314.047904 
Q 351.451873 314.612592 351.766717 314.917279 
Q 352.081561 315.221967 352.664529 315.221967 
Q 353.235311 315.221967 353.546092 314.917279 
Q 353.858904 314.612592 353.858904 314.047904 
Q 353.858904 313.483217 353.546092 313.182592 
Q 353.235311 312.879936 352.664529 312.879936 
Q 352.081561 312.879936 351.766717 313.184623 
Q 351.451873 313.489311 351.451873 314.047904 
z
M 358.510721 318.536967 
L 360.795877 318.536967 
L 360.795877 320.992748 
L 358.510721 320.992748 
L 358.510721 318.536967 
z
M 366.908416 313.527904 
L 364.231229 317.494936 
L 366.908416 317.494936 
L 366.908416 313.527904 
z
M 366.502166 311.514936 
L 369.219979 311.514936 
L 369.219979 317.494936 
L 370.57076 317.494936 
L 370.57076 319.266186 
L 369.219979 319.266186 
L 369.219979 320.992748 
L 366.908416 320.992748 
L 366.908416 319.266186 
L 362.707791 319.266186 
L 362.707791 317.171967 
L 366.502166 311.514936 
z
M 381.24117 317.082592 
Q 380.792264 317.082592 380.544451 317.472592 
Q 380.296639 317.862592 380.296639 318.587748 
Q 380.296639 319.316967 380.540389 319.706967 
Q 380.784139 320.096967 381.24117 320.096967 
Q 381.698201 320.096967 381.93992 319.706967 
Q 382.181639 319.316967 382.181639 318.587748 
Q 382.181639 317.862592 381.935857 317.472592 
Q 381.692107 317.082592 381.24117 317.082592 
z
M 381.24117 316.016186 
Q 382.423357 316.016186 383.101795 316.702748 
Q 383.780232 317.387279 383.780232 318.587748 
Q 383.780232 319.786186 383.101795 320.482904 
Q 382.423357 321.177592 381.24117 321.177592 
Q 380.061014 321.177592 379.378514 320.482904 
Q 378.696014 319.786186 378.696014 318.587748 
Q 378.696014 317.393373 379.378514 316.704779 
Q 380.061014 316.016186 381.24117 316.016186 
z
M 375.421639 321.177592 
L 374.018045 321.177592 
L 379.94117 311.344311 
L 381.350857 311.344311 
L 375.421639 321.177592 
z
M 374.119607 311.344311 
Q 375.299764 311.344311 375.97617 312.032904 
Q 376.652576 312.721498 376.652576 313.921967 
Q 376.652576 315.120404 375.97617 315.813061 
Q 375.299764 316.505717 374.119607 316.505717 
Q 372.939451 316.505717 372.263045 315.813061 
Q 371.586639 315.120404 371.586639 313.921967 
Q 371.586639 312.721498 372.263045 312.032904 
Q 372.939451 311.344311 374.119607 311.344311 
z
M 374.119607 312.410717 
Q 373.662576 312.410717 373.414764 312.804779 
Q 373.166951 313.196811 373.166951 313.921967 
Q 373.166951 314.651186 373.414764 315.049311 
Q 373.662576 315.445404 374.119607 315.445404 
Q 374.576639 315.445404 374.820389 315.049311 
Q 375.06617 314.651186 375.06617 313.921967 
Q 375.06617 313.196811 374.818357 312.804779 
Q 374.570545 312.410717 374.119607 312.410717 
z
" style="fill: #ffffff; stroke: #000000; stroke-width: 3"/>
    <path d="M 343.879119 313.527904 
L 341.201932 317.494936 
L 343.879119 317.494936 
L 343.879119 313.527904 
z
M 343.472869 311.514936 
L 346.190682 311.514936 
L 346.190682 317.494936 
L 347.541463 317.494936 
L 347.541463 319.266186 
L 346.190682 319.266186 
L 346.190682 320.992748 
L 343.879119 320.992748 
L 343.879119 319.266186 
L 339.678494 319.266186 
L 339.678494 317.171967 
L 343.472869 311.514936 
z
M 352.664529 316.751498 
Q 351.979998 316.751498 351.610311 317.127279 
Q 351.242654 317.501029 351.242654 318.199779 
Q 351.242654 318.898529 351.610311 319.270248 
Q 351.979998 319.639936 352.664529 319.639936 
Q 353.344998 319.639936 353.706561 319.270248 
Q 354.068123 318.898529 354.068123 318.199779 
Q 354.068123 317.494936 353.706561 317.123217 
Q 353.344998 316.751498 352.664529 316.751498 
z
M 350.881092 315.947123 
Q 350.017811 315.685092 349.579061 315.146811 
Q 349.142342 314.606498 349.142342 313.800092 
Q 349.142342 312.601654 350.036092 311.973998 
Q 350.931873 311.344311 352.664529 311.344311 
Q 354.384998 311.344311 355.278748 311.969936 
Q 356.174529 312.595561 356.174529 313.800092 
Q 356.174529 314.606498 355.733748 315.146811 
Q 355.292967 315.685092 354.429686 315.947123 
Q 355.394529 316.213217 355.886092 316.812436 
Q 356.377654 317.411654 356.377654 318.325717 
Q 356.377654 319.735404 355.441248 320.456498 
Q 354.504842 321.177592 352.664529 321.177592 
Q 350.818123 321.177592 349.875623 320.456498 
Q 348.933123 319.735404 348.933123 318.325717 
Q 348.933123 317.411654 349.424686 316.812436 
Q 349.916248 316.213217 350.881092 315.947123 
z
M 351.451873 314.047904 
Q 351.451873 314.612592 351.766717 314.917279 
Q 352.081561 315.221967 352.664529 315.221967 
Q 353.235311 315.221967 353.546092 314.917279 
Q 353.858904 314.612592 353.858904 314.047904 
Q 353.858904 313.483217 353.546092 313.182592 
Q 353.235311 312.879936 352.664529 312.879936 
Q 352.081561 312.879936 351.766717 313.184623 
Q 351.451873 313.489311 351.451873 314.047904 
z
M 358.510721 318.536967 
L 360.795877 318.536967 
L 360.795877 320.992748 
L 358.510721 320.992748 
L 358.510721 318.536967 
z
M 366.908416 313.527904 
L 364.231229 317.494936 
L 366.908416 317.494936 
L 366.908416 313.527904 
z
M 366.502166 311.514936 
L 369.219979 311.514936 
L 369.219979 317.494936 
L 370.57076 317.494936 
L 370.57076 319.266186 
L 369.219979 319.266186 
L 369.219979 320.992748 
L 366.908416 320.992748 
L 366.908416 319.266186 
L 362.707791 319.266186 
L 362.707791 317.171967 
L 366.502166 311.514936 
z
M 381.24117 317.082592 
Q 380.792264 317.082592 380.544451 317.472592 
Q 380.296639 317.862592 380.296639 318.587748 
Q 380.296639 319.316967 380.540389 319.706967 
Q 380.784139 320.096967 381.24117 320.096967 
Q 381.698201 320.096967 381.93992 319.706967 
Q 382.181639 319.316967 382.181639 318.587748 
Q 382.181639 317.862592 381.935857 317.472592 
Q 381.692107 317.082592 381.24117 317.082592 
z
M 381.24117 316.016186 
Q 382.423357 316.016186 383.101795 316.702748 
Q 383.780232 317.387279 383.780232 318.587748 
Q 383.780232 319.786186 383.101795 320.482904 
Q 382.423357 321.177592 381.24117 321.177592 
Q 380.061014 321.177592 379.378514 320.482904 
Q 378.696014 319.786186 378.696014 318.587748 
Q 378.696014 317.393373 379.378514 316.704779 
Q 380.061014 316.016186 381.24117 316.016186 
z
M 375.421639 321.177592 
L 374.018045 321.177592 
L 379.94117 311.344311 
L 381.350857 311.344311 
L 375.421639 321.177592 
z
M 374.119607 311.344311 
Q 375.299764 311.344311 375.97617 312.032904 
Q 376.652576 312.721498 376.652576 313.921967 
Q 376.652576 315.120404 375.97617 315.813061 
Q 375.299764 316.505717 374.119607 316.505717 
Q 372.939451 316.505717 372.263045 315.813061 
Q 371.586639 315.120404 371.586639 313.921967 
Q 371.586639 312.721498 372.263045 312.032904 
Q 372.939451 311.344311 374.119607 311.344311 
z
M 374.119607 312.410717 
Q 373.662576 312.410717 373.414764 312.804779 
Q 373.166951 313.196811 373.166951 313.921967 
Q 373.166951 314.651186 373.414764 315.049311 
Q 373.662576 315.445404 374.119607 315.445404 
Q 374.576639 315.445404 374.820389 315.049311 
Q 375.06617 314.651186 375.06617 313.921967 
Q 375.06617 313.196811 374.818357 312.804779 
Q 374.570545 312.410717 374.119607 312.410717 
z
" style="fill: #ffffff"/>
   </g>
   <g id="text_7">
    <!-- Historia Familiar de Hipertensión -->
    <g transform="translate(68.020196 26.488125) scale(0.2 -0.2)">
     <defs>
      <path id="DejaVuSans-Bold-48" d="M 588 4666 
L 1791 4666 
L 1791 2888 
L 3566 2888 
L 3566 4666 
L 4769 4666 
L 4769 0 
L 3566 0 
L 3566 1978 
L 1791 1978 
L 1791 0 
L 588 0 
L 588 4666 
z
" transform="scale(0.015625)"/>
      <path id="DejaVuSans-Bold-69" d="M 538 3500 
L 1656 3500 
L 1656 0 
L 538 0 
L 538 3500 
z
M 538 4863 
L 1656 4863 
L 1656 3950 
L 538 3950 
L 538 4863 
z
" transform="scale(0.015625)"/>
      <path id="DejaVuSans-Bold-73" d="M 3272 3391 
L 3272 2541 
Q 2913 2691 2578 2766 
Q 2244 2841 1947 2841 
Q 1628 2841 1473 2761 
Q 1319 2681 1319 2516 
Q 1319 2381 1436 2309 
Q 1553 2238 1856 2203 
L 2053 2175 
Q 2913 2066 3209 1816 
Q 3506 1566 3506 1031 
Q 3506 472 3093 190 
Q 2681 -91 1863 -91 
Q 1516 -91 1145 -36 
Q 775 19 384 128 
L 384 978 
Q 719 816 1070 734 
Q 1422 653 1784 653 
Q 2113 653 2278 743 
Q 2444 834 2444 1013 
Q 2444 1163 2330 1236 
Q 2216 1309 1875 1350 
L 1678 1375 
Q 931 1469 631 1722 
Q 331 1975 331 2491 
Q 331 3047 712 3315 
Q 1094 3584 1881 3584 
Q 2191 3584 2531 3537 
Q 2872 3491 3272 3391 
z
" transform="scale(0.015625)"/>
      <path id="DejaVuSans-Bold-74" d="M 1759 4494 
L 1759 3500 
L 2913 3500 
L 2913 2700 
L 1759 2700 
L 1759 1216 
Q 1759 972 1856 886 
Q 1953 800 2241 800 
L 2816 800 
L 2816 0 
L 1856 0 
Q 1194 0 917 276 
Q 641 553 641 1216 
L 641 2700 
L 84 2700 
L 84 3500 
L 641 3500 
L 641 4494 
L 1759 4494 
z
" transform="scale(0.015625)"/>
      <path id="DejaVuSans-Bold-72" d="M 3138 2547 
Q 2991 2616 2845 2648 
Q 2700 2681 2553 2681 
Q 2122 2681 1889 2404 
Q 1656 2128 1656 1613 
L 1656 0 
L 538 0 
L 538 3500 
L 1656 3500 
L 1656 2925 
Q 1872 3269 2151 3426 
Q 2431 3584 2822 3584 
Q 2878 3584 2943 3579 
Q 3009 3575 3134 3559 
L 3138 2547 
z
" transform="scale(0.015625)"/>
      <path id="DejaVuSans-Bold-46" d="M 588 4666 
L 3834 4666 
L 3834 3756 
L 1791 3756 
L 1791 2888 
L 3713 2888 
L 3713 1978 
L 1791 1978 
L 1791 0 
L 588 0 
L 588 4666 
z
" transform="scale(0.015625)"/>
      <path id="DejaVuSans-Bold-6d" d="M 3781 2919 
Q 3994 3244 4286 3414 
Q 4578 3584 4928 3584 
Q 5531 3584 5847 3212 
Q 6163 2841 6163 2131 
L 6163 0 
L 5038 0 
L 5038 1825 
Q 5041 1866 5042 1909 
Q 5044 1953 5044 2034 
Q 5044 2406 4934 2573 
Q 4825 2741 4581 2741 
Q 4263 2741 4089 2478 
Q 3916 2216 3909 1719 
L 3909 0 
L 2784 0 
L 2784 1825 
Q 2784 2406 2684 2573 
Q 2584 2741 2328 2741 
Q 2006 2741 1831 2477 
Q 1656 2213 1656 1722 
L 1656 0 
L 531 0 
L 531 3500 
L 1656 3500 
L 1656 2988 
Q 1863 3284 2130 3434 
Q 2397 3584 2719 3584 
Q 3081 3584 3359 3409 
Q 3638 3234 3781 2919 
z
" transform="scale(0.015625)"/>
      <path id="DejaVuSans-Bold-64" d="M 2919 2988 
L 2919 4863 
L 4044 4863 
L 4044 0 
L 2919 0 
L 2919 506 
Q 2688 197 2409 53 
Q 2131 -91 1766 -91 
Q 1119 -91 703 423 
Q 288 938 288 1747 
Q 288 2556 703 3070 
Q 1119 3584 1766 3584 
Q 2128 3584 2408 3439 
Q 2688 3294 2919 2988 
z
M 2181 722 
Q 2541 722 2730 984 
Q 2919 1247 2919 1747 
Q 2919 2247 2730 2509 
Q 2541 2772 2181 2772 
Q 1825 2772 1636 2509 
Q 1447 2247 1447 1747 
Q 1447 1247 1636 984 
Q 1825 722 2181 722 
z
" transform="scale(0.015625)"/>
      <path id="DejaVuSans-Bold-70" d="M 1656 506 
L 1656 -1331 
L 538 -1331 
L 538 3500 
L 1656 3500 
L 1656 2988 
Q 1888 3294 2169 3439 
Q 2450 3584 2816 3584 
Q 3463 3584 3878 3070 
Q 4294 2556 4294 1747 
Q 4294 938 3878 423 
Q 3463 -91 2816 -91 
Q 2450 -91 2169 54 
Q 1888 200 1656 506 
z
M 2400 2772 
Q 2041 2772 1848 2508 
Q 1656 2244 1656 1747 
Q 1656 1250 1848 986 
Q 2041 722 2400 722 
Q 2759 722 2948 984 
Q 3138 1247 3138 1747 
Q 3138 2247 2948 2509 
Q 2759 2772 2400 2772 
z
" transform="scale(0.015625)"/>
      <path id="DejaVuSans-Bold-6e" d="M 4056 2131 
L 4056 0 
L 2931 0 
L 2931 347 
L 2931 1631 
Q 2931 2084 2911 2256 
Q 2891 2428 2841 2509 
Q 2775 2619 2662 2680 
Q 2550 2741 2406 2741 
Q 2056 2741 1856 2470 
Q 1656 2200 1656 1722 
L 1656 0 
L 538 0 
L 538 3500 
L 1656 3500 
L 1656 2988 
Q 1909 3294 2193 3439 
Q 2478 3584 2822 3584 
Q 3428 3584 3742 3212 
Q 4056 2841 4056 2131 
z
" transform="scale(0.015625)"/>
      <path id="DejaVuSans-Bold-f3" d="M 2203 2784 
Q 1831 2784 1636 2517 
Q 1441 2250 1441 1747 
Q 1441 1244 1636 976 
Q 1831 709 2203 709 
Q 2569 709 2762 976 
Q 2956 1244 2956 1747 
Q 2956 2250 2762 2517 
Q 2569 2784 2203 2784 
z
M 2203 3584 
Q 3106 3584 3614 3096 
Q 4122 2609 4122 1747 
Q 4122 884 3614 396 
Q 3106 -91 2203 -91 
Q 1297 -91 786 396 
Q 275 884 275 1747 
Q 275 2609 786 3096 
Q 1297 3584 2203 3584 
z
M 2694 5119 
L 3578 5119 
L 2425 3944 
L 1813 3944 
L 2694 5119 
z
" transform="scale(0.015625)"/>
     </defs>
     <use xlink:href="#DejaVuSans-Bold-48"/>
     <use xlink:href="#DejaVuSans-Bold-69" x="83.691406"/>
     <use xlink:href="#DejaVuSans-Bold-73" x="117.96875"/>
     <use xlink:href="#DejaVuSans-Bold-74" x="177.490234"/>
     <use xlink:href="#DejaVuSans-Bold-6f" x="225.292969"/>
     <use xlink:href="#DejaVuSans-Bold-72" x="293.994141"/>
     <use xlink:href="#DejaVuSans-Bold-69" x="343.310547"/>
     <use xlink:href="#DejaVuSans-Bold-61" x="377.587891"/>
     <use xlink:href="#DejaVuSans-Bold-20" x="445.068359"/>
     <use xlink:href="#DejaVuSans-Bold-46" x="479.882812"/>
     <use xlink:href="#DejaVuSans-Bold-61" x="542.318359"/>
     <use xlink:href="#DejaVuSans-Bold-6d" x="609.798828"/>
     <use xlink:href="#DejaVuSans-Bold-69" x="713.998047"/>
     <use xlink:href="#DejaVuSans-Bold-6c" x="748.275391"/>
     <use xlink:href="#DejaVuSans-Bold-69" x="782.552734"/>
     <use xlink:href="#DejaVuSans-Bold-61" x="816.830078"/>
     <use xlink:href="#DejaVuSans-Bold-72" x="884.310547"/>
     <use xlink:href="#DejaVuSans-Bold-20" x="933.626953"/>
     <use xlink:href="#DejaVuSans-Bold-64" x="968.441406"/>
     <use xlink:href="#DejaVuSans-Bold-65" x="1040.023438"/>
     <use xlink:href="#DejaVuSans-Bold-20" x="1107.845703"/>
     <use xlink:href="#DejaVuSans-Bold-48" x="1142.660156"/>
     <use xlink:href="#DejaVuSans-Bold-69" x="1226.351562"/>
     <use xlink:href="#DejaVuSans-Bold-70" x="1260.628906"/>
     <use xlink:href="#DejaVuSans-Bold-65" x="1332.210938"/>
     <use xlink:href="#DejaVuSans-Bold-72" x="1400.033203"/>
     <use xlink:href="#DejaVuSans-Bold-74" x="1449.349609"/>
     <use xlink:href="#DejaVuSans-Bold-65" x="1497.152344"/>
     <use xlink:href="#DejaVuSans-Bold-6e" x="1564.974609"/>
     <use xlink:href="#DejaVuSans-Bold-73" x="1636.166016"/>
     <use xlink:href="#DejaVuSans-Bold-69" x="1695.6875"/>
     <use xlink:href="#DejaVuSans-Bold-f3" x="1729.964844"/>
     <use xlink:href="#DejaVuSans-Bold-6e" x="1798.666016"/>
    </g>
   </g>
  </g>
 </g>
</svg>
