<?xml version="1.0" encoding="utf-8" standalone="no"?>
<!DOCTYPE svg PUBLIC "-//W3C//DTD SVG 1.1//EN"
  "http://www.w3.org/Graphics/SVG/1.1/DTD/svg11.dtd">
<svg xmlns:xlink="http://www.w3.org/1999/xlink" width="504pt" height="504pt" viewBox="0 0 504 504" xmlns="http://www.w3.org/2000/svg" version="1.1">
 <metadata>
  <rdf:RDF xmlns:dc="http://purl.org/dc/elements/1.1/" xmlns:cc="http://creativecommons.org/ns#" xmlns:rdf="http://www.w3.org/1999/02/22-rdf-syntax-ns#">
   <cc:Work>
    <dc:type rdf:resource="http://purl.org/dc/dcmitype/StillImage"/>
    <dc:date>2025-05-13T16:41:13.458098</dc:date>
    <dc:format>image/svg+xml</dc:format>
    <dc:creator>
     <cc:Agent>
      <dc:title>Matplotlib v3.8.4, https://matplotlib.org/</dc:title>
     </cc:Agent>
    </dc:creator>
   </cc:Work>
  </rdf:RDF>
 </metadata>
 <defs>
  <style type="text/css">*{stroke-linejoin: round; stroke-linecap: butt}</style>
 </defs>
 <g id="figure_1">
  <g id="patch_1">
   <path d="M 0 504 
L 504 504 
L 504 0 
L 0 0 
z
" style="fill: #ffffff"/>
  </g>
  <g id="axes_1">
   <g id="patch_2">
    <path d="M 335.501394 105.678 
C 319.389772 96.375952 301.96355 89.563944 283.814725 85.473392 
C 265.6659 81.382841 247.002343 80.060598 228.458087 81.551582 
C 209.913831 83.042567 191.701276 87.329701 174.439134 94.267344 
C 157.176991 101.204987 141.062976 110.713678 126.644508 122.470389 
C 112.226041 134.2271 99.668266 148.097174 89.397792 163.609422 
C 79.127318 179.121669 71.261781 196.098418 66.068385 213.962939 
C 60.874989 231.827459 58.413218 250.375138 58.766702 268.975877 
C 59.120187 287.576616 62.284879 306.017371 68.153268 323.671675 
C 74.021657 341.32598 82.526529 357.991628 93.378957 373.10246 
C 104.231386 388.213292 117.307072 401.596234 132.161812 412.796642 
C 147.016552 423.997051 163.480205 432.886642 180.993472 439.16342 
C 198.506739 445.440198 216.869029 449.032271 235.456543 449.81761 
C 254.044058 450.602949 272.643902 448.57256 290.624207 443.795418 
C 308.604512 439.018275 325.759338 431.549096 341.505905 421.64162 
C 357.252472 411.734144 371.410426 399.501849 383.498795 385.360287 
C 395.587164 371.218724 405.467492 355.329867 412.804129 338.233486 
L 302.590951 290.937272 
C 300.023128 296.921005 296.565013 302.482105 292.334084 307.431652 
C 288.103155 312.381199 283.147871 316.662502 277.636573 320.130119 
C 272.125274 323.597735 266.121085 326.211948 259.827978 327.883948 
C 253.534872 329.555948 247.024926 330.266584 240.519296 329.991715 
C 234.013666 329.716847 227.586864 328.459621 221.457221 326.262749 
C 215.327578 324.065877 209.565299 320.95452 204.36614 317.034377 
C 199.166981 313.114234 194.590491 308.430204 190.792141 303.141413 
C 186.993791 297.852622 184.017086 292.019645 181.96315 285.840638 
C 179.909214 279.661632 178.801571 273.207368 178.677852 266.697109 
C 178.554132 260.18685 179.415752 253.695163 181.233441 247.44258 
C 183.051129 241.189998 185.804067 235.248136 189.398733 229.81885 
C 192.993399 224.389563 197.38862 219.535037 202.435084 215.420188 
C 207.481547 211.305339 213.121453 207.977297 219.163203 205.549122 
C 225.204953 203.120947 231.579347 201.62045 238.069836 201.098606 
C 244.560326 200.576761 251.092571 201.039546 257.44466 202.471239 
C 263.796748 203.902932 269.895926 206.287135 275.534994 209.542852 
z
" style="fill: #ff7f0e; stroke: #ffffff; stroke-width: 2; stroke-linejoin: miter"/>
   </g>
   <g id="patch_3">
    <path d="M 430.313342 332.413327 
C 448.120128 290.918622 450.089927 244.29718 435.846735 201.448334 
C 421.603542 158.599487 392.115212 122.434901 353.010621 99.85785 
L 293.044212 203.722696 
C 306.730818 211.624664 317.051734 224.282269 322.036851 239.279365 
C 327.021969 254.276461 326.332539 270.593966 320.100164 285.117113 
z
" style="fill: #d62728; stroke: #ffffff; stroke-width: 2; stroke-linejoin: miter"/>
   </g>
   <g id="matplotlib.axis_1"/>
   <g id="matplotlib.axis_2"/>
   <g id="text_1">
    <!-- No -->
    <g transform="translate(30.833274 333.079022) scale(0.13 -0.13)">
     <defs>
      <path id="DejaVuSans-Bold-4e" d="M 588 4666 
L 1931 4666 
L 3628 1466 
L 3628 4666 
L 4769 4666 
L 4769 0 
L 3425 0 
L 1728 3200 
L 1728 0 
L 588 0 
L 588 4666 
z
" transform="scale(0.015625)"/>
      <path id="DejaVuSans-Bold-6f" d="M 2203 2784 
Q 1831 2784 1636 2517 
Q 1441 2250 1441 1747 
Q 1441 1244 1636 976 
Q 1831 709 2203 709 
Q 2569 709 2762 976 
Q 2956 1244 2956 1747 
Q 2956 2250 2762 2517 
Q 2569 2784 2203 2784 
z
M 2203 3584 
Q 3106 3584 3614 3096 
Q 4122 2609 4122 1747 
Q 4122 884 3614 396 
Q 3106 -91 2203 -91 
Q 1297 -91 786 396 
Q 275 884 275 1747 
Q 275 2609 786 3096 
Q 1297 3584 2203 3584 
z
" transform="scale(0.015625)"/>
     </defs>
     <use xlink:href="#DejaVuSans-Bold-4e"/>
     <use xlink:href="#DejaVuSans-Bold-6f" x="83.691406"/>
    </g>
   </g>
   <g id="text_2">
    <path d="M 116.509571 294.500412 
L 123.651446 294.500412 
L 123.651446 295.877599 
L 119.956603 303.978224 
L 117.575978 303.978224 
L 121.07379 296.298068 
L 116.509571 296.298068 
L 116.509571 294.500412 
z
M 129.389982 299.300256 
Q 128.748107 299.300256 128.427169 299.716662 
Q 128.106232 300.131037 128.106232 300.963849 
Q 128.106232 301.794631 128.427169 302.211037 
Q 128.748107 302.625412 129.389982 302.625412 
Q 130.035919 302.625412 130.356857 302.211037 
Q 130.677794 301.794631 130.677794 300.963849 
Q 130.677794 300.131037 130.356857 299.716662 
Q 130.035919 299.300256 129.389982 299.300256 
z
M 132.41045 294.748224 
L 132.41045 296.501193 
Q 131.807169 296.214787 131.27295 296.078693 
Q 130.740763 295.942599 130.23295 295.942599 
Q 129.142169 295.942599 128.532794 296.549943 
Q 127.923419 297.155256 127.821857 298.347599 
Q 128.240294 298.036818 128.727794 297.882443 
Q 129.217325 297.726037 129.796232 297.726037 
Q 131.248575 297.726037 132.140294 298.577131 
Q 133.032013 299.426193 133.032013 300.803381 
Q 133.032013 302.326818 132.034669 303.244943 
Q 131.039357 304.163068 129.363575 304.163068 
Q 127.517169 304.163068 126.503575 302.915881 
Q 125.492013 301.666662 125.492013 299.375412 
Q 125.492013 297.027287 126.676232 295.684631 
Q 127.86045 294.341974 129.922169 294.341974 
Q 130.576232 294.341974 131.1917 294.443537 
Q 131.807169 294.545099 132.41045 294.748224 
z
M 135.057423 301.522443 
L 137.342579 301.522443 
L 137.342579 303.978224 
L 135.057423 303.978224 
L 135.057423 301.522443 
z
M 139.971525 303.769006 
L 139.971525 302.016037 
Q 140.554493 302.290256 141.086681 302.426349 
Q 141.6209 302.562443 142.1409 302.562443 
Q 143.233712 302.562443 143.843087 301.957131 
Q 144.452462 301.349787 144.560118 300.157443 
Q 144.129493 300.474318 143.639962 300.632756 
Q 143.150431 300.791193 142.57965 300.791193 
Q 141.125275 300.791193 140.233556 299.944162 
Q 139.341837 299.097131 139.341837 297.713849 
Q 139.341837 296.182287 140.335118 295.262131 
Q 141.3284 294.341974 142.998087 294.341974 
Q 144.852618 294.341974 145.868243 295.593224 
Q 146.883868 296.842443 146.883868 299.127599 
Q 146.883868 301.477756 145.695587 302.820412 
Q 144.509337 304.163068 142.439493 304.163068 
Q 141.773243 304.163068 141.163868 304.063537 
Q 140.554493 303.966037 139.971525 303.769006 
z
M 142.9859 299.204787 
Q 143.627775 299.204787 143.950743 298.790412 
Q 144.273712 298.374006 144.273712 297.541193 
Q 144.273712 296.716506 143.950743 296.298068 
Q 143.627775 295.877599 142.9859 295.877599 
Q 142.344025 295.877599 142.021056 296.298068 
Q 141.698087 296.716506 141.698087 297.541193 
Q 141.698087 298.374006 142.021056 298.790412 
Q 142.344025 299.204787 142.9859 299.204787 
z
M 157.787872 300.068068 
Q 157.338966 300.068068 157.091154 300.458068 
Q 156.843341 300.848068 156.843341 301.573224 
Q 156.843341 302.302443 157.087091 302.692443 
Q 157.330841 303.082443 157.787872 303.082443 
Q 158.244904 303.082443 158.486622 302.692443 
Q 158.728341 302.302443 158.728341 301.573224 
Q 158.728341 300.848068 158.48256 300.458068 
Q 158.23881 300.068068 157.787872 300.068068 
z
M 157.787872 299.001662 
Q 158.97006 299.001662 159.648497 299.688224 
Q 160.326935 300.372756 160.326935 301.573224 
Q 160.326935 302.771662 159.648497 303.468381 
Q 158.97006 304.163068 157.787872 304.163068 
Q 156.607716 304.163068 155.925216 303.468381 
Q 155.242716 302.771662 155.242716 301.573224 
Q 155.242716 300.378849 155.925216 299.690256 
Q 156.607716 299.001662 157.787872 299.001662 
z
M 151.968341 304.163068 
L 150.564747 304.163068 
L 156.487872 294.329787 
L 157.89756 294.329787 
L 151.968341 304.163068 
z
M 150.66631 294.329787 
Q 151.846466 294.329787 152.522872 295.018381 
Q 153.199279 295.706974 153.199279 296.907443 
Q 153.199279 298.105881 152.522872 298.798537 
Q 151.846466 299.491193 150.66631 299.491193 
Q 149.486154 299.491193 148.809747 298.798537 
Q 148.133341 298.105881 148.133341 296.907443 
Q 148.133341 295.706974 148.809747 295.018381 
Q 149.486154 294.329787 150.66631 294.329787 
z
M 150.66631 295.396193 
Q 150.209279 295.396193 149.961466 295.790256 
Q 149.713654 296.182287 149.713654 296.907443 
Q 149.713654 297.636662 149.961466 298.034787 
Q 150.209279 298.430881 150.66631 298.430881 
Q 151.123341 298.430881 151.367091 298.034787 
Q 151.612872 297.636662 151.612872 296.907443 
Q 151.612872 296.182287 151.36506 295.790256 
Q 151.117247 295.396193 150.66631 295.396193 
z
" style="fill: #ffffff; stroke: #000000; stroke-width: 3"/>
    <path d="M 116.509571 294.500412 
L 123.651446 294.500412 
L 123.651446 295.877599 
L 119.956603 303.978224 
L 117.575978 303.978224 
L 121.07379 296.298068 
L 116.509571 296.298068 
L 116.509571 294.500412 
z
M 129.389982 299.300256 
Q 128.748107 299.300256 128.427169 299.716662 
Q 128.106232 300.131037 128.106232 300.963849 
Q 128.106232 301.794631 128.427169 302.211037 
Q 128.748107 302.625412 129.389982 302.625412 
Q 130.035919 302.625412 130.356857 302.211037 
Q 130.677794 301.794631 130.677794 300.963849 
Q 130.677794 300.131037 130.356857 299.716662 
Q 130.035919 299.300256 129.389982 299.300256 
z
M 132.41045 294.748224 
L 132.41045 296.501193 
Q 131.807169 296.214787 131.27295 296.078693 
Q 130.740763 295.942599 130.23295 295.942599 
Q 129.142169 295.942599 128.532794 296.549943 
Q 127.923419 297.155256 127.821857 298.347599 
Q 128.240294 298.036818 128.727794 297.882443 
Q 129.217325 297.726037 129.796232 297.726037 
Q 131.248575 297.726037 132.140294 298.577131 
Q 133.032013 299.426193 133.032013 300.803381 
Q 133.032013 302.326818 132.034669 303.244943 
Q 131.039357 304.163068 129.363575 304.163068 
Q 127.517169 304.163068 126.503575 302.915881 
Q 125.492013 301.666662 125.492013 299.375412 
Q 125.492013 297.027287 126.676232 295.684631 
Q 127.86045 294.341974 129.922169 294.341974 
Q 130.576232 294.341974 131.1917 294.443537 
Q 131.807169 294.545099 132.41045 294.748224 
z
M 135.057423 301.522443 
L 137.342579 301.522443 
L 137.342579 303.978224 
L 135.057423 303.978224 
L 135.057423 301.522443 
z
M 139.971525 303.769006 
L 139.971525 302.016037 
Q 140.554493 302.290256 141.086681 302.426349 
Q 141.6209 302.562443 142.1409 302.562443 
Q 143.233712 302.562443 143.843087 301.957131 
Q 144.452462 301.349787 144.560118 300.157443 
Q 144.129493 300.474318 143.639962 300.632756 
Q 143.150431 300.791193 142.57965 300.791193 
Q 141.125275 300.791193 140.233556 299.944162 
Q 139.341837 299.097131 139.341837 297.713849 
Q 139.341837 296.182287 140.335118 295.262131 
Q 141.3284 294.341974 142.998087 294.341974 
Q 144.852618 294.341974 145.868243 295.593224 
Q 146.883868 296.842443 146.883868 299.127599 
Q 146.883868 301.477756 145.695587 302.820412 
Q 144.509337 304.163068 142.439493 304.163068 
Q 141.773243 304.163068 141.163868 304.063537 
Q 140.554493 303.966037 139.971525 303.769006 
z
M 142.9859 299.204787 
Q 143.627775 299.204787 143.950743 298.790412 
Q 144.273712 298.374006 144.273712 297.541193 
Q 144.273712 296.716506 143.950743 296.298068 
Q 143.627775 295.877599 142.9859 295.877599 
Q 142.344025 295.877599 142.021056 296.298068 
Q 141.698087 296.716506 141.698087 297.541193 
Q 141.698087 298.374006 142.021056 298.790412 
Q 142.344025 299.204787 142.9859 299.204787 
z
M 157.787872 300.068068 
Q 157.338966 300.068068 157.091154 300.458068 
Q 156.843341 300.848068 156.843341 301.573224 
Q 156.843341 302.302443 157.087091 302.692443 
Q 157.330841 303.082443 157.787872 303.082443 
Q 158.244904 303.082443 158.486622 302.692443 
Q 158.728341 302.302443 158.728341 301.573224 
Q 158.728341 300.848068 158.48256 300.458068 
Q 158.23881 300.068068 157.787872 300.068068 
z
M 157.787872 299.001662 
Q 158.97006 299.001662 159.648497 299.688224 
Q 160.326935 300.372756 160.326935 301.573224 
Q 160.326935 302.771662 159.648497 303.468381 
Q 158.97006 304.163068 157.787872 304.163068 
Q 156.607716 304.163068 155.925216 303.468381 
Q 155.242716 302.771662 155.242716 301.573224 
Q 155.242716 300.378849 155.925216 299.690256 
Q 156.607716 299.001662 157.787872 299.001662 
z
M 151.968341 304.163068 
L 150.564747 304.163068 
L 156.487872 294.329787 
L 157.89756 294.329787 
L 151.968341 304.163068 
z
M 150.66631 294.329787 
Q 151.846466 294.329787 152.522872 295.018381 
Q 153.199279 295.706974 153.199279 296.907443 
Q 153.199279 298.105881 152.522872 298.798537 
Q 151.846466 299.491193 150.66631 299.491193 
Q 149.486154 299.491193 148.809747 298.798537 
Q 148.133341 298.105881 148.133341 296.907443 
Q 148.133341 295.706974 148.809747 295.018381 
Q 149.486154 294.329787 150.66631 294.329787 
z
M 150.66631 295.396193 
Q 150.209279 295.396193 149.961466 295.790256 
Q 149.713654 296.182287 149.713654 296.907443 
Q 149.713654 297.636662 149.961466 298.034787 
Q 150.209279 298.430881 150.66631 298.430881 
Q 151.123341 298.430881 151.367091 298.034787 
Q 151.612872 297.636662 151.612872 296.907443 
Q 151.612872 296.182287 151.36506 295.790256 
Q 151.117247 295.396193 150.66631 295.396193 
z
" style="fill: #ffffff"/>
   </g>
   <g id="text_3">
    <!-- Sí -->
    <g transform="translate(453.355948 199.215362) scale(0.13 -0.13)">
     <defs>
      <path id="DejaVuSans-Bold-53" d="M 3834 4519 
L 3834 3531 
Q 3450 3703 3084 3790 
Q 2719 3878 2394 3878 
Q 1963 3878 1756 3759 
Q 1550 3641 1550 3391 
Q 1550 3203 1689 3098 
Q 1828 2994 2194 2919 
L 2706 2816 
Q 3484 2659 3812 2340 
Q 4141 2022 4141 1434 
Q 4141 663 3683 286 
Q 3225 -91 2284 -91 
Q 1841 -91 1394 -6 
Q 947 78 500 244 
L 500 1259 
Q 947 1022 1364 901 
Q 1781 781 2169 781 
Q 2563 781 2772 912 
Q 2981 1044 2981 1288 
Q 2981 1506 2839 1625 
Q 2697 1744 2272 1838 
L 1806 1941 
Q 1106 2091 782 2419 
Q 459 2747 459 3303 
Q 459 4000 909 4375 
Q 1359 4750 2203 4750 
Q 2588 4750 2994 4692 
Q 3400 4634 3834 4519 
z
" transform="scale(0.015625)"/>
      <path id="DejaVuSans-Bold-ed" d="M 538 3500 
L 1656 3500 
L 1656 0 
L 538 0 
L 538 3500 
z
M 1590 5119 
L 2474 5119 
L 1321 3944 
L 709 3944 
L 1590 5119 
z
" transform="scale(0.015625)"/>
     </defs>
     <use xlink:href="#DejaVuSans-Bold-53"/>
     <use xlink:href="#DejaVuSans-Bold-ed" x="72.021484"/>
    </g>
   </g>
   <g id="text_4">
    <path d="M 347.005587 226.520531 
L 351.175743 226.520531 
L 351.175743 228.316156 
L 344.287774 228.316156 
L 344.287774 226.520531 
L 347.746993 223.465531 
Q 348.212149 223.047093 348.433555 222.646937 
Q 348.654962 222.246781 348.654962 221.816156 
Q 348.654962 221.149906 348.208087 220.743656 
Q 347.761212 220.337406 347.017774 220.337406 
Q 346.446993 220.337406 345.766524 220.581156 
Q 345.088087 220.824906 344.31418 221.308343 
L 344.31418 219.226312 
Q 345.138868 218.954125 345.945274 218.811937 
Q 346.75168 218.667718 347.525587 218.667718 
Q 349.227774 218.667718 350.170274 219.41725 
Q 351.112774 220.16475 351.112774 221.505375 
Q 351.112774 222.279281 350.712618 222.949593 
Q 350.312462 223.617875 349.030743 224.743187 
L 347.005587 226.520531 
z
M 358.360528 223.205531 
Q 359.319278 223.453343 359.816934 224.066781 
Q 360.316622 224.678187 360.316622 225.62475 
Q 360.316622 227.034437 359.235997 227.767718 
Q 358.157403 228.501 356.08959 228.501 
Q 355.35834 228.501 354.625059 228.383187 
Q 353.891778 228.265375 353.174747 228.02975 
L 353.174747 226.14475 
Q 353.861309 226.488031 354.535684 226.662718 
Q 355.21209 226.837406 355.866153 226.837406 
Q 356.83709 226.837406 357.355059 226.50225 
Q 357.873028 226.165062 357.873028 225.535375 
Q 357.873028 224.887406 357.342872 224.554281 
Q 356.812715 224.221156 355.776778 224.221156 
L 354.799747 224.221156 
L 354.799747 222.646937 
L 355.827559 222.646937 
Q 356.749747 222.646937 357.198653 222.3585 
Q 357.64959 222.070062 357.64959 221.478968 
Q 357.64959 220.934593 357.21084 220.636 
Q 356.774122 220.337406 355.973809 220.337406 
Q 355.384747 220.337406 354.781465 220.471468 
Q 354.178184 220.6035 353.580997 220.8635 
L 353.580997 219.073968 
Q 354.304122 218.870843 355.015059 218.769281 
Q 355.725997 218.667718 356.412559 218.667718 
Q 358.258965 218.667718 359.175059 219.275062 
Q 360.093184 219.880375 360.093184 221.099125 
Q 360.093184 221.929906 359.654434 222.460062 
Q 359.217715 222.990218 358.360528 223.205531 
z
M 362.677188 225.860375 
L 364.962344 225.860375 
L 364.962344 228.316156 
L 362.677188 228.316156 
L 362.677188 225.860375 
z
M 367.812696 226.628187 
L 369.971915 226.628187 
L 369.971915 220.501937 
L 367.755821 220.958968 
L 367.755821 219.295375 
L 369.957696 218.838343 
L 372.281446 218.838343 
L 372.281446 226.628187 
L 374.440665 226.628187 
L 374.440665 228.316156 
L 367.812696 228.316156 
L 367.812696 226.628187 
z
M 385.407637 224.406 
Q 384.958731 224.406 384.710919 224.796 
Q 384.463106 225.186 384.463106 225.911156 
Q 384.463106 226.640375 384.706856 227.030375 
Q 384.950606 227.420375 385.407637 227.420375 
Q 385.864669 227.420375 386.106387 227.030375 
Q 386.348106 226.640375 386.348106 225.911156 
Q 386.348106 225.186 386.102325 224.796 
Q 385.858575 224.406 385.407637 224.406 
z
M 385.407637 223.339593 
Q 386.589825 223.339593 387.268262 224.026156 
Q 387.9467 224.710687 387.9467 225.911156 
Q 387.9467 227.109593 387.268262 227.806312 
Q 386.589825 228.501 385.407637 228.501 
Q 384.227481 228.501 383.544981 227.806312 
Q 382.862481 227.109593 382.862481 225.911156 
Q 382.862481 224.716781 383.544981 224.028187 
Q 384.227481 223.339593 385.407637 223.339593 
z
M 379.588106 228.501 
L 378.184512 228.501 
L 384.107637 218.667718 
L 385.517325 218.667718 
L 379.588106 228.501 
z
M 378.286075 218.667718 
Q 379.466231 218.667718 380.142637 219.356312 
Q 380.819044 220.044906 380.819044 221.245375 
Q 380.819044 222.443812 380.142637 223.136468 
Q 379.466231 223.829125 378.286075 223.829125 
Q 377.105919 223.829125 376.429512 223.136468 
Q 375.753106 222.443812 375.753106 221.245375 
Q 375.753106 220.044906 376.429512 219.356312 
Q 377.105919 218.667718 378.286075 218.667718 
z
M 378.286075 219.734125 
Q 377.829044 219.734125 377.581231 220.128187 
Q 377.333419 220.520218 377.333419 221.245375 
Q 377.333419 221.974593 377.581231 222.372718 
Q 377.829044 222.768812 378.286075 222.768812 
Q 378.743106 222.768812 378.986856 222.372718 
Q 379.232637 221.974593 379.232637 221.245375 
Q 379.232637 220.520218 378.984825 220.128187 
Q 378.737012 219.734125 378.286075 219.734125 
z
" style="fill: #ffffff; stroke: #000000; stroke-width: 3"/>
    <path d="M 347.005587 226.520531 
L 351.175743 226.520531 
L 351.175743 228.316156 
L 344.287774 228.316156 
L 344.287774 226.520531 
L 347.746993 223.465531 
Q 348.212149 223.047093 348.433555 222.646937 
Q 348.654962 222.246781 348.654962 221.816156 
Q 348.654962 221.149906 348.208087 220.743656 
Q 347.761212 220.337406 347.017774 220.337406 
Q 346.446993 220.337406 345.766524 220.581156 
Q 345.088087 220.824906 344.31418 221.308343 
L 344.31418 219.226312 
Q 345.138868 218.954125 345.945274 218.811937 
Q 346.75168 218.667718 347.525587 218.667718 
Q 349.227774 218.667718 350.170274 219.41725 
Q 351.112774 220.16475 351.112774 221.505375 
Q 351.112774 222.279281 350.712618 222.949593 
Q 350.312462 223.617875 349.030743 224.743187 
L 347.005587 226.520531 
z
M 358.360528 223.205531 
Q 359.319278 223.453343 359.816934 224.066781 
Q 360.316622 224.678187 360.316622 225.62475 
Q 360.316622 227.034437 359.235997 227.767718 
Q 358.157403 228.501 356.08959 228.501 
Q 355.35834 228.501 354.625059 228.383187 
Q 353.891778 228.265375 353.174747 228.02975 
L 353.174747 226.14475 
Q 353.861309 226.488031 354.535684 226.662718 
Q 355.21209 226.837406 355.866153 226.837406 
Q 356.83709 226.837406 357.355059 226.50225 
Q 357.873028 226.165062 357.873028 225.535375 
Q 357.873028 224.887406 357.342872 224.554281 
Q 356.812715 224.221156 355.776778 224.221156 
L 354.799747 224.221156 
L 354.799747 222.646937 
L 355.827559 222.646937 
Q 356.749747 222.646937 357.198653 222.3585 
Q 357.64959 222.070062 357.64959 221.478968 
Q 357.64959 220.934593 357.21084 220.636 
Q 356.774122 220.337406 355.973809 220.337406 
Q 355.384747 220.337406 354.781465 220.471468 
Q 354.178184 220.6035 353.580997 220.8635 
L 353.580997 219.073968 
Q 354.304122 218.870843 355.015059 218.769281 
Q 355.725997 218.667718 356.412559 218.667718 
Q 358.258965 218.667718 359.175059 219.275062 
Q 360.093184 219.880375 360.093184 221.099125 
Q 360.093184 221.929906 359.654434 222.460062 
Q 359.217715 222.990218 358.360528 223.205531 
z
M 362.677188 225.860375 
L 364.962344 225.860375 
L 364.962344 228.316156 
L 362.677188 228.316156 
L 362.677188 225.860375 
z
M 367.812696 226.628187 
L 369.971915 226.628187 
L 369.971915 220.501937 
L 367.755821 220.958968 
L 367.755821 219.295375 
L 369.957696 218.838343 
L 372.281446 218.838343 
L 372.281446 226.628187 
L 374.440665 226.628187 
L 374.440665 228.316156 
L 367.812696 228.316156 
L 367.812696 226.628187 
z
M 385.407637 224.406 
Q 384.958731 224.406 384.710919 224.796 
Q 384.463106 225.186 384.463106 225.911156 
Q 384.463106 226.640375 384.706856 227.030375 
Q 384.950606 227.420375 385.407637 227.420375 
Q 385.864669 227.420375 386.106387 227.030375 
Q 386.348106 226.640375 386.348106 225.911156 
Q 386.348106 225.186 386.102325 224.796 
Q 385.858575 224.406 385.407637 224.406 
z
M 385.407637 223.339593 
Q 386.589825 223.339593 387.268262 224.026156 
Q 387.9467 224.710687 387.9467 225.911156 
Q 387.9467 227.109593 387.268262 227.806312 
Q 386.589825 228.501 385.407637 228.501 
Q 384.227481 228.501 383.544981 227.806312 
Q 382.862481 227.109593 382.862481 225.911156 
Q 382.862481 224.716781 383.544981 224.028187 
Q 384.227481 223.339593 385.407637 223.339593 
z
M 379.588106 228.501 
L 378.184512 228.501 
L 384.107637 218.667718 
L 385.517325 218.667718 
L 379.588106 228.501 
z
M 378.286075 218.667718 
Q 379.466231 218.667718 380.142637 219.356312 
Q 380.819044 220.044906 380.819044 221.245375 
Q 380.819044 222.443812 380.142637 223.136468 
Q 379.466231 223.829125 378.286075 223.829125 
Q 377.105919 223.829125 376.429512 223.136468 
Q 375.753106 222.443812 375.753106 221.245375 
Q 375.753106 220.044906 376.429512 219.356312 
Q 377.105919 218.667718 378.286075 218.667718 
z
M 378.286075 219.734125 
Q 377.829044 219.734125 377.581231 220.128187 
Q 377.333419 220.520218 377.333419 221.245375 
Q 377.333419 221.974593 377.581231 222.372718 
Q 377.829044 222.768812 378.286075 222.768812 
Q 378.743106 222.768812 378.986856 222.372718 
Q 379.232637 221.974593 379.232637 221.245375 
Q 379.232637 220.520218 378.984825 220.128187 
Q 378.737012 219.734125 378.286075 219.734125 
z
" style="fill: #ffffff"/>
   </g>
   <g id="text_5">
    <!-- Historia Familiar de Infarto -->
    <g transform="translate(99.214062 25.92) scale(0.2 -0.2)">
     <defs>
      <path id="DejaVuSans-Bold-48" d="M 588 4666 
L 1791 4666 
L 1791 2888 
L 3566 2888 
L 3566 4666 
L 4769 4666 
L 4769 0 
L 3566 0 
L 3566 1978 
L 1791 1978 
L 1791 0 
L 588 0 
L 588 4666 
z
" transform="scale(0.015625)"/>
      <path id="DejaVuSans-Bold-69" d="M 538 3500 
L 1656 3500 
L 1656 0 
L 538 0 
L 538 3500 
z
M 538 4863 
L 1656 4863 
L 1656 3950 
L 538 3950 
L 538 4863 
z
" transform="scale(0.015625)"/>
      <path id="DejaVuSans-Bold-73" d="M 3272 3391 
L 3272 2541 
Q 2913 2691 2578 2766 
Q 2244 2841 1947 2841 
Q 1628 2841 1473 2761 
Q 1319 2681 1319 2516 
Q 1319 2381 1436 2309 
Q 1553 2238 1856 2203 
L 2053 2175 
Q 2913 2066 3209 1816 
Q 3506 1566 3506 1031 
Q 3506 472 3093 190 
Q 2681 -91 1863 -91 
Q 1516 -91 1145 -36 
Q 775 19 384 128 
L 384 978 
Q 719 816 1070 734 
Q 1422 653 1784 653 
Q 2113 653 2278 743 
Q 2444 834 2444 1013 
Q 2444 1163 2330 1236 
Q 2216 1309 1875 1350 
L 1678 1375 
Q 931 1469 631 1722 
Q 331 1975 331 2491 
Q 331 3047 712 3315 
Q 1094 3584 1881 3584 
Q 2191 3584 2531 3537 
Q 2872 3491 3272 3391 
z
" transform="scale(0.015625)"/>
      <path id="DejaVuSans-Bold-74" d="M 1759 4494 
L 1759 3500 
L 2913 3500 
L 2913 2700 
L 1759 2700 
L 1759 1216 
Q 1759 972 1856 886 
Q 1953 800 2241 800 
L 2816 800 
L 2816 0 
L 1856 0 
Q 1194 0 917 276 
Q 641 553 641 1216 
L 641 2700 
L 84 2700 
L 84 3500 
L 641 3500 
L 641 4494 
L 1759 4494 
z
" transform="scale(0.015625)"/>
      <path id="DejaVuSans-Bold-72" d="M 3138 2547 
Q 2991 2616 2845 2648 
Q 2700 2681 2553 2681 
Q 2122 2681 1889 2404 
Q 1656 2128 1656 1613 
L 1656 0 
L 538 0 
L 538 3500 
L 1656 3500 
L 1656 2925 
Q 1872 3269 2151 3426 
Q 2431 3584 2822 3584 
Q 2878 3584 2943 3579 
Q 3009 3575 3134 3559 
L 3138 2547 
z
" transform="scale(0.015625)"/>
      <path id="DejaVuSans-Bold-61" d="M 2106 1575 
Q 1756 1575 1579 1456 
Q 1403 1338 1403 1106 
Q 1403 894 1545 773 
Q 1688 653 1941 653 
Q 2256 653 2472 879 
Q 2688 1106 2688 1447 
L 2688 1575 
L 2106 1575 
z
M 3816 1997 
L 3816 0 
L 2688 0 
L 2688 519 
Q 2463 200 2181 54 
Q 1900 -91 1497 -91 
Q 953 -91 614 226 
Q 275 544 275 1050 
Q 275 1666 698 1953 
Q 1122 2241 2028 2241 
L 2688 2241 
L 2688 2328 
Q 2688 2594 2478 2717 
Q 2269 2841 1825 2841 
Q 1466 2841 1156 2769 
Q 847 2697 581 2553 
L 581 3406 
Q 941 3494 1303 3539 
Q 1666 3584 2028 3584 
Q 2975 3584 3395 3211 
Q 3816 2838 3816 1997 
z
" transform="scale(0.015625)"/>
      <path id="DejaVuSans-Bold-20" transform="scale(0.015625)"/>
      <path id="DejaVuSans-Bold-46" d="M 588 4666 
L 3834 4666 
L 3834 3756 
L 1791 3756 
L 1791 2888 
L 3713 2888 
L 3713 1978 
L 1791 1978 
L 1791 0 
L 588 0 
L 588 4666 
z
" transform="scale(0.015625)"/>
      <path id="DejaVuSans-Bold-6d" d="M 3781 2919 
Q 3994 3244 4286 3414 
Q 4578 3584 4928 3584 
Q 5531 3584 5847 3212 
Q 6163 2841 6163 2131 
L 6163 0 
L 5038 0 
L 5038 1825 
Q 5041 1866 5042 1909 
Q 5044 1953 5044 2034 
Q 5044 2406 4934 2573 
Q 4825 2741 4581 2741 
Q 4263 2741 4089 2478 
Q 3916 2216 3909 1719 
L 3909 0 
L 2784 0 
L 2784 1825 
Q 2784 2406 2684 2573 
Q 2584 2741 2328 2741 
Q 2006 2741 1831 2477 
Q 1656 2213 1656 1722 
L 1656 0 
L 531 0 
L 531 3500 
L 1656 3500 
L 1656 2988 
Q 1863 3284 2130 3434 
Q 2397 3584 2719 3584 
Q 3081 3584 3359 3409 
Q 3638 3234 3781 2919 
z
" transform="scale(0.015625)"/>
      <path id="DejaVuSans-Bold-6c" d="M 538 4863 
L 1656 4863 
L 1656 0 
L 538 0 
L 538 4863 
z
" transform="scale(0.015625)"/>
      <path id="DejaVuSans-Bold-64" d="M 2919 2988 
L 2919 4863 
L 4044 4863 
L 4044 0 
L 2919 0 
L 2919 506 
Q 2688 197 2409 53 
Q 2131 -91 1766 -91 
Q 1119 -91 703 423 
Q 288 938 288 1747 
Q 288 2556 703 3070 
Q 1119 3584 1766 3584 
Q 2128 3584 2408 3439 
Q 2688 3294 2919 2988 
z
M 2181 722 
Q 2541 722 2730 984 
Q 2919 1247 2919 1747 
Q 2919 2247 2730 2509 
Q 2541 2772 2181 2772 
Q 1825 2772 1636 2509 
Q 1447 2247 1447 1747 
Q 1447 1247 1636 984 
Q 1825 722 2181 722 
z
" transform="scale(0.015625)"/>
      <path id="DejaVuSans-Bold-65" d="M 4031 1759 
L 4031 1441 
L 1416 1441 
Q 1456 1047 1700 850 
Q 1944 653 2381 653 
Q 2734 653 3104 758 
Q 3475 863 3866 1075 
L 3866 213 
Q 3469 63 3072 -14 
Q 2675 -91 2278 -91 
Q 1328 -91 801 392 
Q 275 875 275 1747 
Q 275 2603 792 3093 
Q 1309 3584 2216 3584 
Q 3041 3584 3536 3087 
Q 4031 2591 4031 1759 
z
M 2881 2131 
Q 2881 2450 2695 2645 
Q 2509 2841 2209 2841 
Q 1884 2841 1681 2658 
Q 1478 2475 1428 2131 
L 2881 2131 
z
" transform="scale(0.015625)"/>
      <path id="DejaVuSans-Bold-49" d="M 588 4666 
L 1791 4666 
L 1791 0 
L 588 0 
L 588 4666 
z
" transform="scale(0.015625)"/>
      <path id="DejaVuSans-Bold-6e" d="M 4056 2131 
L 4056 0 
L 2931 0 
L 2931 347 
L 2931 1631 
Q 2931 2084 2911 2256 
Q 2891 2428 2841 2509 
Q 2775 2619 2662 2680 
Q 2550 2741 2406 2741 
Q 2056 2741 1856 2470 
Q 1656 2200 1656 1722 
L 1656 0 
L 538 0 
L 538 3500 
L 1656 3500 
L 1656 2988 
Q 1909 3294 2193 3439 
Q 2478 3584 2822 3584 
Q 3428 3584 3742 3212 
Q 4056 2841 4056 2131 
z
" transform="scale(0.015625)"/>
      <path id="DejaVuSans-Bold-66" d="M 2841 4863 
L 2841 4128 
L 2222 4128 
Q 1984 4128 1890 4042 
Q 1797 3956 1797 3744 
L 1797 3500 
L 2753 3500 
L 2753 2700 
L 1797 2700 
L 1797 0 
L 678 0 
L 678 2700 
L 122 2700 
L 122 3500 
L 678 3500 
L 678 3744 
Q 678 4316 997 4589 
Q 1316 4863 1984 4863 
L 2841 4863 
z
" transform="scale(0.015625)"/>
     </defs>
     <use xlink:href="#DejaVuSans-Bold-48"/>
     <use xlink:href="#DejaVuSans-Bold-69" x="83.691406"/>
     <use xlink:href="#DejaVuSans-Bold-73" x="117.96875"/>
     <use xlink:href="#DejaVuSans-Bold-74" x="177.490234"/>
     <use xlink:href="#DejaVuSans-Bold-6f" x="225.292969"/>
     <use xlink:href="#DejaVuSans-Bold-72" x="293.994141"/>
     <use xlink:href="#DejaVuSans-Bold-69" x="343.310547"/>
     <use xlink:href="#DejaVuSans-Bold-61" x="377.587891"/>
     <use xlink:href="#DejaVuSans-Bold-20" x="445.068359"/>
     <use xlink:href="#DejaVuSans-Bold-46" x="479.882812"/>
     <use xlink:href="#DejaVuSans-Bold-61" x="542.318359"/>
     <use xlink:href="#DejaVuSans-Bold-6d" x="609.798828"/>
     <use xlink:href="#DejaVuSans-Bold-69" x="713.998047"/>
     <use xlink:href="#DejaVuSans-Bold-6c" x="748.275391"/>
     <use xlink:href="#DejaVuSans-Bold-69" x="782.552734"/>
     <use xlink:href="#DejaVuSans-Bold-61" x="816.830078"/>
     <use xlink:href="#DejaVuSans-Bold-72" x="884.310547"/>
     <use xlink:href="#DejaVuSans-Bold-20" x="933.626953"/>
     <use xlink:href="#DejaVuSans-Bold-64" x="968.441406"/>
     <use xlink:href="#DejaVuSans-Bold-65" x="1040.023438"/>
     <use xlink:href="#DejaVuSans-Bold-20" x="1107.845703"/>
     <use xlink:href="#DejaVuSans-Bold-49" x="1142.660156"/>
     <use xlink:href="#DejaVuSans-Bold-6e" x="1179.867188"/>
     <use xlink:href="#DejaVuSans-Bold-66" x="1251.058594"/>
     <use xlink:href="#DejaVuSans-Bold-61" x="1294.564453"/>
     <use xlink:href="#DejaVuSans-Bold-72" x="1362.044922"/>
     <use xlink:href="#DejaVuSans-Bold-74" x="1411.361328"/>
     <use xlink:href="#DejaVuSans-Bold-6f" x="1459.164062"/>
    </g>
   </g>
  </g>
 </g>
</svg>
