<?xml version="1.0" encoding="utf-8" standalone="no"?>
<!DOCTYPE svg PUBLIC "-//W3C//DTD SVG 1.1//EN"
  "http://www.w3.org/Graphics/SVG/1.1/DTD/svg11.dtd">
<svg xmlns:xlink="http://www.w3.org/1999/xlink" width="504pt" height="504pt" viewBox="0 0 504 504" xmlns="http://www.w3.org/2000/svg" version="1.1">
 <metadata>
  <rdf:RDF xmlns:dc="http://purl.org/dc/elements/1.1/" xmlns:cc="http://creativecommons.org/ns#" xmlns:rdf="http://www.w3.org/1999/02/22-rdf-syntax-ns#">
   <cc:Work>
    <dc:type rdf:resource="http://purl.org/dc/dcmitype/StillImage"/>
    <dc:date>2025-05-13T16:41:11.519860</dc:date>
    <dc:format>image/svg+xml</dc:format>
    <dc:creator>
     <cc:Agent>
      <dc:title>Matplotlib v3.8.4, https://matplotlib.org/</dc:title>
     </cc:Agent>
    </dc:creator>
   </cc:Work>
  </rdf:RDF>
 </metadata>
 <defs>
  <style type="text/css">*{stroke-linejoin: round; stroke-linecap: butt}</style>
 </defs>
 <g id="figure_1">
  <g id="patch_1">
   <path d="M 0 504 
L 504 504 
L 504 0 
L 0 0 
z
" style="fill: #ffffff"/>
  </g>
  <g id="axes_1">
   <g id="patch_2">
    <path d="M 317.996323 133.265292 
C 296.284707 120.730084 271.754846 113.878991 246.690019 113.349722 
C 221.625191 112.820453 196.827989 118.629956 174.606575 130.237473 
C 152.385161 141.844991 133.451079 158.878842 119.566744 179.753491 
C 105.682408 200.628139 97.292404 224.675163 95.177687 249.656229 
C 93.062969 274.637296 97.291253 299.752494 107.468963 322.664061 
C 117.646673 345.575629 133.447911 365.549923 153.401874 380.727704 
C 173.355838 395.905486 196.823587 405.800753 221.620707 409.492437 
C 246.417828 413.184122 271.750298 410.554015 295.260134 401.84693 
L 261.646309 311.086871 
C 253.417866 314.134351 244.551501 315.054889 235.872509 313.762799 
C 227.193517 312.470709 218.979805 309.007366 211.995918 303.695142 
C 205.012031 298.382919 199.481597 291.391916 195.919399 283.372867 
C 192.3572 275.353819 190.877301 266.563499 191.617452 257.820126 
C 192.357603 249.076753 195.294104 240.660294 200.153622 233.354167 
C 205.013139 226.048041 211.640068 220.086193 219.417563 216.023561 
C 227.195058 211.96093 235.874079 209.927604 244.646768 210.112848 
C 253.419458 210.298093 262.004909 212.695975 269.603975 217.083298 
z
" style="fill: #1f77b4; stroke: #ffffff; stroke-width: 2; stroke-linejoin: miter"/>
   </g>
   <g id="patch_3">
    <path d="M 310.097021 403.102914 
C 336.606918 393.284729 359.780478 376.117 376.895078 353.616737 
C 394.009677 331.116473 404.367739 304.200764 406.752313 276.031896 
C 409.136887 247.863027 403.450779 219.589134 390.36204 194.532073 
C 377.273302 169.475012 357.315419 148.656085 332.83321 134.521276 
L 284.440862 218.339282 
C 293.009635 223.286465 299.994894 230.57309 304.575952 239.343061 
C 309.157011 248.113032 311.147149 258.008895 310.312548 267.867999 
C 309.477947 277.727103 305.852625 287.147601 299.862515 295.022693 
C 293.872406 302.897786 285.761659 308.906491 276.483196 312.342855 
z
" style="fill: #ff7f0e; stroke: #ffffff; stroke-width: 2; stroke-linejoin: miter"/>
   </g>
   <g id="matplotlib.axis_1"/>
   <g id="matplotlib.axis_2"/>
   <g id="text_1">
    <!-- Femenino -->
    <g transform="translate(8.901737 251.987433) scale(0.13 -0.13)">
     <defs>
      <path id="DejaVuSans-Bold-46" d="M 588 4666 
L 3834 4666 
L 3834 3756 
L 1791 3756 
L 1791 2888 
L 3713 2888 
L 3713 1978 
L 1791 1978 
L 1791 0 
L 588 0 
L 588 4666 
z
" transform="scale(0.015625)"/>
      <path id="DejaVuSans-Bold-65" d="M 4031 1759 
L 4031 1441 
L 1416 1441 
Q 1456 1047 1700 850 
Q 1944 653 2381 653 
Q 2734 653 3104 758 
Q 3475 863 3866 1075 
L 3866 213 
Q 3469 63 3072 -14 
Q 2675 -91 2278 -91 
Q 1328 -91 801 392 
Q 275 875 275 1747 
Q 275 2603 792 3093 
Q 1309 3584 2216 3584 
Q 3041 3584 3536 3087 
Q 4031 2591 4031 1759 
z
M 2881 2131 
Q 2881 2450 2695 2645 
Q 2509 2841 2209 2841 
Q 1884 2841 1681 2658 
Q 1478 2475 1428 2131 
L 2881 2131 
z
" transform="scale(0.015625)"/>
      <path id="DejaVuSans-Bold-6d" d="M 3781 2919 
Q 3994 3244 4286 3414 
Q 4578 3584 4928 3584 
Q 5531 3584 5847 3212 
Q 6163 2841 6163 2131 
L 6163 0 
L 5038 0 
L 5038 1825 
Q 5041 1866 5042 1909 
Q 5044 1953 5044 2034 
Q 5044 2406 4934 2573 
Q 4825 2741 4581 2741 
Q 4263 2741 4089 2478 
Q 3916 2216 3909 1719 
L 3909 0 
L 2784 0 
L 2784 1825 
Q 2784 2406 2684 2573 
Q 2584 2741 2328 2741 
Q 2006 2741 1831 2477 
Q 1656 2213 1656 1722 
L 1656 0 
L 531 0 
L 531 3500 
L 1656 3500 
L 1656 2988 
Q 1863 3284 2130 3434 
Q 2397 3584 2719 3584 
Q 3081 3584 3359 3409 
Q 3638 3234 3781 2919 
z
" transform="scale(0.015625)"/>
      <path id="DejaVuSans-Bold-6e" d="M 4056 2131 
L 4056 0 
L 2931 0 
L 2931 347 
L 2931 1631 
Q 2931 2084 2911 2256 
Q 2891 2428 2841 2509 
Q 2775 2619 2662 2680 
Q 2550 2741 2406 2741 
Q 2056 2741 1856 2470 
Q 1656 2200 1656 1722 
L 1656 0 
L 538 0 
L 538 3500 
L 1656 3500 
L 1656 2988 
Q 1909 3294 2193 3439 
Q 2478 3584 2822 3584 
Q 3428 3584 3742 3212 
Q 4056 2841 4056 2131 
z
" transform="scale(0.015625)"/>
      <path id="DejaVuSans-Bold-69" d="M 538 3500 
L 1656 3500 
L 1656 0 
L 538 0 
L 538 3500 
z
M 538 4863 
L 1656 4863 
L 1656 3950 
L 538 3950 
L 538 4863 
z
" transform="scale(0.015625)"/>
      <path id="DejaVuSans-Bold-6f" d="M 2203 2784 
Q 1831 2784 1636 2517 
Q 1441 2250 1441 1747 
Q 1441 1244 1636 976 
Q 1831 709 2203 709 
Q 2569 709 2762 976 
Q 2956 1244 2956 1747 
Q 2956 2250 2762 2517 
Q 2569 2784 2203 2784 
z
M 2203 3584 
Q 3106 3584 3614 3096 
Q 4122 2609 4122 1747 
Q 4122 884 3614 396 
Q 3106 -91 2203 -91 
Q 1297 -91 786 396 
Q 275 884 275 1747 
Q 275 2609 786 3096 
Q 1297 3584 2203 3584 
z
" transform="scale(0.015625)"/>
     </defs>
     <use xlink:href="#DejaVuSans-Bold-46"/>
     <use xlink:href="#DejaVuSans-Bold-65" x="64.310547"/>
     <use xlink:href="#DejaVuSans-Bold-6d" x="132.132812"/>
     <use xlink:href="#DejaVuSans-Bold-65" x="236.332031"/>
     <use xlink:href="#DejaVuSans-Bold-6e" x="304.154297"/>
     <use xlink:href="#DejaVuSans-Bold-69" x="375.345703"/>
     <use xlink:href="#DejaVuSans-Bold-6e" x="409.623047"/>
     <use xlink:href="#DejaVuSans-Bold-6f" x="480.814453"/>
    </g>
   </g>
   <g id="text_2">
    <path d="M 136.679688 253.589385 
Q 136.037813 253.589385 135.716875 254.005791 
Q 135.395938 254.420166 135.395938 255.252978 
Q 135.395938 256.08376 135.716875 256.500166 
Q 136.037813 256.914541 136.679688 256.914541 
Q 137.325625 256.914541 137.646563 256.500166 
Q 137.9675 256.08376 137.9675 255.252978 
Q 137.9675 254.420166 137.646563 254.005791 
Q 137.325625 253.589385 136.679688 253.589385 
z
M 139.700157 249.037353 
L 139.700157 250.790322 
Q 139.096875 250.503916 138.562657 250.367822 
Q 138.030469 250.231728 137.522657 250.231728 
Q 136.431875 250.231728 135.8225 250.839072 
Q 135.213125 251.444385 135.111563 252.636728 
Q 135.53 252.325947 136.0175 252.171572 
Q 136.507032 252.015166 137.085938 252.015166 
Q 138.538282 252.015166 139.43 252.86626 
Q 140.321719 253.715322 140.321719 255.09251 
Q 140.321719 256.615947 139.324375 257.534072 
Q 138.329063 258.452197 136.653282 258.452197 
Q 134.806875 258.452197 133.793282 257.20501 
Q 132.781719 255.955791 132.781719 253.664541 
Q 132.781719 251.316416 133.965938 249.97376 
Q 135.150157 248.631103 137.211875 248.631103 
Q 137.865938 248.631103 138.481407 248.732666 
Q 139.096875 248.834228 139.700157 249.037353 
z
M 145.806348 250.80251 
L 143.12916 254.769541 
L 145.806348 254.769541 
L 145.806348 250.80251 
z
M 145.400098 248.789541 
L 148.11791 248.789541 
L 148.11791 254.769541 
L 149.468692 254.769541 
L 149.468692 256.540791 
L 148.11791 256.540791 
L 148.11791 258.267353 
L 145.806348 258.267353 
L 145.806348 256.540791 
L 141.605723 256.540791 
L 141.605723 254.446572 
L 145.400098 248.789541 
z
M 151.392539 255.811572 
L 153.677696 255.811572 
L 153.677696 258.267353 
L 151.392539 258.267353 
L 151.392539 255.811572 
z
M 160.98461 253.518291 
Q 160.98461 251.740947 160.651485 251.015791 
Q 160.31836 250.288603 159.530235 250.288603 
Q 158.744141 250.288603 158.406953 251.015791 
Q 158.069766 251.740947 158.069766 253.518291 
Q 158.069766 255.315947 158.406953 256.053291 
Q 158.744141 256.788603 159.530235 256.788603 
Q 160.312266 256.788603 160.647422 256.053291 
Q 160.98461 255.315947 160.98461 253.518291 
z
M 163.428203 253.538603 
Q 163.428203 255.892822 162.412578 257.17251 
Q 161.396953 258.452197 159.530235 258.452197 
Q 157.657422 258.452197 156.641797 257.17251 
Q 155.626172 255.892822 155.626172 253.538603 
Q 155.626172 251.17626 156.641797 249.898603 
Q 157.657422 248.618916 159.530235 248.618916 
Q 161.396953 248.618916 162.412578 249.898603 
Q 163.428203 251.17626 163.428203 253.538603 
z
M 174.122989 254.357197 
Q 173.674082 254.357197 173.42627 254.747197 
Q 173.178457 255.137197 173.178457 255.862353 
Q 173.178457 256.591572 173.422207 256.981572 
Q 173.665957 257.371572 174.122989 257.371572 
Q 174.58002 257.371572 174.821739 256.981572 
Q 175.063457 256.591572 175.063457 255.862353 
Q 175.063457 255.137197 174.817676 254.747197 
Q 174.573926 254.357197 174.122989 254.357197 
z
M 174.122989 253.290791 
Q 175.305176 253.290791 175.983614 253.977353 
Q 176.662051 254.661885 176.662051 255.862353 
Q 176.662051 257.060791 175.983614 257.75751 
Q 175.305176 258.452197 174.122989 258.452197 
Q 172.942832 258.452197 172.260332 257.75751 
Q 171.577832 257.060791 171.577832 255.862353 
Q 171.577832 254.667978 172.260332 253.979385 
Q 172.942832 253.290791 174.122989 253.290791 
z
M 168.303457 258.452197 
L 166.899864 258.452197 
L 172.822989 248.618916 
L 174.232676 248.618916 
L 168.303457 258.452197 
z
M 167.001426 248.618916 
Q 168.181582 248.618916 168.857989 249.30751 
Q 169.534395 249.996103 169.534395 251.196572 
Q 169.534395 252.39501 168.857989 253.087666 
Q 168.181582 253.780322 167.001426 253.780322 
Q 165.82127 253.780322 165.144864 253.087666 
Q 164.468457 252.39501 164.468457 251.196572 
Q 164.468457 249.996103 165.144864 249.30751 
Q 165.82127 248.618916 167.001426 248.618916 
z
M 167.001426 249.685322 
Q 166.544395 249.685322 166.296582 250.079385 
Q 166.04877 250.471416 166.04877 251.196572 
Q 166.04877 251.925791 166.296582 252.323916 
Q 166.544395 252.72001 167.001426 252.72001 
Q 167.458457 252.72001 167.702207 252.323916 
Q 167.947989 251.925791 167.947989 251.196572 
Q 167.947989 250.471416 167.700176 250.079385 
Q 167.452364 249.685322 167.001426 249.685322 
z
" style="fill: #ffffff; stroke: #000000; stroke-width: 3"/>
    <path d="M 136.679688 253.589385 
Q 136.037813 253.589385 135.716875 254.005791 
Q 135.395938 254.420166 135.395938 255.252978 
Q 135.395938 256.08376 135.716875 256.500166 
Q 136.037813 256.914541 136.679688 256.914541 
Q 137.325625 256.914541 137.646563 256.500166 
Q 137.9675 256.08376 137.9675 255.252978 
Q 137.9675 254.420166 137.646563 254.005791 
Q 137.325625 253.589385 136.679688 253.589385 
z
M 139.700157 249.037353 
L 139.700157 250.790322 
Q 139.096875 250.503916 138.562657 250.367822 
Q 138.030469 250.231728 137.522657 250.231728 
Q 136.431875 250.231728 135.8225 250.839072 
Q 135.213125 251.444385 135.111563 252.636728 
Q 135.53 252.325947 136.0175 252.171572 
Q 136.507032 252.015166 137.085938 252.015166 
Q 138.538282 252.015166 139.43 252.86626 
Q 140.321719 253.715322 140.321719 255.09251 
Q 140.321719 256.615947 139.324375 257.534072 
Q 138.329063 258.452197 136.653282 258.452197 
Q 134.806875 258.452197 133.793282 257.20501 
Q 132.781719 255.955791 132.781719 253.664541 
Q 132.781719 251.316416 133.965938 249.97376 
Q 135.150157 248.631103 137.211875 248.631103 
Q 137.865938 248.631103 138.481407 248.732666 
Q 139.096875 248.834228 139.700157 249.037353 
z
M 145.806348 250.80251 
L 143.12916 254.769541 
L 145.806348 254.769541 
L 145.806348 250.80251 
z
M 145.400098 248.789541 
L 148.11791 248.789541 
L 148.11791 254.769541 
L 149.468692 254.769541 
L 149.468692 256.540791 
L 148.11791 256.540791 
L 148.11791 258.267353 
L 145.806348 258.267353 
L 145.806348 256.540791 
L 141.605723 256.540791 
L 141.605723 254.446572 
L 145.400098 248.789541 
z
M 151.392539 255.811572 
L 153.677696 255.811572 
L 153.677696 258.267353 
L 151.392539 258.267353 
L 151.392539 255.811572 
z
M 160.98461 253.518291 
Q 160.98461 251.740947 160.651485 251.015791 
Q 160.31836 250.288603 159.530235 250.288603 
Q 158.744141 250.288603 158.406953 251.015791 
Q 158.069766 251.740947 158.069766 253.518291 
Q 158.069766 255.315947 158.406953 256.053291 
Q 158.744141 256.788603 159.530235 256.788603 
Q 160.312266 256.788603 160.647422 256.053291 
Q 160.98461 255.315947 160.98461 253.518291 
z
M 163.428203 253.538603 
Q 163.428203 255.892822 162.412578 257.17251 
Q 161.396953 258.452197 159.530235 258.452197 
Q 157.657422 258.452197 156.641797 257.17251 
Q 155.626172 255.892822 155.626172 253.538603 
Q 155.626172 251.17626 156.641797 249.898603 
Q 157.657422 248.618916 159.530235 248.618916 
Q 161.396953 248.618916 162.412578 249.898603 
Q 163.428203 251.17626 163.428203 253.538603 
z
M 174.122989 254.357197 
Q 173.674082 254.357197 173.42627 254.747197 
Q 173.178457 255.137197 173.178457 255.862353 
Q 173.178457 256.591572 173.422207 256.981572 
Q 173.665957 257.371572 174.122989 257.371572 
Q 174.58002 257.371572 174.821739 256.981572 
Q 175.063457 256.591572 175.063457 255.862353 
Q 175.063457 255.137197 174.817676 254.747197 
Q 174.573926 254.357197 174.122989 254.357197 
z
M 174.122989 253.290791 
Q 175.305176 253.290791 175.983614 253.977353 
Q 176.662051 254.661885 176.662051 255.862353 
Q 176.662051 257.060791 175.983614 257.75751 
Q 175.305176 258.452197 174.122989 258.452197 
Q 172.942832 258.452197 172.260332 257.75751 
Q 171.577832 257.060791 171.577832 255.862353 
Q 171.577832 254.667978 172.260332 253.979385 
Q 172.942832 253.290791 174.122989 253.290791 
z
M 168.303457 258.452197 
L 166.899864 258.452197 
L 172.822989 248.618916 
L 174.232676 248.618916 
L 168.303457 258.452197 
z
M 167.001426 248.618916 
Q 168.181582 248.618916 168.857989 249.30751 
Q 169.534395 249.996103 169.534395 251.196572 
Q 169.534395 252.39501 168.857989 253.087666 
Q 168.181582 253.780322 167.001426 253.780322 
Q 165.82127 253.780322 165.144864 253.087666 
Q 164.468457 252.39501 164.468457 251.196572 
Q 164.468457 249.996103 165.144864 249.30751 
Q 165.82127 248.618916 167.001426 248.618916 
z
M 167.001426 249.685322 
Q 166.544395 249.685322 166.296582 250.079385 
Q 166.04877 250.471416 166.04877 251.196572 
Q 166.04877 251.925791 166.296582 252.323916 
Q 166.544395 252.72001 167.001426 252.72001 
Q 167.458457 252.72001 167.702207 252.323916 
Q 167.947989 251.925791 167.947989 251.196572 
Q 167.947989 250.471416 167.700176 250.079385 
Q 167.452364 249.685322 167.001426 249.685322 
z
" style="fill: #ffffff"/>
   </g>
   <g id="text_3">
    <!-- Masculino -->
    <g transform="translate(421.5892 280.875067) scale(0.13 -0.13)">
     <defs>
      <path id="DejaVuSans-Bold-4d" d="M 588 4666 
L 2119 4666 
L 3181 2169 
L 4250 4666 
L 5778 4666 
L 5778 0 
L 4641 0 
L 4641 3413 
L 3566 897 
L 2803 897 
L 1728 3413 
L 1728 0 
L 588 0 
L 588 4666 
z
" transform="scale(0.015625)"/>
      <path id="DejaVuSans-Bold-61" d="M 2106 1575 
Q 1756 1575 1579 1456 
Q 1403 1338 1403 1106 
Q 1403 894 1545 773 
Q 1688 653 1941 653 
Q 2256 653 2472 879 
Q 2688 1106 2688 1447 
L 2688 1575 
L 2106 1575 
z
M 3816 1997 
L 3816 0 
L 2688 0 
L 2688 519 
Q 2463 200 2181 54 
Q 1900 -91 1497 -91 
Q 953 -91 614 226 
Q 275 544 275 1050 
Q 275 1666 698 1953 
Q 1122 2241 2028 2241 
L 2688 2241 
L 2688 2328 
Q 2688 2594 2478 2717 
Q 2269 2841 1825 2841 
Q 1466 2841 1156 2769 
Q 847 2697 581 2553 
L 581 3406 
Q 941 3494 1303 3539 
Q 1666 3584 2028 3584 
Q 2975 3584 3395 3211 
Q 3816 2838 3816 1997 
z
" transform="scale(0.015625)"/>
      <path id="DejaVuSans-Bold-73" d="M 3272 3391 
L 3272 2541 
Q 2913 2691 2578 2766 
Q 2244 2841 1947 2841 
Q 1628 2841 1473 2761 
Q 1319 2681 1319 2516 
Q 1319 2381 1436 2309 
Q 1553 2238 1856 2203 
L 2053 2175 
Q 2913 2066 3209 1816 
Q 3506 1566 3506 1031 
Q 3506 472 3093 190 
Q 2681 -91 1863 -91 
Q 1516 -91 1145 -36 
Q 775 19 384 128 
L 384 978 
Q 719 816 1070 734 
Q 1422 653 1784 653 
Q 2113 653 2278 743 
Q 2444 834 2444 1013 
Q 2444 1163 2330 1236 
Q 2216 1309 1875 1350 
L 1678 1375 
Q 931 1469 631 1722 
Q 331 1975 331 2491 
Q 331 3047 712 3315 
Q 1094 3584 1881 3584 
Q 2191 3584 2531 3537 
Q 2872 3491 3272 3391 
z
" transform="scale(0.015625)"/>
      <path id="DejaVuSans-Bold-63" d="M 3366 3391 
L 3366 2478 
Q 3138 2634 2908 2709 
Q 2678 2784 2431 2784 
Q 1963 2784 1702 2511 
Q 1441 2238 1441 1747 
Q 1441 1256 1702 982 
Q 1963 709 2431 709 
Q 2694 709 2930 787 
Q 3166 866 3366 1019 
L 3366 103 
Q 3103 6 2833 -42 
Q 2563 -91 2291 -91 
Q 1344 -91 809 395 
Q 275 881 275 1747 
Q 275 2613 809 3098 
Q 1344 3584 2291 3584 
Q 2566 3584 2833 3536 
Q 3100 3488 3366 3391 
z
" transform="scale(0.015625)"/>
      <path id="DejaVuSans-Bold-75" d="M 500 1363 
L 500 3500 
L 1625 3500 
L 1625 3150 
Q 1625 2866 1622 2436 
Q 1619 2006 1619 1863 
Q 1619 1441 1641 1255 
Q 1663 1069 1716 984 
Q 1784 875 1895 815 
Q 2006 756 2150 756 
Q 2500 756 2700 1025 
Q 2900 1294 2900 1772 
L 2900 3500 
L 4019 3500 
L 4019 0 
L 2900 0 
L 2900 506 
Q 2647 200 2364 54 
Q 2081 -91 1741 -91 
Q 1134 -91 817 281 
Q 500 653 500 1363 
z
" transform="scale(0.015625)"/>
      <path id="DejaVuSans-Bold-6c" d="M 538 4863 
L 1656 4863 
L 1656 0 
L 538 0 
L 538 4863 
z
" transform="scale(0.015625)"/>
     </defs>
     <use xlink:href="#DejaVuSans-Bold-4d"/>
     <use xlink:href="#DejaVuSans-Bold-61" x="99.511719"/>
     <use xlink:href="#DejaVuSans-Bold-73" x="166.992188"/>
     <use xlink:href="#DejaVuSans-Bold-63" x="226.513672"/>
     <use xlink:href="#DejaVuSans-Bold-75" x="285.791016"/>
     <use xlink:href="#DejaVuSans-Bold-6c" x="356.982422"/>
     <use xlink:href="#DejaVuSans-Bold-69" x="391.259766"/>
     <use xlink:href="#DejaVuSans-Bold-6e" x="425.537109"/>
     <use xlink:href="#DejaVuSans-Bold-6f" x="496.728516"/>
    </g>
   </g>
   <g id="text_4">
    <path d="M 330.91 269.484522 
Q 331.86875 269.732334 332.366406 270.345772 
Q 332.866093 270.957178 332.866093 271.90374 
Q 332.866093 273.313428 331.785468 274.046709 
Q 330.706875 274.77999 328.639062 274.77999 
Q 327.907812 274.77999 327.174531 274.662178 
Q 326.44125 274.544365 325.724218 274.30874 
L 325.724218 272.42374 
Q 326.410781 272.767022 327.085156 272.941709 
Q 327.761562 273.116397 328.415625 273.116397 
Q 329.386562 273.116397 329.904531 272.78124 
Q 330.4225 272.444053 330.4225 271.814365 
Q 330.4225 271.166397 329.892343 270.833272 
Q 329.362187 270.500147 328.32625 270.500147 
L 327.349218 270.500147 
L 327.349218 268.925928 
L 328.377031 268.925928 
Q 329.299218 268.925928 329.748125 268.63749 
Q 330.199062 268.349053 330.199062 267.757959 
Q 330.199062 267.213584 329.760312 266.91499 
Q 329.323593 266.616397 328.523281 266.616397 
Q 327.934218 266.616397 327.330937 266.750459 
Q 326.727656 266.88249 326.130468 267.14249 
L 326.130468 265.352959 
Q 326.853593 265.149834 327.564531 265.048272 
Q 328.275468 264.946709 328.962031 264.946709 
Q 330.808437 264.946709 331.724531 265.554053 
Q 332.642656 266.159365 332.642656 267.378115 
Q 332.642656 268.208897 332.203906 268.739053 
Q 331.767187 269.269209 330.91 269.484522 
z
M 338.604629 269.917178 
Q 337.962754 269.917178 337.641816 270.333584 
Q 337.320879 270.747959 337.320879 271.580772 
Q 337.320879 272.411553 337.641816 272.827959 
Q 337.962754 273.242334 338.604629 273.242334 
Q 339.250566 273.242334 339.571504 272.827959 
Q 339.892441 272.411553 339.892441 271.580772 
Q 339.892441 270.747959 339.571504 270.333584 
Q 339.250566 269.917178 338.604629 269.917178 
z
M 341.625097 265.365147 
L 341.625097 267.118115 
Q 341.021816 266.831709 340.487597 266.695615 
Q 339.95541 266.559522 339.447597 266.559522 
Q 338.356816 266.559522 337.747441 267.166865 
Q 337.138066 267.772178 337.036504 268.964522 
Q 337.454941 268.65374 337.942441 268.499365 
Q 338.431972 268.342959 339.010879 268.342959 
Q 340.463222 268.342959 341.354941 269.194053 
Q 342.24666 270.043115 342.24666 271.420303 
Q 342.24666 272.94374 341.249316 273.861865 
Q 340.254004 274.77999 338.578222 274.77999 
Q 336.731816 274.77999 335.718222 273.532803 
Q 334.70666 272.283584 334.70666 269.992334 
Q 334.70666 267.644209 335.890879 266.301553 
Q 337.075097 264.958897 339.136816 264.958897 
Q 339.790879 264.958897 340.406347 265.060459 
Q 341.021816 265.162022 341.625097 265.365147 
z
M 344.27207 272.139365 
L 346.557226 272.139365 
L 346.557226 274.595147 
L 344.27207 274.595147 
L 344.27207 272.139365 
z
M 353.86414 269.846084 
Q 353.86414 268.06874 353.531015 267.343584 
Q 353.19789 266.616397 352.409765 266.616397 
Q 351.623672 266.616397 351.286484 267.343584 
Q 350.949297 268.06874 350.949297 269.846084 
Q 350.949297 271.64374 351.286484 272.381084 
Q 351.623672 273.116397 352.409765 273.116397 
Q 353.191797 273.116397 353.526953 272.381084 
Q 353.86414 271.64374 353.86414 269.846084 
z
M 356.307734 269.866397 
Q 356.307734 272.220615 355.292109 273.500303 
Q 354.276484 274.77999 352.409765 274.77999 
Q 350.536953 274.77999 349.521328 273.500303 
Q 348.505703 272.220615 348.505703 269.866397 
Q 348.505703 267.504053 349.521328 266.226397 
Q 350.536953 264.946709 352.409765 264.946709 
Q 354.276484 264.946709 355.292109 266.226397 
Q 356.307734 267.504053 356.307734 269.866397 
z
M 367.002519 270.68499 
Q 366.553613 270.68499 366.3058 271.07499 
Q 366.057988 271.46499 366.057988 272.190147 
Q 366.057988 272.919365 366.301738 273.309365 
Q 366.545488 273.699365 367.002519 273.699365 
Q 367.45955 273.699365 367.701269 273.309365 
Q 367.942988 272.919365 367.942988 272.190147 
Q 367.942988 271.46499 367.697207 271.07499 
Q 367.453457 270.68499 367.002519 270.68499 
z
M 367.002519 269.618584 
Q 368.184707 269.618584 368.863144 270.305147 
Q 369.541582 270.989678 369.541582 272.190147 
Q 369.541582 273.388584 368.863144 274.085303 
Q 368.184707 274.77999 367.002519 274.77999 
Q 365.822363 274.77999 365.139863 274.085303 
Q 364.457363 273.388584 364.457363 272.190147 
Q 364.457363 270.995772 365.139863 270.307178 
Q 365.822363 269.618584 367.002519 269.618584 
z
M 361.182988 274.77999 
L 359.779394 274.77999 
L 365.702519 264.946709 
L 367.112207 264.946709 
L 361.182988 274.77999 
z
M 359.880957 264.946709 
Q 361.061113 264.946709 361.737519 265.635303 
Q 362.413925 266.323897 362.413925 267.524365 
Q 362.413925 268.722803 361.737519 269.415459 
Q 361.061113 270.108115 359.880957 270.108115 
Q 358.7008 270.108115 358.024394 269.415459 
Q 357.347988 268.722803 357.347988 267.524365 
Q 357.347988 266.323897 358.024394 265.635303 
Q 358.7008 264.946709 359.880957 264.946709 
z
M 359.880957 266.013115 
Q 359.423925 266.013115 359.176113 266.407178 
Q 358.9283 266.799209 358.9283 267.524365 
Q 358.9283 268.253584 359.176113 268.651709 
Q 359.423925 269.047803 359.880957 269.047803 
Q 360.337988 269.047803 360.581738 268.651709 
Q 360.827519 268.253584 360.827519 267.524365 
Q 360.827519 266.799209 360.579707 266.407178 
Q 360.331894 266.013115 359.880957 266.013115 
z
" style="fill: #ffffff; stroke: #000000; stroke-width: 3"/>
    <path d="M 330.91 269.484522 
Q 331.86875 269.732334 332.366406 270.345772 
Q 332.866093 270.957178 332.866093 271.90374 
Q 332.866093 273.313428 331.785468 274.046709 
Q 330.706875 274.77999 328.639062 274.77999 
Q 327.907812 274.77999 327.174531 274.662178 
Q 326.44125 274.544365 325.724218 274.30874 
L 325.724218 272.42374 
Q 326.410781 272.767022 327.085156 272.941709 
Q 327.761562 273.116397 328.415625 273.116397 
Q 329.386562 273.116397 329.904531 272.78124 
Q 330.4225 272.444053 330.4225 271.814365 
Q 330.4225 271.166397 329.892343 270.833272 
Q 329.362187 270.500147 328.32625 270.500147 
L 327.349218 270.500147 
L 327.349218 268.925928 
L 328.377031 268.925928 
Q 329.299218 268.925928 329.748125 268.63749 
Q 330.199062 268.349053 330.199062 267.757959 
Q 330.199062 267.213584 329.760312 266.91499 
Q 329.323593 266.616397 328.523281 266.616397 
Q 327.934218 266.616397 327.330937 266.750459 
Q 326.727656 266.88249 326.130468 267.14249 
L 326.130468 265.352959 
Q 326.853593 265.149834 327.564531 265.048272 
Q 328.275468 264.946709 328.962031 264.946709 
Q 330.808437 264.946709 331.724531 265.554053 
Q 332.642656 266.159365 332.642656 267.378115 
Q 332.642656 268.208897 332.203906 268.739053 
Q 331.767187 269.269209 330.91 269.484522 
z
M 338.604629 269.917178 
Q 337.962754 269.917178 337.641816 270.333584 
Q 337.320879 270.747959 337.320879 271.580772 
Q 337.320879 272.411553 337.641816 272.827959 
Q 337.962754 273.242334 338.604629 273.242334 
Q 339.250566 273.242334 339.571504 272.827959 
Q 339.892441 272.411553 339.892441 271.580772 
Q 339.892441 270.747959 339.571504 270.333584 
Q 339.250566 269.917178 338.604629 269.917178 
z
M 341.625097 265.365147 
L 341.625097 267.118115 
Q 341.021816 266.831709 340.487597 266.695615 
Q 339.95541 266.559522 339.447597 266.559522 
Q 338.356816 266.559522 337.747441 267.166865 
Q 337.138066 267.772178 337.036504 268.964522 
Q 337.454941 268.65374 337.942441 268.499365 
Q 338.431972 268.342959 339.010879 268.342959 
Q 340.463222 268.342959 341.354941 269.194053 
Q 342.24666 270.043115 342.24666 271.420303 
Q 342.24666 272.94374 341.249316 273.861865 
Q 340.254004 274.77999 338.578222 274.77999 
Q 336.731816 274.77999 335.718222 273.532803 
Q 334.70666 272.283584 334.70666 269.992334 
Q 334.70666 267.644209 335.890879 266.301553 
Q 337.075097 264.958897 339.136816 264.958897 
Q 339.790879 264.958897 340.406347 265.060459 
Q 341.021816 265.162022 341.625097 265.365147 
z
M 344.27207 272.139365 
L 346.557226 272.139365 
L 346.557226 274.595147 
L 344.27207 274.595147 
L 344.27207 272.139365 
z
M 353.86414 269.846084 
Q 353.86414 268.06874 353.531015 267.343584 
Q 353.19789 266.616397 352.409765 266.616397 
Q 351.623672 266.616397 351.286484 267.343584 
Q 350.949297 268.06874 350.949297 269.846084 
Q 350.949297 271.64374 351.286484 272.381084 
Q 351.623672 273.116397 352.409765 273.116397 
Q 353.191797 273.116397 353.526953 272.381084 
Q 353.86414 271.64374 353.86414 269.846084 
z
M 356.307734 269.866397 
Q 356.307734 272.220615 355.292109 273.500303 
Q 354.276484 274.77999 352.409765 274.77999 
Q 350.536953 274.77999 349.521328 273.500303 
Q 348.505703 272.220615 348.505703 269.866397 
Q 348.505703 267.504053 349.521328 266.226397 
Q 350.536953 264.946709 352.409765 264.946709 
Q 354.276484 264.946709 355.292109 266.226397 
Q 356.307734 267.504053 356.307734 269.866397 
z
M 367.002519 270.68499 
Q 366.553613 270.68499 366.3058 271.07499 
Q 366.057988 271.46499 366.057988 272.190147 
Q 366.057988 272.919365 366.301738 273.309365 
Q 366.545488 273.699365 367.002519 273.699365 
Q 367.45955 273.699365 367.701269 273.309365 
Q 367.942988 272.919365 367.942988 272.190147 
Q 367.942988 271.46499 367.697207 271.07499 
Q 367.453457 270.68499 367.002519 270.68499 
z
M 367.002519 269.618584 
Q 368.184707 269.618584 368.863144 270.305147 
Q 369.541582 270.989678 369.541582 272.190147 
Q 369.541582 273.388584 368.863144 274.085303 
Q 368.184707 274.77999 367.002519 274.77999 
Q 365.822363 274.77999 365.139863 274.085303 
Q 364.457363 273.388584 364.457363 272.190147 
Q 364.457363 270.995772 365.139863 270.307178 
Q 365.822363 269.618584 367.002519 269.618584 
z
M 361.182988 274.77999 
L 359.779394 274.77999 
L 365.702519 264.946709 
L 367.112207 264.946709 
L 361.182988 274.77999 
z
M 359.880957 264.946709 
Q 361.061113 264.946709 361.737519 265.635303 
Q 362.413925 266.323897 362.413925 267.524365 
Q 362.413925 268.722803 361.737519 269.415459 
Q 361.061113 270.108115 359.880957 270.108115 
Q 358.7008 270.108115 358.024394 269.415459 
Q 357.347988 268.722803 357.347988 267.524365 
Q 357.347988 266.323897 358.024394 265.635303 
Q 358.7008 264.946709 359.880957 264.946709 
z
M 359.880957 266.013115 
Q 359.423925 266.013115 359.176113 266.407178 
Q 358.9283 266.799209 358.9283 267.524365 
Q 358.9283 268.253584 359.176113 268.651709 
Q 359.423925 269.047803 359.880957 269.047803 
Q 360.337988 269.047803 360.581738 268.651709 
Q 360.827519 268.253584 360.827519 267.524365 
Q 360.827519 266.799209 360.579707 266.407178 
Q 360.331894 266.013115 359.880957 266.013115 
z
" style="fill: #ffffff"/>
   </g>
   <g id="text_5">
    <!-- Distribución por Sexo -->
    <g transform="translate(129.29625 70.719645) scale(0.2 -0.2)">
     <defs>
      <path id="DejaVuSans-Bold-44" d="M 1791 3756 
L 1791 909 
L 2222 909 
Q 2959 909 3348 1275 
Q 3738 1641 3738 2338 
Q 3738 3031 3350 3393 
Q 2963 3756 2222 3756 
L 1791 3756 
z
M 588 4666 
L 1856 4666 
Q 2919 4666 3439 4514 
Q 3959 4363 4331 4000 
Q 4659 3684 4818 3271 
Q 4978 2859 4978 2338 
Q 4978 1809 4818 1395 
Q 4659 981 4331 666 
Q 3956 303 3431 151 
Q 2906 0 1856 0 
L 588 0 
L 588 4666 
z
" transform="scale(0.015625)"/>
      <path id="DejaVuSans-Bold-74" d="M 1759 4494 
L 1759 3500 
L 2913 3500 
L 2913 2700 
L 1759 2700 
L 1759 1216 
Q 1759 972 1856 886 
Q 1953 800 2241 800 
L 2816 800 
L 2816 0 
L 1856 0 
Q 1194 0 917 276 
Q 641 553 641 1216 
L 641 2700 
L 84 2700 
L 84 3500 
L 641 3500 
L 641 4494 
L 1759 4494 
z
" transform="scale(0.015625)"/>
      <path id="DejaVuSans-Bold-72" d="M 3138 2547 
Q 2991 2616 2845 2648 
Q 2700 2681 2553 2681 
Q 2122 2681 1889 2404 
Q 1656 2128 1656 1613 
L 1656 0 
L 538 0 
L 538 3500 
L 1656 3500 
L 1656 2925 
Q 1872 3269 2151 3426 
Q 2431 3584 2822 3584 
Q 2878 3584 2943 3579 
Q 3009 3575 3134 3559 
L 3138 2547 
z
" transform="scale(0.015625)"/>
      <path id="DejaVuSans-Bold-62" d="M 2400 722 
Q 2759 722 2948 984 
Q 3138 1247 3138 1747 
Q 3138 2247 2948 2509 
Q 2759 2772 2400 2772 
Q 2041 2772 1848 2508 
Q 1656 2244 1656 1747 
Q 1656 1250 1848 986 
Q 2041 722 2400 722 
z
M 1656 2988 
Q 1888 3294 2169 3439 
Q 2450 3584 2816 3584 
Q 3463 3584 3878 3070 
Q 4294 2556 4294 1747 
Q 4294 938 3878 423 
Q 3463 -91 2816 -91 
Q 2450 -91 2169 54 
Q 1888 200 1656 506 
L 1656 0 
L 538 0 
L 538 4863 
L 1656 4863 
L 1656 2988 
z
" transform="scale(0.015625)"/>
      <path id="DejaVuSans-Bold-f3" d="M 2203 2784 
Q 1831 2784 1636 2517 
Q 1441 2250 1441 1747 
Q 1441 1244 1636 976 
Q 1831 709 2203 709 
Q 2569 709 2762 976 
Q 2956 1244 2956 1747 
Q 2956 2250 2762 2517 
Q 2569 2784 2203 2784 
z
M 2203 3584 
Q 3106 3584 3614 3096 
Q 4122 2609 4122 1747 
Q 4122 884 3614 396 
Q 3106 -91 2203 -91 
Q 1297 -91 786 396 
Q 275 884 275 1747 
Q 275 2609 786 3096 
Q 1297 3584 2203 3584 
z
M 2694 5119 
L 3578 5119 
L 2425 3944 
L 1813 3944 
L 2694 5119 
z
" transform="scale(0.015625)"/>
      <path id="DejaVuSans-Bold-20" transform="scale(0.015625)"/>
      <path id="DejaVuSans-Bold-70" d="M 1656 506 
L 1656 -1331 
L 538 -1331 
L 538 3500 
L 1656 3500 
L 1656 2988 
Q 1888 3294 2169 3439 
Q 2450 3584 2816 3584 
Q 3463 3584 3878 3070 
Q 4294 2556 4294 1747 
Q 4294 938 3878 423 
Q 3463 -91 2816 -91 
Q 2450 -91 2169 54 
Q 1888 200 1656 506 
z
M 2400 2772 
Q 2041 2772 1848 2508 
Q 1656 2244 1656 1747 
Q 1656 1250 1848 986 
Q 2041 722 2400 722 
Q 2759 722 2948 984 
Q 3138 1247 3138 1747 
Q 3138 2247 2948 2509 
Q 2759 2772 2400 2772 
z
" transform="scale(0.015625)"/>
      <path id="DejaVuSans-Bold-53" d="M 3834 4519 
L 3834 3531 
Q 3450 3703 3084 3790 
Q 2719 3878 2394 3878 
Q 1963 3878 1756 3759 
Q 1550 3641 1550 3391 
Q 1550 3203 1689 3098 
Q 1828 2994 2194 2919 
L 2706 2816 
Q 3484 2659 3812 2340 
Q 4141 2022 4141 1434 
Q 4141 663 3683 286 
Q 3225 -91 2284 -91 
Q 1841 -91 1394 -6 
Q 947 78 500 244 
L 500 1259 
Q 947 1022 1364 901 
Q 1781 781 2169 781 
Q 2563 781 2772 912 
Q 2981 1044 2981 1288 
Q 2981 1506 2839 1625 
Q 2697 1744 2272 1838 
L 1806 1941 
Q 1106 2091 782 2419 
Q 459 2747 459 3303 
Q 459 4000 909 4375 
Q 1359 4750 2203 4750 
Q 2588 4750 2994 4692 
Q 3400 4634 3834 4519 
z
" transform="scale(0.015625)"/>
      <path id="DejaVuSans-Bold-78" d="M 1422 1791 
L 159 3500 
L 1344 3500 
L 2059 2463 
L 2784 3500 
L 3969 3500 
L 2706 1797 
L 4031 0 
L 2847 0 
L 2059 1106 
L 1281 0 
L 97 0 
L 1422 1791 
z
" transform="scale(0.015625)"/>
     </defs>
     <use xlink:href="#DejaVuSans-Bold-44"/>
     <use xlink:href="#DejaVuSans-Bold-69" x="83.007812"/>
     <use xlink:href="#DejaVuSans-Bold-73" x="117.285156"/>
     <use xlink:href="#DejaVuSans-Bold-74" x="176.806641"/>
     <use xlink:href="#DejaVuSans-Bold-72" x="224.609375"/>
     <use xlink:href="#DejaVuSans-Bold-69" x="273.925781"/>
     <use xlink:href="#DejaVuSans-Bold-62" x="308.203125"/>
     <use xlink:href="#DejaVuSans-Bold-75" x="379.785156"/>
     <use xlink:href="#DejaVuSans-Bold-63" x="450.976562"/>
     <use xlink:href="#DejaVuSans-Bold-69" x="510.253906"/>
     <use xlink:href="#DejaVuSans-Bold-f3" x="544.53125"/>
     <use xlink:href="#DejaVuSans-Bold-6e" x="613.232422"/>
     <use xlink:href="#DejaVuSans-Bold-20" x="684.423828"/>
     <use xlink:href="#DejaVuSans-Bold-70" x="719.238281"/>
     <use xlink:href="#DejaVuSans-Bold-6f" x="790.820312"/>
     <use xlink:href="#DejaVuSans-Bold-72" x="859.521484"/>
     <use xlink:href="#DejaVuSans-Bold-20" x="908.837891"/>
     <use xlink:href="#DejaVuSans-Bold-53" x="943.652344"/>
     <use xlink:href="#DejaVuSans-Bold-65" x="1015.673828"/>
     <use xlink:href="#DejaVuSans-Bold-78" x="1083.496094"/>
     <use xlink:href="#DejaVuSans-Bold-6f" x="1147.998047"/>
    </g>
   </g>
  </g>
 </g>
</svg>
