<?xml version="1.0" encoding="utf-8" standalone="no"?>
<!DOCTYPE svg PUBLIC "-//W3C//DTD SVG 1.1//EN"
  "http://www.w3.org/Graphics/SVG/1.1/DTD/svg11.dtd">
<svg xmlns:xlink="http://www.w3.org/1999/xlink" width="504pt" height="504pt" viewBox="0 0 504 504" xmlns="http://www.w3.org/2000/svg" version="1.1">
 <metadata>
  <rdf:RDF xmlns:dc="http://purl.org/dc/elements/1.1/" xmlns:cc="http://creativecommons.org/ns#" xmlns:rdf="http://www.w3.org/1999/02/22-rdf-syntax-ns#">
   <cc:Work>
    <dc:type rdf:resource="http://purl.org/dc/dcmitype/StillImage"/>
    <dc:date>2025-05-09T16:41:11.176156</dc:date>
    <dc:format>image/svg+xml</dc:format>
    <dc:creator>
     <cc:Agent>
      <dc:title>Matplotlib v3.10.1, https://matplotlib.org/</dc:title>
     </cc:Agent>
    </dc:creator>
   </cc:Work>
  </rdf:RDF>
 </metadata>
 <defs>
  <style type="text/css">*{stroke-linejoin: round; stroke-linecap: butt}</style>
 </defs>
 <g id="figure_1">
  <g id="patch_1">
   <path d="M 0 504 
L 504 504 
L 504 0 
L 0 0 
z
" style="fill: #ffffff"/>
  </g>
  <g id="axes_1">
   <g id="patch_2">
    <path d="M 338.978374 111.025348 
C 318.480756 99.191043 295.89324 91.417093 272.454044 88.129657 
C 249.014849 84.842221 225.16025 86.102488 202.197926 91.841372 
C 179.235602 97.580255 157.592952 107.690937 138.456399 121.619163 
C 119.319847 135.547389 103.045581 153.033911 90.525737 173.120141 
C 78.005894 193.20637 69.473504 215.518442 65.396304 238.833234 
C 61.319104 262.148027 61.772983 286.031581 66.733059 309.174631 
C 71.693135 332.317681 81.067086 354.289464 94.341044 373.885513 
C 107.615002 393.481562 124.541898 410.337136 144.193821 423.528233 
C 163.845744 436.71933 185.856912 446.000423 209.020699 450.862735 
C 232.184486 455.725046 256.069744 456.078074 279.367113 451.902466 
C 302.664482 447.726857 324.940327 439.100333 344.973513 426.495788 
C 365.0067 413.891243 382.42435 397.543287 396.271648 378.348094 
C 410.118947 359.152901 420.138154 337.467753 425.78003 314.481401 
C 431.421906 291.49505 432.581437 267.635342 429.19506 244.210236 
C 425.808683 220.785131 417.939428 198.230641 406.018679 177.783175 
C 394.09793 157.33571 378.347567 139.375859 359.631006 124.888158 
L 286.333995 219.580063 
C 292.884791 224.650758 298.397418 230.936706 302.569681 238.093319 
C 306.741943 245.249932 309.496182 253.144004 310.681414 261.34279 
C 311.866646 269.541577 311.46081 277.892475 309.486153 285.937698 
C 307.511497 293.982921 304.004774 301.572723 299.15822 308.291041 
C 294.311665 315.009358 288.215488 320.731143 281.203873 325.142733 
C 274.192257 329.554324 266.395712 332.573608 258.241632 334.035071 
C 250.087553 335.496534 241.727713 335.372974 233.620387 333.671165 
C 225.513062 331.969356 217.809153 328.720973 210.93098 324.104089 
C 204.052807 319.487205 198.128394 313.587754 193.482508 306.729137 
C 188.836623 299.87052 185.55574 292.180396 183.819713 284.080329 
C 182.083687 275.980261 181.924829 267.621017 183.351849 259.46084 
C 184.778869 251.300662 187.765206 243.491437 192.147151 236.461257 
C 196.529096 229.431077 202.225089 223.310794 208.922883 218.435915 
C 215.620676 213.561036 223.195603 210.022297 231.232417 208.013688 
C 239.26923 206.005079 247.61834 205.563985 255.822058 206.714588 
C 264.025777 207.86519 271.931407 210.586073 279.105574 214.72808 
z
" style="fill: #2ca02c; stroke: #ffffff; stroke-width: 2; stroke-linejoin: miter"/>
   </g>
   <g id="patch_3">
    <path d="M 369.898248 109.592123 
C 366.617166 107.052375 363.251226 104.624212 359.80617 102.311762 
C 356.361115 99.999312 352.838932 97.803927 349.245627 95.729328 
L 289.372827 199.432057 
C 290.630484 200.158167 291.863248 200.926552 293.069018 201.735909 
C 294.274787 202.545267 295.452866 203.395124 296.601245 204.284036 
z
" style="fill: #9467bd; stroke: #ffffff; stroke-width: 2; stroke-linejoin: miter"/>
   </g>
   <g id="matplotlib.axis_1"/>
   <g id="matplotlib.axis_2"/>
   <g id="text_1">
    <!-- No -->
    <g transform="translate(114.115813 442.411461) scale(0.13 -0.13)">
     <defs>
      <path id="DejaVuSans-Bold-4e" d="M 588 4666 
L 1931 4666 
L 3628 1466 
L 3628 4666 
L 4769 4666 
L 4769 0 
L 3425 0 
L 1728 3200 
L 1728 0 
L 588 0 
L 588 4666 
z
" transform="scale(0.015625)"/>
      <path id="DejaVuSans-Bold-6f" d="M 2203 2784 
Q 1831 2784 1636 2517 
Q 1441 2250 1441 1747 
Q 1441 1244 1636 976 
Q 1831 709 2203 709 
Q 2569 709 2762 976 
Q 2956 1244 2956 1747 
Q 2956 2250 2762 2517 
Q 2569 2784 2203 2784 
z
M 2203 3584 
Q 3106 3584 3614 3096 
Q 4122 2609 4122 1747 
Q 4122 884 3614 396 
Q 3106 -91 2203 -91 
Q 1297 -91 786 396 
Q 275 884 275 1747 
Q 275 2609 786 3096 
Q 1297 3584 2203 3584 
z
" transform="scale(0.015625)"/>
     </defs>
     <use xlink:href="#DejaVuSans-Bold-4e"/>
     <use xlink:href="#DejaVuSans-Bold-6f" transform="translate(83.691406 0)"/>
    </g>
   </g>
   <g id="text_2">
    <path d="M 164.014967 365.722124 
L 164.014967 363.969155 
Q 164.597936 364.243374 165.130123 364.379467 
Q 165.664342 364.515561 166.184342 364.515561 
Q 167.277155 364.515561 167.88653 363.910249 
Q 168.495905 363.302905 168.603561 362.110561 
Q 168.172936 362.427436 167.683405 362.585874 
Q 167.193873 362.744311 166.623092 362.744311 
Q 165.168717 362.744311 164.276998 361.89728 
Q 163.38528 361.050249 163.38528 359.666967 
Q 163.38528 358.135405 164.378561 357.215249 
Q 165.371842 356.295092 167.04153 356.295092 
Q 168.896061 356.295092 169.911686 357.546342 
Q 170.927311 358.795561 170.927311 361.080717 
Q 170.927311 363.430874 169.73903 364.77353 
Q 168.55278 366.116186 166.482936 366.116186 
Q 165.816686 366.116186 165.207311 366.016655 
Q 164.597936 365.919155 164.014967 365.722124 
z
M 167.029342 361.157905 
Q 167.671217 361.157905 167.994186 360.74353 
Q 168.317155 360.327124 168.317155 359.494311 
Q 168.317155 358.669624 167.994186 358.251186 
Q 167.671217 357.830717 167.029342 357.830717 
Q 166.387467 357.830717 166.064498 358.251186 
Q 165.74153 358.669624 165.74153 359.494311 
Q 165.74153 360.327124 166.064498 360.74353 
Q 166.387467 361.157905 167.029342 361.157905 
z
M 172.627721 356.45353 
L 179.769596 356.45353 
L 179.769596 357.830717 
L 176.074752 365.931342 
L 173.694127 365.931342 
L 177.19194 358.251186 
L 172.627721 358.251186 
L 172.627721 356.45353 
z
M 182.130162 363.475561 
L 184.415319 363.475561 
L 184.415319 365.931342 
L 182.130162 365.931342 
L 182.130162 363.475561 
z
M 190.267858 361.690092 
Q 189.583326 361.690092 189.213639 362.065874 
Q 188.845983 362.439624 188.845983 363.138374 
Q 188.845983 363.837124 189.213639 364.208842 
Q 189.583326 364.57853 190.267858 364.57853 
Q 190.948326 364.57853 191.309889 364.208842 
Q 191.671451 363.837124 191.671451 363.138374 
Q 191.671451 362.43353 191.309889 362.061811 
Q 190.948326 361.690092 190.267858 361.690092 
z
M 188.48442 360.885717 
Q 187.621139 360.623686 187.182389 360.085405 
Q 186.74567 359.545092 186.74567 358.738686 
Q 186.74567 357.540249 187.63942 356.912592 
Q 188.535201 356.282905 190.267858 356.282905 
Q 191.988326 356.282905 192.882076 356.90853 
Q 193.777858 357.534155 193.777858 358.738686 
Q 193.777858 359.545092 193.337076 360.085405 
Q 192.896295 360.623686 192.033014 360.885717 
Q 192.997858 361.151811 193.48942 361.75103 
Q 193.980983 362.350249 193.980983 363.264311 
Q 193.980983 364.673999 193.044576 365.395092 
Q 192.10817 366.116186 190.267858 366.116186 
Q 188.421451 366.116186 187.478951 365.395092 
Q 186.536451 364.673999 186.536451 363.264311 
Q 186.536451 362.350249 187.028014 361.75103 
Q 187.519576 361.151811 188.48442 360.885717 
z
M 189.055201 358.986499 
Q 189.055201 359.551186 189.370045 359.855874 
Q 189.684889 360.160561 190.267858 360.160561 
Q 190.838639 360.160561 191.14942 359.855874 
Q 191.462233 359.551186 191.462233 358.986499 
Q 191.462233 358.421811 191.14942 358.121186 
Q 190.838639 357.81853 190.267858 357.81853 
Q 189.684889 357.81853 189.370045 358.123217 
Q 189.055201 358.427905 189.055201 358.986499 
z
M 204.860612 362.021186 
Q 204.411705 362.021186 204.163893 362.411186 
Q 203.91608 362.801186 203.91608 363.526342 
Q 203.91608 364.255561 204.15983 364.645561 
Q 204.40358 365.035561 204.860612 365.035561 
Q 205.317643 365.035561 205.559362 364.645561 
Q 205.80108 364.255561 205.80108 363.526342 
Q 205.80108 362.801186 205.555299 362.411186 
Q 205.311549 362.021186 204.860612 362.021186 
z
M 204.860612 360.95478 
Q 206.042799 360.95478 206.721237 361.641342 
Q 207.399674 362.325874 207.399674 363.526342 
Q 207.399674 364.72478 206.721237 365.421499 
Q 206.042799 366.116186 204.860612 366.116186 
Q 203.680455 366.116186 202.997955 365.421499 
Q 202.315455 364.72478 202.315455 363.526342 
Q 202.315455 362.331967 202.997955 361.643374 
Q 203.680455 360.95478 204.860612 360.95478 
z
M 199.04108 366.116186 
L 197.637487 366.116186 
L 203.560612 356.282905 
L 204.970299 356.282905 
L 199.04108 366.116186 
z
M 197.739049 356.282905 
Q 198.919205 356.282905 199.595612 356.971499 
Q 200.272018 357.660092 200.272018 358.860561 
Q 200.272018 360.058999 199.595612 360.751655 
Q 198.919205 361.444311 197.739049 361.444311 
Q 196.558893 361.444311 195.882487 360.751655 
Q 195.20608 360.058999 195.20608 358.860561 
Q 195.20608 357.660092 195.882487 356.971499 
Q 196.558893 356.282905 197.739049 356.282905 
z
M 197.739049 357.349311 
Q 197.282018 357.349311 197.034205 357.743374 
Q 196.786393 358.135405 196.786393 358.860561 
Q 196.786393 359.58978 197.034205 359.987905 
Q 197.282018 360.383999 197.739049 360.383999 
Q 198.19608 360.383999 198.43983 359.987905 
Q 198.685612 359.58978 198.685612 358.860561 
Q 198.685612 358.135405 198.437799 357.743374 
Q 198.189987 357.349311 197.739049 357.349311 
z
" style="fill: #ffffff; stroke: #000000; stroke-width: 3"/>
    <path d="M 164.014967 365.722124 
L 164.014967 363.969155 
Q 164.597936 364.243374 165.130123 364.379467 
Q 165.664342 364.515561 166.184342 364.515561 
Q 167.277155 364.515561 167.88653 363.910249 
Q 168.495905 363.302905 168.603561 362.110561 
Q 168.172936 362.427436 167.683405 362.585874 
Q 167.193873 362.744311 166.623092 362.744311 
Q 165.168717 362.744311 164.276998 361.89728 
Q 163.38528 361.050249 163.38528 359.666967 
Q 163.38528 358.135405 164.378561 357.215249 
Q 165.371842 356.295092 167.04153 356.295092 
Q 168.896061 356.295092 169.911686 357.546342 
Q 170.927311 358.795561 170.927311 361.080717 
Q 170.927311 363.430874 169.73903 364.77353 
Q 168.55278 366.116186 166.482936 366.116186 
Q 165.816686 366.116186 165.207311 366.016655 
Q 164.597936 365.919155 164.014967 365.722124 
z
M 167.029342 361.157905 
Q 167.671217 361.157905 167.994186 360.74353 
Q 168.317155 360.327124 168.317155 359.494311 
Q 168.317155 358.669624 167.994186 358.251186 
Q 167.671217 357.830717 167.029342 357.830717 
Q 166.387467 357.830717 166.064498 358.251186 
Q 165.74153 358.669624 165.74153 359.494311 
Q 165.74153 360.327124 166.064498 360.74353 
Q 166.387467 361.157905 167.029342 361.157905 
z
M 172.627721 356.45353 
L 179.769596 356.45353 
L 179.769596 357.830717 
L 176.074752 365.931342 
L 173.694127 365.931342 
L 177.19194 358.251186 
L 172.627721 358.251186 
L 172.627721 356.45353 
z
M 182.130162 363.475561 
L 184.415319 363.475561 
L 184.415319 365.931342 
L 182.130162 365.931342 
L 182.130162 363.475561 
z
M 190.267858 361.690092 
Q 189.583326 361.690092 189.213639 362.065874 
Q 188.845983 362.439624 188.845983 363.138374 
Q 188.845983 363.837124 189.213639 364.208842 
Q 189.583326 364.57853 190.267858 364.57853 
Q 190.948326 364.57853 191.309889 364.208842 
Q 191.671451 363.837124 191.671451 363.138374 
Q 191.671451 362.43353 191.309889 362.061811 
Q 190.948326 361.690092 190.267858 361.690092 
z
M 188.48442 360.885717 
Q 187.621139 360.623686 187.182389 360.085405 
Q 186.74567 359.545092 186.74567 358.738686 
Q 186.74567 357.540249 187.63942 356.912592 
Q 188.535201 356.282905 190.267858 356.282905 
Q 191.988326 356.282905 192.882076 356.90853 
Q 193.777858 357.534155 193.777858 358.738686 
Q 193.777858 359.545092 193.337076 360.085405 
Q 192.896295 360.623686 192.033014 360.885717 
Q 192.997858 361.151811 193.48942 361.75103 
Q 193.980983 362.350249 193.980983 363.264311 
Q 193.980983 364.673999 193.044576 365.395092 
Q 192.10817 366.116186 190.267858 366.116186 
Q 188.421451 366.116186 187.478951 365.395092 
Q 186.536451 364.673999 186.536451 363.264311 
Q 186.536451 362.350249 187.028014 361.75103 
Q 187.519576 361.151811 188.48442 360.885717 
z
M 189.055201 358.986499 
Q 189.055201 359.551186 189.370045 359.855874 
Q 189.684889 360.160561 190.267858 360.160561 
Q 190.838639 360.160561 191.14942 359.855874 
Q 191.462233 359.551186 191.462233 358.986499 
Q 191.462233 358.421811 191.14942 358.121186 
Q 190.838639 357.81853 190.267858 357.81853 
Q 189.684889 357.81853 189.370045 358.123217 
Q 189.055201 358.427905 189.055201 358.986499 
z
M 204.860612 362.021186 
Q 204.411705 362.021186 204.163893 362.411186 
Q 203.91608 362.801186 203.91608 363.526342 
Q 203.91608 364.255561 204.15983 364.645561 
Q 204.40358 365.035561 204.860612 365.035561 
Q 205.317643 365.035561 205.559362 364.645561 
Q 205.80108 364.255561 205.80108 363.526342 
Q 205.80108 362.801186 205.555299 362.411186 
Q 205.311549 362.021186 204.860612 362.021186 
z
M 204.860612 360.95478 
Q 206.042799 360.95478 206.721237 361.641342 
Q 207.399674 362.325874 207.399674 363.526342 
Q 207.399674 364.72478 206.721237 365.421499 
Q 206.042799 366.116186 204.860612 366.116186 
Q 203.680455 366.116186 202.997955 365.421499 
Q 202.315455 364.72478 202.315455 363.526342 
Q 202.315455 362.331967 202.997955 361.643374 
Q 203.680455 360.95478 204.860612 360.95478 
z
M 199.04108 366.116186 
L 197.637487 366.116186 
L 203.560612 356.282905 
L 204.970299 356.282905 
L 199.04108 366.116186 
z
M 197.739049 356.282905 
Q 198.919205 356.282905 199.595612 356.971499 
Q 200.272018 357.660092 200.272018 358.860561 
Q 200.272018 360.058999 199.595612 360.751655 
Q 198.919205 361.444311 197.739049 361.444311 
Q 196.558893 361.444311 195.882487 360.751655 
Q 195.20608 360.058999 195.20608 358.860561 
Q 195.20608 357.660092 195.882487 356.971499 
Q 196.558893 356.282905 197.739049 356.282905 
z
M 197.739049 357.349311 
Q 197.282018 357.349311 197.034205 357.743374 
Q 196.786393 358.135405 196.786393 358.860561 
Q 196.786393 359.58978 197.034205 359.987905 
Q 197.282018 360.383999 197.739049 360.383999 
Q 198.19608 360.383999 198.43983 359.987905 
Q 198.685612 359.58978 198.685612 358.860561 
Q 198.685612 358.135405 198.437799 357.743374 
Q 198.189987 357.349311 197.739049 357.349311 
z
" style="fill: #ffffff"/>
   </g>
   <g id="text_3">
    <!-- Sí -->
    <g transform="translate(370.073432 90.602932) scale(0.13 -0.13)">
     <defs>
      <path id="DejaVuSans-Bold-53" d="M 3834 4519 
L 3834 3531 
Q 3450 3703 3084 3790 
Q 2719 3878 2394 3878 
Q 1963 3878 1756 3759 
Q 1550 3641 1550 3391 
Q 1550 3203 1689 3098 
Q 1828 2994 2194 2919 
L 2706 2816 
Q 3484 2659 3812 2340 
Q 4141 2022 4141 1434 
Q 4141 663 3683 286 
Q 3225 -91 2284 -91 
Q 1841 -91 1394 -6 
Q 947 78 500 244 
L 500 1259 
Q 947 1022 1364 901 
Q 1781 781 2169 781 
Q 2563 781 2772 912 
Q 2981 1044 2981 1288 
Q 2981 1506 2839 1625 
Q 2697 1744 2272 1838 
L 1806 1941 
Q 1106 2091 782 2419 
Q 459 2747 459 3303 
Q 459 4000 909 4375 
Q 1359 4750 2203 4750 
Q 2588 4750 2994 4692 
Q 3400 4634 3834 4519 
z
" transform="scale(0.015625)"/>
      <path id="DejaVuSans-Bold-ed" d="M 538 3500 
L 1656 3500 
L 1656 0 
L 538 0 
L 538 3500 
z
M 1590 5119 
L 2474 5119 
L 1321 3944 
L 709 3944 
L 1590 5119 
z
" transform="scale(0.015625)"/>
     </defs>
     <use xlink:href="#DejaVuSans-Bold-53"/>
     <use xlink:href="#DejaVuSans-Bold-ed" transform="translate(72.021484 0)"/>
    </g>
   </g>
   <g id="text_4">
    <path d="M 304.455439 165.287418 
L 308.625595 165.287418 
L 308.625595 167.083043 
L 301.737626 167.083043 
L 301.737626 165.287418 
L 305.196845 162.232418 
Q 305.662001 161.81398 305.883407 161.413824 
Q 306.104814 161.013668 306.104814 160.583043 
Q 306.104814 159.916793 305.657939 159.510543 
Q 305.211064 159.104293 304.467626 159.104293 
Q 303.896845 159.104293 303.216376 159.348043 
Q 302.537939 159.591793 301.764032 160.07523 
L 301.764032 157.993199 
Q 302.58872 157.721012 303.395126 157.578824 
Q 304.201532 157.434605 304.975439 157.434605 
Q 306.677626 157.434605 307.620126 158.184137 
Q 308.562626 158.931637 308.562626 160.272262 
Q 308.562626 161.046168 308.16247 161.71648 
Q 307.762314 162.384762 306.480595 163.510074 
L 304.455439 165.287418 
z
M 311.08163 164.627262 
L 313.366786 164.627262 
L 313.366786 167.083043 
L 311.08163 167.083043 
L 311.08163 164.627262 
z
M 318.439325 165.287418 
L 322.609482 165.287418 
L 322.609482 167.083043 
L 315.721513 167.083043 
L 315.721513 165.287418 
L 319.180732 162.232418 
Q 319.645888 161.81398 319.867294 161.413824 
Q 320.0887 161.013668 320.0887 160.583043 
Q 320.0887 159.916793 319.641825 159.510543 
Q 319.19495 159.104293 318.451513 159.104293 
Q 317.880732 159.104293 317.200263 159.348043 
Q 316.521825 159.591793 315.747919 160.07523 
L 315.747919 157.993199 
Q 316.572607 157.721012 317.379013 157.578824 
Q 318.185419 157.434605 318.959325 157.434605 
Q 320.661513 157.434605 321.604013 158.184137 
Q 322.546513 158.931637 322.546513 160.272262 
Q 322.546513 161.046168 322.146357 161.71648 
Q 321.7462 162.384762 320.464482 163.510074 
L 318.439325 165.287418 
z
M 333.812079 163.172887 
Q 333.363173 163.172887 333.11536 163.562887 
Q 332.867548 163.952887 332.867548 164.678043 
Q 332.867548 165.407262 333.111298 165.797262 
Q 333.355048 166.187262 333.812079 166.187262 
Q 334.26911 166.187262 334.510829 165.797262 
Q 334.752548 165.407262 334.752548 164.678043 
Q 334.752548 163.952887 334.506767 163.562887 
Q 334.263017 163.172887 333.812079 163.172887 
z
M 333.812079 162.10648 
Q 334.994267 162.10648 335.672704 162.793043 
Q 336.351142 163.477574 336.351142 164.678043 
Q 336.351142 165.87648 335.672704 166.573199 
Q 334.994267 167.267887 333.812079 167.267887 
Q 332.631923 167.267887 331.949423 166.573199 
Q 331.266923 165.87648 331.266923 164.678043 
Q 331.266923 163.483668 331.949423 162.795074 
Q 332.631923 162.10648 333.812079 162.10648 
z
M 327.992548 167.267887 
L 326.588954 167.267887 
L 332.512079 157.434605 
L 333.921767 157.434605 
L 327.992548 167.267887 
z
M 326.690517 157.434605 
Q 327.870673 157.434605 328.547079 158.123199 
Q 329.223485 158.811793 329.223485 160.012262 
Q 329.223485 161.210699 328.547079 161.903355 
Q 327.870673 162.596012 326.690517 162.596012 
Q 325.51036 162.596012 324.833954 161.903355 
Q 324.157548 161.210699 324.157548 160.012262 
Q 324.157548 158.811793 324.833954 158.123199 
Q 325.51036 157.434605 326.690517 157.434605 
z
M 326.690517 158.501012 
Q 326.233485 158.501012 325.985673 158.895074 
Q 325.73786 159.287105 325.73786 160.012262 
Q 325.73786 160.74148 325.985673 161.139605 
Q 326.233485 161.535699 326.690517 161.535699 
Q 327.147548 161.535699 327.391298 161.139605 
Q 327.637079 160.74148 327.637079 160.012262 
Q 327.637079 159.287105 327.389267 158.895074 
Q 327.141454 158.501012 326.690517 158.501012 
z
" style="fill: #ffffff; stroke: #000000; stroke-width: 3"/>
    <path d="M 304.455439 165.287418 
L 308.625595 165.287418 
L 308.625595 167.083043 
L 301.737626 167.083043 
L 301.737626 165.287418 
L 305.196845 162.232418 
Q 305.662001 161.81398 305.883407 161.413824 
Q 306.104814 161.013668 306.104814 160.583043 
Q 306.104814 159.916793 305.657939 159.510543 
Q 305.211064 159.104293 304.467626 159.104293 
Q 303.896845 159.104293 303.216376 159.348043 
Q 302.537939 159.591793 301.764032 160.07523 
L 301.764032 157.993199 
Q 302.58872 157.721012 303.395126 157.578824 
Q 304.201532 157.434605 304.975439 157.434605 
Q 306.677626 157.434605 307.620126 158.184137 
Q 308.562626 158.931637 308.562626 160.272262 
Q 308.562626 161.046168 308.16247 161.71648 
Q 307.762314 162.384762 306.480595 163.510074 
L 304.455439 165.287418 
z
M 311.08163 164.627262 
L 313.366786 164.627262 
L 313.366786 167.083043 
L 311.08163 167.083043 
L 311.08163 164.627262 
z
M 318.439325 165.287418 
L 322.609482 165.287418 
L 322.609482 167.083043 
L 315.721513 167.083043 
L 315.721513 165.287418 
L 319.180732 162.232418 
Q 319.645888 161.81398 319.867294 161.413824 
Q 320.0887 161.013668 320.0887 160.583043 
Q 320.0887 159.916793 319.641825 159.510543 
Q 319.19495 159.104293 318.451513 159.104293 
Q 317.880732 159.104293 317.200263 159.348043 
Q 316.521825 159.591793 315.747919 160.07523 
L 315.747919 157.993199 
Q 316.572607 157.721012 317.379013 157.578824 
Q 318.185419 157.434605 318.959325 157.434605 
Q 320.661513 157.434605 321.604013 158.184137 
Q 322.546513 158.931637 322.546513 160.272262 
Q 322.546513 161.046168 322.146357 161.71648 
Q 321.7462 162.384762 320.464482 163.510074 
L 318.439325 165.287418 
z
M 333.812079 163.172887 
Q 333.363173 163.172887 333.11536 163.562887 
Q 332.867548 163.952887 332.867548 164.678043 
Q 332.867548 165.407262 333.111298 165.797262 
Q 333.355048 166.187262 333.812079 166.187262 
Q 334.26911 166.187262 334.510829 165.797262 
Q 334.752548 165.407262 334.752548 164.678043 
Q 334.752548 163.952887 334.506767 163.562887 
Q 334.263017 163.172887 333.812079 163.172887 
z
M 333.812079 162.10648 
Q 334.994267 162.10648 335.672704 162.793043 
Q 336.351142 163.477574 336.351142 164.678043 
Q 336.351142 165.87648 335.672704 166.573199 
Q 334.994267 167.267887 333.812079 167.267887 
Q 332.631923 167.267887 331.949423 166.573199 
Q 331.266923 165.87648 331.266923 164.678043 
Q 331.266923 163.483668 331.949423 162.795074 
Q 332.631923 162.10648 333.812079 162.10648 
z
M 327.992548 167.267887 
L 326.588954 167.267887 
L 332.512079 157.434605 
L 333.921767 157.434605 
L 327.992548 167.267887 
z
M 326.690517 157.434605 
Q 327.870673 157.434605 328.547079 158.123199 
Q 329.223485 158.811793 329.223485 160.012262 
Q 329.223485 161.210699 328.547079 161.903355 
Q 327.870673 162.596012 326.690517 162.596012 
Q 325.51036 162.596012 324.833954 161.903355 
Q 324.157548 161.210699 324.157548 160.012262 
Q 324.157548 158.811793 324.833954 158.123199 
Q 325.51036 157.434605 326.690517 157.434605 
z
M 326.690517 158.501012 
Q 326.233485 158.501012 325.985673 158.895074 
Q 325.73786 159.287105 325.73786 160.012262 
Q 325.73786 160.74148 325.985673 161.139605 
Q 326.233485 161.535699 326.690517 161.535699 
Q 327.147548 161.535699 327.391298 161.139605 
Q 327.637079 160.74148 327.637079 160.012262 
Q 327.637079 159.287105 327.389267 158.895074 
Q 327.141454 158.501012 326.690517 158.501012 
z
" style="fill: #ffffff"/>
   </g>
   <g id="text_5">
    <!-- Distribución de Diabetes -->
    <g transform="translate(112.721875 26.64) scale(0.2 -0.2)">
     <defs>
      <path id="DejaVuSans-Bold-44" d="M 1791 3756 
L 1791 909 
L 2222 909 
Q 2959 909 3348 1275 
Q 3738 1641 3738 2338 
Q 3738 3031 3350 3393 
Q 2963 3756 2222 3756 
L 1791 3756 
z
M 588 4666 
L 1856 4666 
Q 2919 4666 3439 4514 
Q 3959 4363 4331 4000 
Q 4659 3684 4818 3271 
Q 4978 2859 4978 2338 
Q 4978 1809 4818 1395 
Q 4659 981 4331 666 
Q 3956 303 3431 151 
Q 2906 0 1856 0 
L 588 0 
L 588 4666 
z
" transform="scale(0.015625)"/>
      <path id="DejaVuSans-Bold-69" d="M 538 3500 
L 1656 3500 
L 1656 0 
L 538 0 
L 538 3500 
z
M 538 4863 
L 1656 4863 
L 1656 3950 
L 538 3950 
L 538 4863 
z
" transform="scale(0.015625)"/>
      <path id="DejaVuSans-Bold-73" d="M 3272 3391 
L 3272 2541 
Q 2913 2691 2578 2766 
Q 2244 2841 1947 2841 
Q 1628 2841 1473 2761 
Q 1319 2681 1319 2516 
Q 1319 2381 1436 2309 
Q 1553 2238 1856 2203 
L 2053 2175 
Q 2913 2066 3209 1816 
Q 3506 1566 3506 1031 
Q 3506 472 3093 190 
Q 2681 -91 1863 -91 
Q 1516 -91 1145 -36 
Q 775 19 384 128 
L 384 978 
Q 719 816 1070 734 
Q 1422 653 1784 653 
Q 2113 653 2278 743 
Q 2444 834 2444 1013 
Q 2444 1163 2330 1236 
Q 2216 1309 1875 1350 
L 1678 1375 
Q 931 1469 631 1722 
Q 331 1975 331 2491 
Q 331 3047 712 3315 
Q 1094 3584 1881 3584 
Q 2191 3584 2531 3537 
Q 2872 3491 3272 3391 
z
" transform="scale(0.015625)"/>
      <path id="DejaVuSans-Bold-74" d="M 1759 4494 
L 1759 3500 
L 2913 3500 
L 2913 2700 
L 1759 2700 
L 1759 1216 
Q 1759 972 1856 886 
Q 1953 800 2241 800 
L 2816 800 
L 2816 0 
L 1856 0 
Q 1194 0 917 276 
Q 641 553 641 1216 
L 641 2700 
L 84 2700 
L 84 3500 
L 641 3500 
L 641 4494 
L 1759 4494 
z
" transform="scale(0.015625)"/>
      <path id="DejaVuSans-Bold-72" d="M 3138 2547 
Q 2991 2616 2845 2648 
Q 2700 2681 2553 2681 
Q 2122 2681 1889 2404 
Q 1656 2128 1656 1613 
L 1656 0 
L 538 0 
L 538 3500 
L 1656 3500 
L 1656 2925 
Q 1872 3269 2151 3426 
Q 2431 3584 2822 3584 
Q 2878 3584 2943 3579 
Q 3009 3575 3134 3559 
L 3138 2547 
z
" transform="scale(0.015625)"/>
      <path id="DejaVuSans-Bold-62" d="M 2400 722 
Q 2759 722 2948 984 
Q 3138 1247 3138 1747 
Q 3138 2247 2948 2509 
Q 2759 2772 2400 2772 
Q 2041 2772 1848 2508 
Q 1656 2244 1656 1747 
Q 1656 1250 1848 986 
Q 2041 722 2400 722 
z
M 1656 2988 
Q 1888 3294 2169 3439 
Q 2450 3584 2816 3584 
Q 3463 3584 3878 3070 
Q 4294 2556 4294 1747 
Q 4294 938 3878 423 
Q 3463 -91 2816 -91 
Q 2450 -91 2169 54 
Q 1888 200 1656 506 
L 1656 0 
L 538 0 
L 538 4863 
L 1656 4863 
L 1656 2988 
z
" transform="scale(0.015625)"/>
      <path id="DejaVuSans-Bold-75" d="M 500 1363 
L 500 3500 
L 1625 3500 
L 1625 3150 
Q 1625 2866 1622 2436 
Q 1619 2006 1619 1863 
Q 1619 1441 1641 1255 
Q 1663 1069 1716 984 
Q 1784 875 1895 815 
Q 2006 756 2150 756 
Q 2500 756 2700 1025 
Q 2900 1294 2900 1772 
L 2900 3500 
L 4019 3500 
L 4019 0 
L 2900 0 
L 2900 506 
Q 2647 200 2364 54 
Q 2081 -91 1741 -91 
Q 1134 -91 817 281 
Q 500 653 500 1363 
z
" transform="scale(0.015625)"/>
      <path id="DejaVuSans-Bold-63" d="M 3366 3391 
L 3366 2478 
Q 3138 2634 2908 2709 
Q 2678 2784 2431 2784 
Q 1963 2784 1702 2511 
Q 1441 2238 1441 1747 
Q 1441 1256 1702 982 
Q 1963 709 2431 709 
Q 2694 709 2930 787 
Q 3166 866 3366 1019 
L 3366 103 
Q 3103 6 2833 -42 
Q 2563 -91 2291 -91 
Q 1344 -91 809 395 
Q 275 881 275 1747 
Q 275 2613 809 3098 
Q 1344 3584 2291 3584 
Q 2566 3584 2833 3536 
Q 3100 3488 3366 3391 
z
" transform="scale(0.015625)"/>
      <path id="DejaVuSans-Bold-f3" d="M 2203 2784 
Q 1831 2784 1636 2517 
Q 1441 2250 1441 1747 
Q 1441 1244 1636 976 
Q 1831 709 2203 709 
Q 2569 709 2762 976 
Q 2956 1244 2956 1747 
Q 2956 2250 2762 2517 
Q 2569 2784 2203 2784 
z
M 2203 3584 
Q 3106 3584 3614 3096 
Q 4122 2609 4122 1747 
Q 4122 884 3614 396 
Q 3106 -91 2203 -91 
Q 1297 -91 786 396 
Q 275 884 275 1747 
Q 275 2609 786 3096 
Q 1297 3584 2203 3584 
z
M 2694 5119 
L 3578 5119 
L 2425 3944 
L 1813 3944 
L 2694 5119 
z
" transform="scale(0.015625)"/>
      <path id="DejaVuSans-Bold-6e" d="M 4056 2131 
L 4056 0 
L 2931 0 
L 2931 347 
L 2931 1631 
Q 2931 2084 2911 2256 
Q 2891 2428 2841 2509 
Q 2775 2619 2662 2680 
Q 2550 2741 2406 2741 
Q 2056 2741 1856 2470 
Q 1656 2200 1656 1722 
L 1656 0 
L 538 0 
L 538 3500 
L 1656 3500 
L 1656 2988 
Q 1909 3294 2193 3439 
Q 2478 3584 2822 3584 
Q 3428 3584 3742 3212 
Q 4056 2841 4056 2131 
z
" transform="scale(0.015625)"/>
      <path id="DejaVuSans-Bold-20" transform="scale(0.015625)"/>
      <path id="DejaVuSans-Bold-64" d="M 2919 2988 
L 2919 4863 
L 4044 4863 
L 4044 0 
L 2919 0 
L 2919 506 
Q 2688 197 2409 53 
Q 2131 -91 1766 -91 
Q 1119 -91 703 423 
Q 288 938 288 1747 
Q 288 2556 703 3070 
Q 1119 3584 1766 3584 
Q 2128 3584 2408 3439 
Q 2688 3294 2919 2988 
z
M 2181 722 
Q 2541 722 2730 984 
Q 2919 1247 2919 1747 
Q 2919 2247 2730 2509 
Q 2541 2772 2181 2772 
Q 1825 2772 1636 2509 
Q 1447 2247 1447 1747 
Q 1447 1247 1636 984 
Q 1825 722 2181 722 
z
" transform="scale(0.015625)"/>
      <path id="DejaVuSans-Bold-65" d="M 4031 1759 
L 4031 1441 
L 1416 1441 
Q 1456 1047 1700 850 
Q 1944 653 2381 653 
Q 2734 653 3104 758 
Q 3475 863 3866 1075 
L 3866 213 
Q 3469 63 3072 -14 
Q 2675 -91 2278 -91 
Q 1328 -91 801 392 
Q 275 875 275 1747 
Q 275 2603 792 3093 
Q 1309 3584 2216 3584 
Q 3041 3584 3536 3087 
Q 4031 2591 4031 1759 
z
M 2881 2131 
Q 2881 2450 2695 2645 
Q 2509 2841 2209 2841 
Q 1884 2841 1681 2658 
Q 1478 2475 1428 2131 
L 2881 2131 
z
" transform="scale(0.015625)"/>
      <path id="DejaVuSans-Bold-61" d="M 2106 1575 
Q 1756 1575 1579 1456 
Q 1403 1338 1403 1106 
Q 1403 894 1545 773 
Q 1688 653 1941 653 
Q 2256 653 2472 879 
Q 2688 1106 2688 1447 
L 2688 1575 
L 2106 1575 
z
M 3816 1997 
L 3816 0 
L 2688 0 
L 2688 519 
Q 2463 200 2181 54 
Q 1900 -91 1497 -91 
Q 953 -91 614 226 
Q 275 544 275 1050 
Q 275 1666 698 1953 
Q 1122 2241 2028 2241 
L 2688 2241 
L 2688 2328 
Q 2688 2594 2478 2717 
Q 2269 2841 1825 2841 
Q 1466 2841 1156 2769 
Q 847 2697 581 2553 
L 581 3406 
Q 941 3494 1303 3539 
Q 1666 3584 2028 3584 
Q 2975 3584 3395 3211 
Q 3816 2838 3816 1997 
z
" transform="scale(0.015625)"/>
     </defs>
     <use xlink:href="#DejaVuSans-Bold-44"/>
     <use xlink:href="#DejaVuSans-Bold-69" transform="translate(83.007812 0)"/>
     <use xlink:href="#DejaVuSans-Bold-73" transform="translate(117.285156 0)"/>
     <use xlink:href="#DejaVuSans-Bold-74" transform="translate(176.806641 0)"/>
     <use xlink:href="#DejaVuSans-Bold-72" transform="translate(224.609375 0)"/>
     <use xlink:href="#DejaVuSans-Bold-69" transform="translate(273.925781 0)"/>
     <use xlink:href="#DejaVuSans-Bold-62" transform="translate(308.203125 0)"/>
     <use xlink:href="#DejaVuSans-Bold-75" transform="translate(379.785156 0)"/>
     <use xlink:href="#DejaVuSans-Bold-63" transform="translate(450.976562 0)"/>
     <use xlink:href="#DejaVuSans-Bold-69" transform="translate(510.253906 0)"/>
     <use xlink:href="#DejaVuSans-Bold-f3" transform="translate(544.53125 0)"/>
     <use xlink:href="#DejaVuSans-Bold-6e" transform="translate(613.232422 0)"/>
     <use xlink:href="#DejaVuSans-Bold-20" transform="translate(684.423828 0)"/>
     <use xlink:href="#DejaVuSans-Bold-64" transform="translate(719.238281 0)"/>
     <use xlink:href="#DejaVuSans-Bold-65" transform="translate(790.820312 0)"/>
     <use xlink:href="#DejaVuSans-Bold-20" transform="translate(858.642578 0)"/>
     <use xlink:href="#DejaVuSans-Bold-44" transform="translate(893.457031 0)"/>
     <use xlink:href="#DejaVuSans-Bold-69" transform="translate(976.464844 0)"/>
     <use xlink:href="#DejaVuSans-Bold-61" transform="translate(1010.742188 0)"/>
     <use xlink:href="#DejaVuSans-Bold-62" transform="translate(1078.222656 0)"/>
     <use xlink:href="#DejaVuSans-Bold-65" transform="translate(1149.804688 0)"/>
     <use xlink:href="#DejaVuSans-Bold-74" transform="translate(1217.626953 0)"/>
     <use xlink:href="#DejaVuSans-Bold-65" transform="translate(1265.429688 0)"/>
     <use xlink:href="#DejaVuSans-Bold-73" transform="translate(1333.251953 0)"/>
    </g>
   </g>
  </g>
 </g>
</svg>
