<?xml version="1.0" encoding="utf-8" standalone="no"?>
<!DOCTYPE svg PUBLIC "-//W3C//DTD SVG 1.1//EN"
  "http://www.w3.org/Graphics/SVG/1.1/DTD/svg11.dtd">
<svg xmlns:xlink="http://www.w3.org/1999/xlink" width="504pt" height="504pt" viewBox="0 0 504 504" xmlns="http://www.w3.org/2000/svg" version="1.1">
 <metadata>
  <rdf:RDF xmlns:dc="http://purl.org/dc/elements/1.1/" xmlns:cc="http://creativecommons.org/ns#" xmlns:rdf="http://www.w3.org/1999/02/22-rdf-syntax-ns#">
   <cc:Work>
    <dc:type rdf:resource="http://purl.org/dc/dcmitype/StillImage"/>
    <dc:date>2025-05-09T16:41:12.447259</dc:date>
    <dc:format>image/svg+xml</dc:format>
    <dc:creator>
     <cc:Agent>
      <dc:title>Matplotlib v3.10.1, https://matplotlib.org/</dc:title>
     </cc:Agent>
    </dc:creator>
   </cc:Work>
  </rdf:RDF>
 </metadata>
 <defs>
  <style type="text/css">*{stroke-linejoin: round; stroke-linecap: butt}</style>
 </defs>
 <g id="figure_1">
  <g id="patch_1">
   <path d="M 0 504 
L 504 504 
L 504 0 
L 0 0 
z
" style="fill: #ffffff"/>
  </g>
  <g id="axes_1">
   <g id="patch_2">
    <path d="M 342.329886 96.256564 
C 314.847596 80.389656 283.718703 71.907652 251.986019 71.639659 
C 220.253335 71.371665 188.985626 79.326707 161.239271 94.72719 
C 133.492916 110.127672 110.202422 132.454902 93.644404 159.526421 
C 77.086387 186.59794 67.818525 217.50197 66.746742 249.217681 
L 186.143386 253.252506 
C 186.51851 242.152007 189.762261 231.335597 195.557568 221.860565 
C 201.352874 212.385534 209.504547 204.571003 219.215771 199.180834 
C 228.926995 193.790665 239.870693 191.006401 250.977133 191.100198 
C 262.083572 191.193996 272.978685 194.162697 282.597486 199.716115 
z
" style="fill: #bcbd22; stroke: #ffffff; stroke-width: 2; stroke-linejoin: miter"/>
   </g>
   <g id="patch_3">
    <path d="M 63.407777 262.113523 
C 62.17575 298.571117 71.825128 334.58313 91.120892 365.540318 
C 110.416657 396.497505 138.498874 421.020248 171.773244 435.969838 
L 220.732332 326.998073 
C 209.086302 321.765717 199.257526 313.182757 192.504009 302.347741 
C 185.750491 291.512726 182.373209 278.908521 182.804419 266.148363 
z
" style="fill: #17becf; stroke: #ffffff; stroke-width: 2; stroke-linejoin: miter"/>
   </g>
   <g id="patch_4">
    <path d="M 187.752879 435.294683 
C 230.731683 454.604294 279.532051 456.666151 323.986466 441.050649 
C 368.440886 425.435147 405.23159 393.307729 426.693261 351.362102 
C 448.154932 309.416478 452.685839 260.783177 439.341969 215.594908 
C 425.998099 170.406638 395.775325 132.035926 354.970553 108.477276 
L 295.238153 211.936826 
C 309.519823 220.182354 320.097794 233.612103 324.768149 249.427997 
C 329.438503 265.243891 327.852686 282.265547 320.341101 296.946515 
C 312.829516 311.627484 299.95277 322.872081 284.393723 328.337507 
C 268.834678 333.802932 251.754549 333.081282 236.711967 326.322918 
z
" style="fill: #1f77b4; stroke: #ffffff; stroke-width: 2; stroke-linejoin: miter"/>
   </g>
   <g id="matplotlib.axis_1"/>
   <g id="matplotlib.axis_2"/>
   <g id="text_1">
    <!-- No -->
    <g transform="translate(132.509015 82.244593) scale(0.13 -0.13)">
     <defs>
      <path id="DejaVuSans-Bold-4e" d="M 588 4666 
L 1931 4666 
L 3628 1466 
L 3628 4666 
L 4769 4666 
L 4769 0 
L 3425 0 
L 1728 3200 
L 1728 0 
L 588 0 
L 588 4666 
z
" transform="scale(0.015625)"/>
      <path id="DejaVuSans-Bold-6f" d="M 2203 2784 
Q 1831 2784 1636 2517 
Q 1441 2250 1441 1747 
Q 1441 1244 1636 976 
Q 1831 709 2203 709 
Q 2569 709 2762 976 
Q 2956 1244 2956 1747 
Q 2956 2250 2762 2517 
Q 2569 2784 2203 2784 
z
M 2203 3584 
Q 3106 3584 3614 3096 
Q 4122 2609 4122 1747 
Q 4122 884 3614 396 
Q 3106 -91 2203 -91 
Q 1297 -91 786 396 
Q 275 884 275 1747 
Q 275 2609 786 3096 
Q 1297 3584 2203 3584 
z
" transform="scale(0.015625)"/>
     </defs>
     <use xlink:href="#DejaVuSans-Bold-4e"/>
     <use xlink:href="#DejaVuSans-Bold-6f" transform="translate(83.691406 0)"/>
    </g>
   </g>
   <g id="text_2">
    <path d="M 180.422345 157.482922 
Q 181.381095 157.730735 181.878751 158.344172 
Q 182.378438 158.955578 182.378438 159.902141 
Q 182.378438 161.311828 181.297813 162.04511 
Q 180.21922 162.778391 178.151407 162.778391 
Q 177.420157 162.778391 176.686876 162.660578 
Q 175.953595 162.542766 175.236563 162.307141 
L 175.236563 160.422141 
Q 175.923126 160.765422 176.597501 160.94011 
Q 177.273907 161.114797 177.92797 161.114797 
Q 178.898907 161.114797 179.416876 160.779641 
Q 179.934845 160.442453 179.934845 159.812766 
Q 179.934845 159.164797 179.404688 158.831672 
Q 178.874532 158.498547 177.838595 158.498547 
L 176.861563 158.498547 
L 176.861563 156.924328 
L 177.889376 156.924328 
Q 178.811563 156.924328 179.26047 156.635891 
Q 179.711407 156.347453 179.711407 155.75636 
Q 179.711407 155.211985 179.272657 154.913391 
Q 178.835938 154.614797 178.035626 154.614797 
Q 177.446563 154.614797 176.843282 154.74886 
Q 176.240001 154.880891 175.642813 155.140891 
L 175.642813 153.35136 
Q 176.365938 153.148235 177.076876 153.046672 
Q 177.787813 152.94511 178.474376 152.94511 
Q 180.320782 152.94511 181.236876 153.552453 
Q 182.155001 154.157766 182.155001 155.376516 
Q 182.155001 156.207297 181.716251 156.737453 
Q 181.279532 157.26761 180.422345 157.482922 
z
M 187.158223 160.797922 
L 191.32838 160.797922 
L 191.32838 162.593547 
L 184.440411 162.593547 
L 184.440411 160.797922 
L 187.89963 157.742922 
Q 188.364786 157.324485 188.586192 156.924328 
Q 188.807598 156.524172 188.807598 156.093547 
Q 188.807598 155.427297 188.360723 155.021047 
Q 187.913848 154.614797 187.170411 154.614797 
Q 186.59963 154.614797 185.919161 154.858547 
Q 185.240723 155.102297 184.466817 155.585735 
L 184.466817 153.503703 
Q 185.291505 153.231516 186.097911 153.089328 
Q 186.904317 152.94511 187.678223 152.94511 
Q 189.380411 152.94511 190.322911 153.694641 
Q 191.265411 154.442141 191.265411 155.782766 
Q 191.265411 156.556672 190.865255 157.226985 
Q 190.465098 157.895266 189.18338 159.020578 
L 187.158223 160.797922 
z
M 193.784415 160.137766 
L 196.069571 160.137766 
L 196.069571 162.593547 
L 193.784415 162.593547 
L 193.784415 160.137766 
z
M 201.92211 158.352297 
Q 201.237579 158.352297 200.867891 158.728078 
Q 200.500235 159.101828 200.500235 159.800578 
Q 200.500235 160.499328 200.867891 160.871047 
Q 201.237579 161.240735 201.92211 161.240735 
Q 202.602579 161.240735 202.964141 160.871047 
Q 203.325704 160.499328 203.325704 159.800578 
Q 203.325704 159.095735 202.964141 158.724016 
Q 202.602579 158.352297 201.92211 158.352297 
z
M 200.138673 157.547922 
Q 199.275391 157.285891 198.836641 156.74761 
Q 198.399923 156.207297 198.399923 155.400891 
Q 198.399923 154.202453 199.293673 153.574797 
Q 200.189454 152.94511 201.92211 152.94511 
Q 203.642579 152.94511 204.536329 153.570735 
Q 205.43211 154.19636 205.43211 155.400891 
Q 205.43211 156.207297 204.991329 156.74761 
Q 204.550548 157.285891 203.687266 157.547922 
Q 204.65211 157.814016 205.143673 158.413235 
Q 205.635235 159.012453 205.635235 159.926516 
Q 205.635235 161.336203 204.698829 162.057297 
Q 203.762423 162.778391 201.92211 162.778391 
Q 200.075704 162.778391 199.133204 162.057297 
Q 198.190704 161.336203 198.190704 159.926516 
Q 198.190704 159.012453 198.682266 158.413235 
Q 199.173829 157.814016 200.138673 157.547922 
z
M 200.709454 155.648703 
Q 200.709454 156.213391 201.024298 156.518078 
Q 201.339141 156.822766 201.92211 156.822766 
Q 202.492891 156.822766 202.803673 156.518078 
Q 203.116485 156.213391 203.116485 155.648703 
Q 203.116485 155.084016 202.803673 154.783391 
Q 202.492891 154.480735 201.92211 154.480735 
Q 201.339141 154.480735 201.024298 154.785422 
Q 200.709454 155.09011 200.709454 155.648703 
z
M 216.514864 158.683391 
Q 216.065958 158.683391 215.818145 159.073391 
Q 215.570333 159.463391 215.570333 160.188547 
Q 215.570333 160.917766 215.814083 161.307766 
Q 216.057833 161.697766 216.514864 161.697766 
Q 216.971895 161.697766 217.213614 161.307766 
Q 217.455333 160.917766 217.455333 160.188547 
Q 217.455333 159.463391 217.209552 159.073391 
Q 216.965802 158.683391 216.514864 158.683391 
z
M 216.514864 157.616985 
Q 217.697052 157.616985 218.375489 158.303547 
Q 219.053927 158.988078 219.053927 160.188547 
Q 219.053927 161.386985 218.375489 162.083703 
Q 217.697052 162.778391 216.514864 162.778391 
Q 215.334708 162.778391 214.652208 162.083703 
Q 213.969708 161.386985 213.969708 160.188547 
Q 213.969708 158.994172 214.652208 158.305578 
Q 215.334708 157.616985 216.514864 157.616985 
z
M 210.695333 162.778391 
L 209.291739 162.778391 
L 215.214864 152.94511 
L 216.624552 152.94511 
L 210.695333 162.778391 
z
M 209.393302 152.94511 
Q 210.573458 152.94511 211.249864 153.633703 
Q 211.92627 154.322297 211.92627 155.522766 
Q 211.92627 156.721203 211.249864 157.41386 
Q 210.573458 158.106516 209.393302 158.106516 
Q 208.213145 158.106516 207.536739 157.41386 
Q 206.860333 156.721203 206.860333 155.522766 
Q 206.860333 154.322297 207.536739 153.633703 
Q 208.213145 152.94511 209.393302 152.94511 
z
M 209.393302 154.011516 
Q 208.93627 154.011516 208.688458 154.405578 
Q 208.440645 154.79761 208.440645 155.522766 
Q 208.440645 156.251985 208.688458 156.65011 
Q 208.93627 157.046203 209.393302 157.046203 
Q 209.850333 157.046203 210.094083 156.65011 
Q 210.339864 156.251985 210.339864 155.522766 
Q 210.339864 154.79761 210.092052 154.405578 
Q 209.844239 154.011516 209.393302 154.011516 
z
" style="fill: #ffffff; stroke: #000000; stroke-width: 3"/>
    <path d="M 180.422345 157.482922 
Q 181.381095 157.730735 181.878751 158.344172 
Q 182.378438 158.955578 182.378438 159.902141 
Q 182.378438 161.311828 181.297813 162.04511 
Q 180.21922 162.778391 178.151407 162.778391 
Q 177.420157 162.778391 176.686876 162.660578 
Q 175.953595 162.542766 175.236563 162.307141 
L 175.236563 160.422141 
Q 175.923126 160.765422 176.597501 160.94011 
Q 177.273907 161.114797 177.92797 161.114797 
Q 178.898907 161.114797 179.416876 160.779641 
Q 179.934845 160.442453 179.934845 159.812766 
Q 179.934845 159.164797 179.404688 158.831672 
Q 178.874532 158.498547 177.838595 158.498547 
L 176.861563 158.498547 
L 176.861563 156.924328 
L 177.889376 156.924328 
Q 178.811563 156.924328 179.26047 156.635891 
Q 179.711407 156.347453 179.711407 155.75636 
Q 179.711407 155.211985 179.272657 154.913391 
Q 178.835938 154.614797 178.035626 154.614797 
Q 177.446563 154.614797 176.843282 154.74886 
Q 176.240001 154.880891 175.642813 155.140891 
L 175.642813 153.35136 
Q 176.365938 153.148235 177.076876 153.046672 
Q 177.787813 152.94511 178.474376 152.94511 
Q 180.320782 152.94511 181.236876 153.552453 
Q 182.155001 154.157766 182.155001 155.376516 
Q 182.155001 156.207297 181.716251 156.737453 
Q 181.279532 157.26761 180.422345 157.482922 
z
M 187.158223 160.797922 
L 191.32838 160.797922 
L 191.32838 162.593547 
L 184.440411 162.593547 
L 184.440411 160.797922 
L 187.89963 157.742922 
Q 188.364786 157.324485 188.586192 156.924328 
Q 188.807598 156.524172 188.807598 156.093547 
Q 188.807598 155.427297 188.360723 155.021047 
Q 187.913848 154.614797 187.170411 154.614797 
Q 186.59963 154.614797 185.919161 154.858547 
Q 185.240723 155.102297 184.466817 155.585735 
L 184.466817 153.503703 
Q 185.291505 153.231516 186.097911 153.089328 
Q 186.904317 152.94511 187.678223 152.94511 
Q 189.380411 152.94511 190.322911 153.694641 
Q 191.265411 154.442141 191.265411 155.782766 
Q 191.265411 156.556672 190.865255 157.226985 
Q 190.465098 157.895266 189.18338 159.020578 
L 187.158223 160.797922 
z
M 193.784415 160.137766 
L 196.069571 160.137766 
L 196.069571 162.593547 
L 193.784415 162.593547 
L 193.784415 160.137766 
z
M 201.92211 158.352297 
Q 201.237579 158.352297 200.867891 158.728078 
Q 200.500235 159.101828 200.500235 159.800578 
Q 200.500235 160.499328 200.867891 160.871047 
Q 201.237579 161.240735 201.92211 161.240735 
Q 202.602579 161.240735 202.964141 160.871047 
Q 203.325704 160.499328 203.325704 159.800578 
Q 203.325704 159.095735 202.964141 158.724016 
Q 202.602579 158.352297 201.92211 158.352297 
z
M 200.138673 157.547922 
Q 199.275391 157.285891 198.836641 156.74761 
Q 198.399923 156.207297 198.399923 155.400891 
Q 198.399923 154.202453 199.293673 153.574797 
Q 200.189454 152.94511 201.92211 152.94511 
Q 203.642579 152.94511 204.536329 153.570735 
Q 205.43211 154.19636 205.43211 155.400891 
Q 205.43211 156.207297 204.991329 156.74761 
Q 204.550548 157.285891 203.687266 157.547922 
Q 204.65211 157.814016 205.143673 158.413235 
Q 205.635235 159.012453 205.635235 159.926516 
Q 205.635235 161.336203 204.698829 162.057297 
Q 203.762423 162.778391 201.92211 162.778391 
Q 200.075704 162.778391 199.133204 162.057297 
Q 198.190704 161.336203 198.190704 159.926516 
Q 198.190704 159.012453 198.682266 158.413235 
Q 199.173829 157.814016 200.138673 157.547922 
z
M 200.709454 155.648703 
Q 200.709454 156.213391 201.024298 156.518078 
Q 201.339141 156.822766 201.92211 156.822766 
Q 202.492891 156.822766 202.803673 156.518078 
Q 203.116485 156.213391 203.116485 155.648703 
Q 203.116485 155.084016 202.803673 154.783391 
Q 202.492891 154.480735 201.92211 154.480735 
Q 201.339141 154.480735 201.024298 154.785422 
Q 200.709454 155.09011 200.709454 155.648703 
z
M 216.514864 158.683391 
Q 216.065958 158.683391 215.818145 159.073391 
Q 215.570333 159.463391 215.570333 160.188547 
Q 215.570333 160.917766 215.814083 161.307766 
Q 216.057833 161.697766 216.514864 161.697766 
Q 216.971895 161.697766 217.213614 161.307766 
Q 217.455333 160.917766 217.455333 160.188547 
Q 217.455333 159.463391 217.209552 159.073391 
Q 216.965802 158.683391 216.514864 158.683391 
z
M 216.514864 157.616985 
Q 217.697052 157.616985 218.375489 158.303547 
Q 219.053927 158.988078 219.053927 160.188547 
Q 219.053927 161.386985 218.375489 162.083703 
Q 217.697052 162.778391 216.514864 162.778391 
Q 215.334708 162.778391 214.652208 162.083703 
Q 213.969708 161.386985 213.969708 160.188547 
Q 213.969708 158.994172 214.652208 158.305578 
Q 215.334708 157.616985 216.514864 157.616985 
z
M 210.695333 162.778391 
L 209.291739 162.778391 
L 215.214864 152.94511 
L 216.624552 152.94511 
L 210.695333 162.778391 
z
M 209.393302 152.94511 
Q 210.573458 152.94511 211.249864 153.633703 
Q 211.92627 154.322297 211.92627 155.522766 
Q 211.92627 156.721203 211.249864 157.41386 
Q 210.573458 158.106516 209.393302 158.106516 
Q 208.213145 158.106516 207.536739 157.41386 
Q 206.860333 156.721203 206.860333 155.522766 
Q 206.860333 154.322297 207.536739 153.633703 
Q 208.213145 152.94511 209.393302 152.94511 
z
M 209.393302 154.011516 
Q 208.93627 154.011516 208.688458 154.405578 
Q 208.440645 154.79761 208.440645 155.522766 
Q 208.440645 156.251985 208.688458 156.65011 
Q 208.93627 157.046203 209.393302 157.046203 
Q 209.850333 157.046203 210.094083 156.65011 
Q 210.339864 156.251985 210.339864 155.522766 
Q 210.339864 154.79761 210.092052 154.405578 
Q 209.844239 154.011516 209.393302 154.011516 
z
" style="fill: #ffffff"/>
   </g>
   <g id="text_3">
    <!-- Tal vez -->
    <g transform="translate(25.715233 378.849485) scale(0.13 -0.13)">
     <defs>
      <path id="DejaVuSans-Bold-54" d="M 31 4666 
L 4331 4666 
L 4331 3756 
L 2784 3756 
L 2784 0 
L 1581 0 
L 1581 3756 
L 31 3756 
L 31 4666 
z
" transform="scale(0.015625)"/>
      <path id="DejaVuSans-Bold-61" d="M 2106 1575 
Q 1756 1575 1579 1456 
Q 1403 1338 1403 1106 
Q 1403 894 1545 773 
Q 1688 653 1941 653 
Q 2256 653 2472 879 
Q 2688 1106 2688 1447 
L 2688 1575 
L 2106 1575 
z
M 3816 1997 
L 3816 0 
L 2688 0 
L 2688 519 
Q 2463 200 2181 54 
Q 1900 -91 1497 -91 
Q 953 -91 614 226 
Q 275 544 275 1050 
Q 275 1666 698 1953 
Q 1122 2241 2028 2241 
L 2688 2241 
L 2688 2328 
Q 2688 2594 2478 2717 
Q 2269 2841 1825 2841 
Q 1466 2841 1156 2769 
Q 847 2697 581 2553 
L 581 3406 
Q 941 3494 1303 3539 
Q 1666 3584 2028 3584 
Q 2975 3584 3395 3211 
Q 3816 2838 3816 1997 
z
" transform="scale(0.015625)"/>
      <path id="DejaVuSans-Bold-6c" d="M 538 4863 
L 1656 4863 
L 1656 0 
L 538 0 
L 538 4863 
z
" transform="scale(0.015625)"/>
      <path id="DejaVuSans-Bold-20" transform="scale(0.015625)"/>
      <path id="DejaVuSans-Bold-76" d="M 97 3500 
L 1216 3500 
L 2088 1081 
L 2956 3500 
L 4078 3500 
L 2700 0 
L 1472 0 
L 97 3500 
z
" transform="scale(0.015625)"/>
      <path id="DejaVuSans-Bold-65" d="M 4031 1759 
L 4031 1441 
L 1416 1441 
Q 1456 1047 1700 850 
Q 1944 653 2381 653 
Q 2734 653 3104 758 
Q 3475 863 3866 1075 
L 3866 213 
Q 3469 63 3072 -14 
Q 2675 -91 2278 -91 
Q 1328 -91 801 392 
Q 275 875 275 1747 
Q 275 2603 792 3093 
Q 1309 3584 2216 3584 
Q 3041 3584 3536 3087 
Q 4031 2591 4031 1759 
z
M 2881 2131 
Q 2881 2450 2695 2645 
Q 2509 2841 2209 2841 
Q 1884 2841 1681 2658 
Q 1478 2475 1428 2131 
L 2881 2131 
z
" transform="scale(0.015625)"/>
      <path id="DejaVuSans-Bold-7a" d="M 366 3500 
L 3419 3500 
L 3419 2719 
L 1575 800 
L 3419 800 
L 3419 0 
L 288 0 
L 288 781 
L 2131 2700 
L 366 2700 
L 366 3500 
z
" transform="scale(0.015625)"/>
     </defs>
     <use xlink:href="#DejaVuSans-Bold-54"/>
     <use xlink:href="#DejaVuSans-Bold-61" transform="translate(55.337891 0)"/>
     <use xlink:href="#DejaVuSans-Bold-6c" transform="translate(122.818359 0)"/>
     <use xlink:href="#DejaVuSans-Bold-20" transform="translate(157.095703 0)"/>
     <use xlink:href="#DejaVuSans-Bold-76" transform="translate(191.910156 0)"/>
     <use xlink:href="#DejaVuSans-Bold-65" transform="translate(257.095703 0)"/>
     <use xlink:href="#DejaVuSans-Bold-7a" transform="translate(324.917969 0)"/>
    </g>
   </g>
   <g id="text_4">
    <path d="M 132.484031 328.551822 
L 134.64325 328.551822 
L 134.64325 322.425572 
L 132.427156 322.882603 
L 132.427156 321.219009 
L 134.629031 320.761978 
L 136.952781 320.761978 
L 136.952781 328.551822 
L 139.112 328.551822 
L 139.112 330.239791 
L 132.484031 330.239791 
L 132.484031 328.551822 
z
M 144.531629 325.998541 
Q 143.847098 325.998541 143.47741 326.374322 
Q 143.109754 326.748072 143.109754 327.446822 
Q 143.109754 328.145572 143.47741 328.517291 
Q 143.847098 328.886978 144.531629 328.886978 
Q 145.212098 328.886978 145.57366 328.517291 
Q 145.935223 328.145572 145.935223 327.446822 
Q 145.935223 326.741978 145.57366 326.370259 
Q 145.212098 325.998541 144.531629 325.998541 
z
M 142.748192 325.194166 
Q 141.88491 324.932134 141.44616 324.393853 
Q 141.009442 323.853541 141.009442 323.047134 
Q 141.009442 321.848697 141.903192 321.221041 
Q 142.798973 320.591353 144.531629 320.591353 
Q 146.252098 320.591353 147.145848 321.216978 
Q 148.041629 321.842603 148.041629 323.047134 
Q 148.041629 323.853541 147.600848 324.393853 
Q 147.160067 324.932134 146.296785 325.194166 
Q 147.261629 325.460259 147.753192 326.059478 
Q 148.244754 326.658697 148.244754 327.572759 
Q 148.244754 328.982447 147.308348 329.703541 
Q 146.371942 330.424634 144.531629 330.424634 
Q 142.685223 330.424634 141.742723 329.703541 
Q 140.800223 328.982447 140.800223 327.572759 
Q 140.800223 326.658697 141.291785 326.059478 
Q 141.783348 325.460259 142.748192 325.194166 
z
M 143.318973 323.294947 
Q 143.318973 323.859634 143.633817 324.164322 
Q 143.94866 324.469009 144.531629 324.469009 
Q 145.10241 324.469009 145.413192 324.164322 
Q 145.726004 323.859634 145.726004 323.294947 
Q 145.726004 322.730259 145.413192 322.429634 
Q 145.10241 322.126978 144.531629 322.126978 
Q 143.94866 322.126978 143.633817 322.431666 
Q 143.318973 322.736353 143.318973 323.294947 
z
M 150.37782 327.784009 
L 152.662977 327.784009 
L 152.662977 330.239791 
L 150.37782 330.239791 
L 150.37782 327.784009 
z
M 158.515516 325.998541 
Q 157.830985 325.998541 157.461297 326.374322 
Q 157.093641 326.748072 157.093641 327.446822 
Q 157.093641 328.145572 157.461297 328.517291 
Q 157.830985 328.886978 158.515516 328.886978 
Q 159.195985 328.886978 159.557547 328.517291 
Q 159.91911 328.145572 159.91911 327.446822 
Q 159.91911 326.741978 159.557547 326.370259 
Q 159.195985 325.998541 158.515516 325.998541 
z
M 156.732078 325.194166 
Q 155.868797 324.932134 155.430047 324.393853 
Q 154.993328 323.853541 154.993328 323.047134 
Q 154.993328 321.848697 155.887078 321.221041 
Q 156.78286 320.591353 158.515516 320.591353 
Q 160.235985 320.591353 161.129735 321.216978 
Q 162.025516 321.842603 162.025516 323.047134 
Q 162.025516 323.853541 161.584735 324.393853 
Q 161.143953 324.932134 160.280672 325.194166 
Q 161.245516 325.460259 161.737078 326.059478 
Q 162.228641 326.658697 162.228641 327.572759 
Q 162.228641 328.982447 161.292235 329.703541 
Q 160.355828 330.424634 158.515516 330.424634 
Q 156.66911 330.424634 155.72661 329.703541 
Q 154.78411 328.982447 154.78411 327.572759 
Q 154.78411 326.658697 155.275672 326.059478 
Q 155.767235 325.460259 156.732078 325.194166 
z
M 157.30286 323.294947 
Q 157.30286 323.859634 157.617703 324.164322 
Q 157.932547 324.469009 158.515516 324.469009 
Q 159.086297 324.469009 159.397078 324.164322 
Q 159.709891 323.859634 159.709891 323.294947 
Q 159.709891 322.730259 159.397078 322.429634 
Q 159.086297 322.126978 158.515516 322.126978 
Q 157.932547 322.126978 157.617703 322.431666 
Q 157.30286 322.736353 157.30286 323.294947 
z
M 173.10827 326.329634 
Q 172.659363 326.329634 172.411551 326.719634 
Q 172.163738 327.109634 172.163738 327.834791 
Q 172.163738 328.564009 172.407488 328.954009 
Q 172.651238 329.344009 173.10827 329.344009 
Q 173.565301 329.344009 173.80702 328.954009 
Q 174.048738 328.564009 174.048738 327.834791 
Q 174.048738 327.109634 173.802957 326.719634 
Q 173.559207 326.329634 173.10827 326.329634 
z
M 173.10827 325.263228 
Q 174.290457 325.263228 174.968895 325.949791 
Q 175.647332 326.634322 175.647332 327.834791 
Q 175.647332 329.033228 174.968895 329.729947 
Q 174.290457 330.424634 173.10827 330.424634 
Q 171.928113 330.424634 171.245613 329.729947 
Q 170.563113 329.033228 170.563113 327.834791 
Q 170.563113 326.640416 171.245613 325.951822 
Q 171.928113 325.263228 173.10827 325.263228 
z
M 167.288738 330.424634 
L 165.885145 330.424634 
L 171.80827 320.591353 
L 173.217957 320.591353 
L 167.288738 330.424634 
z
M 165.986707 320.591353 
Q 167.166863 320.591353 167.84327 321.279947 
Q 168.519676 321.968541 168.519676 323.169009 
Q 168.519676 324.367447 167.84327 325.060103 
Q 167.166863 325.752759 165.986707 325.752759 
Q 164.806551 325.752759 164.130145 325.060103 
Q 163.453738 324.367447 163.453738 323.169009 
Q 163.453738 321.968541 164.130145 321.279947 
Q 164.806551 320.591353 165.986707 320.591353 
z
M 165.986707 321.657759 
Q 165.529676 321.657759 165.281863 322.051822 
Q 165.034051 322.443853 165.034051 323.169009 
Q 165.034051 323.898228 165.281863 324.296353 
Q 165.529676 324.692447 165.986707 324.692447 
Q 166.443738 324.692447 166.687488 324.296353 
Q 166.93327 323.898228 166.93327 323.169009 
Q 166.93327 322.443853 166.685457 322.051822 
Q 166.437645 321.657759 165.986707 321.657759 
z
" style="fill: #ffffff; stroke: #000000; stroke-width: 3"/>
    <path d="M 132.484031 328.551822 
L 134.64325 328.551822 
L 134.64325 322.425572 
L 132.427156 322.882603 
L 132.427156 321.219009 
L 134.629031 320.761978 
L 136.952781 320.761978 
L 136.952781 328.551822 
L 139.112 328.551822 
L 139.112 330.239791 
L 132.484031 330.239791 
L 132.484031 328.551822 
z
M 144.531629 325.998541 
Q 143.847098 325.998541 143.47741 326.374322 
Q 143.109754 326.748072 143.109754 327.446822 
Q 143.109754 328.145572 143.47741 328.517291 
Q 143.847098 328.886978 144.531629 328.886978 
Q 145.212098 328.886978 145.57366 328.517291 
Q 145.935223 328.145572 145.935223 327.446822 
Q 145.935223 326.741978 145.57366 326.370259 
Q 145.212098 325.998541 144.531629 325.998541 
z
M 142.748192 325.194166 
Q 141.88491 324.932134 141.44616 324.393853 
Q 141.009442 323.853541 141.009442 323.047134 
Q 141.009442 321.848697 141.903192 321.221041 
Q 142.798973 320.591353 144.531629 320.591353 
Q 146.252098 320.591353 147.145848 321.216978 
Q 148.041629 321.842603 148.041629 323.047134 
Q 148.041629 323.853541 147.600848 324.393853 
Q 147.160067 324.932134 146.296785 325.194166 
Q 147.261629 325.460259 147.753192 326.059478 
Q 148.244754 326.658697 148.244754 327.572759 
Q 148.244754 328.982447 147.308348 329.703541 
Q 146.371942 330.424634 144.531629 330.424634 
Q 142.685223 330.424634 141.742723 329.703541 
Q 140.800223 328.982447 140.800223 327.572759 
Q 140.800223 326.658697 141.291785 326.059478 
Q 141.783348 325.460259 142.748192 325.194166 
z
M 143.318973 323.294947 
Q 143.318973 323.859634 143.633817 324.164322 
Q 143.94866 324.469009 144.531629 324.469009 
Q 145.10241 324.469009 145.413192 324.164322 
Q 145.726004 323.859634 145.726004 323.294947 
Q 145.726004 322.730259 145.413192 322.429634 
Q 145.10241 322.126978 144.531629 322.126978 
Q 143.94866 322.126978 143.633817 322.431666 
Q 143.318973 322.736353 143.318973 323.294947 
z
M 150.37782 327.784009 
L 152.662977 327.784009 
L 152.662977 330.239791 
L 150.37782 330.239791 
L 150.37782 327.784009 
z
M 158.515516 325.998541 
Q 157.830985 325.998541 157.461297 326.374322 
Q 157.093641 326.748072 157.093641 327.446822 
Q 157.093641 328.145572 157.461297 328.517291 
Q 157.830985 328.886978 158.515516 328.886978 
Q 159.195985 328.886978 159.557547 328.517291 
Q 159.91911 328.145572 159.91911 327.446822 
Q 159.91911 326.741978 159.557547 326.370259 
Q 159.195985 325.998541 158.515516 325.998541 
z
M 156.732078 325.194166 
Q 155.868797 324.932134 155.430047 324.393853 
Q 154.993328 323.853541 154.993328 323.047134 
Q 154.993328 321.848697 155.887078 321.221041 
Q 156.78286 320.591353 158.515516 320.591353 
Q 160.235985 320.591353 161.129735 321.216978 
Q 162.025516 321.842603 162.025516 323.047134 
Q 162.025516 323.853541 161.584735 324.393853 
Q 161.143953 324.932134 160.280672 325.194166 
Q 161.245516 325.460259 161.737078 326.059478 
Q 162.228641 326.658697 162.228641 327.572759 
Q 162.228641 328.982447 161.292235 329.703541 
Q 160.355828 330.424634 158.515516 330.424634 
Q 156.66911 330.424634 155.72661 329.703541 
Q 154.78411 328.982447 154.78411 327.572759 
Q 154.78411 326.658697 155.275672 326.059478 
Q 155.767235 325.460259 156.732078 325.194166 
z
M 157.30286 323.294947 
Q 157.30286 323.859634 157.617703 324.164322 
Q 157.932547 324.469009 158.515516 324.469009 
Q 159.086297 324.469009 159.397078 324.164322 
Q 159.709891 323.859634 159.709891 323.294947 
Q 159.709891 322.730259 159.397078 322.429634 
Q 159.086297 322.126978 158.515516 322.126978 
Q 157.932547 322.126978 157.617703 322.431666 
Q 157.30286 322.736353 157.30286 323.294947 
z
M 173.10827 326.329634 
Q 172.659363 326.329634 172.411551 326.719634 
Q 172.163738 327.109634 172.163738 327.834791 
Q 172.163738 328.564009 172.407488 328.954009 
Q 172.651238 329.344009 173.10827 329.344009 
Q 173.565301 329.344009 173.80702 328.954009 
Q 174.048738 328.564009 174.048738 327.834791 
Q 174.048738 327.109634 173.802957 326.719634 
Q 173.559207 326.329634 173.10827 326.329634 
z
M 173.10827 325.263228 
Q 174.290457 325.263228 174.968895 325.949791 
Q 175.647332 326.634322 175.647332 327.834791 
Q 175.647332 329.033228 174.968895 329.729947 
Q 174.290457 330.424634 173.10827 330.424634 
Q 171.928113 330.424634 171.245613 329.729947 
Q 170.563113 329.033228 170.563113 327.834791 
Q 170.563113 326.640416 171.245613 325.951822 
Q 171.928113 325.263228 173.10827 325.263228 
z
M 167.288738 330.424634 
L 165.885145 330.424634 
L 171.80827 320.591353 
L 173.217957 320.591353 
L 167.288738 330.424634 
z
M 165.986707 320.591353 
Q 167.166863 320.591353 167.84327 321.279947 
Q 168.519676 321.968541 168.519676 323.169009 
Q 168.519676 324.367447 167.84327 325.060103 
Q 167.166863 325.752759 165.986707 325.752759 
Q 164.806551 325.752759 164.130145 325.060103 
Q 163.453738 324.367447 163.453738 323.169009 
Q 163.453738 321.968541 164.130145 321.279947 
Q 164.806551 320.591353 165.986707 320.591353 
z
M 165.986707 321.657759 
Q 165.529676 321.657759 165.281863 322.051822 
Q 165.034051 322.443853 165.034051 323.169009 
Q 165.034051 323.898228 165.281863 324.296353 
Q 165.529676 324.692447 165.986707 324.692447 
Q 166.443738 324.692447 166.687488 324.296353 
Q 166.93327 323.898228 166.93327 323.169009 
Q 166.93327 322.443853 166.685457 322.051822 
Q 166.437645 321.657759 165.986707 321.657759 
z
" style="fill: #ffffff"/>
   </g>
   <g id="text_5">
    <!-- Sí -->
    <g transform="translate(443.055134 363.32092) scale(0.13 -0.13)">
     <defs>
      <path id="DejaVuSans-Bold-53" d="M 3834 4519 
L 3834 3531 
Q 3450 3703 3084 3790 
Q 2719 3878 2394 3878 
Q 1963 3878 1756 3759 
Q 1550 3641 1550 3391 
Q 1550 3203 1689 3098 
Q 1828 2994 2194 2919 
L 2706 2816 
Q 3484 2659 3812 2340 
Q 4141 2022 4141 1434 
Q 4141 663 3683 286 
Q 3225 -91 2284 -91 
Q 1841 -91 1394 -6 
Q 947 78 500 244 
L 500 1259 
Q 947 1022 1364 901 
Q 1781 781 2169 781 
Q 2563 781 2772 912 
Q 2981 1044 2981 1288 
Q 2981 1506 2839 1625 
Q 2697 1744 2272 1838 
L 1806 1941 
Q 1106 2091 782 2419 
Q 459 2747 459 3303 
Q 459 4000 909 4375 
Q 1359 4750 2203 4750 
Q 2588 4750 2994 4692 
Q 3400 4634 3834 4519 
z
" transform="scale(0.015625)"/>
      <path id="DejaVuSans-Bold-ed" d="M 538 3500 
L 1656 3500 
L 1656 0 
L 538 0 
L 538 3500 
z
M 1590 5119 
L 2474 5119 
L 1321 3944 
L 709 3944 
L 1590 5119 
z
" transform="scale(0.015625)"/>
     </defs>
     <use xlink:href="#DejaVuSans-Bold-53"/>
     <use xlink:href="#DejaVuSans-Bold-ed" transform="translate(72.021484 0)"/>
    </g>
   </g>
   <g id="text_6">
    <path d="M 343.481482 313.997932 
L 340.804295 317.964963 
L 343.481482 317.964963 
L 343.481482 313.997932 
z
M 343.075232 311.984963 
L 345.793045 311.984963 
L 345.793045 317.964963 
L 347.143826 317.964963 
L 347.143826 319.736213 
L 345.793045 319.736213 
L 345.793045 321.462775 
L 343.481482 321.462775 
L 343.481482 319.736213 
L 339.280857 319.736213 
L 339.280857 317.641994 
L 343.075232 311.984963 
z
M 352.266892 317.221525 
Q 351.582361 317.221525 351.212674 317.597307 
Q 350.845017 317.971057 350.845017 318.669807 
Q 350.845017 319.368557 351.212674 319.740275 
Q 351.582361 320.109963 352.266892 320.109963 
Q 352.947361 320.109963 353.308924 319.740275 
Q 353.670486 319.368557 353.670486 318.669807 
Q 353.670486 317.964963 353.308924 317.593244 
Q 352.947361 317.221525 352.266892 317.221525 
z
M 350.483455 316.41715 
Q 349.620174 316.155119 349.181424 315.616838 
Q 348.744705 315.076525 348.744705 314.270119 
Q 348.744705 313.071682 349.638455 312.444025 
Q 350.534236 311.814338 352.266892 311.814338 
Q 353.987361 311.814338 354.881111 312.439963 
Q 355.776892 313.065588 355.776892 314.270119 
Q 355.776892 315.076525 355.336111 315.616838 
Q 354.89533 316.155119 354.032049 316.41715 
Q 354.996892 316.683244 355.488455 317.282463 
Q 355.980017 317.881682 355.980017 318.795744 
Q 355.980017 320.205432 355.043611 320.926525 
Q 354.107205 321.647619 352.266892 321.647619 
Q 350.420486 321.647619 349.477986 320.926525 
Q 348.535486 320.205432 348.535486 318.795744 
Q 348.535486 317.881682 349.027049 317.282463 
Q 349.518611 316.683244 350.483455 316.41715 
z
M 351.054236 314.517932 
Q 351.054236 315.082619 351.36908 315.387307 
Q 351.683924 315.691994 352.266892 315.691994 
Q 352.837674 315.691994 353.148455 315.387307 
Q 353.461267 315.082619 353.461267 314.517932 
Q 353.461267 313.953244 353.148455 313.652619 
Q 352.837674 313.349963 352.266892 313.349963 
Q 351.683924 313.349963 351.36908 313.65465 
Q 351.054236 313.959338 351.054236 314.517932 
z
M 358.113084 319.006994 
L 360.39824 319.006994 
L 360.39824 321.462775 
L 358.113084 321.462775 
L 358.113084 319.006994 
z
M 366.510779 313.997932 
L 363.833592 317.964963 
L 366.510779 317.964963 
L 366.510779 313.997932 
z
M 366.104529 311.984963 
L 368.822342 311.984963 
L 368.822342 317.964963 
L 370.173123 317.964963 
L 370.173123 319.736213 
L 368.822342 319.736213 
L 368.822342 321.462775 
L 366.510779 321.462775 
L 366.510779 319.736213 
L 362.310154 319.736213 
L 362.310154 317.641994 
L 366.104529 311.984963 
z
M 380.843533 317.552619 
Q 380.394627 317.552619 380.146814 317.942619 
Q 379.899002 318.332619 379.899002 319.057775 
Q 379.899002 319.786994 380.142752 320.176994 
Q 380.386502 320.566994 380.843533 320.566994 
Q 381.300564 320.566994 381.542283 320.176994 
Q 381.784002 319.786994 381.784002 319.057775 
Q 381.784002 318.332619 381.538221 317.942619 
Q 381.294471 317.552619 380.843533 317.552619 
z
M 380.843533 316.486213 
Q 382.025721 316.486213 382.704158 317.172775 
Q 383.382596 317.857307 383.382596 319.057775 
Q 383.382596 320.256213 382.704158 320.952932 
Q 382.025721 321.647619 380.843533 321.647619 
Q 379.663377 321.647619 378.980877 320.952932 
Q 378.298377 320.256213 378.298377 319.057775 
Q 378.298377 317.8634 378.980877 317.174807 
Q 379.663377 316.486213 380.843533 316.486213 
z
M 375.024002 321.647619 
L 373.620408 321.647619 
L 379.543533 311.814338 
L 380.953221 311.814338 
L 375.024002 321.647619 
z
M 373.721971 311.814338 
Q 374.902127 311.814338 375.578533 312.502932 
Q 376.254939 313.191525 376.254939 314.391994 
Q 376.254939 315.590432 375.578533 316.283088 
Q 374.902127 316.975744 373.721971 316.975744 
Q 372.541814 316.975744 371.865408 316.283088 
Q 371.189002 315.590432 371.189002 314.391994 
Q 371.189002 313.191525 371.865408 312.502932 
Q 372.541814 311.814338 373.721971 311.814338 
z
M 373.721971 312.880744 
Q 373.264939 312.880744 373.017127 313.274807 
Q 372.769314 313.666838 372.769314 314.391994 
Q 372.769314 315.121213 373.017127 315.519338 
Q 373.264939 315.915432 373.721971 315.915432 
Q 374.179002 315.915432 374.422752 315.519338 
Q 374.668533 315.121213 374.668533 314.391994 
Q 374.668533 313.666838 374.420721 313.274807 
Q 374.172908 312.880744 373.721971 312.880744 
z
" style="fill: #ffffff; stroke: #000000; stroke-width: 3"/>
    <path d="M 343.481482 313.997932 
L 340.804295 317.964963 
L 343.481482 317.964963 
L 343.481482 313.997932 
z
M 343.075232 311.984963 
L 345.793045 311.984963 
L 345.793045 317.964963 
L 347.143826 317.964963 
L 347.143826 319.736213 
L 345.793045 319.736213 
L 345.793045 321.462775 
L 343.481482 321.462775 
L 343.481482 319.736213 
L 339.280857 319.736213 
L 339.280857 317.641994 
L 343.075232 311.984963 
z
M 352.266892 317.221525 
Q 351.582361 317.221525 351.212674 317.597307 
Q 350.845017 317.971057 350.845017 318.669807 
Q 350.845017 319.368557 351.212674 319.740275 
Q 351.582361 320.109963 352.266892 320.109963 
Q 352.947361 320.109963 353.308924 319.740275 
Q 353.670486 319.368557 353.670486 318.669807 
Q 353.670486 317.964963 353.308924 317.593244 
Q 352.947361 317.221525 352.266892 317.221525 
z
M 350.483455 316.41715 
Q 349.620174 316.155119 349.181424 315.616838 
Q 348.744705 315.076525 348.744705 314.270119 
Q 348.744705 313.071682 349.638455 312.444025 
Q 350.534236 311.814338 352.266892 311.814338 
Q 353.987361 311.814338 354.881111 312.439963 
Q 355.776892 313.065588 355.776892 314.270119 
Q 355.776892 315.076525 355.336111 315.616838 
Q 354.89533 316.155119 354.032049 316.41715 
Q 354.996892 316.683244 355.488455 317.282463 
Q 355.980017 317.881682 355.980017 318.795744 
Q 355.980017 320.205432 355.043611 320.926525 
Q 354.107205 321.647619 352.266892 321.647619 
Q 350.420486 321.647619 349.477986 320.926525 
Q 348.535486 320.205432 348.535486 318.795744 
Q 348.535486 317.881682 349.027049 317.282463 
Q 349.518611 316.683244 350.483455 316.41715 
z
M 351.054236 314.517932 
Q 351.054236 315.082619 351.36908 315.387307 
Q 351.683924 315.691994 352.266892 315.691994 
Q 352.837674 315.691994 353.148455 315.387307 
Q 353.461267 315.082619 353.461267 314.517932 
Q 353.461267 313.953244 353.148455 313.652619 
Q 352.837674 313.349963 352.266892 313.349963 
Q 351.683924 313.349963 351.36908 313.65465 
Q 351.054236 313.959338 351.054236 314.517932 
z
M 358.113084 319.006994 
L 360.39824 319.006994 
L 360.39824 321.462775 
L 358.113084 321.462775 
L 358.113084 319.006994 
z
M 366.510779 313.997932 
L 363.833592 317.964963 
L 366.510779 317.964963 
L 366.510779 313.997932 
z
M 366.104529 311.984963 
L 368.822342 311.984963 
L 368.822342 317.964963 
L 370.173123 317.964963 
L 370.173123 319.736213 
L 368.822342 319.736213 
L 368.822342 321.462775 
L 366.510779 321.462775 
L 366.510779 319.736213 
L 362.310154 319.736213 
L 362.310154 317.641994 
L 366.104529 311.984963 
z
M 380.843533 317.552619 
Q 380.394627 317.552619 380.146814 317.942619 
Q 379.899002 318.332619 379.899002 319.057775 
Q 379.899002 319.786994 380.142752 320.176994 
Q 380.386502 320.566994 380.843533 320.566994 
Q 381.300564 320.566994 381.542283 320.176994 
Q 381.784002 319.786994 381.784002 319.057775 
Q 381.784002 318.332619 381.538221 317.942619 
Q 381.294471 317.552619 380.843533 317.552619 
z
M 380.843533 316.486213 
Q 382.025721 316.486213 382.704158 317.172775 
Q 383.382596 317.857307 383.382596 319.057775 
Q 383.382596 320.256213 382.704158 320.952932 
Q 382.025721 321.647619 380.843533 321.647619 
Q 379.663377 321.647619 378.980877 320.952932 
Q 378.298377 320.256213 378.298377 319.057775 
Q 378.298377 317.8634 378.980877 317.174807 
Q 379.663377 316.486213 380.843533 316.486213 
z
M 375.024002 321.647619 
L 373.620408 321.647619 
L 379.543533 311.814338 
L 380.953221 311.814338 
L 375.024002 321.647619 
z
M 373.721971 311.814338 
Q 374.902127 311.814338 375.578533 312.502932 
Q 376.254939 313.191525 376.254939 314.391994 
Q 376.254939 315.590432 375.578533 316.283088 
Q 374.902127 316.975744 373.721971 316.975744 
Q 372.541814 316.975744 371.865408 316.283088 
Q 371.189002 315.590432 371.189002 314.391994 
Q 371.189002 313.191525 371.865408 312.502932 
Q 372.541814 311.814338 373.721971 311.814338 
z
M 373.721971 312.880744 
Q 373.264939 312.880744 373.017127 313.274807 
Q 372.769314 313.666838 372.769314 314.391994 
Q 372.769314 315.121213 373.017127 315.519338 
Q 373.264939 315.915432 373.721971 315.915432 
Q 374.179002 315.915432 374.422752 315.519338 
Q 374.668533 315.121213 374.668533 314.391994 
Q 374.668533 313.666838 374.420721 313.274807 
Q 374.172908 312.880744 373.721971 312.880744 
z
" style="fill: #ffffff"/>
   </g>
   <g id="text_7">
    <!-- Historia Familiar de Hipertensión -->
    <g transform="translate(67.90768 27.72) scale(0.2 -0.2)">
     <defs>
      <path id="DejaVuSans-Bold-48" d="M 588 4666 
L 1791 4666 
L 1791 2888 
L 3566 2888 
L 3566 4666 
L 4769 4666 
L 4769 0 
L 3566 0 
L 3566 1978 
L 1791 1978 
L 1791 0 
L 588 0 
L 588 4666 
z
" transform="scale(0.015625)"/>
      <path id="DejaVuSans-Bold-69" d="M 538 3500 
L 1656 3500 
L 1656 0 
L 538 0 
L 538 3500 
z
M 538 4863 
L 1656 4863 
L 1656 3950 
L 538 3950 
L 538 4863 
z
" transform="scale(0.015625)"/>
      <path id="DejaVuSans-Bold-73" d="M 3272 3391 
L 3272 2541 
Q 2913 2691 2578 2766 
Q 2244 2841 1947 2841 
Q 1628 2841 1473 2761 
Q 1319 2681 1319 2516 
Q 1319 2381 1436 2309 
Q 1553 2238 1856 2203 
L 2053 2175 
Q 2913 2066 3209 1816 
Q 3506 1566 3506 1031 
Q 3506 472 3093 190 
Q 2681 -91 1863 -91 
Q 1516 -91 1145 -36 
Q 775 19 384 128 
L 384 978 
Q 719 816 1070 734 
Q 1422 653 1784 653 
Q 2113 653 2278 743 
Q 2444 834 2444 1013 
Q 2444 1163 2330 1236 
Q 2216 1309 1875 1350 
L 1678 1375 
Q 931 1469 631 1722 
Q 331 1975 331 2491 
Q 331 3047 712 3315 
Q 1094 3584 1881 3584 
Q 2191 3584 2531 3537 
Q 2872 3491 3272 3391 
z
" transform="scale(0.015625)"/>
      <path id="DejaVuSans-Bold-74" d="M 1759 4494 
L 1759 3500 
L 2913 3500 
L 2913 2700 
L 1759 2700 
L 1759 1216 
Q 1759 972 1856 886 
Q 1953 800 2241 800 
L 2816 800 
L 2816 0 
L 1856 0 
Q 1194 0 917 276 
Q 641 553 641 1216 
L 641 2700 
L 84 2700 
L 84 3500 
L 641 3500 
L 641 4494 
L 1759 4494 
z
" transform="scale(0.015625)"/>
      <path id="DejaVuSans-Bold-72" d="M 3138 2547 
Q 2991 2616 2845 2648 
Q 2700 2681 2553 2681 
Q 2122 2681 1889 2404 
Q 1656 2128 1656 1613 
L 1656 0 
L 538 0 
L 538 3500 
L 1656 3500 
L 1656 2925 
Q 1872 3269 2151 3426 
Q 2431 3584 2822 3584 
Q 2878 3584 2943 3579 
Q 3009 3575 3134 3559 
L 3138 2547 
z
" transform="scale(0.015625)"/>
      <path id="DejaVuSans-Bold-46" d="M 588 4666 
L 3834 4666 
L 3834 3756 
L 1791 3756 
L 1791 2888 
L 3713 2888 
L 3713 1978 
L 1791 1978 
L 1791 0 
L 588 0 
L 588 4666 
z
" transform="scale(0.015625)"/>
      <path id="DejaVuSans-Bold-6d" d="M 3781 2919 
Q 3994 3244 4286 3414 
Q 4578 3584 4928 3584 
Q 5531 3584 5847 3212 
Q 6163 2841 6163 2131 
L 6163 0 
L 5038 0 
L 5038 1825 
Q 5041 1866 5042 1909 
Q 5044 1953 5044 2034 
Q 5044 2406 4934 2573 
Q 4825 2741 4581 2741 
Q 4263 2741 4089 2478 
Q 3916 2216 3909 1719 
L 3909 0 
L 2784 0 
L 2784 1825 
Q 2784 2406 2684 2573 
Q 2584 2741 2328 2741 
Q 2006 2741 1831 2477 
Q 1656 2213 1656 1722 
L 1656 0 
L 531 0 
L 531 3500 
L 1656 3500 
L 1656 2988 
Q 1863 3284 2130 3434 
Q 2397 3584 2719 3584 
Q 3081 3584 3359 3409 
Q 3638 3234 3781 2919 
z
" transform="scale(0.015625)"/>
      <path id="DejaVuSans-Bold-64" d="M 2919 2988 
L 2919 4863 
L 4044 4863 
L 4044 0 
L 2919 0 
L 2919 506 
Q 2688 197 2409 53 
Q 2131 -91 1766 -91 
Q 1119 -91 703 423 
Q 288 938 288 1747 
Q 288 2556 703 3070 
Q 1119 3584 1766 3584 
Q 2128 3584 2408 3439 
Q 2688 3294 2919 2988 
z
M 2181 722 
Q 2541 722 2730 984 
Q 2919 1247 2919 1747 
Q 2919 2247 2730 2509 
Q 2541 2772 2181 2772 
Q 1825 2772 1636 2509 
Q 1447 2247 1447 1747 
Q 1447 1247 1636 984 
Q 1825 722 2181 722 
z
" transform="scale(0.015625)"/>
      <path id="DejaVuSans-Bold-70" d="M 1656 506 
L 1656 -1331 
L 538 -1331 
L 538 3500 
L 1656 3500 
L 1656 2988 
Q 1888 3294 2169 3439 
Q 2450 3584 2816 3584 
Q 3463 3584 3878 3070 
Q 4294 2556 4294 1747 
Q 4294 938 3878 423 
Q 3463 -91 2816 -91 
Q 2450 -91 2169 54 
Q 1888 200 1656 506 
z
M 2400 2772 
Q 2041 2772 1848 2508 
Q 1656 2244 1656 1747 
Q 1656 1250 1848 986 
Q 2041 722 2400 722 
Q 2759 722 2948 984 
Q 3138 1247 3138 1747 
Q 3138 2247 2948 2509 
Q 2759 2772 2400 2772 
z
" transform="scale(0.015625)"/>
      <path id="DejaVuSans-Bold-6e" d="M 4056 2131 
L 4056 0 
L 2931 0 
L 2931 347 
L 2931 1631 
Q 2931 2084 2911 2256 
Q 2891 2428 2841 2509 
Q 2775 2619 2662 2680 
Q 2550 2741 2406 2741 
Q 2056 2741 1856 2470 
Q 1656 2200 1656 1722 
L 1656 0 
L 538 0 
L 538 3500 
L 1656 3500 
L 1656 2988 
Q 1909 3294 2193 3439 
Q 2478 3584 2822 3584 
Q 3428 3584 3742 3212 
Q 4056 2841 4056 2131 
z
" transform="scale(0.015625)"/>
      <path id="DejaVuSans-Bold-f3" d="M 2203 2784 
Q 1831 2784 1636 2517 
Q 1441 2250 1441 1747 
Q 1441 1244 1636 976 
Q 1831 709 2203 709 
Q 2569 709 2762 976 
Q 2956 1244 2956 1747 
Q 2956 2250 2762 2517 
Q 2569 2784 2203 2784 
z
M 2203 3584 
Q 3106 3584 3614 3096 
Q 4122 2609 4122 1747 
Q 4122 884 3614 396 
Q 3106 -91 2203 -91 
Q 1297 -91 786 396 
Q 275 884 275 1747 
Q 275 2609 786 3096 
Q 1297 3584 2203 3584 
z
M 2694 5119 
L 3578 5119 
L 2425 3944 
L 1813 3944 
L 2694 5119 
z
" transform="scale(0.015625)"/>
     </defs>
     <use xlink:href="#DejaVuSans-Bold-48"/>
     <use xlink:href="#DejaVuSans-Bold-69" transform="translate(83.691406 0)"/>
     <use xlink:href="#DejaVuSans-Bold-73" transform="translate(117.96875 0)"/>
     <use xlink:href="#DejaVuSans-Bold-74" transform="translate(177.490234 0)"/>
     <use xlink:href="#DejaVuSans-Bold-6f" transform="translate(225.292969 0)"/>
     <use xlink:href="#DejaVuSans-Bold-72" transform="translate(293.994141 0)"/>
     <use xlink:href="#DejaVuSans-Bold-69" transform="translate(343.310547 0)"/>
     <use xlink:href="#DejaVuSans-Bold-61" transform="translate(377.587891 0)"/>
     <use xlink:href="#DejaVuSans-Bold-20" transform="translate(445.068359 0)"/>
     <use xlink:href="#DejaVuSans-Bold-46" transform="translate(479.882812 0)"/>
     <use xlink:href="#DejaVuSans-Bold-61" transform="translate(542.318359 0)"/>
     <use xlink:href="#DejaVuSans-Bold-6d" transform="translate(609.798828 0)"/>
     <use xlink:href="#DejaVuSans-Bold-69" transform="translate(713.998047 0)"/>
     <use xlink:href="#DejaVuSans-Bold-6c" transform="translate(748.275391 0)"/>
     <use xlink:href="#DejaVuSans-Bold-69" transform="translate(782.552734 0)"/>
     <use xlink:href="#DejaVuSans-Bold-61" transform="translate(816.830078 0)"/>
     <use xlink:href="#DejaVuSans-Bold-72" transform="translate(884.310547 0)"/>
     <use xlink:href="#DejaVuSans-Bold-20" transform="translate(933.626953 0)"/>
     <use xlink:href="#DejaVuSans-Bold-64" transform="translate(968.441406 0)"/>
     <use xlink:href="#DejaVuSans-Bold-65" transform="translate(1040.023438 0)"/>
     <use xlink:href="#DejaVuSans-Bold-20" transform="translate(1107.845703 0)"/>
     <use xlink:href="#DejaVuSans-Bold-48" transform="translate(1142.660156 0)"/>
     <use xlink:href="#DejaVuSans-Bold-69" transform="translate(1226.351562 0)"/>
     <use xlink:href="#DejaVuSans-Bold-70" transform="translate(1260.628906 0)"/>
     <use xlink:href="#DejaVuSans-Bold-65" transform="translate(1332.210938 0)"/>
     <use xlink:href="#DejaVuSans-Bold-72" transform="translate(1400.033203 0)"/>
     <use xlink:href="#DejaVuSans-Bold-74" transform="translate(1449.349609 0)"/>
     <use xlink:href="#DejaVuSans-Bold-65" transform="translate(1497.152344 0)"/>
     <use xlink:href="#DejaVuSans-Bold-6e" transform="translate(1564.974609 0)"/>
     <use xlink:href="#DejaVuSans-Bold-73" transform="translate(1636.166016 0)"/>
     <use xlink:href="#DejaVuSans-Bold-69" transform="translate(1695.6875 0)"/>
     <use xlink:href="#DejaVuSans-Bold-f3" transform="translate(1729.964844 0)"/>
     <use xlink:href="#DejaVuSans-Bold-6e" transform="translate(1798.666016 0)"/>
    </g>
   </g>
  </g>
 </g>
</svg>
