<?xml version="1.0" encoding="utf-8" standalone="no"?>
<!DOCTYPE svg PUBLIC "-//W3C//DTD SVG 1.1//EN"
  "http://www.w3.org/Graphics/SVG/1.1/DTD/svg11.dtd">
<svg xmlns:xlink="http://www.w3.org/1999/xlink" width="504pt" height="504pt" viewBox="0 0 504 504" xmlns="http://www.w3.org/2000/svg" version="1.1">
 <metadata>
  <rdf:RDF xmlns:dc="http://purl.org/dc/elements/1.1/" xmlns:cc="http://creativecommons.org/ns#" xmlns:rdf="http://www.w3.org/1999/02/22-rdf-syntax-ns#">
   <cc:Work>
    <dc:type rdf:resource="http://purl.org/dc/dcmitype/StillImage"/>
    <dc:date>2025-05-09T16:41:12.542736</dc:date>
    <dc:format>image/svg+xml</dc:format>
    <dc:creator>
     <cc:Agent>
      <dc:title>Matplotlib v3.10.1, https://matplotlib.org/</dc:title>
     </cc:Agent>
    </dc:creator>
   </cc:Work>
  </rdf:RDF>
 </metadata>
 <defs>
  <style type="text/css">*{stroke-linejoin: round; stroke-linecap: butt}</style>
 </defs>
 <g id="figure_1">
  <g id="patch_1">
   <path d="M 0 504 
L 504 504 
L 504 0 
L 0 0 
z
" style="fill: #ffffff"/>
  </g>
  <g id="axes_1">
   <g id="patch_2">
    <path d="M 335.371059 106.282875 
C 319.284585 96.995345 301.885562 90.19397 283.765064 86.109804 
C 265.644566 82.025637 247.01014 80.705458 228.494828 82.194116 
C 209.979517 83.682774 191.795389 87.963217 174.56019 94.890033 
C 157.324991 101.816848 141.236127 111.310698 126.840165 123.04906 
C 112.444203 134.787421 99.906029 148.635848 89.651587 164.123884 
C 79.397145 179.611921 71.543885 196.562173 66.358597 214.39881 
C 61.173308 232.235448 58.715381 250.754177 59.068316 269.325883 
C 59.421251 287.89759 62.581006 306.309561 68.440237 323.93631 
C 74.299469 341.563058 82.791068 358.202694 93.626559 373.289939 
C 104.462051 388.377184 117.517331 401.739235 132.348887 412.92216 
C 147.180443 424.105085 163.6184 432.980798 181.104333 439.247776 
C 198.590265 445.514754 216.923896 449.101218 235.482399 449.885328 
C 254.040901 450.669438 272.611714 448.642215 290.563954 443.872525 
C 308.516194 439.102836 325.644243 431.645311 341.36623 421.753296 
C 357.088218 411.861281 371.22407 399.648075 383.293568 385.528582 
C 395.363066 371.40909 405.22797 355.54503 412.553152 338.475332 
L 302.511992 291.252967 
C 299.948178 297.227361 296.495462 302.779782 292.271137 307.721604 
C 288.046813 312.663427 283.099265 316.938049 277.596569 320.400254 
C 272.093873 323.862459 266.099056 326.472593 259.815772 328.141984 
C 253.532488 329.811376 247.032704 330.520904 240.537228 330.246465 
C 234.041752 329.972027 227.624981 328.716765 221.504905 326.523322 
C 215.384828 324.32988 209.631543 321.22338 204.440499 317.309357 
C 199.249454 313.395333 194.680106 308.718615 190.887684 303.438079 
C 187.095262 298.157544 184.123202 292.333671 182.072471 286.164309 
C 180.021741 279.994947 178.915826 273.550757 178.792299 267.05066 
C 178.668772 260.550563 179.529046 254.069007 181.343897 247.826184 
C 183.158748 241.583361 185.907389 235.650773 189.496444 230.22996 
C 193.085499 224.809147 197.47386 219.962198 202.512446 215.853772 
C 207.551033 211.745345 213.182135 208.422497 219.214455 205.998112 
C 225.246774 203.573727 231.611219 202.075571 238.091578 201.554541 
C 244.571937 201.033511 251.093987 201.495574 257.436161 202.925032 
C 263.778335 204.35449 269.867993 206.734972 275.498259 209.985607 
z
" style="fill: #ff7f0e; stroke: #ffffff; stroke-width: 2; stroke-linejoin: miter"/>
   </g>
   <g id="patch_3">
    <path d="M 430.035028 332.66426 
C 447.814013 291.234323 449.780728 244.685659 435.559767 201.9037 
C 421.338806 159.121743 391.896496 123.013601 352.852941 100.471801 
L 292.980141 204.17453 
C 306.645385 212.064161 316.950194 224.70201 321.92753 239.675695 
C 326.904866 254.649381 326.216516 270.941413 319.993872 285.441891 
z
" style="fill: #d62728; stroke: #ffffff; stroke-width: 2; stroke-linejoin: miter"/>
   </g>
   <g id="matplotlib.axis_1"/>
   <g id="matplotlib.axis_2"/>
   <g id="text_1">
    <!-- No -->
    <g transform="translate(31.147581 333.334595) scale(0.13 -0.13)">
     <defs>
      <path id="DejaVuSans-Bold-4e" d="M 588 4666 
L 1931 4666 
L 3628 1466 
L 3628 4666 
L 4769 4666 
L 4769 0 
L 3425 0 
L 1728 3200 
L 1728 0 
L 588 0 
L 588 4666 
z
" transform="scale(0.015625)"/>
      <path id="DejaVuSans-Bold-6f" d="M 2203 2784 
Q 1831 2784 1636 2517 
Q 1441 2250 1441 1747 
Q 1441 1244 1636 976 
Q 1831 709 2203 709 
Q 2569 709 2762 976 
Q 2956 1244 2956 1747 
Q 2956 2250 2762 2517 
Q 2569 2784 2203 2784 
z
M 2203 3584 
Q 3106 3584 3614 3096 
Q 4122 2609 4122 1747 
Q 4122 884 3614 396 
Q 3106 -91 2203 -91 
Q 1297 -91 786 396 
Q 275 884 275 1747 
Q 275 2609 786 3096 
Q 1297 3584 2203 3584 
z
" transform="scale(0.015625)"/>
     </defs>
     <use xlink:href="#DejaVuSans-Bold-4e"/>
     <use xlink:href="#DejaVuSans-Bold-6f" transform="translate(83.691406 0)"/>
    </g>
   </g>
   <g id="text_2">
    <path d="M 116.687223 294.801388 
L 123.829098 294.801388 
L 123.829098 296.178576 
L 120.134254 304.279201 
L 117.753629 304.279201 
L 121.251442 296.599044 
L 116.687223 296.599044 
L 116.687223 294.801388 
z
M 129.567633 299.601232 
Q 128.925758 299.601232 128.604821 300.017638 
Q 128.283883 300.432013 128.283883 301.264826 
Q 128.283883 302.095607 128.604821 302.512013 
Q 128.925758 302.926388 129.567633 302.926388 
Q 130.213571 302.926388 130.534508 302.512013 
Q 130.855446 302.095607 130.855446 301.264826 
Q 130.855446 300.432013 130.534508 300.017638 
Q 130.213571 299.601232 129.567633 299.601232 
z
M 132.588102 295.049201 
L 132.588102 296.802169 
Q 131.984821 296.515763 131.450602 296.379669 
Q 130.918414 296.243576 130.410602 296.243576 
Q 129.319821 296.243576 128.710446 296.850919 
Q 128.101071 297.456232 127.999508 298.648576 
Q 128.417946 298.337794 128.905446 298.183419 
Q 129.394977 298.027013 129.973883 298.027013 
Q 131.426227 298.027013 132.317946 298.878107 
Q 133.209664 299.727169 133.209664 301.104357 
Q 133.209664 302.627794 132.212321 303.545919 
Q 131.217008 304.464044 129.541227 304.464044 
Q 127.694821 304.464044 126.681227 303.216857 
Q 125.669664 301.967638 125.669664 299.676388 
Q 125.669664 297.328263 126.853883 295.985607 
Q 128.038102 294.642951 130.099821 294.642951 
Q 130.753883 294.642951 131.369352 294.744513 
Q 131.984821 294.846076 132.588102 295.049201 
z
M 135.235074 301.823419 
L 137.520231 301.823419 
L 137.520231 304.279201 
L 135.235074 304.279201 
L 135.235074 301.823419 
z
M 140.149176 304.069982 
L 140.149176 302.317013 
Q 140.732145 302.591232 141.264332 302.727326 
Q 141.798551 302.863419 142.318551 302.863419 
Q 143.411364 302.863419 144.020739 302.258107 
Q 144.630114 301.650763 144.73777 300.458419 
Q 144.307145 300.775294 143.817614 300.933732 
Q 143.328082 301.092169 142.757301 301.092169 
Q 141.302926 301.092169 140.411207 300.245138 
Q 139.519489 299.398107 139.519489 298.014826 
Q 139.519489 296.483263 140.51277 295.563107 
Q 141.506051 294.642951 143.175739 294.642951 
Q 145.03027 294.642951 146.045895 295.894201 
Q 147.06152 297.143419 147.06152 299.428576 
Q 147.06152 301.778732 145.873239 303.121388 
Q 144.686989 304.464044 142.617145 304.464044 
Q 141.950895 304.464044 141.34152 304.364513 
Q 140.732145 304.267013 140.149176 304.069982 
z
M 143.163551 299.505763 
Q 143.805426 299.505763 144.128395 299.091388 
Q 144.451364 298.674982 144.451364 297.842169 
Q 144.451364 297.017482 144.128395 296.599044 
Q 143.805426 296.178576 143.163551 296.178576 
Q 142.521676 296.178576 142.198707 296.599044 
Q 141.875739 297.017482 141.875739 297.842169 
Q 141.875739 298.674982 142.198707 299.091388 
Q 142.521676 299.505763 143.163551 299.505763 
z
M 157.965524 300.369044 
Q 157.516617 300.369044 157.268805 300.759044 
Q 157.020992 301.149044 157.020992 301.874201 
Q 157.020992 302.603419 157.264742 302.993419 
Q 157.508492 303.383419 157.965524 303.383419 
Q 158.422555 303.383419 158.664274 302.993419 
Q 158.905992 302.603419 158.905992 301.874201 
Q 158.905992 301.149044 158.660211 300.759044 
Q 158.416461 300.369044 157.965524 300.369044 
z
M 157.965524 299.302638 
Q 159.147711 299.302638 159.826149 299.989201 
Q 160.504586 300.673732 160.504586 301.874201 
Q 160.504586 303.072638 159.826149 303.769357 
Q 159.147711 304.464044 157.965524 304.464044 
Q 156.785367 304.464044 156.102867 303.769357 
Q 155.420367 303.072638 155.420367 301.874201 
Q 155.420367 300.679826 156.102867 299.991232 
Q 156.785367 299.302638 157.965524 299.302638 
z
M 152.145992 304.464044 
L 150.742399 304.464044 
L 156.665524 294.630763 
L 158.075211 294.630763 
L 152.145992 304.464044 
z
M 150.843961 294.630763 
Q 152.024117 294.630763 152.700524 295.319357 
Q 153.37693 296.007951 153.37693 297.208419 
Q 153.37693 298.406857 152.700524 299.099513 
Q 152.024117 299.792169 150.843961 299.792169 
Q 149.663805 299.792169 148.987399 299.099513 
Q 148.310992 298.406857 148.310992 297.208419 
Q 148.310992 296.007951 148.987399 295.319357 
Q 149.663805 294.630763 150.843961 294.630763 
z
M 150.843961 295.697169 
Q 150.38693 295.697169 150.139117 296.091232 
Q 149.891305 296.483263 149.891305 297.208419 
Q 149.891305 297.937638 150.139117 298.335763 
Q 150.38693 298.731857 150.843961 298.731857 
Q 151.300992 298.731857 151.544742 298.335763 
Q 151.790524 297.937638 151.790524 297.208419 
Q 151.790524 296.483263 151.542711 296.091232 
Q 151.294899 295.697169 150.843961 295.697169 
z
" style="fill: #ffffff; stroke: #000000; stroke-width: 3"/>
    <path d="M 116.687223 294.801388 
L 123.829098 294.801388 
L 123.829098 296.178576 
L 120.134254 304.279201 
L 117.753629 304.279201 
L 121.251442 296.599044 
L 116.687223 296.599044 
L 116.687223 294.801388 
z
M 129.567633 299.601232 
Q 128.925758 299.601232 128.604821 300.017638 
Q 128.283883 300.432013 128.283883 301.264826 
Q 128.283883 302.095607 128.604821 302.512013 
Q 128.925758 302.926388 129.567633 302.926388 
Q 130.213571 302.926388 130.534508 302.512013 
Q 130.855446 302.095607 130.855446 301.264826 
Q 130.855446 300.432013 130.534508 300.017638 
Q 130.213571 299.601232 129.567633 299.601232 
z
M 132.588102 295.049201 
L 132.588102 296.802169 
Q 131.984821 296.515763 131.450602 296.379669 
Q 130.918414 296.243576 130.410602 296.243576 
Q 129.319821 296.243576 128.710446 296.850919 
Q 128.101071 297.456232 127.999508 298.648576 
Q 128.417946 298.337794 128.905446 298.183419 
Q 129.394977 298.027013 129.973883 298.027013 
Q 131.426227 298.027013 132.317946 298.878107 
Q 133.209664 299.727169 133.209664 301.104357 
Q 133.209664 302.627794 132.212321 303.545919 
Q 131.217008 304.464044 129.541227 304.464044 
Q 127.694821 304.464044 126.681227 303.216857 
Q 125.669664 301.967638 125.669664 299.676388 
Q 125.669664 297.328263 126.853883 295.985607 
Q 128.038102 294.642951 130.099821 294.642951 
Q 130.753883 294.642951 131.369352 294.744513 
Q 131.984821 294.846076 132.588102 295.049201 
z
M 135.235074 301.823419 
L 137.520231 301.823419 
L 137.520231 304.279201 
L 135.235074 304.279201 
L 135.235074 301.823419 
z
M 140.149176 304.069982 
L 140.149176 302.317013 
Q 140.732145 302.591232 141.264332 302.727326 
Q 141.798551 302.863419 142.318551 302.863419 
Q 143.411364 302.863419 144.020739 302.258107 
Q 144.630114 301.650763 144.73777 300.458419 
Q 144.307145 300.775294 143.817614 300.933732 
Q 143.328082 301.092169 142.757301 301.092169 
Q 141.302926 301.092169 140.411207 300.245138 
Q 139.519489 299.398107 139.519489 298.014826 
Q 139.519489 296.483263 140.51277 295.563107 
Q 141.506051 294.642951 143.175739 294.642951 
Q 145.03027 294.642951 146.045895 295.894201 
Q 147.06152 297.143419 147.06152 299.428576 
Q 147.06152 301.778732 145.873239 303.121388 
Q 144.686989 304.464044 142.617145 304.464044 
Q 141.950895 304.464044 141.34152 304.364513 
Q 140.732145 304.267013 140.149176 304.069982 
z
M 143.163551 299.505763 
Q 143.805426 299.505763 144.128395 299.091388 
Q 144.451364 298.674982 144.451364 297.842169 
Q 144.451364 297.017482 144.128395 296.599044 
Q 143.805426 296.178576 143.163551 296.178576 
Q 142.521676 296.178576 142.198707 296.599044 
Q 141.875739 297.017482 141.875739 297.842169 
Q 141.875739 298.674982 142.198707 299.091388 
Q 142.521676 299.505763 143.163551 299.505763 
z
M 157.965524 300.369044 
Q 157.516617 300.369044 157.268805 300.759044 
Q 157.020992 301.149044 157.020992 301.874201 
Q 157.020992 302.603419 157.264742 302.993419 
Q 157.508492 303.383419 157.965524 303.383419 
Q 158.422555 303.383419 158.664274 302.993419 
Q 158.905992 302.603419 158.905992 301.874201 
Q 158.905992 301.149044 158.660211 300.759044 
Q 158.416461 300.369044 157.965524 300.369044 
z
M 157.965524 299.302638 
Q 159.147711 299.302638 159.826149 299.989201 
Q 160.504586 300.673732 160.504586 301.874201 
Q 160.504586 303.072638 159.826149 303.769357 
Q 159.147711 304.464044 157.965524 304.464044 
Q 156.785367 304.464044 156.102867 303.769357 
Q 155.420367 303.072638 155.420367 301.874201 
Q 155.420367 300.679826 156.102867 299.991232 
Q 156.785367 299.302638 157.965524 299.302638 
z
M 152.145992 304.464044 
L 150.742399 304.464044 
L 156.665524 294.630763 
L 158.075211 294.630763 
L 152.145992 304.464044 
z
M 150.843961 294.630763 
Q 152.024117 294.630763 152.700524 295.319357 
Q 153.37693 296.007951 153.37693 297.208419 
Q 153.37693 298.406857 152.700524 299.099513 
Q 152.024117 299.792169 150.843961 299.792169 
Q 149.663805 299.792169 148.987399 299.099513 
Q 148.310992 298.406857 148.310992 297.208419 
Q 148.310992 296.007951 148.987399 295.319357 
Q 149.663805 294.630763 150.843961 294.630763 
z
M 150.843961 295.697169 
Q 150.38693 295.697169 150.139117 296.091232 
Q 149.891305 296.483263 149.891305 297.208419 
Q 149.891305 297.937638 150.139117 298.335763 
Q 150.38693 298.731857 150.843961 298.731857 
Q 151.300992 298.731857 151.544742 298.335763 
Q 151.790524 297.937638 151.790524 297.208419 
Q 151.790524 296.483263 151.542711 296.091232 
Q 151.294899 295.697169 150.843961 295.697169 
z
" style="fill: #ffffff"/>
   </g>
   <g id="text_3">
    <!-- Sí -->
    <g transform="translate(453.041648 199.67981) scale(0.13 -0.13)">
     <defs>
      <path id="DejaVuSans-Bold-53" d="M 3834 4519 
L 3834 3531 
Q 3450 3703 3084 3790 
Q 2719 3878 2394 3878 
Q 1963 3878 1756 3759 
Q 1550 3641 1550 3391 
Q 1550 3203 1689 3098 
Q 1828 2994 2194 2919 
L 2706 2816 
Q 3484 2659 3812 2340 
Q 4141 2022 4141 1434 
Q 4141 663 3683 286 
Q 3225 -91 2284 -91 
Q 1841 -91 1394 -6 
Q 947 78 500 244 
L 500 1259 
Q 947 1022 1364 901 
Q 1781 781 2169 781 
Q 2563 781 2772 912 
Q 2981 1044 2981 1288 
Q 2981 1506 2839 1625 
Q 2697 1744 2272 1838 
L 1806 1941 
Q 1106 2091 782 2419 
Q 459 2747 459 3303 
Q 459 4000 909 4375 
Q 1359 4750 2203 4750 
Q 2588 4750 2994 4692 
Q 3400 4634 3834 4519 
z
" transform="scale(0.015625)"/>
      <path id="DejaVuSans-Bold-ed" d="M 538 3500 
L 1656 3500 
L 1656 0 
L 538 0 
L 538 3500 
z
M 1590 5119 
L 2474 5119 
L 1321 3944 
L 709 3944 
L 1590 5119 
z
" transform="scale(0.015625)"/>
     </defs>
     <use xlink:href="#DejaVuSans-Bold-53"/>
     <use xlink:href="#DejaVuSans-Bold-ed" transform="translate(72.021484 0)"/>
    </g>
   </g>
   <g id="text_4">
    <path d="M 346.827939 226.939567 
L 350.998095 226.939567 
L 350.998095 228.735192 
L 344.110127 228.735192 
L 344.110127 226.939567 
L 347.569345 223.884567 
Q 348.034502 223.466129 348.255908 223.065973 
Q 348.477314 222.665817 348.477314 222.235192 
Q 348.477314 221.568942 348.030439 221.162692 
Q 347.583564 220.756442 346.840127 220.756442 
Q 346.269345 220.756442 345.588877 221.000192 
Q 344.910439 221.243942 344.136533 221.727379 
L 344.136533 219.645348 
Q 344.96122 219.37316 345.767627 219.230973 
Q 346.574033 219.086754 347.347939 219.086754 
Q 349.050127 219.086754 349.992627 219.836285 
Q 350.935127 220.583785 350.935127 221.92441 
Q 350.935127 222.698317 350.53497 223.368629 
Q 350.134814 224.03691 348.853095 225.162223 
L 346.827939 226.939567 
z
M 358.18288 223.624567 
Q 359.14163 223.872379 359.639287 224.485817 
Q 360.138974 225.097223 360.138974 226.043785 
Q 360.138974 227.453473 359.058349 228.186754 
Q 357.979755 228.920035 355.911943 228.920035 
Q 355.180693 228.920035 354.447412 228.802223 
Q 353.71413 228.68441 352.997099 228.448785 
L 352.997099 226.563785 
Q 353.683662 226.907067 354.358037 227.081754 
Q 355.034443 227.256442 355.688505 227.256442 
Q 356.659443 227.256442 357.177412 226.921285 
Q 357.69538 226.584098 357.69538 225.95441 
Q 357.69538 225.306442 357.165224 224.973317 
Q 356.635068 224.640192 355.59913 224.640192 
L 354.622099 224.640192 
L 354.622099 223.065973 
L 355.649912 223.065973 
Q 356.572099 223.065973 357.021005 222.777535 
Q 357.471943 222.489098 357.471943 221.898004 
Q 357.471943 221.353629 357.033193 221.055035 
Q 356.596474 220.756442 355.796162 220.756442 
Q 355.207099 220.756442 354.603818 220.890504 
Q 354.000537 221.022535 353.403349 221.282535 
L 353.403349 219.493004 
Q 354.126474 219.289879 354.837412 219.188317 
Q 355.548349 219.086754 356.234912 219.086754 
Q 358.081318 219.086754 358.997412 219.694098 
Q 359.915537 220.29941 359.915537 221.51816 
Q 359.915537 222.348942 359.476787 222.879098 
Q 359.040068 223.409254 358.18288 223.624567 
z
M 362.499541 226.27941 
L 364.784697 226.27941 
L 364.784697 228.735192 
L 362.499541 228.735192 
L 362.499541 226.27941 
z
M 367.635048 227.047223 
L 369.794267 227.047223 
L 369.794267 220.920973 
L 367.578173 221.378004 
L 367.578173 219.71441 
L 369.780048 219.257379 
L 372.103798 219.257379 
L 372.103798 227.047223 
L 374.263017 227.047223 
L 374.263017 228.735192 
L 367.635048 228.735192 
L 367.635048 227.047223 
z
M 385.22999 224.825035 
Q 384.781084 224.825035 384.533271 225.215035 
Q 384.285459 225.605035 384.285459 226.330192 
Q 384.285459 227.05941 384.529209 227.44941 
Q 384.772959 227.83941 385.22999 227.83941 
Q 385.687021 227.83941 385.92874 227.44941 
Q 386.170459 227.05941 386.170459 226.330192 
Q 386.170459 225.605035 385.924677 225.215035 
Q 385.680927 224.825035 385.22999 224.825035 
z
M 385.22999 223.758629 
Q 386.412177 223.758629 387.090615 224.445192 
Q 387.769052 225.129723 387.769052 226.330192 
Q 387.769052 227.528629 387.090615 228.225348 
Q 386.412177 228.920035 385.22999 228.920035 
Q 384.049834 228.920035 383.367334 228.225348 
Q 382.684834 227.528629 382.684834 226.330192 
Q 382.684834 225.135817 383.367334 224.447223 
Q 384.049834 223.758629 385.22999 223.758629 
z
M 379.410459 228.920035 
L 378.006865 228.920035 
L 383.92999 219.086754 
L 385.339677 219.086754 
L 379.410459 228.920035 
z
M 378.108427 219.086754 
Q 379.288584 219.086754 379.96499 219.775348 
Q 380.641396 220.463942 380.641396 221.66441 
Q 380.641396 222.862848 379.96499 223.555504 
Q 379.288584 224.24816 378.108427 224.24816 
Q 376.928271 224.24816 376.251865 223.555504 
Q 375.575459 222.862848 375.575459 221.66441 
Q 375.575459 220.463942 376.251865 219.775348 
Q 376.928271 219.086754 378.108427 219.086754 
z
M 378.108427 220.15316 
Q 377.651396 220.15316 377.403584 220.547223 
Q 377.155771 220.939254 377.155771 221.66441 
Q 377.155771 222.393629 377.403584 222.791754 
Q 377.651396 223.187848 378.108427 223.187848 
Q 378.565459 223.187848 378.809209 222.791754 
Q 379.05499 222.393629 379.05499 221.66441 
Q 379.05499 220.939254 378.807177 220.547223 
Q 378.559365 220.15316 378.108427 220.15316 
z
" style="fill: #ffffff; stroke: #000000; stroke-width: 3"/>
    <path d="M 346.827939 226.939567 
L 350.998095 226.939567 
L 350.998095 228.735192 
L 344.110127 228.735192 
L 344.110127 226.939567 
L 347.569345 223.884567 
Q 348.034502 223.466129 348.255908 223.065973 
Q 348.477314 222.665817 348.477314 222.235192 
Q 348.477314 221.568942 348.030439 221.162692 
Q 347.583564 220.756442 346.840127 220.756442 
Q 346.269345 220.756442 345.588877 221.000192 
Q 344.910439 221.243942 344.136533 221.727379 
L 344.136533 219.645348 
Q 344.96122 219.37316 345.767627 219.230973 
Q 346.574033 219.086754 347.347939 219.086754 
Q 349.050127 219.086754 349.992627 219.836285 
Q 350.935127 220.583785 350.935127 221.92441 
Q 350.935127 222.698317 350.53497 223.368629 
Q 350.134814 224.03691 348.853095 225.162223 
L 346.827939 226.939567 
z
M 358.18288 223.624567 
Q 359.14163 223.872379 359.639287 224.485817 
Q 360.138974 225.097223 360.138974 226.043785 
Q 360.138974 227.453473 359.058349 228.186754 
Q 357.979755 228.920035 355.911943 228.920035 
Q 355.180693 228.920035 354.447412 228.802223 
Q 353.71413 228.68441 352.997099 228.448785 
L 352.997099 226.563785 
Q 353.683662 226.907067 354.358037 227.081754 
Q 355.034443 227.256442 355.688505 227.256442 
Q 356.659443 227.256442 357.177412 226.921285 
Q 357.69538 226.584098 357.69538 225.95441 
Q 357.69538 225.306442 357.165224 224.973317 
Q 356.635068 224.640192 355.59913 224.640192 
L 354.622099 224.640192 
L 354.622099 223.065973 
L 355.649912 223.065973 
Q 356.572099 223.065973 357.021005 222.777535 
Q 357.471943 222.489098 357.471943 221.898004 
Q 357.471943 221.353629 357.033193 221.055035 
Q 356.596474 220.756442 355.796162 220.756442 
Q 355.207099 220.756442 354.603818 220.890504 
Q 354.000537 221.022535 353.403349 221.282535 
L 353.403349 219.493004 
Q 354.126474 219.289879 354.837412 219.188317 
Q 355.548349 219.086754 356.234912 219.086754 
Q 358.081318 219.086754 358.997412 219.694098 
Q 359.915537 220.29941 359.915537 221.51816 
Q 359.915537 222.348942 359.476787 222.879098 
Q 359.040068 223.409254 358.18288 223.624567 
z
M 362.499541 226.27941 
L 364.784697 226.27941 
L 364.784697 228.735192 
L 362.499541 228.735192 
L 362.499541 226.27941 
z
M 367.635048 227.047223 
L 369.794267 227.047223 
L 369.794267 220.920973 
L 367.578173 221.378004 
L 367.578173 219.71441 
L 369.780048 219.257379 
L 372.103798 219.257379 
L 372.103798 227.047223 
L 374.263017 227.047223 
L 374.263017 228.735192 
L 367.635048 228.735192 
L 367.635048 227.047223 
z
M 385.22999 224.825035 
Q 384.781084 224.825035 384.533271 225.215035 
Q 384.285459 225.605035 384.285459 226.330192 
Q 384.285459 227.05941 384.529209 227.44941 
Q 384.772959 227.83941 385.22999 227.83941 
Q 385.687021 227.83941 385.92874 227.44941 
Q 386.170459 227.05941 386.170459 226.330192 
Q 386.170459 225.605035 385.924677 225.215035 
Q 385.680927 224.825035 385.22999 224.825035 
z
M 385.22999 223.758629 
Q 386.412177 223.758629 387.090615 224.445192 
Q 387.769052 225.129723 387.769052 226.330192 
Q 387.769052 227.528629 387.090615 228.225348 
Q 386.412177 228.920035 385.22999 228.920035 
Q 384.049834 228.920035 383.367334 228.225348 
Q 382.684834 227.528629 382.684834 226.330192 
Q 382.684834 225.135817 383.367334 224.447223 
Q 384.049834 223.758629 385.22999 223.758629 
z
M 379.410459 228.920035 
L 378.006865 228.920035 
L 383.92999 219.086754 
L 385.339677 219.086754 
L 379.410459 228.920035 
z
M 378.108427 219.086754 
Q 379.288584 219.086754 379.96499 219.775348 
Q 380.641396 220.463942 380.641396 221.66441 
Q 380.641396 222.862848 379.96499 223.555504 
Q 379.288584 224.24816 378.108427 224.24816 
Q 376.928271 224.24816 376.251865 223.555504 
Q 375.575459 222.862848 375.575459 221.66441 
Q 375.575459 220.463942 376.251865 219.775348 
Q 376.928271 219.086754 378.108427 219.086754 
z
M 378.108427 220.15316 
Q 377.651396 220.15316 377.403584 220.547223 
Q 377.155771 220.939254 377.155771 221.66441 
Q 377.155771 222.393629 377.403584 222.791754 
Q 377.651396 223.187848 378.108427 223.187848 
Q 378.565459 223.187848 378.809209 222.791754 
Q 379.05499 222.393629 379.05499 221.66441 
Q 379.05499 220.939254 378.807177 220.547223 
Q 378.559365 220.15316 378.108427 220.15316 
z
" style="fill: #ffffff"/>
   </g>
   <g id="text_5">
    <!-- Historia Familiar de Infarto -->
    <g transform="translate(99.214062 26.64) scale(0.2 -0.2)">
     <defs>
      <path id="DejaVuSans-Bold-48" d="M 588 4666 
L 1791 4666 
L 1791 2888 
L 3566 2888 
L 3566 4666 
L 4769 4666 
L 4769 0 
L 3566 0 
L 3566 1978 
L 1791 1978 
L 1791 0 
L 588 0 
L 588 4666 
z
" transform="scale(0.015625)"/>
      <path id="DejaVuSans-Bold-69" d="M 538 3500 
L 1656 3500 
L 1656 0 
L 538 0 
L 538 3500 
z
M 538 4863 
L 1656 4863 
L 1656 3950 
L 538 3950 
L 538 4863 
z
" transform="scale(0.015625)"/>
      <path id="DejaVuSans-Bold-73" d="M 3272 3391 
L 3272 2541 
Q 2913 2691 2578 2766 
Q 2244 2841 1947 2841 
Q 1628 2841 1473 2761 
Q 1319 2681 1319 2516 
Q 1319 2381 1436 2309 
Q 1553 2238 1856 2203 
L 2053 2175 
Q 2913 2066 3209 1816 
Q 3506 1566 3506 1031 
Q 3506 472 3093 190 
Q 2681 -91 1863 -91 
Q 1516 -91 1145 -36 
Q 775 19 384 128 
L 384 978 
Q 719 816 1070 734 
Q 1422 653 1784 653 
Q 2113 653 2278 743 
Q 2444 834 2444 1013 
Q 2444 1163 2330 1236 
Q 2216 1309 1875 1350 
L 1678 1375 
Q 931 1469 631 1722 
Q 331 1975 331 2491 
Q 331 3047 712 3315 
Q 1094 3584 1881 3584 
Q 2191 3584 2531 3537 
Q 2872 3491 3272 3391 
z
" transform="scale(0.015625)"/>
      <path id="DejaVuSans-Bold-74" d="M 1759 4494 
L 1759 3500 
L 2913 3500 
L 2913 2700 
L 1759 2700 
L 1759 1216 
Q 1759 972 1856 886 
Q 1953 800 2241 800 
L 2816 800 
L 2816 0 
L 1856 0 
Q 1194 0 917 276 
Q 641 553 641 1216 
L 641 2700 
L 84 2700 
L 84 3500 
L 641 3500 
L 641 4494 
L 1759 4494 
z
" transform="scale(0.015625)"/>
      <path id="DejaVuSans-Bold-72" d="M 3138 2547 
Q 2991 2616 2845 2648 
Q 2700 2681 2553 2681 
Q 2122 2681 1889 2404 
Q 1656 2128 1656 1613 
L 1656 0 
L 538 0 
L 538 3500 
L 1656 3500 
L 1656 2925 
Q 1872 3269 2151 3426 
Q 2431 3584 2822 3584 
Q 2878 3584 2943 3579 
Q 3009 3575 3134 3559 
L 3138 2547 
z
" transform="scale(0.015625)"/>
      <path id="DejaVuSans-Bold-61" d="M 2106 1575 
Q 1756 1575 1579 1456 
Q 1403 1338 1403 1106 
Q 1403 894 1545 773 
Q 1688 653 1941 653 
Q 2256 653 2472 879 
Q 2688 1106 2688 1447 
L 2688 1575 
L 2106 1575 
z
M 3816 1997 
L 3816 0 
L 2688 0 
L 2688 519 
Q 2463 200 2181 54 
Q 1900 -91 1497 -91 
Q 953 -91 614 226 
Q 275 544 275 1050 
Q 275 1666 698 1953 
Q 1122 2241 2028 2241 
L 2688 2241 
L 2688 2328 
Q 2688 2594 2478 2717 
Q 2269 2841 1825 2841 
Q 1466 2841 1156 2769 
Q 847 2697 581 2553 
L 581 3406 
Q 941 3494 1303 3539 
Q 1666 3584 2028 3584 
Q 2975 3584 3395 3211 
Q 3816 2838 3816 1997 
z
" transform="scale(0.015625)"/>
      <path id="DejaVuSans-Bold-20" transform="scale(0.015625)"/>
      <path id="DejaVuSans-Bold-46" d="M 588 4666 
L 3834 4666 
L 3834 3756 
L 1791 3756 
L 1791 2888 
L 3713 2888 
L 3713 1978 
L 1791 1978 
L 1791 0 
L 588 0 
L 588 4666 
z
" transform="scale(0.015625)"/>
      <path id="DejaVuSans-Bold-6d" d="M 3781 2919 
Q 3994 3244 4286 3414 
Q 4578 3584 4928 3584 
Q 5531 3584 5847 3212 
Q 6163 2841 6163 2131 
L 6163 0 
L 5038 0 
L 5038 1825 
Q 5041 1866 5042 1909 
Q 5044 1953 5044 2034 
Q 5044 2406 4934 2573 
Q 4825 2741 4581 2741 
Q 4263 2741 4089 2478 
Q 3916 2216 3909 1719 
L 3909 0 
L 2784 0 
L 2784 1825 
Q 2784 2406 2684 2573 
Q 2584 2741 2328 2741 
Q 2006 2741 1831 2477 
Q 1656 2213 1656 1722 
L 1656 0 
L 531 0 
L 531 3500 
L 1656 3500 
L 1656 2988 
Q 1863 3284 2130 3434 
Q 2397 3584 2719 3584 
Q 3081 3584 3359 3409 
Q 3638 3234 3781 2919 
z
" transform="scale(0.015625)"/>
      <path id="DejaVuSans-Bold-6c" d="M 538 4863 
L 1656 4863 
L 1656 0 
L 538 0 
L 538 4863 
z
" transform="scale(0.015625)"/>
      <path id="DejaVuSans-Bold-64" d="M 2919 2988 
L 2919 4863 
L 4044 4863 
L 4044 0 
L 2919 0 
L 2919 506 
Q 2688 197 2409 53 
Q 2131 -91 1766 -91 
Q 1119 -91 703 423 
Q 288 938 288 1747 
Q 288 2556 703 3070 
Q 1119 3584 1766 3584 
Q 2128 3584 2408 3439 
Q 2688 3294 2919 2988 
z
M 2181 722 
Q 2541 722 2730 984 
Q 2919 1247 2919 1747 
Q 2919 2247 2730 2509 
Q 2541 2772 2181 2772 
Q 1825 2772 1636 2509 
Q 1447 2247 1447 1747 
Q 1447 1247 1636 984 
Q 1825 722 2181 722 
z
" transform="scale(0.015625)"/>
      <path id="DejaVuSans-Bold-65" d="M 4031 1759 
L 4031 1441 
L 1416 1441 
Q 1456 1047 1700 850 
Q 1944 653 2381 653 
Q 2734 653 3104 758 
Q 3475 863 3866 1075 
L 3866 213 
Q 3469 63 3072 -14 
Q 2675 -91 2278 -91 
Q 1328 -91 801 392 
Q 275 875 275 1747 
Q 275 2603 792 3093 
Q 1309 3584 2216 3584 
Q 3041 3584 3536 3087 
Q 4031 2591 4031 1759 
z
M 2881 2131 
Q 2881 2450 2695 2645 
Q 2509 2841 2209 2841 
Q 1884 2841 1681 2658 
Q 1478 2475 1428 2131 
L 2881 2131 
z
" transform="scale(0.015625)"/>
      <path id="DejaVuSans-Bold-49" d="M 588 4666 
L 1791 4666 
L 1791 0 
L 588 0 
L 588 4666 
z
" transform="scale(0.015625)"/>
      <path id="DejaVuSans-Bold-6e" d="M 4056 2131 
L 4056 0 
L 2931 0 
L 2931 347 
L 2931 1631 
Q 2931 2084 2911 2256 
Q 2891 2428 2841 2509 
Q 2775 2619 2662 2680 
Q 2550 2741 2406 2741 
Q 2056 2741 1856 2470 
Q 1656 2200 1656 1722 
L 1656 0 
L 538 0 
L 538 3500 
L 1656 3500 
L 1656 2988 
Q 1909 3294 2193 3439 
Q 2478 3584 2822 3584 
Q 3428 3584 3742 3212 
Q 4056 2841 4056 2131 
z
" transform="scale(0.015625)"/>
      <path id="DejaVuSans-Bold-66" d="M 2841 4863 
L 2841 4128 
L 2222 4128 
Q 1984 4128 1890 4042 
Q 1797 3956 1797 3744 
L 1797 3500 
L 2753 3500 
L 2753 2700 
L 1797 2700 
L 1797 0 
L 678 0 
L 678 2700 
L 122 2700 
L 122 3500 
L 678 3500 
L 678 3744 
Q 678 4316 997 4589 
Q 1316 4863 1984 4863 
L 2841 4863 
z
" transform="scale(0.015625)"/>
     </defs>
     <use xlink:href="#DejaVuSans-Bold-48"/>
     <use xlink:href="#DejaVuSans-Bold-69" transform="translate(83.691406 0)"/>
     <use xlink:href="#DejaVuSans-Bold-73" transform="translate(117.96875 0)"/>
     <use xlink:href="#DejaVuSans-Bold-74" transform="translate(177.490234 0)"/>
     <use xlink:href="#DejaVuSans-Bold-6f" transform="translate(225.292969 0)"/>
     <use xlink:href="#DejaVuSans-Bold-72" transform="translate(293.994141 0)"/>
     <use xlink:href="#DejaVuSans-Bold-69" transform="translate(343.310547 0)"/>
     <use xlink:href="#DejaVuSans-Bold-61" transform="translate(377.587891 0)"/>
     <use xlink:href="#DejaVuSans-Bold-20" transform="translate(445.068359 0)"/>
     <use xlink:href="#DejaVuSans-Bold-46" transform="translate(479.882812 0)"/>
     <use xlink:href="#DejaVuSans-Bold-61" transform="translate(542.318359 0)"/>
     <use xlink:href="#DejaVuSans-Bold-6d" transform="translate(609.798828 0)"/>
     <use xlink:href="#DejaVuSans-Bold-69" transform="translate(713.998047 0)"/>
     <use xlink:href="#DejaVuSans-Bold-6c" transform="translate(748.275391 0)"/>
     <use xlink:href="#DejaVuSans-Bold-69" transform="translate(782.552734 0)"/>
     <use xlink:href="#DejaVuSans-Bold-61" transform="translate(816.830078 0)"/>
     <use xlink:href="#DejaVuSans-Bold-72" transform="translate(884.310547 0)"/>
     <use xlink:href="#DejaVuSans-Bold-20" transform="translate(933.626953 0)"/>
     <use xlink:href="#DejaVuSans-Bold-64" transform="translate(968.441406 0)"/>
     <use xlink:href="#DejaVuSans-Bold-65" transform="translate(1040.023438 0)"/>
     <use xlink:href="#DejaVuSans-Bold-20" transform="translate(1107.845703 0)"/>
     <use xlink:href="#DejaVuSans-Bold-49" transform="translate(1142.660156 0)"/>
     <use xlink:href="#DejaVuSans-Bold-6e" transform="translate(1179.867188 0)"/>
     <use xlink:href="#DejaVuSans-Bold-66" transform="translate(1251.058594 0)"/>
     <use xlink:href="#DejaVuSans-Bold-61" transform="translate(1294.564453 0)"/>
     <use xlink:href="#DejaVuSans-Bold-72" transform="translate(1362.044922 0)"/>
     <use xlink:href="#DejaVuSans-Bold-74" transform="translate(1411.361328 0)"/>
     <use xlink:href="#DejaVuSans-Bold-6f" transform="translate(1459.164062 0)"/>
    </g>
   </g>
  </g>
 </g>
</svg>
