<?xml version="1.0" encoding="utf-8" standalone="no"?>
<!DOCTYPE svg PUBLIC "-//W3C//DTD SVG 1.1//EN"
  "http://www.w3.org/Graphics/SVG/1.1/DTD/svg11.dtd">
<svg xmlns:xlink="http://www.w3.org/1999/xlink" width="504pt" height="504pt" viewBox="0 0 504 504" xmlns="http://www.w3.org/2000/svg" version="1.1">
 <metadata>
  <rdf:RDF xmlns:dc="http://purl.org/dc/elements/1.1/" xmlns:cc="http://creativecommons.org/ns#" xmlns:rdf="http://www.w3.org/1999/02/22-rdf-syntax-ns#">
   <cc:Work>
    <dc:type rdf:resource="http://purl.org/dc/dcmitype/StillImage"/>
    <dc:date>2025-05-09T16:41:11.080616</dc:date>
    <dc:format>image/svg+xml</dc:format>
    <dc:creator>
     <cc:Agent>
      <dc:title>Matplotlib v3.10.1, https://matplotlib.org/</dc:title>
     </cc:Agent>
    </dc:creator>
   </cc:Work>
  </rdf:RDF>
 </metadata>
 <defs>
  <style type="text/css">*{stroke-linejoin: round; stroke-linecap: butt}</style>
 </defs>
 <g id="figure_1">
  <g id="patch_1">
   <path d="M 0 504 
L 504 504 
L 504 0 
L 0 0 
z
" style="fill: #ffffff"/>
  </g>
  <g id="axes_1">
   <g id="patch_2">
    <path d="M 318.342003 133.473959 
C 296.562146 120.899353 271.955188 114.026727 246.811581 113.495794 
C 221.667974 112.964861 196.792835 118.792623 174.501578 130.436623 
C 152.210321 142.080623 133.216729 159.168011 119.288754 180.108268 
C 105.360779 201.048525 96.944405 225.171129 94.82304 250.230712 
C 92.701675 275.290294 96.943247 300.484429 107.152944 323.468009 
C 117.362641 346.451589 133.213542 366.488663 153.23022 381.71415 
C 173.246898 396.939637 196.788406 406.866006 221.663464 410.569295 
C 246.538522 414.272585 271.950613 411.634213 295.534341 402.899764 
L 261.814874 311.85444 
C 253.560569 314.911497 244.666337 315.834927 235.960067 314.538776 
C 227.253796 313.242625 219.014269 309.768396 212.008431 304.439475 
C 205.002594 299.110555 199.454779 292.097579 195.881385 284.053326 
C 192.307991 276.009073 190.82344 267.191126 191.565918 258.420272 
C 192.308396 249.649418 195.254127 241.206507 200.128918 233.877417 
C 205.00371 226.548327 211.651467 220.567741 219.453407 216.492341 
C 227.255347 212.416941 235.961645 210.377224 244.761908 210.563051 
C 253.56217 210.748877 262.174606 213.154296 269.797555 217.555408 
z
" style="fill: #1f77b4; stroke: #ffffff; stroke-width: 2; stroke-linejoin: miter"/>
   </g>
   <g id="patch_3">
    <path d="M 310.417866 404.159691 
C 337.011096 394.310642 360.257475 377.088966 377.425875 354.517977 
C 394.594275 331.946989 404.984902 304.946629 407.37696 276.689216 
C 409.769018 248.431802 404.065036 220.069059 390.935143 194.933241 
C 377.80525 169.797423 357.78464 148.913081 333.225465 134.733854 
L 284.681055 218.815324 
C 293.276767 223.778054 300.28398 231.087574 304.879442 239.88511 
C 309.474905 248.682646 311.471299 258.609606 310.634079 268.499701 
C 309.796858 278.389796 306.160139 287.839922 300.151199 295.739768 
C 294.142259 303.639614 286.006026 309.6672 276.698396 313.114368 
z
" style="fill: #ff7f0e; stroke: #ffffff; stroke-width: 2; stroke-linejoin: miter"/>
   </g>
   <g id="matplotlib.axis_1"/>
   <g id="matplotlib.axis_2"/>
   <g id="text_1">
    <!-- Femenino -->
    <g transform="translate(8.500455 252.557992) scale(0.13 -0.13)">
     <defs>
      <path id="DejaVuSans-Bold-46" d="M 588 4666 
L 3834 4666 
L 3834 3756 
L 1791 3756 
L 1791 2888 
L 3713 2888 
L 3713 1978 
L 1791 1978 
L 1791 0 
L 588 0 
L 588 4666 
z
" transform="scale(0.015625)"/>
      <path id="DejaVuSans-Bold-65" d="M 4031 1759 
L 4031 1441 
L 1416 1441 
Q 1456 1047 1700 850 
Q 1944 653 2381 653 
Q 2734 653 3104 758 
Q 3475 863 3866 1075 
L 3866 213 
Q 3469 63 3072 -14 
Q 2675 -91 2278 -91 
Q 1328 -91 801 392 
Q 275 875 275 1747 
Q 275 2603 792 3093 
Q 1309 3584 2216 3584 
Q 3041 3584 3536 3087 
Q 4031 2591 4031 1759 
z
M 2881 2131 
Q 2881 2450 2695 2645 
Q 2509 2841 2209 2841 
Q 1884 2841 1681 2658 
Q 1478 2475 1428 2131 
L 2881 2131 
z
" transform="scale(0.015625)"/>
      <path id="DejaVuSans-Bold-6d" d="M 3781 2919 
Q 3994 3244 4286 3414 
Q 4578 3584 4928 3584 
Q 5531 3584 5847 3212 
Q 6163 2841 6163 2131 
L 6163 0 
L 5038 0 
L 5038 1825 
Q 5041 1866 5042 1909 
Q 5044 1953 5044 2034 
Q 5044 2406 4934 2573 
Q 4825 2741 4581 2741 
Q 4263 2741 4089 2478 
Q 3916 2216 3909 1719 
L 3909 0 
L 2784 0 
L 2784 1825 
Q 2784 2406 2684 2573 
Q 2584 2741 2328 2741 
Q 2006 2741 1831 2477 
Q 1656 2213 1656 1722 
L 1656 0 
L 531 0 
L 531 3500 
L 1656 3500 
L 1656 2988 
Q 1863 3284 2130 3434 
Q 2397 3584 2719 3584 
Q 3081 3584 3359 3409 
Q 3638 3234 3781 2919 
z
" transform="scale(0.015625)"/>
      <path id="DejaVuSans-Bold-6e" d="M 4056 2131 
L 4056 0 
L 2931 0 
L 2931 347 
L 2931 1631 
Q 2931 2084 2911 2256 
Q 2891 2428 2841 2509 
Q 2775 2619 2662 2680 
Q 2550 2741 2406 2741 
Q 2056 2741 1856 2470 
Q 1656 2200 1656 1722 
L 1656 0 
L 538 0 
L 538 3500 
L 1656 3500 
L 1656 2988 
Q 1909 3294 2193 3439 
Q 2478 3584 2822 3584 
Q 3428 3584 3742 3212 
Q 4056 2841 4056 2131 
z
" transform="scale(0.015625)"/>
      <path id="DejaVuSans-Bold-69" d="M 538 3500 
L 1656 3500 
L 1656 0 
L 538 0 
L 538 3500 
z
M 538 4863 
L 1656 4863 
L 1656 3950 
L 538 3950 
L 538 4863 
z
" transform="scale(0.015625)"/>
      <path id="DejaVuSans-Bold-6f" d="M 2203 2784 
Q 1831 2784 1636 2517 
Q 1441 2250 1441 1747 
Q 1441 1244 1636 976 
Q 1831 709 2203 709 
Q 2569 709 2762 976 
Q 2956 1244 2956 1747 
Q 2956 2250 2762 2517 
Q 2569 2784 2203 2784 
z
M 2203 3584 
Q 3106 3584 3614 3096 
Q 4122 2609 4122 1747 
Q 4122 884 3614 396 
Q 3106 -91 2203 -91 
Q 1297 -91 786 396 
Q 275 884 275 1747 
Q 275 2609 786 3096 
Q 1297 3584 2203 3584 
z
" transform="scale(0.015625)"/>
     </defs>
     <use xlink:href="#DejaVuSans-Bold-46"/>
     <use xlink:href="#DejaVuSans-Bold-65" transform="translate(64.310547 0)"/>
     <use xlink:href="#DejaVuSans-Bold-6d" transform="translate(132.132812 0)"/>
     <use xlink:href="#DejaVuSans-Bold-65" transform="translate(236.332031 0)"/>
     <use xlink:href="#DejaVuSans-Bold-6e" transform="translate(304.154297 0)"/>
     <use xlink:href="#DejaVuSans-Bold-69" transform="translate(375.345703 0)"/>
     <use xlink:href="#DejaVuSans-Bold-6e" transform="translate(409.623047 0)"/>
     <use xlink:href="#DejaVuSans-Bold-6f" transform="translate(480.814453 0)"/>
    </g>
   </g>
   <g id="text_2">
    <path d="M 136.511571 254.179673 
Q 135.869696 254.179673 135.548758 254.59608 
Q 135.227821 255.010455 135.227821 255.843267 
Q 135.227821 256.674048 135.548758 257.090455 
Q 135.869696 257.50483 136.511571 257.50483 
Q 137.157508 257.50483 137.478446 257.090455 
Q 137.799383 256.674048 137.799383 255.843267 
Q 137.799383 255.010455 137.478446 254.59608 
Q 137.157508 254.179673 136.511571 254.179673 
z
M 139.532039 249.627642 
L 139.532039 251.380611 
Q 138.928758 251.094205 138.394539 250.958111 
Q 137.862352 250.822017 137.354539 250.822017 
Q 136.263758 250.822017 135.654383 251.429361 
Q 135.045008 252.034673 134.943446 253.227017 
Q 135.361883 252.916236 135.849383 252.761861 
Q 136.338914 252.605455 136.917821 252.605455 
Q 138.370164 252.605455 139.261883 253.456548 
Q 140.153602 254.305611 140.153602 255.682798 
Q 140.153602 257.206236 139.156258 258.124361 
Q 138.160946 259.042486 136.485164 259.042486 
Q 134.638758 259.042486 133.625164 257.795298 
Q 132.613602 256.54608 132.613602 254.25483 
Q 132.613602 251.906705 133.797821 250.564048 
Q 134.982039 249.221392 137.043758 249.221392 
Q 137.697821 249.221392 138.313289 249.322955 
Q 138.928758 249.424517 139.532039 249.627642 
z
M 145.638231 251.392798 
L 142.961043 255.35983 
L 145.638231 255.35983 
L 145.638231 251.392798 
z
M 145.231981 249.37983 
L 147.949793 249.37983 
L 147.949793 255.35983 
L 149.300575 255.35983 
L 149.300575 257.13108 
L 147.949793 257.13108 
L 147.949793 258.857642 
L 145.638231 258.857642 
L 145.638231 257.13108 
L 141.437606 257.13108 
L 141.437606 255.036861 
L 145.231981 249.37983 
z
M 151.224422 256.401861 
L 153.509579 256.401861 
L 153.509579 258.857642 
L 151.224422 258.857642 
L 151.224422 256.401861 
z
M 160.816493 254.10858 
Q 160.816493 252.331236 160.483368 251.60608 
Q 160.150243 250.878892 159.362118 250.878892 
Q 158.576024 250.878892 158.238836 251.60608 
Q 157.901649 252.331236 157.901649 254.10858 
Q 157.901649 255.906236 158.238836 256.64358 
Q 158.576024 257.378892 159.362118 257.378892 
Q 160.144149 257.378892 160.479305 256.64358 
Q 160.816493 255.906236 160.816493 254.10858 
z
M 163.260086 254.128892 
Q 163.260086 256.483111 162.244461 257.762798 
Q 161.228836 259.042486 159.362118 259.042486 
Q 157.489305 259.042486 156.47368 257.762798 
Q 155.458055 256.483111 155.458055 254.128892 
Q 155.458055 251.766548 156.47368 250.488892 
Q 157.489305 249.209205 159.362118 249.209205 
Q 161.228836 249.209205 162.244461 250.488892 
Q 163.260086 251.766548 163.260086 254.128892 
z
M 173.954871 254.947486 
Q 173.505965 254.947486 173.258153 255.337486 
Q 173.01034 255.727486 173.01034 256.452642 
Q 173.01034 257.181861 173.25409 257.571861 
Q 173.49784 257.961861 173.954871 257.961861 
Q 174.411903 257.961861 174.653621 257.571861 
Q 174.89534 257.181861 174.89534 256.452642 
Q 174.89534 255.727486 174.649559 255.337486 
Q 174.405809 254.947486 173.954871 254.947486 
z
M 173.954871 253.88108 
Q 175.137059 253.88108 175.815496 254.567642 
Q 176.493934 255.252173 176.493934 256.452642 
Q 176.493934 257.65108 175.815496 258.347798 
Q 175.137059 259.042486 173.954871 259.042486 
Q 172.774715 259.042486 172.092215 258.347798 
Q 171.409715 257.65108 171.409715 256.452642 
Q 171.409715 255.258267 172.092215 254.569673 
Q 172.774715 253.88108 173.954871 253.88108 
z
M 168.13534 259.042486 
L 166.731746 259.042486 
L 172.654871 249.209205 
L 174.064559 249.209205 
L 168.13534 259.042486 
z
M 166.833309 249.209205 
Q 168.013465 249.209205 168.689871 249.897798 
Q 169.366278 250.586392 169.366278 251.786861 
Q 169.366278 252.985298 168.689871 253.677955 
Q 168.013465 254.370611 166.833309 254.370611 
Q 165.653153 254.370611 164.976746 253.677955 
Q 164.30034 252.985298 164.30034 251.786861 
Q 164.30034 250.586392 164.976746 249.897798 
Q 165.653153 249.209205 166.833309 249.209205 
z
M 166.833309 250.275611 
Q 166.376278 250.275611 166.128465 250.669673 
Q 165.880653 251.061705 165.880653 251.786861 
Q 165.880653 252.51608 166.128465 252.914205 
Q 166.376278 253.310298 166.833309 253.310298 
Q 167.29034 253.310298 167.53409 252.914205 
Q 167.779871 252.51608 167.779871 251.786861 
Q 167.779871 251.061705 167.532059 250.669673 
Q 167.284246 250.275611 166.833309 250.275611 
z
" style="fill: #ffffff; stroke: #000000; stroke-width: 3"/>
    <path d="M 136.511571 254.179673 
Q 135.869696 254.179673 135.548758 254.59608 
Q 135.227821 255.010455 135.227821 255.843267 
Q 135.227821 256.674048 135.548758 257.090455 
Q 135.869696 257.50483 136.511571 257.50483 
Q 137.157508 257.50483 137.478446 257.090455 
Q 137.799383 256.674048 137.799383 255.843267 
Q 137.799383 255.010455 137.478446 254.59608 
Q 137.157508 254.179673 136.511571 254.179673 
z
M 139.532039 249.627642 
L 139.532039 251.380611 
Q 138.928758 251.094205 138.394539 250.958111 
Q 137.862352 250.822017 137.354539 250.822017 
Q 136.263758 250.822017 135.654383 251.429361 
Q 135.045008 252.034673 134.943446 253.227017 
Q 135.361883 252.916236 135.849383 252.761861 
Q 136.338914 252.605455 136.917821 252.605455 
Q 138.370164 252.605455 139.261883 253.456548 
Q 140.153602 254.305611 140.153602 255.682798 
Q 140.153602 257.206236 139.156258 258.124361 
Q 138.160946 259.042486 136.485164 259.042486 
Q 134.638758 259.042486 133.625164 257.795298 
Q 132.613602 256.54608 132.613602 254.25483 
Q 132.613602 251.906705 133.797821 250.564048 
Q 134.982039 249.221392 137.043758 249.221392 
Q 137.697821 249.221392 138.313289 249.322955 
Q 138.928758 249.424517 139.532039 249.627642 
z
M 145.638231 251.392798 
L 142.961043 255.35983 
L 145.638231 255.35983 
L 145.638231 251.392798 
z
M 145.231981 249.37983 
L 147.949793 249.37983 
L 147.949793 255.35983 
L 149.300575 255.35983 
L 149.300575 257.13108 
L 147.949793 257.13108 
L 147.949793 258.857642 
L 145.638231 258.857642 
L 145.638231 257.13108 
L 141.437606 257.13108 
L 141.437606 255.036861 
L 145.231981 249.37983 
z
M 151.224422 256.401861 
L 153.509579 256.401861 
L 153.509579 258.857642 
L 151.224422 258.857642 
L 151.224422 256.401861 
z
M 160.816493 254.10858 
Q 160.816493 252.331236 160.483368 251.60608 
Q 160.150243 250.878892 159.362118 250.878892 
Q 158.576024 250.878892 158.238836 251.60608 
Q 157.901649 252.331236 157.901649 254.10858 
Q 157.901649 255.906236 158.238836 256.64358 
Q 158.576024 257.378892 159.362118 257.378892 
Q 160.144149 257.378892 160.479305 256.64358 
Q 160.816493 255.906236 160.816493 254.10858 
z
M 163.260086 254.128892 
Q 163.260086 256.483111 162.244461 257.762798 
Q 161.228836 259.042486 159.362118 259.042486 
Q 157.489305 259.042486 156.47368 257.762798 
Q 155.458055 256.483111 155.458055 254.128892 
Q 155.458055 251.766548 156.47368 250.488892 
Q 157.489305 249.209205 159.362118 249.209205 
Q 161.228836 249.209205 162.244461 250.488892 
Q 163.260086 251.766548 163.260086 254.128892 
z
M 173.954871 254.947486 
Q 173.505965 254.947486 173.258153 255.337486 
Q 173.01034 255.727486 173.01034 256.452642 
Q 173.01034 257.181861 173.25409 257.571861 
Q 173.49784 257.961861 173.954871 257.961861 
Q 174.411903 257.961861 174.653621 257.571861 
Q 174.89534 257.181861 174.89534 256.452642 
Q 174.89534 255.727486 174.649559 255.337486 
Q 174.405809 254.947486 173.954871 254.947486 
z
M 173.954871 253.88108 
Q 175.137059 253.88108 175.815496 254.567642 
Q 176.493934 255.252173 176.493934 256.452642 
Q 176.493934 257.65108 175.815496 258.347798 
Q 175.137059 259.042486 173.954871 259.042486 
Q 172.774715 259.042486 172.092215 258.347798 
Q 171.409715 257.65108 171.409715 256.452642 
Q 171.409715 255.258267 172.092215 254.569673 
Q 172.774715 253.88108 173.954871 253.88108 
z
M 168.13534 259.042486 
L 166.731746 259.042486 
L 172.654871 249.209205 
L 174.064559 249.209205 
L 168.13534 259.042486 
z
M 166.833309 249.209205 
Q 168.013465 249.209205 168.689871 249.897798 
Q 169.366278 250.586392 169.366278 251.786861 
Q 169.366278 252.985298 168.689871 253.677955 
Q 168.013465 254.370611 166.833309 254.370611 
Q 165.653153 254.370611 164.976746 253.677955 
Q 164.30034 252.985298 164.30034 251.786861 
Q 164.30034 250.586392 164.976746 249.897798 
Q 165.653153 249.209205 166.833309 249.209205 
z
M 166.833309 250.275611 
Q 166.376278 250.275611 166.128465 250.669673 
Q 165.880653 251.061705 165.880653 251.786861 
Q 165.880653 252.51608 166.128465 252.914205 
Q 166.376278 253.310298 166.833309 253.310298 
Q 167.29034 253.310298 167.53409 252.914205 
Q 167.779871 252.51608 167.779871 251.786861 
Q 167.779871 251.061705 167.532059 250.669673 
Q 167.284246 250.275611 166.833309 250.275611 
z
" style="fill: #ffffff"/>
   </g>
   <g id="text_3">
    <!-- Masculino -->
    <g transform="translate(422.260482 281.536327) scale(0.13 -0.13)">
     <defs>
      <path id="DejaVuSans-Bold-4d" d="M 588 4666 
L 2119 4666 
L 3181 2169 
L 4250 4666 
L 5778 4666 
L 5778 0 
L 4641 0 
L 4641 3413 
L 3566 897 
L 2803 897 
L 1728 3413 
L 1728 0 
L 588 0 
L 588 4666 
z
" transform="scale(0.015625)"/>
      <path id="DejaVuSans-Bold-61" d="M 2106 1575 
Q 1756 1575 1579 1456 
Q 1403 1338 1403 1106 
Q 1403 894 1545 773 
Q 1688 653 1941 653 
Q 2256 653 2472 879 
Q 2688 1106 2688 1447 
L 2688 1575 
L 2106 1575 
z
M 3816 1997 
L 3816 0 
L 2688 0 
L 2688 519 
Q 2463 200 2181 54 
Q 1900 -91 1497 -91 
Q 953 -91 614 226 
Q 275 544 275 1050 
Q 275 1666 698 1953 
Q 1122 2241 2028 2241 
L 2688 2241 
L 2688 2328 
Q 2688 2594 2478 2717 
Q 2269 2841 1825 2841 
Q 1466 2841 1156 2769 
Q 847 2697 581 2553 
L 581 3406 
Q 941 3494 1303 3539 
Q 1666 3584 2028 3584 
Q 2975 3584 3395 3211 
Q 3816 2838 3816 1997 
z
" transform="scale(0.015625)"/>
      <path id="DejaVuSans-Bold-73" d="M 3272 3391 
L 3272 2541 
Q 2913 2691 2578 2766 
Q 2244 2841 1947 2841 
Q 1628 2841 1473 2761 
Q 1319 2681 1319 2516 
Q 1319 2381 1436 2309 
Q 1553 2238 1856 2203 
L 2053 2175 
Q 2913 2066 3209 1816 
Q 3506 1566 3506 1031 
Q 3506 472 3093 190 
Q 2681 -91 1863 -91 
Q 1516 -91 1145 -36 
Q 775 19 384 128 
L 384 978 
Q 719 816 1070 734 
Q 1422 653 1784 653 
Q 2113 653 2278 743 
Q 2444 834 2444 1013 
Q 2444 1163 2330 1236 
Q 2216 1309 1875 1350 
L 1678 1375 
Q 931 1469 631 1722 
Q 331 1975 331 2491 
Q 331 3047 712 3315 
Q 1094 3584 1881 3584 
Q 2191 3584 2531 3537 
Q 2872 3491 3272 3391 
z
" transform="scale(0.015625)"/>
      <path id="DejaVuSans-Bold-63" d="M 3366 3391 
L 3366 2478 
Q 3138 2634 2908 2709 
Q 2678 2784 2431 2784 
Q 1963 2784 1702 2511 
Q 1441 2238 1441 1747 
Q 1441 1256 1702 982 
Q 1963 709 2431 709 
Q 2694 709 2930 787 
Q 3166 866 3366 1019 
L 3366 103 
Q 3103 6 2833 -42 
Q 2563 -91 2291 -91 
Q 1344 -91 809 395 
Q 275 881 275 1747 
Q 275 2613 809 3098 
Q 1344 3584 2291 3584 
Q 2566 3584 2833 3536 
Q 3100 3488 3366 3391 
z
" transform="scale(0.015625)"/>
      <path id="DejaVuSans-Bold-75" d="M 500 1363 
L 500 3500 
L 1625 3500 
L 1625 3150 
Q 1625 2866 1622 2436 
Q 1619 2006 1619 1863 
Q 1619 1441 1641 1255 
Q 1663 1069 1716 984 
Q 1784 875 1895 815 
Q 2006 756 2150 756 
Q 2500 756 2700 1025 
Q 2900 1294 2900 1772 
L 2900 3500 
L 4019 3500 
L 4019 0 
L 2900 0 
L 2900 506 
Q 2647 200 2364 54 
Q 2081 -91 1741 -91 
Q 1134 -91 817 281 
Q 500 653 500 1363 
z
" transform="scale(0.015625)"/>
      <path id="DejaVuSans-Bold-6c" d="M 538 4863 
L 1656 4863 
L 1656 0 
L 538 0 
L 538 4863 
z
" transform="scale(0.015625)"/>
     </defs>
     <use xlink:href="#DejaVuSans-Bold-4d"/>
     <use xlink:href="#DejaVuSans-Bold-61" transform="translate(99.511719 0)"/>
     <use xlink:href="#DejaVuSans-Bold-73" transform="translate(166.992188 0)"/>
     <use xlink:href="#DejaVuSans-Bold-63" transform="translate(226.513672 0)"/>
     <use xlink:href="#DejaVuSans-Bold-75" transform="translate(285.791016 0)"/>
     <use xlink:href="#DejaVuSans-Bold-6c" transform="translate(356.982422 0)"/>
     <use xlink:href="#DejaVuSans-Bold-69" transform="translate(391.259766 0)"/>
     <use xlink:href="#DejaVuSans-Bold-6e" transform="translate(425.537109 0)"/>
     <use xlink:href="#DejaVuSans-Bold-6f" transform="translate(496.728516 0)"/>
    </g>
   </g>
   <g id="text_4">
    <path d="M 331.348115 270.126076 
Q 332.306865 270.373889 332.804521 270.987326 
Q 333.304208 271.598733 333.304208 272.545295 
Q 333.304208 273.954983 332.223583 274.688264 
Q 331.14499 275.421545 329.077177 275.421545 
Q 328.345927 275.421545 327.612646 275.303733 
Q 326.879365 275.18592 326.162333 274.950295 
L 326.162333 273.065295 
Q 326.848896 273.408576 327.523271 273.583264 
Q 328.199677 273.757951 328.85374 273.757951 
Q 329.824677 273.757951 330.342646 273.422795 
Q 330.860615 273.085608 330.860615 272.45592 
Q 330.860615 271.807951 330.330458 271.474826 
Q 329.800302 271.141701 328.764365 271.141701 
L 327.787333 271.141701 
L 327.787333 269.567483 
L 328.815146 269.567483 
Q 329.737333 269.567483 330.18624 269.279045 
Q 330.637177 268.990608 330.637177 268.399514 
Q 330.637177 267.855139 330.198427 267.556545 
Q 329.761708 267.257951 328.961396 267.257951 
Q 328.372333 267.257951 327.769052 267.392014 
Q 327.165771 267.524045 326.568583 267.784045 
L 326.568583 265.994514 
Q 327.291708 265.791389 328.002646 265.689826 
Q 328.713583 265.588264 329.400146 265.588264 
Q 331.246552 265.588264 332.162646 266.195608 
Q 333.080771 266.80092 333.080771 268.01967 
Q 333.080771 268.850451 332.642021 269.380608 
Q 332.205302 269.910764 331.348115 270.126076 
z
M 339.042743 270.558733 
Q 338.400868 270.558733 338.079931 270.975139 
Q 337.758993 271.389514 337.758993 272.222326 
Q 337.758993 273.053108 338.079931 273.469514 
Q 338.400868 273.883889 339.042743 273.883889 
Q 339.688681 273.883889 340.009618 273.469514 
Q 340.330556 273.053108 340.330556 272.222326 
Q 340.330556 271.389514 340.009618 270.975139 
Q 339.688681 270.558733 339.042743 270.558733 
z
M 342.063212 266.006701 
L 342.063212 267.75967 
Q 341.459931 267.473264 340.925712 267.33717 
Q 340.393525 267.201076 339.885712 267.201076 
Q 338.794931 267.201076 338.185556 267.80842 
Q 337.576181 268.413733 337.474618 269.606076 
Q 337.893056 269.295295 338.380556 269.14092 
Q 338.870087 268.984514 339.448993 268.984514 
Q 340.901337 268.984514 341.793056 269.835608 
Q 342.684775 270.68467 342.684775 272.061858 
Q 342.684775 273.585295 341.687431 274.50342 
Q 340.692118 275.421545 339.016337 275.421545 
Q 337.169931 275.421545 336.156337 274.174358 
Q 335.144775 272.925139 335.144775 270.633889 
Q 335.144775 268.285764 336.328993 266.943108 
Q 337.513212 265.600451 339.574931 265.600451 
Q 340.228993 265.600451 340.844462 265.702014 
Q 341.459931 265.803576 342.063212 266.006701 
z
M 344.710185 272.78092 
L 346.995341 272.78092 
L 346.995341 275.236701 
L 344.710185 275.236701 
L 344.710185 272.78092 
z
M 354.302255 270.487639 
Q 354.302255 268.710295 353.96913 267.985139 
Q 353.636005 267.257951 352.84788 267.257951 
Q 352.061786 267.257951 351.724599 267.985139 
Q 351.387411 268.710295 351.387411 270.487639 
Q 351.387411 272.285295 351.724599 273.022639 
Q 352.061786 273.757951 352.84788 273.757951 
Q 353.629911 273.757951 353.965068 273.022639 
Q 354.302255 272.285295 354.302255 270.487639 
z
M 356.745849 270.507951 
Q 356.745849 272.86217 355.730224 274.141858 
Q 354.714599 275.421545 352.84788 275.421545 
Q 350.975068 275.421545 349.959443 274.141858 
Q 348.943818 272.86217 348.943818 270.507951 
Q 348.943818 268.145608 349.959443 266.867951 
Q 350.975068 265.588264 352.84788 265.588264 
Q 354.714599 265.588264 355.730224 266.867951 
Q 356.745849 268.145608 356.745849 270.507951 
z
M 367.440634 271.326545 
Q 366.991728 271.326545 366.743915 271.716545 
Q 366.496103 272.106545 366.496103 272.831701 
Q 366.496103 273.56092 366.739853 273.95092 
Q 366.983603 274.34092 367.440634 274.34092 
Q 367.897665 274.34092 368.139384 273.95092 
Q 368.381103 273.56092 368.381103 272.831701 
Q 368.381103 272.106545 368.135322 271.716545 
Q 367.891572 271.326545 367.440634 271.326545 
z
M 367.440634 270.260139 
Q 368.622822 270.260139 369.301259 270.946701 
Q 369.979697 271.631233 369.979697 272.831701 
Q 369.979697 274.030139 369.301259 274.726858 
Q 368.622822 275.421545 367.440634 275.421545 
Q 366.260478 275.421545 365.577978 274.726858 
Q 364.895478 274.030139 364.895478 272.831701 
Q 364.895478 271.637326 365.577978 270.948733 
Q 366.260478 270.260139 367.440634 270.260139 
z
M 361.621103 275.421545 
L 360.217509 275.421545 
L 366.140634 265.588264 
L 367.550322 265.588264 
L 361.621103 275.421545 
z
M 360.319072 265.588264 
Q 361.499228 265.588264 362.175634 266.276858 
Q 362.85204 266.965451 362.85204 268.16592 
Q 362.85204 269.364358 362.175634 270.057014 
Q 361.499228 270.74967 360.319072 270.74967 
Q 359.138915 270.74967 358.462509 270.057014 
Q 357.786103 269.364358 357.786103 268.16592 
Q 357.786103 266.965451 358.462509 266.276858 
Q 359.138915 265.588264 360.319072 265.588264 
z
M 360.319072 266.65467 
Q 359.86204 266.65467 359.614228 267.048733 
Q 359.366415 267.440764 359.366415 268.16592 
Q 359.366415 268.895139 359.614228 269.293264 
Q 359.86204 269.689358 360.319072 269.689358 
Q 360.776103 269.689358 361.019853 269.293264 
Q 361.265634 268.895139 361.265634 268.16592 
Q 361.265634 267.440764 361.017822 267.048733 
Q 360.770009 266.65467 360.319072 266.65467 
z
" style="fill: #ffffff; stroke: #000000; stroke-width: 3"/>
    <path d="M 331.348115 270.126076 
Q 332.306865 270.373889 332.804521 270.987326 
Q 333.304208 271.598733 333.304208 272.545295 
Q 333.304208 273.954983 332.223583 274.688264 
Q 331.14499 275.421545 329.077177 275.421545 
Q 328.345927 275.421545 327.612646 275.303733 
Q 326.879365 275.18592 326.162333 274.950295 
L 326.162333 273.065295 
Q 326.848896 273.408576 327.523271 273.583264 
Q 328.199677 273.757951 328.85374 273.757951 
Q 329.824677 273.757951 330.342646 273.422795 
Q 330.860615 273.085608 330.860615 272.45592 
Q 330.860615 271.807951 330.330458 271.474826 
Q 329.800302 271.141701 328.764365 271.141701 
L 327.787333 271.141701 
L 327.787333 269.567483 
L 328.815146 269.567483 
Q 329.737333 269.567483 330.18624 269.279045 
Q 330.637177 268.990608 330.637177 268.399514 
Q 330.637177 267.855139 330.198427 267.556545 
Q 329.761708 267.257951 328.961396 267.257951 
Q 328.372333 267.257951 327.769052 267.392014 
Q 327.165771 267.524045 326.568583 267.784045 
L 326.568583 265.994514 
Q 327.291708 265.791389 328.002646 265.689826 
Q 328.713583 265.588264 329.400146 265.588264 
Q 331.246552 265.588264 332.162646 266.195608 
Q 333.080771 266.80092 333.080771 268.01967 
Q 333.080771 268.850451 332.642021 269.380608 
Q 332.205302 269.910764 331.348115 270.126076 
z
M 339.042743 270.558733 
Q 338.400868 270.558733 338.079931 270.975139 
Q 337.758993 271.389514 337.758993 272.222326 
Q 337.758993 273.053108 338.079931 273.469514 
Q 338.400868 273.883889 339.042743 273.883889 
Q 339.688681 273.883889 340.009618 273.469514 
Q 340.330556 273.053108 340.330556 272.222326 
Q 340.330556 271.389514 340.009618 270.975139 
Q 339.688681 270.558733 339.042743 270.558733 
z
M 342.063212 266.006701 
L 342.063212 267.75967 
Q 341.459931 267.473264 340.925712 267.33717 
Q 340.393525 267.201076 339.885712 267.201076 
Q 338.794931 267.201076 338.185556 267.80842 
Q 337.576181 268.413733 337.474618 269.606076 
Q 337.893056 269.295295 338.380556 269.14092 
Q 338.870087 268.984514 339.448993 268.984514 
Q 340.901337 268.984514 341.793056 269.835608 
Q 342.684775 270.68467 342.684775 272.061858 
Q 342.684775 273.585295 341.687431 274.50342 
Q 340.692118 275.421545 339.016337 275.421545 
Q 337.169931 275.421545 336.156337 274.174358 
Q 335.144775 272.925139 335.144775 270.633889 
Q 335.144775 268.285764 336.328993 266.943108 
Q 337.513212 265.600451 339.574931 265.600451 
Q 340.228993 265.600451 340.844462 265.702014 
Q 341.459931 265.803576 342.063212 266.006701 
z
M 344.710185 272.78092 
L 346.995341 272.78092 
L 346.995341 275.236701 
L 344.710185 275.236701 
L 344.710185 272.78092 
z
M 354.302255 270.487639 
Q 354.302255 268.710295 353.96913 267.985139 
Q 353.636005 267.257951 352.84788 267.257951 
Q 352.061786 267.257951 351.724599 267.985139 
Q 351.387411 268.710295 351.387411 270.487639 
Q 351.387411 272.285295 351.724599 273.022639 
Q 352.061786 273.757951 352.84788 273.757951 
Q 353.629911 273.757951 353.965068 273.022639 
Q 354.302255 272.285295 354.302255 270.487639 
z
M 356.745849 270.507951 
Q 356.745849 272.86217 355.730224 274.141858 
Q 354.714599 275.421545 352.84788 275.421545 
Q 350.975068 275.421545 349.959443 274.141858 
Q 348.943818 272.86217 348.943818 270.507951 
Q 348.943818 268.145608 349.959443 266.867951 
Q 350.975068 265.588264 352.84788 265.588264 
Q 354.714599 265.588264 355.730224 266.867951 
Q 356.745849 268.145608 356.745849 270.507951 
z
M 367.440634 271.326545 
Q 366.991728 271.326545 366.743915 271.716545 
Q 366.496103 272.106545 366.496103 272.831701 
Q 366.496103 273.56092 366.739853 273.95092 
Q 366.983603 274.34092 367.440634 274.34092 
Q 367.897665 274.34092 368.139384 273.95092 
Q 368.381103 273.56092 368.381103 272.831701 
Q 368.381103 272.106545 368.135322 271.716545 
Q 367.891572 271.326545 367.440634 271.326545 
z
M 367.440634 270.260139 
Q 368.622822 270.260139 369.301259 270.946701 
Q 369.979697 271.631233 369.979697 272.831701 
Q 369.979697 274.030139 369.301259 274.726858 
Q 368.622822 275.421545 367.440634 275.421545 
Q 366.260478 275.421545 365.577978 274.726858 
Q 364.895478 274.030139 364.895478 272.831701 
Q 364.895478 271.637326 365.577978 270.948733 
Q 366.260478 270.260139 367.440634 270.260139 
z
M 361.621103 275.421545 
L 360.217509 275.421545 
L 366.140634 265.588264 
L 367.550322 265.588264 
L 361.621103 275.421545 
z
M 360.319072 265.588264 
Q 361.499228 265.588264 362.175634 266.276858 
Q 362.85204 266.965451 362.85204 268.16592 
Q 362.85204 269.364358 362.175634 270.057014 
Q 361.499228 270.74967 360.319072 270.74967 
Q 359.138915 270.74967 358.462509 270.057014 
Q 357.786103 269.364358 357.786103 268.16592 
Q 357.786103 266.965451 358.462509 266.276858 
Q 359.138915 265.588264 360.319072 265.588264 
z
M 360.319072 266.65467 
Q 359.86204 266.65467 359.614228 267.048733 
Q 359.366415 267.440764 359.366415 268.16592 
Q 359.366415 268.895139 359.614228 269.293264 
Q 359.86204 269.689358 360.319072 269.689358 
Q 360.776103 269.689358 361.019853 269.293264 
Q 361.265634 268.895139 361.265634 268.16592 
Q 361.265634 267.440764 361.017822 267.048733 
Q 360.770009 266.65467 360.319072 266.65467 
z
" style="fill: #ffffff"/>
   </g>
   <g id="text_5">
    <!-- Distribución por Sexo -->
    <g transform="translate(129.431248 70.750587) scale(0.2 -0.2)">
     <defs>
      <path id="DejaVuSans-Bold-44" d="M 1791 3756 
L 1791 909 
L 2222 909 
Q 2959 909 3348 1275 
Q 3738 1641 3738 2338 
Q 3738 3031 3350 3393 
Q 2963 3756 2222 3756 
L 1791 3756 
z
M 588 4666 
L 1856 4666 
Q 2919 4666 3439 4514 
Q 3959 4363 4331 4000 
Q 4659 3684 4818 3271 
Q 4978 2859 4978 2338 
Q 4978 1809 4818 1395 
Q 4659 981 4331 666 
Q 3956 303 3431 151 
Q 2906 0 1856 0 
L 588 0 
L 588 4666 
z
" transform="scale(0.015625)"/>
      <path id="DejaVuSans-Bold-74" d="M 1759 4494 
L 1759 3500 
L 2913 3500 
L 2913 2700 
L 1759 2700 
L 1759 1216 
Q 1759 972 1856 886 
Q 1953 800 2241 800 
L 2816 800 
L 2816 0 
L 1856 0 
Q 1194 0 917 276 
Q 641 553 641 1216 
L 641 2700 
L 84 2700 
L 84 3500 
L 641 3500 
L 641 4494 
L 1759 4494 
z
" transform="scale(0.015625)"/>
      <path id="DejaVuSans-Bold-72" d="M 3138 2547 
Q 2991 2616 2845 2648 
Q 2700 2681 2553 2681 
Q 2122 2681 1889 2404 
Q 1656 2128 1656 1613 
L 1656 0 
L 538 0 
L 538 3500 
L 1656 3500 
L 1656 2925 
Q 1872 3269 2151 3426 
Q 2431 3584 2822 3584 
Q 2878 3584 2943 3579 
Q 3009 3575 3134 3559 
L 3138 2547 
z
" transform="scale(0.015625)"/>
      <path id="DejaVuSans-Bold-62" d="M 2400 722 
Q 2759 722 2948 984 
Q 3138 1247 3138 1747 
Q 3138 2247 2948 2509 
Q 2759 2772 2400 2772 
Q 2041 2772 1848 2508 
Q 1656 2244 1656 1747 
Q 1656 1250 1848 986 
Q 2041 722 2400 722 
z
M 1656 2988 
Q 1888 3294 2169 3439 
Q 2450 3584 2816 3584 
Q 3463 3584 3878 3070 
Q 4294 2556 4294 1747 
Q 4294 938 3878 423 
Q 3463 -91 2816 -91 
Q 2450 -91 2169 54 
Q 1888 200 1656 506 
L 1656 0 
L 538 0 
L 538 4863 
L 1656 4863 
L 1656 2988 
z
" transform="scale(0.015625)"/>
      <path id="DejaVuSans-Bold-f3" d="M 2203 2784 
Q 1831 2784 1636 2517 
Q 1441 2250 1441 1747 
Q 1441 1244 1636 976 
Q 1831 709 2203 709 
Q 2569 709 2762 976 
Q 2956 1244 2956 1747 
Q 2956 2250 2762 2517 
Q 2569 2784 2203 2784 
z
M 2203 3584 
Q 3106 3584 3614 3096 
Q 4122 2609 4122 1747 
Q 4122 884 3614 396 
Q 3106 -91 2203 -91 
Q 1297 -91 786 396 
Q 275 884 275 1747 
Q 275 2609 786 3096 
Q 1297 3584 2203 3584 
z
M 2694 5119 
L 3578 5119 
L 2425 3944 
L 1813 3944 
L 2694 5119 
z
" transform="scale(0.015625)"/>
      <path id="DejaVuSans-Bold-20" transform="scale(0.015625)"/>
      <path id="DejaVuSans-Bold-70" d="M 1656 506 
L 1656 -1331 
L 538 -1331 
L 538 3500 
L 1656 3500 
L 1656 2988 
Q 1888 3294 2169 3439 
Q 2450 3584 2816 3584 
Q 3463 3584 3878 3070 
Q 4294 2556 4294 1747 
Q 4294 938 3878 423 
Q 3463 -91 2816 -91 
Q 2450 -91 2169 54 
Q 1888 200 1656 506 
z
M 2400 2772 
Q 2041 2772 1848 2508 
Q 1656 2244 1656 1747 
Q 1656 1250 1848 986 
Q 2041 722 2400 722 
Q 2759 722 2948 984 
Q 3138 1247 3138 1747 
Q 3138 2247 2948 2509 
Q 2759 2772 2400 2772 
z
" transform="scale(0.015625)"/>
      <path id="DejaVuSans-Bold-53" d="M 3834 4519 
L 3834 3531 
Q 3450 3703 3084 3790 
Q 2719 3878 2394 3878 
Q 1963 3878 1756 3759 
Q 1550 3641 1550 3391 
Q 1550 3203 1689 3098 
Q 1828 2994 2194 2919 
L 2706 2816 
Q 3484 2659 3812 2340 
Q 4141 2022 4141 1434 
Q 4141 663 3683 286 
Q 3225 -91 2284 -91 
Q 1841 -91 1394 -6 
Q 947 78 500 244 
L 500 1259 
Q 947 1022 1364 901 
Q 1781 781 2169 781 
Q 2563 781 2772 912 
Q 2981 1044 2981 1288 
Q 2981 1506 2839 1625 
Q 2697 1744 2272 1838 
L 1806 1941 
Q 1106 2091 782 2419 
Q 459 2747 459 3303 
Q 459 4000 909 4375 
Q 1359 4750 2203 4750 
Q 2588 4750 2994 4692 
Q 3400 4634 3834 4519 
z
" transform="scale(0.015625)"/>
      <path id="DejaVuSans-Bold-78" d="M 1422 1791 
L 159 3500 
L 1344 3500 
L 2059 2463 
L 2784 3500 
L 3969 3500 
L 2706 1797 
L 4031 0 
L 2847 0 
L 2059 1106 
L 1281 0 
L 97 0 
L 1422 1791 
z
" transform="scale(0.015625)"/>
     </defs>
     <use xlink:href="#DejaVuSans-Bold-44"/>
     <use xlink:href="#DejaVuSans-Bold-69" transform="translate(83.007812 0)"/>
     <use xlink:href="#DejaVuSans-Bold-73" transform="translate(117.285156 0)"/>
     <use xlink:href="#DejaVuSans-Bold-74" transform="translate(176.806641 0)"/>
     <use xlink:href="#DejaVuSans-Bold-72" transform="translate(224.609375 0)"/>
     <use xlink:href="#DejaVuSans-Bold-69" transform="translate(273.925781 0)"/>
     <use xlink:href="#DejaVuSans-Bold-62" transform="translate(308.203125 0)"/>
     <use xlink:href="#DejaVuSans-Bold-75" transform="translate(379.785156 0)"/>
     <use xlink:href="#DejaVuSans-Bold-63" transform="translate(450.976562 0)"/>
     <use xlink:href="#DejaVuSans-Bold-69" transform="translate(510.253906 0)"/>
     <use xlink:href="#DejaVuSans-Bold-f3" transform="translate(544.53125 0)"/>
     <use xlink:href="#DejaVuSans-Bold-6e" transform="translate(613.232422 0)"/>
     <use xlink:href="#DejaVuSans-Bold-20" transform="translate(684.423828 0)"/>
     <use xlink:href="#DejaVuSans-Bold-70" transform="translate(719.238281 0)"/>
     <use xlink:href="#DejaVuSans-Bold-6f" transform="translate(790.820312 0)"/>
     <use xlink:href="#DejaVuSans-Bold-72" transform="translate(859.521484 0)"/>
     <use xlink:href="#DejaVuSans-Bold-20" transform="translate(908.837891 0)"/>
     <use xlink:href="#DejaVuSans-Bold-53" transform="translate(943.652344 0)"/>
     <use xlink:href="#DejaVuSans-Bold-65" transform="translate(1015.673828 0)"/>
     <use xlink:href="#DejaVuSans-Bold-78" transform="translate(1083.496094 0)"/>
     <use xlink:href="#DejaVuSans-Bold-6f" transform="translate(1147.998047 0)"/>
    </g>
   </g>
  </g>
 </g>
</svg>
